<svg width="46" height="54" viewBox="0 0 46 54" fill="none" xmlns="http://www.w3.org/2000/svg">
<g filter="url(#filter0_f_1_638)">
<path d="M13.2383 50.5307C13.2279 50.5361 12.1616 50.5342 12.0989 50.5344C10.0578 50.5344 8.19227 49.4979 7.10862 47.7617C6.29384 46.4564 6.21108 44.8232 6.88723 43.3931C7.44036 42.2237 7.60619 40.9333 7.36696 39.6615L6.78692 36.5789C6.62822 35.7351 6.53112 34.8753 6.49573 34.0162C6.98959 33.7284 7.36286 33.2556 7.5205 32.693C9.22951 32.3024 10.4494 31.0917 10.4966 29.6638C10.51 29.2595 10.1937 28.921 9.79004 28.9075C9.3886 28.8947 9.04857 29.211 9.03512 29.6153C9.01231 30.3042 8.35117 30.9267 7.41794 31.2052C7.26616 30.8574 7.0281 30.5561 6.73097 30.3279C7.04818 28.62 7.84795 27.062 9.05666 25.8065C9.97575 24.8516 10.4819 23.5952 10.4819 22.2688V19.3256C10.4819 18.921 10.1546 18.5931 9.75076 18.5931C9.34688 18.5931 9.01962 18.921 9.01962 19.3256V22.2688C9.01962 23.214 8.65893 24.1092 8.00402 24.7896C7.56397 25.2467 7.1717 25.739 6.82718 26.2594C6.67179 26.241 6.51504 26.2285 6.35799 26.2233C5.26596 26.1867 4.21868 26.4696 3.41141 27.019C2.53278 27.6168 2.03209 28.4561 2.00148 29.3818C1.97146 30.2886 2.39854 31.1389 3.18631 31.7796C3.17179 31.882 3.16389 31.9865 3.16389 32.093C3.16389 33.2036 3.98091 34.1265 5.04457 34.2905C5.08942 35.1489 5.19119 36.0069 5.3498 36.85L5.92983 39.9326C6.11145 40.8982 5.9855 41.878 5.56563 42.7659C4.67501 44.6495 4.78829 46.8073 5.86861 48.5382C7.22122 50.7051 9.55033 51.999 12.0988 51.999C12.6578 51.9959 12.7307 52.0057 13.2914 51.9943C13.6949 51.9796 14.0101 51.6399 13.9954 51.2356C13.9808 50.8317 13.6424 50.5176 13.2383 50.5307ZM4.23321 28.2309C4.7141 27.9036 5.35955 27.7111 6.03707 27.6881C5.72278 28.3826 5.48647 29.1137 5.33137 29.8711C4.77951 29.884 4.27678 30.0989 3.89474 30.4457C3.60462 30.1384 3.45128 29.7865 3.46317 29.4308C3.48296 28.8292 3.9542 28.4208 4.23321 28.2309ZM4.62627 32.0932C4.62627 31.6749 4.966 31.3345 5.38363 31.3345C5.80125 31.3345 6.14099 31.6748 6.14099 32.0932C6.14099 32.5115 5.80125 32.8518 5.38363 32.8518C4.966 32.8518 4.62627 32.5115 4.62627 32.0932Z" fill="#FF7EFA"/>
<path d="M12.5492 23.711L12.5571 23.7489C12.8979 25.3477 14.03 26.6539 15.5855 27.2427L15.9363 27.3754C16.3755 27.5678 16.719 28.0229 16.5273 28.6871C16.3354 29.1269 15.8809 29.4711 15.2181 29.2791L13.5841 28.6605C13.2067 28.5176 12.7845 28.7081 12.6417 29.0867C12.4989 29.465 12.6894 29.8876 13.0671 30.0307L14.7011 30.6493C15.1801 30.8275 15.9217 30.8992 16.5967 30.5899C17.2 30.317 17.6612 29.8251 17.895 29.2048C18.129 28.5846 18.1081 27.9102 17.8357 27.306C17.5633 26.7017 17.0724 26.2397 16.4531 26.0053L16.1024 25.8726C15.0143 25.4607 14.2236 24.5524 13.9857 23.4372L13.9819 23.4186C13.8823 22.938 13.8252 22.4526 13.8079 21.967C15.0204 21.5292 16.3282 21.3951 17.6197 21.5816C21.8178 22.1876 24.8286 26.1177 24.3312 30.3426C24.187 31.5665 23.7756 32.7066 23.1084 33.7312C22.8878 34.07 22.9833 34.5237 23.3215 34.7448C23.4448 34.8253 23.5833 34.8639 23.7203 34.8639C23.959 34.8639 24.1932 34.7469 24.3333 34.5315C25.1247 33.3161 25.6126 31.9645 25.7834 30.5143C26.3729 25.5076 22.8042 20.85 17.8282 20.1318C16.5036 19.9404 15.1636 20.0346 13.8944 20.4005C13.9904 19.7467 14.1601 19.1014 14.405 18.4763C14.8217 17.4128 15.4223 16.4787 16.1546 15.6942C17.8037 17.2693 19.6538 18.6304 21.6645 19.7444C24.5875 21.3639 27.7517 22.4394 31.0798 22.9467C30.9886 23.5523 30.8329 24.1495 30.6125 24.7337C30.4697 25.112 30.6602 25.5346 31.038 25.6777C31.4154 25.8208 31.8375 25.63 31.9804 25.2515C32.4838 23.9174 32.7001 22.5241 32.6234 21.1107C32.3992 16.986 29.7391 13.4356 25.8463 12.0658C23.358 11.19 20.6646 11.315 18.2628 12.4175C17.2941 12.8621 16.4166 13.4487 15.6488 14.1491C15.6469 14.1509 15.6448 14.1525 15.643 14.1543C15.6428 14.1545 15.6426 14.1547 15.6424 14.1549C14.5094 15.1903 13.6179 16.4764 13.0438 17.9412C12.6041 19.0636 12.3698 20.2418 12.3425 21.426C12.3262 22.0351 12.3835 22.9053 12.5492 23.711ZM25.3617 13.4476C27.8137 14.3104 29.693 16.1843 30.592 18.5204C29.1041 18.2268 27.6542 17.799 26.2693 17.2397C25.8947 17.0885 25.4688 17.2699 25.3177 17.645C25.1667 18.0201 25.348 18.447 25.7224 18.5982C27.4162 19.2824 29.2005 19.7817 31.0322 20.0896C31.1067 20.588 31.1502 20.7617 31.1733 21.4777C28.0631 20.9888 25.1057 19.977 22.372 18.4624C20.5036 17.4273 18.7819 16.1668 17.2436 14.7106C17.6079 14.4338 17.9923 14.187 18.3937 13.9723C19.6292 15.1138 20.9982 16.1314 22.4725 16.9984C22.5888 17.0667 22.7162 17.0992 22.8419 17.0992C23.0927 17.0992 23.337 16.9698 23.4731 16.7375C23.6776 16.3887 23.561 15.9399 23.2128 15.7351C22.0254 15.0367 20.9114 14.2347 19.887 13.3453C21.6115 12.8048 23.5194 12.7993 25.3617 13.4476Z" fill="#FF7EFA"/>
<path d="M18.0789 40.0276C18.4293 39.1569 19.1179 38.4612 19.9681 38.1189C20.5409 37.8883 21.0939 37.5991 21.6113 37.2595C21.9491 37.0378 22.0436 36.5838 21.8222 36.2454C21.6008 35.907 21.1477 35.8125 20.8099 36.0342C20.373 36.321 19.9062 36.5651 19.4228 36.7598C18.2054 37.2499 17.2212 38.2414 16.7226 39.4799C16.5198 39.9839 16.1331 40.3786 15.6339 40.5913C15.1346 40.8041 14.5826 40.809 14.0795 40.6058C13.5764 40.4026 13.1824 40.0153 12.9701 39.5152C12.7577 39.0151 12.7526 38.4622 12.9554 37.9582L13.6824 36.152C13.8334 35.7768 13.6522 35.3501 13.2777 35.1988C12.9033 35.0476 12.4772 35.2292 12.3262 35.6042L11.5992 37.4103C10.8789 39.1999 11.7463 41.2428 13.5327 41.9644C13.9551 42.135 14.3974 42.2202 14.8395 42.2202C15.3033 42.2202 15.7667 42.1264 16.2063 41.9391C17.0649 41.5735 17.73 40.8945 18.0789 40.0276Z" fill="#FF7EFA"/>
<path d="M43.4393 19.9107L38.6782 17.157C38.3324 16.9571 37.903 16.9569 37.557 17.1568C37.2112 17.3568 36.9964 17.7295 36.9964 18.1295V18.9333C36.6287 18.9654 36.2632 18.9841 35.8693 18.9913C35.8715 18.8492 35.8751 18.7072 35.8751 18.5648C35.8103 12.3498 30.8407 7.66323 24.3155 7.66323C21.5891 7.66323 18.6037 7.87162 15.9961 8.868C15.7211 8.43705 15.4648 7.9977 15.2292 7.55327L15.7815 7.29467C16.1432 7.12544 16.3892 6.77261 16.4236 6.37417C16.4581 5.97574 16.2762 5.58589 15.9491 5.35679H15.949L11.4426 2.20213C11.1155 1.97303 10.6876 1.93582 10.3257 2.10515C9.96397 2.27449 9.71792 2.62732 9.6835 3.02575L9.20924 8.51283C9.17473 8.91126 9.35674 9.30111 9.68389 9.5303C9.98785 9.68314 10.2362 9.8388 10.8008 9.62718L11.3467 9.37161C11.6567 9.96741 11.9825 10.5225 12.3646 11.1065C11.2086 12.2109 10.276 13.6597 9.68224 15.5584C9.56155 15.9444 9.77602 16.3554 10.1614 16.4763C10.5464 16.5969 10.9569 16.3822 11.0776 15.9963C12.5831 11.1822 16.5422 9.12826 24.3155 9.12826C30.0157 9.12826 34.3567 13.1917 34.4128 18.5726C34.4128 26.1182 31.1659 33.3005 25.5047 38.2781L20.2713 42.8792C20.2657 42.8842 20.2602 42.8892 20.2547 42.8943C19.2552 43.8289 18.5655 45.0288 18.26 46.3641C17.9619 47.6676 17.1943 48.8066 16.0985 49.5716C15.7672 49.8027 15.6858 50.2592 15.9166 50.5911C16.0586 50.7955 16.286 50.9049 16.5171 50.9049C16.6613 50.9049 16.8071 50.8622 16.9343 50.7733C18.3291 49.7999 19.3061 48.3502 19.6854 46.6911C19.9245 45.6455 20.4635 44.7058 21.2445 43.9724L26.4692 39.3788C31.2524 35.1733 34.4011 29.4765 35.4693 23.282C35.4951 23.2821 35.521 23.2825 35.5469 23.2825C36.0264 23.2825 36.5115 23.2698 36.9964 23.247V23.637C36.9964 24.037 37.2111 24.4096 37.5569 24.6096C37.7297 24.7095 37.9236 24.7596 38.1174 24.7595C38.3112 24.7595 38.5051 24.7095 38.678 24.6096L43.4393 21.8558C43.7852 21.6557 44 21.2831 43.9999 20.8831C43.9999 20.4833 43.7851 20.1106 43.4393 19.9107ZM10.7169 8.04936L11.0892 3.74196L14.6269 6.21861L10.7169 8.04936ZM12.672 8.75091L13.9027 8.17465C14.1332 8.6139 14.3828 9.04857 14.649 9.47571C14.2535 9.68431 13.8708 9.91614 13.5035 10.1736C13.1945 9.69456 12.9279 9.23939 12.672 8.75091ZM35.682 21.816C35.7351 21.3652 35.7771 20.9124 35.8081 20.4577C36.2227 20.4516 36.6108 20.4338 36.9964 20.4031V21.7814C36.5569 21.8029 36.1172 21.8138 35.682 21.816ZM38.4587 23.0451V18.7216L42.1965 20.8834L38.4587 23.0451Z" fill="#FF7EFA"/>
<path d="M12.0774 43.7944C10.822 43.7944 9.80078 44.8176 9.80078 46.0751C9.80078 47.3326 10.822 48.3558 12.0774 48.3558C13.3327 48.3558 14.3541 47.3326 14.3541 46.0751C14.3541 44.8176 13.3327 43.7944 12.0774 43.7944ZM12.0774 46.8908C11.6285 46.8908 11.2631 46.5249 11.2631 46.075C11.2631 45.6251 11.6284 45.2592 12.0774 45.2592C12.5264 45.2592 12.8918 45.6251 12.8918 46.075C12.8918 46.5249 12.5264 46.8908 12.0774 46.8908Z" fill="#FF7EFA"/>
</g>
<defs>
<filter id="filter0_f_1_638" x="0.5" y="0.5" width="45" height="53" filterUnits="userSpaceOnUse" color-interpolation-filters="sRGB">
<feFlood flood-opacity="0" result="BackgroundImageFix"/>
<feBlend mode="normal" in="SourceGraphic" in2="BackgroundImageFix" result="shape"/>
<feGaussianBlur stdDeviation="0.75" result="effect1_foregroundBlur_1_638"/>
</filter>
</defs>
</svg>
