<svg width="208" height="238" viewBox="0 0 208 238" fill="none" xmlns="http://www.w3.org/2000/svg">
<g filter="url(#filter0_d_63_1195)">
<rect x="2" y="2" width="200" height="230" fill="#EDEDED"/>
</g>
<mask id="mask0_63_1195" style="mask-type:alpha" maskUnits="userSpaceOnUse" x="2" y="2" width="200" height="230">
<rect x="2" y="2" width="200" height="230" fill="#EDEDED"/>
</mask>
<g mask="url(#mask0_63_1195)">
<path d="M-48.9678 202H-51.0454L-52 201.026V198.966L-51.0454 198H-48.9678L-48.1095 198.871L-48.8475 199.315L-49.3288 198.824H-50.6844L-51.1577 199.315V200.693L-50.6844 201.176H-49.3288L-48.8475 200.685L-48.1336 201.152L-48.9678 202Z" fill="#C3D5E2"/>
<path d="M-44.3104 202H-47.0778V198.04H-44.2302L-43.3959 198.626V199.648L-43.9093 199.949V199.972L-43.3558 200.281V201.343L-44.3104 202ZM-46.2516 198.832V199.624H-44.559L-44.2221 199.378V199.069L-44.559 198.832H-46.2516ZM-46.2516 200.345V201.2H-44.5751L-44.182 200.923V200.622L-44.5751 200.345H-46.2516Z" fill="#C3D5E2"/>
<path d="M-41.7305 202H-42.3642V201.398L-41.0246 200.59V200.558H-41.4578L-42.3963 199.972V198.665L-41.4738 198H-38.5299V202H-39.3722V200.582H-39.9417L-41.7305 202ZM-41.5541 199.56L-41.177 199.806H-39.3722V198.808H-41.177L-41.5541 199.069V199.56Z" fill="#C3D5E2"/>
<path d="M-35.18 202H-36.0463L-36.0142 198.816H-37.7469V198H-33.4794V198.816H-35.204L-35.18 202Z" fill="#C3D5E2"/>
<path d="M-32.0386 202H-33.0092V201.192H-32.536L-32.2873 200.804V198H-28.9102V202H-29.7524V198.816H-31.453V201.01L-32.0386 202Z" fill="#C3D5E2"/>
<path d="M-25.0228 202H-26.964L-27.9186 201.026V198.966L-26.964 198H-25.0228L-24.0682 198.966V201.026L-25.0228 202ZM-27.0844 200.685L-26.6031 201.176H-25.3838L-24.9025 200.685V199.315L-25.3838 198.824H-26.6031L-27.0844 199.315V200.685Z" fill="#C3D5E2"/>
<path d="M-21.352 202H-22.3868V200.962H-21.352V202Z" fill="#C3D5E2"/>
<path d="M-15.2988 202H-17.3764L-18.331 201.026V198.966L-17.3764 198H-15.2988L-14.4405 198.871L-15.1785 199.315L-15.6598 198.824H-17.0154L-17.4887 199.315V200.693L-17.0154 201.176H-15.6598L-15.1785 200.685L-14.4646 201.152L-15.2988 202Z" fill="#C3D5E2"/>
<path d="M-10.6414 202H-13.4088V198.04H-10.5611L-9.72689 198.626V199.648L-10.2403 199.949V199.972L-9.68679 200.281V201.343L-10.6414 202ZM-12.5826 198.832V199.624H-10.89L-10.5531 199.378V199.069L-10.89 198.832H-12.5826ZM-12.5826 200.345V201.2H-10.9061L-10.513 200.923V200.622L-10.9061 200.345H-12.5826Z" fill="#C3D5E2"/>
<path d="M-8.06153 202H-8.69524V201.398L-7.35562 200.59V200.558H-7.78879L-8.72732 199.972V198.665L-7.80483 198H-4.86089V202H-5.70316V200.582H-6.2727L-8.06153 202ZM-7.88505 199.56L-7.50803 199.806H-5.70316V198.808H-7.50803L-7.88505 199.069V199.56Z" fill="#C3D5E2"/>
<path d="M-1.51097 202H-2.37731L-2.34522 198.816H-4.0779V198H0.189625V198.816H-1.53503L-1.51097 202Z" fill="#C3D5E2"/>
<path d="M1.63039 202H0.659763V201.192H1.13304L1.38171 200.804V198H4.75883V202H3.91656V198.816H2.21597V201.01L1.63039 202Z" fill="#C3D5E2"/>
<path d="M8.6462 202H6.70496L5.75038 201.026V198.966L6.70496 198H8.6462L9.60078 198.966V201.026L8.6462 202ZM6.58463 200.685L7.06593 201.176H8.28522L8.76652 200.685V199.315L8.28522 198.824H7.06593L6.58463 199.315V200.685Z" fill="#C3D5E2"/>
<path d="M12.317 202H11.2822V200.962H12.317V202Z" fill="#C3D5E2"/>
<path d="M18.3702 202H16.2926L15.338 201.026V198.966L16.2926 198H18.3702L19.2285 198.871L18.4905 199.315L18.0092 198.824H16.6536L16.1803 199.315V200.693L16.6536 201.176H18.0092L18.4905 200.685L19.2045 201.152L18.3702 202Z" fill="#C3D5E2"/>
<path d="M23.0276 202H20.2602V198.04H23.1079L23.9421 198.626V199.648L23.4287 199.949V199.972L23.9822 200.281V201.343L23.0276 202ZM21.0864 198.832V199.624H22.779L23.1159 199.378V199.069L22.779 198.832H21.0864ZM21.0864 200.345V201.2H22.7629L23.156 200.923V200.622L22.7629 200.345H21.0864Z" fill="#C3D5E2"/>
<path d="M25.6075 202H24.9738V201.398L26.3134 200.59V200.558H25.8802L24.9417 199.972V198.665L25.8642 198H28.8081V202H27.9658V200.582H27.3963L25.6075 202ZM25.784 199.56L26.161 199.806H27.9658V198.808H26.161L25.784 199.069V199.56Z" fill="#C3D5E2"/>
<path d="M32.158 202H31.2917L31.3238 198.816H29.5911V198H33.8586V198.816H32.134L32.158 202Z" fill="#C3D5E2"/>
<path d="M35.2994 202H34.3288V201.192H34.802L35.0507 200.804V198H38.4278V202H37.5856V198.816H35.885V201.01L35.2994 202Z" fill="#C3D5E2"/>
<path d="M42.3152 202H40.374L39.4194 201.026V198.966L40.374 198H42.3152L43.2698 198.966V201.026L42.3152 202ZM40.2536 200.685L40.7349 201.176H41.9542L42.4355 200.685V199.315L41.9542 198.824H40.7349L40.2536 199.315V200.685Z" fill="#C3D5E2"/>
<path d="M45.986 202H44.9512V200.962H45.986V202Z" fill="#C3D5E2"/>
<path d="M52.0392 202H49.9616L49.007 201.026V198.966L49.9616 198H52.0392L52.8975 198.871L52.1595 199.315L51.6782 198.824H50.3226L49.8493 199.315V200.693L50.3226 201.176H51.6782L52.1595 200.685L52.8735 201.152L52.0392 202Z" fill="#C3D5E2"/>
<path d="M56.6966 202H53.9292V198.04H56.7769L57.6111 198.626V199.648L57.0977 199.949V199.972L57.6512 200.281V201.343L56.6966 202ZM54.7554 198.832V199.624H56.448L56.7849 199.378V199.069L56.448 198.832H54.7554ZM54.7554 200.345V201.2H56.4319L56.825 200.923V200.622L56.4319 200.345H54.7554Z" fill="#C3D5E2"/>
<path d="M59.2765 202H58.6428V201.398L59.9824 200.59V200.558H59.5492L58.6107 199.972V198.665L59.5332 198H62.4771V202H61.6348V200.582H61.0653L59.2765 202ZM59.453 199.56L59.83 199.806H61.6348V198.808H59.83L59.453 199.069V199.56Z" fill="#C3D5E2"/>
<path d="M65.827 202H64.9607L64.9928 198.816H63.2601V198H67.5276V198.816H65.803L65.827 202Z" fill="#C3D5E2"/>
<path d="M68.9684 202H67.9978V201.192H68.4711L68.7197 200.804V198H72.0968V202H71.2546V198.816H69.554V201.01L68.9684 202Z" fill="#C3D5E2"/>
<path d="M75.9842 202H74.043L73.0884 201.026V198.966L74.043 198H75.9842L76.9388 198.966V201.026L75.9842 202ZM73.9226 200.685L74.4039 201.176H75.6232L76.1045 200.685V199.315L75.6232 198.824H74.4039L73.9226 199.315V200.685Z" fill="#C3D5E2"/>
<path d="M79.655 202H78.6202V200.962H79.655V202Z" fill="#C3D5E2"/>
<path d="M85.7082 202H83.6306L82.676 201.026V198.966L83.6306 198H85.7082L86.5665 198.871L85.8285 199.315L85.3472 198.824H83.9916L83.5183 199.315V200.693L83.9916 201.176H85.3472L85.8285 200.685L86.5425 201.152L85.7082 202Z" fill="#C3D5E2"/>
<path d="M90.3656 202H87.5982V198.04H90.4459L91.2801 198.626V199.648L90.7667 199.949V199.972L91.3202 200.281V201.343L90.3656 202ZM88.4244 198.832V199.624H90.117L90.4539 199.378V199.069L90.117 198.832H88.4244ZM88.4244 200.345V201.2H90.1009L90.494 200.923V200.622L90.1009 200.345H88.4244Z" fill="#C3D5E2"/>
<path d="M92.9455 202H92.3118V201.398L93.6514 200.59V200.558H93.2182L92.2797 199.972V198.665L93.2022 198H96.1461V202H95.3038V200.582H94.7343L92.9455 202ZM93.122 199.56L93.499 199.806H95.3038V198.808H93.499L93.122 199.069V199.56Z" fill="#C3D5E2"/>
<path d="M99.496 202H98.6297L98.6618 198.816H96.9291V198H101.197V198.816H99.472L99.496 202Z" fill="#C3D5E2"/>
<path d="M102.637 202H101.667V201.192H102.14L102.389 200.804V198H105.766V202H104.924V198.816H103.223V201.01L102.637 202Z" fill="#C3D5E2"/>
<path d="M109.653 202H107.712L106.757 201.026V198.966L107.712 198H109.653L110.608 198.966V201.026L109.653 202ZM107.592 200.685L108.073 201.176H109.292L109.774 200.685V199.315L109.292 198.824H108.073L107.592 199.315V200.685Z" fill="#C3D5E2"/>
<path d="M113.324 202H112.289V200.962H113.324V202Z" fill="#C3D5E2"/>
<path d="M119.377 202H117.3L116.345 201.026V198.966L117.3 198H119.377L120.236 198.871L119.498 199.315L119.016 198.824H117.661L117.187 199.315V200.693L117.661 201.176H119.016L119.498 200.685L120.211 201.152L119.377 202Z" fill="#C3D5E2"/>
<path d="M124.035 202H121.267V198.04H124.115L124.949 198.626V199.648L124.436 199.949V199.972L124.989 200.281V201.343L124.035 202ZM122.093 198.832V199.624H123.786L124.123 199.378V199.069L123.786 198.832H122.093ZM122.093 200.345V201.2H123.77L124.163 200.923V200.622L123.77 200.345H122.093Z" fill="#C3D5E2"/>
<path d="M126.614 202H125.981V201.398L127.32 200.59V200.558H126.887L125.949 199.972V198.665L126.871 198H129.815V202H128.973V200.582H128.403L126.614 202ZM126.791 199.56L127.168 199.806H128.973V198.808H127.168L126.791 199.069V199.56Z" fill="#C3D5E2"/>
<path d="M133.165 202H132.299L132.331 198.816H130.598V198H134.866V198.816H133.141L133.165 202Z" fill="#C3D5E2"/>
<path d="M136.306 202H135.336V201.192H135.809L136.058 200.804V198H139.435V202H138.593V198.816H136.892V201.01L136.306 202Z" fill="#C3D5E2"/>
<path d="M143.322 202H141.381L140.426 201.026V198.966L141.381 198H143.322L144.277 198.966V201.026L143.322 202ZM141.261 200.685L141.742 201.176H142.961L143.443 200.685V199.315L142.961 198.824H141.742L141.261 199.315V200.685Z" fill="#C3D5E2"/>
<path d="M146.993 202H145.958V200.962H146.993V202Z" fill="#C3D5E2"/>
<path d="M153.046 202H150.969L150.014 201.026V198.966L150.969 198H153.046L153.905 198.871L153.167 199.315L152.685 198.824H151.33L150.856 199.315V200.693L151.33 201.176H152.685L153.167 200.685L153.88 201.152L153.046 202Z" fill="#C3D5E2"/>
<path d="M157.704 202H154.936V198.04H157.784L158.618 198.626V199.648L158.105 199.949V199.972L158.658 200.281V201.343L157.704 202ZM155.762 198.832V199.624H157.455L157.792 199.378V199.069L157.455 198.832H155.762ZM155.762 200.345V201.2H157.439L157.832 200.923V200.622L157.439 200.345H155.762Z" fill="#C3D5E2"/>
<path d="M160.283 202H159.65V201.398L160.989 200.59V200.558H160.556L159.618 199.972V198.665L160.54 198H163.484V202H162.642V200.582H162.072L160.283 202ZM160.46 199.56L160.837 199.806H162.642V198.808H160.837L160.46 199.069V199.56Z" fill="#C3D5E2"/>
<path d="M166.834 202H165.968L166 198.816H164.267V198H168.535V198.816H166.81L166.834 202Z" fill="#C3D5E2"/>
<path d="M169.975 202H169.005V201.192H169.478L169.727 200.804V198H173.104V202H172.262V198.816H170.561V201.01L169.975 202Z" fill="#C3D5E2"/>
<path d="M176.991 202H175.05L174.095 201.026V198.966L175.05 198H176.991L177.946 198.966V201.026L176.991 202ZM174.93 200.685L175.411 201.176H176.63L177.112 200.685V199.315L176.63 198.824H175.411L174.93 199.315V200.685Z" fill="#C3D5E2"/>
<path d="M180.662 202H179.627V200.962H180.662V202Z" fill="#C3D5E2"/>
<path d="M186.715 202H184.638L183.683 201.026V198.966L184.638 198H186.715L187.574 198.871L186.836 199.315L186.354 198.824H184.999L184.525 199.315V200.693L184.999 201.176H186.354L186.836 200.685L187.549 201.152L186.715 202Z" fill="#C3D5E2"/>
<path d="M191.373 202H188.605V198.04H191.453L192.287 198.626V199.648L191.774 199.949V199.972L192.327 200.281V201.343L191.373 202ZM189.431 198.832V199.624H191.124L191.461 199.378V199.069L191.124 198.832H189.431ZM189.431 200.345V201.2H191.108L191.501 200.923V200.622L191.108 200.345H189.431Z" fill="#C3D5E2"/>
<path d="M193.952 202H193.319V201.398L194.658 200.59V200.558H194.225L193.287 199.972V198.665L194.209 198H197.153V202H196.311V200.582H195.741L193.952 202ZM194.129 199.56L194.506 199.806H196.311V198.808H194.506L194.129 199.069V199.56Z" fill="#C3D5E2"/>
<path d="M200.503 202H199.637L199.669 198.816H197.936V198H202.204V198.816H200.479L200.503 202Z" fill="#C3D5E2"/>
<path d="M203.644 202H202.674V201.192H203.147L203.396 200.804V198H206.773V202H205.931V198.816H204.23V201.01L203.644 202Z" fill="#C3D5E2"/>
<path d="M210.66 202H208.719L207.764 201.026V198.966L208.719 198H210.66L211.615 198.966V201.026L210.66 202ZM208.599 200.685L209.08 201.176H210.299L210.781 200.685V199.315L210.299 198.824H209.08L208.599 199.315V200.685Z" fill="#C3D5E2"/>
<path d="M214.331 202H213.296V200.962H214.331V202Z" fill="#C3D5E2"/>
<path d="M220.384 202H218.307L217.352 201.026V198.966L218.307 198H220.384L221.243 198.871L220.505 199.315L220.023 198.824H218.668L218.194 199.315V200.693L218.668 201.176H220.023L220.505 200.685L221.218 201.152L220.384 202Z" fill="#C3D5E2"/>
<path d="M225.042 202H222.274V198.04H225.122L225.956 198.626V199.648L225.443 199.949V199.972L225.996 200.281V201.343L225.042 202ZM223.1 198.832V199.624H224.793L225.13 199.378V199.069L224.793 198.832H223.1ZM223.1 200.345V201.2H224.777L225.17 200.923V200.622L224.777 200.345H223.1Z" fill="#C3D5E2"/>
<path d="M227.622 202H226.988V201.398L228.327 200.59V200.558H227.894L226.956 199.972V198.665L227.878 198H230.822V202H229.98V200.582H229.41L227.622 202ZM227.798 199.56L228.175 199.806H229.98V198.808H228.175L227.798 199.069V199.56Z" fill="#C3D5E2"/>
<path d="M234.172 202H233.306L233.338 198.816H231.605V198H235.873V198.816H234.148L234.172 202Z" fill="#C3D5E2"/>
<path d="M237.313 202H236.343V201.192H236.816L237.065 200.804V198H240.442V202H239.6V198.816H237.899V201.01L237.313 202Z" fill="#C3D5E2"/>
<path d="M244.329 202H242.388L241.433 201.026V198.966L242.388 198H244.329L245.284 198.966V201.026L244.329 202ZM242.268 200.685L242.749 201.176H243.968L244.45 200.685V199.315L243.968 198.824H242.749L242.268 199.315V200.685Z" fill="#C3D5E2"/>
<path d="M248 202H246.965V200.962H248V202Z" fill="#C3D5E2"/>
<path d="M-31.9678 209H-34.0454L-35 208.026V205.966L-34.0454 205H-31.9678L-31.1095 205.871L-31.8475 206.315L-32.3288 205.824H-33.6844L-34.1577 206.315V207.693L-33.6844 208.176H-32.3288L-31.8475 207.685L-31.1336 208.152L-31.9678 209Z" fill="#C3D5E2"/>
<path d="M-27.3104 209H-30.0778V205.04H-27.2302L-26.3959 205.626V206.648L-26.9093 206.949V206.972L-26.3558 207.281V208.343L-27.3104 209ZM-29.2516 205.832V206.624H-27.559L-27.2221 206.378V206.069L-27.559 205.832H-29.2516ZM-29.2516 207.345V208.2H-27.5751L-27.182 207.923V207.622L-27.5751 207.345H-29.2516Z" fill="#C3D5E2"/>
<path d="M-24.7305 209H-25.3642V208.398L-24.0246 207.59V207.558H-24.4578L-25.3963 206.972V205.665L-24.4738 205H-21.5299V209H-22.3722V207.582H-22.9417L-24.7305 209ZM-24.5541 206.56L-24.177 206.806H-22.3722V205.808H-24.177L-24.5541 206.069V206.56Z" fill="#C3D5E2"/>
<path d="M-18.18 209H-19.0463L-19.0142 205.816H-20.7469V205H-16.4794V205.816H-18.204L-18.18 209Z" fill="#C3D5E2"/>
<path d="M-15.0386 209H-16.0092V208.192H-15.536L-15.2873 207.804V205H-11.9102V209H-12.7524V205.816H-14.453V208.01L-15.0386 209Z" fill="#C3D5E2"/>
<path d="M-8.02281 209H-9.96405L-10.9186 208.026V205.966L-9.96405 205H-8.02281L-7.06823 205.966V208.026L-8.02281 209ZM-10.0844 207.685L-9.60307 208.176H-8.38378L-7.90248 207.685V206.315L-8.38378 205.824H-9.60307L-10.0844 206.315V207.685Z" fill="#C3D5E2"/>
<path d="M-4.35202 209H-5.38682V207.962H-4.35202V209Z" fill="#C3D5E2"/>
<path d="M1.70119 209H-0.376419L-1.33099 208.026V205.966L-0.376419 205H1.70119L2.55951 205.871L1.82151 206.315L1.34022 205.824H-0.0154419L-0.48872 206.315V207.693L-0.0154419 208.176H1.34022L1.82151 207.685L2.53544 208.152L1.70119 209Z" fill="#C3D5E2"/>
<path d="M6.35864 209H3.59117V205.04H6.43885L7.27311 205.626V206.648L6.75972 206.949V206.972L7.31321 207.281V208.343L6.35864 209ZM4.4174 205.832V206.624H6.10997L6.44687 206.378V206.069L6.10997 205.832H4.4174ZM4.4174 207.345V208.2H6.09392L6.48698 207.923V207.622L6.09392 207.345H4.4174Z" fill="#C3D5E2"/>
<path d="M8.93847 209H8.30476V208.398L9.64438 207.59V207.558H9.21121L8.27268 206.972V205.665L9.19517 205H12.1391V209H11.2968V207.582H10.7273L8.93847 209ZM9.11495 206.56L9.49197 206.806H11.2968V205.808H9.49197L9.11495 206.069V206.56Z" fill="#C3D5E2"/>
<path d="M15.489 209H14.6227L14.6548 205.816H12.9221V205H17.1896V205.816H15.465L15.489 209Z" fill="#C3D5E2"/>
<path d="M18.6304 209H17.6598V208.192H18.133L18.3817 207.804V205H21.7588V209H20.9166V205.816H19.216V208.01L18.6304 209Z" fill="#C3D5E2"/>
<path d="M25.6462 209H23.705L22.7504 208.026V205.966L23.705 205H25.6462L26.6008 205.966V208.026L25.6462 209ZM23.5846 207.685L24.0659 208.176H25.2852L25.7665 207.685V206.315L25.2852 205.824H24.0659L23.5846 206.315V207.685Z" fill="#C3D5E2"/>
<path d="M29.317 209H28.2822V207.962H29.317V209Z" fill="#C3D5E2"/>
<path d="M35.3702 209H33.2926L32.338 208.026V205.966L33.2926 205H35.3702L36.2285 205.871L35.4905 206.315L35.0092 205.824H33.6536L33.1803 206.315V207.693L33.6536 208.176H35.0092L35.4905 207.685L36.2045 208.152L35.3702 209Z" fill="#C3D5E2"/>
<path d="M40.0276 209H37.2602V205.04H40.1079L40.9421 205.626V206.648L40.4287 206.949V206.972L40.9822 207.281V208.343L40.0276 209ZM38.0864 205.832V206.624H39.779L40.1159 206.378V206.069L39.779 205.832H38.0864ZM38.0864 207.345V208.2H39.7629L40.156 207.923V207.622L39.7629 207.345H38.0864Z" fill="#C3D5E2"/>
<path d="M42.6075 209H41.9738V208.398L43.3134 207.59V207.558H42.8802L41.9417 206.972V205.665L42.8642 205H45.8081V209H44.9658V207.582H44.3963L42.6075 209ZM42.784 206.56L43.161 206.806H44.9658V205.808H43.161L42.784 206.069V206.56Z" fill="#C3D5E2"/>
<path d="M49.158 209H48.2917L48.3238 205.816H46.5911V205H50.8586V205.816H49.134L49.158 209Z" fill="#C3D5E2"/>
<path d="M52.2994 209H51.3288V208.192H51.802L52.0507 207.804V205H55.4278V209H54.5856V205.816H52.885V208.01L52.2994 209Z" fill="#C3D5E2"/>
<path d="M59.3152 209H57.374L56.4194 208.026V205.966L57.374 205H59.3152L60.2698 205.966V208.026L59.3152 209ZM57.2536 207.685L57.7349 208.176H58.9542L59.4355 207.685V206.315L58.9542 205.824H57.7349L57.2536 206.315V207.685Z" fill="#C3D5E2"/>
<path d="M62.986 209H61.9512V207.962H62.986V209Z" fill="#C3D5E2"/>
<path d="M69.0392 209H66.9616L66.007 208.026V205.966L66.9616 205H69.0392L69.8975 205.871L69.1595 206.315L68.6782 205.824H67.3226L66.8493 206.315V207.693L67.3226 208.176H68.6782L69.1595 207.685L69.8735 208.152L69.0392 209Z" fill="#C3D5E2"/>
<path d="M73.6966 209H70.9292V205.04H73.7769L74.6111 205.626V206.648L74.0977 206.949V206.972L74.6512 207.281V208.343L73.6966 209ZM71.7554 205.832V206.624H73.448L73.7849 206.378V206.069L73.448 205.832H71.7554ZM71.7554 207.345V208.2H73.4319L73.825 207.923V207.622L73.4319 207.345H71.7554Z" fill="#C3D5E2"/>
<path d="M76.2765 209H75.6428V208.398L76.9824 207.59V207.558H76.5492L75.6107 206.972V205.665L76.5332 205H79.4771V209H78.6348V207.582H78.0653L76.2765 209ZM76.453 206.56L76.83 206.806H78.6348V205.808H76.83L76.453 206.069V206.56Z" fill="#C3D5E2"/>
<path d="M82.827 209H81.9607L81.9928 205.816H80.2601V205H84.5276V205.816H82.803L82.827 209Z" fill="#C3D5E2"/>
<path d="M85.9684 209H84.9978V208.192H85.4711L85.7197 207.804V205H89.0968V209H88.2546V205.816H86.554V208.01L85.9684 209Z" fill="#C3D5E2"/>
<path d="M92.9842 209H91.043L90.0884 208.026V205.966L91.043 205H92.9842L93.9388 205.966V208.026L92.9842 209ZM90.9226 207.685L91.4039 208.176H92.6232L93.1045 207.685V206.315L92.6232 205.824H91.4039L90.9226 206.315V207.685Z" fill="#C3D5E2"/>
<path d="M96.655 209H95.6202V207.962H96.655V209Z" fill="#C3D5E2"/>
<path d="M102.708 209H100.631L99.676 208.026V205.966L100.631 205H102.708L103.567 205.871L102.829 206.315L102.347 205.824H100.992L100.518 206.315V207.693L100.992 208.176H102.347L102.829 207.685L103.542 208.152L102.708 209Z" fill="#C3D5E2"/>
<path d="M107.366 209H104.598V205.04H107.446L108.28 205.626V206.648L107.767 206.949V206.972L108.32 207.281V208.343L107.366 209ZM105.424 205.832V206.624H107.117L107.454 206.378V206.069L107.117 205.832H105.424ZM105.424 207.345V208.2H107.101L107.494 207.923V207.622L107.101 207.345H105.424Z" fill="#C3D5E2"/>
<path d="M109.945 209H109.312V208.398L110.651 207.59V207.558H110.218L109.28 206.972V205.665L110.202 205H113.146V209H112.304V207.582H111.734L109.945 209ZM110.122 206.56L110.499 206.806H112.304V205.808H110.499L110.122 206.069V206.56Z" fill="#C3D5E2"/>
<path d="M116.496 209H115.63L115.662 205.816H113.929V205H118.197V205.816H116.472L116.496 209Z" fill="#C3D5E2"/>
<path d="M119.637 209H118.667V208.192H119.14L119.389 207.804V205H122.766V209H121.924V205.816H120.223V208.01L119.637 209Z" fill="#C3D5E2"/>
<path d="M126.653 209H124.712L123.757 208.026V205.966L124.712 205H126.653L127.608 205.966V208.026L126.653 209ZM124.592 207.685L125.073 208.176H126.292L126.774 207.685V206.315L126.292 205.824H125.073L124.592 206.315V207.685Z" fill="#C3D5E2"/>
<path d="M130.324 209H129.289V207.962H130.324V209Z" fill="#C3D5E2"/>
<path d="M136.377 209H134.3L133.345 208.026V205.966L134.3 205H136.377L137.236 205.871L136.498 206.315L136.016 205.824H134.661L134.187 206.315V207.693L134.661 208.176H136.016L136.498 207.685L137.211 208.152L136.377 209Z" fill="#C3D5E2"/>
<path d="M141.035 209H138.267V205.04H141.115L141.949 205.626V206.648L141.436 206.949V206.972L141.989 207.281V208.343L141.035 209ZM139.093 205.832V206.624H140.786L141.123 206.378V206.069L140.786 205.832H139.093ZM139.093 207.345V208.2H140.77L141.163 207.923V207.622L140.77 207.345H139.093Z" fill="#C3D5E2"/>
<path d="M143.614 209H142.981V208.398L144.32 207.59V207.558H143.887L142.949 206.972V205.665L143.871 205H146.815V209H145.973V207.582H145.403L143.614 209ZM143.791 206.56L144.168 206.806H145.973V205.808H144.168L143.791 206.069V206.56Z" fill="#C3D5E2"/>
<path d="M150.165 209H149.299L149.331 205.816H147.598V205H151.866V205.816H150.141L150.165 209Z" fill="#C3D5E2"/>
<path d="M153.306 209H152.336V208.192H152.809L153.058 207.804V205H156.435V209H155.593V205.816H153.892V208.01L153.306 209Z" fill="#C3D5E2"/>
<path d="M160.322 209H158.381L157.426 208.026V205.966L158.381 205H160.322L161.277 205.966V208.026L160.322 209ZM158.261 207.685L158.742 208.176H159.961L160.443 207.685V206.315L159.961 205.824H158.742L158.261 206.315V207.685Z" fill="#C3D5E2"/>
<path d="M163.993 209H162.958V207.962H163.993V209Z" fill="#C3D5E2"/>
<path d="M170.046 209H167.969L167.014 208.026V205.966L167.969 205H170.046L170.905 205.871L170.167 206.315L169.685 205.824H168.33L167.856 206.315V207.693L168.33 208.176H169.685L170.167 207.685L170.88 208.152L170.046 209Z" fill="#C3D5E2"/>
<path d="M174.704 209H171.936V205.04H174.784L175.618 205.626V206.648L175.105 206.949V206.972L175.658 207.281V208.343L174.704 209ZM172.762 205.832V206.624H174.455L174.792 206.378V206.069L174.455 205.832H172.762ZM172.762 207.345V208.2H174.439L174.832 207.923V207.622L174.439 207.345H172.762Z" fill="#C3D5E2"/>
<path d="M177.283 209H176.65V208.398L177.989 207.59V207.558H177.556L176.618 206.972V205.665L177.54 205H180.484V209H179.642V207.582H179.072L177.283 209ZM177.46 206.56L177.837 206.806H179.642V205.808H177.837L177.46 206.069V206.56Z" fill="#C3D5E2"/>
<path d="M183.834 209H182.968L183 205.816H181.267V205H185.535V205.816H183.81L183.834 209Z" fill="#C3D5E2"/>
<path d="M186.975 209H186.005V208.192H186.478L186.727 207.804V205H190.104V209H189.262V205.816H187.561V208.01L186.975 209Z" fill="#C3D5E2"/>
<path d="M193.991 209H192.05L191.095 208.026V205.966L192.05 205H193.991L194.946 205.966V208.026L193.991 209ZM191.93 207.685L192.411 208.176H193.63L194.112 207.685V206.315L193.63 205.824H192.411L191.93 206.315V207.685Z" fill="#C3D5E2"/>
<path d="M197.662 209H196.627V207.962H197.662V209Z" fill="#C3D5E2"/>
<path d="M203.715 209H201.638L200.683 208.026V205.966L201.638 205H203.715L204.574 205.871L203.836 206.315L203.354 205.824H201.999L201.525 206.315V207.693L201.999 208.176H203.354L203.836 207.685L204.549 208.152L203.715 209Z" fill="#C3D5E2"/>
<path d="M208.373 209H205.605V205.04H208.453L209.287 205.626V206.648L208.774 206.949V206.972L209.327 207.281V208.343L208.373 209ZM206.431 205.832V206.624H208.124L208.461 206.378V206.069L208.124 205.832H206.431ZM206.431 207.345V208.2H208.108L208.501 207.923V207.622L208.108 207.345H206.431Z" fill="#C3D5E2"/>
<path d="M210.952 209H210.319V208.398L211.658 207.59V207.558H211.225L210.287 206.972V205.665L211.209 205H214.153V209H213.311V207.582H212.741L210.952 209ZM211.129 206.56L211.506 206.806H213.311V205.808H211.506L211.129 206.069V206.56Z" fill="#C3D5E2"/>
<path d="M217.503 209H216.637L216.669 205.816H214.936V205H219.204V205.816H217.479L217.503 209Z" fill="#C3D5E2"/>
<path d="M220.644 209H219.674V208.192H220.147L220.396 207.804V205H223.773V209H222.931V205.816H221.23V208.01L220.644 209Z" fill="#C3D5E2"/>
<path d="M227.66 209H225.719L224.764 208.026V205.966L225.719 205H227.66L228.615 205.966V208.026L227.66 209ZM225.599 207.685L226.08 208.176H227.299L227.781 207.685V206.315L227.299 205.824H226.08L225.599 206.315V207.685Z" fill="#C3D5E2"/>
<path d="M231.331 209H230.296V207.962H231.331V209Z" fill="#C3D5E2"/>
<path d="M237.384 209H235.307L234.352 208.026V205.966L235.307 205H237.384L238.243 205.871L237.505 206.315L237.023 205.824H235.668L235.194 206.315V207.693L235.668 208.176H237.023L237.505 207.685L238.218 208.152L237.384 209Z" fill="#C3D5E2"/>
<path d="M242.042 209H239.274V205.04H242.122L242.956 205.626V206.648L242.443 206.949V206.972L242.996 207.281V208.343L242.042 209ZM240.1 205.832V206.624H241.793L242.13 206.378V206.069L241.793 205.832H240.1ZM240.1 207.345V208.2H241.777L242.17 207.923V207.622L241.777 207.345H240.1Z" fill="#C3D5E2"/>
<path d="M244.622 209H243.988V208.398L245.327 207.59V207.558H244.894L243.956 206.972V205.665L244.878 205H247.822V209H246.98V207.582H246.41L244.622 209ZM244.798 206.56L245.175 206.806H246.98V205.808H245.175L244.798 206.069V206.56Z" fill="#C3D5E2"/>
<path d="M251.172 209H250.306L250.338 205.816H248.605V205H252.873V205.816H251.148L251.172 209Z" fill="#C3D5E2"/>
<path d="M254.313 209H253.343V208.192H253.816L254.065 207.804V205H257.442V209H256.6V205.816H254.899V208.01L254.313 209Z" fill="#C3D5E2"/>
<path d="M261.329 209H259.388L258.433 208.026V205.966L259.388 205H261.329L262.284 205.966V208.026L261.329 209ZM259.268 207.685L259.749 208.176H260.968L261.45 207.685V206.315L260.968 205.824H259.749L259.268 206.315V207.685Z" fill="#C3D5E2"/>
<path d="M265 209H263.965V207.962H265V209Z" fill="#C3D5E2"/>
<path d="M-38.9678 216H-41.0454L-42 215.026V212.966L-41.0454 212H-38.9678L-38.1095 212.871L-38.8475 213.315L-39.3288 212.824H-40.6844L-41.1577 213.315V214.693L-40.6844 215.176H-39.3288L-38.8475 214.685L-38.1336 215.152L-38.9678 216Z" fill="#C3D5E2"/>
<path d="M-34.3104 216H-37.0778V212.04H-34.2302L-33.3959 212.626V213.648L-33.9093 213.949V213.972L-33.3558 214.281V215.343L-34.3104 216ZM-36.2516 212.832V213.624H-34.559L-34.2221 213.378V213.069L-34.559 212.832H-36.2516ZM-36.2516 214.345V215.2H-34.5751L-34.182 214.923V214.622L-34.5751 214.345H-36.2516Z" fill="#C3D5E2"/>
<path d="M-31.7305 216H-32.3642V215.398L-31.0246 214.59V214.558H-31.4578L-32.3963 213.972V212.665L-31.4738 212H-28.5299V216H-29.3722V214.582H-29.9417L-31.7305 216ZM-31.5541 213.56L-31.177 213.806H-29.3722V212.808H-31.177L-31.5541 213.069V213.56Z" fill="#C3D5E2"/>
<path d="M-25.18 216H-26.0463L-26.0142 212.816H-27.7469V212H-23.4794V212.816H-25.204L-25.18 216Z" fill="#C3D5E2"/>
<path d="M-22.0386 216H-23.0092V215.192H-22.536L-22.2873 214.804V212H-18.9102V216H-19.7524V212.816H-21.453V215.01L-22.0386 216Z" fill="#C3D5E2"/>
<path d="M-15.0228 216H-16.964L-17.9186 215.026V212.966L-16.964 212H-15.0228L-14.0682 212.966V215.026L-15.0228 216ZM-17.0844 214.685L-16.6031 215.176H-15.3838L-14.9025 214.685V213.315L-15.3838 212.824H-16.6031L-17.0844 213.315V214.685Z" fill="#C3D5E2"/>
<path d="M-11.352 216H-12.3868V214.962H-11.352V216Z" fill="#C3D5E2"/>
<path d="M-5.29881 216H-7.37642L-8.33099 215.026V212.966L-7.37642 212H-5.29881L-4.44049 212.871L-5.17849 213.315L-5.65978 212.824H-7.01544L-7.48872 213.315V214.693L-7.01544 215.176H-5.65978L-5.17849 214.685L-4.46456 215.152L-5.29881 216Z" fill="#C3D5E2"/>
<path d="M-0.641361 216H-3.40883V212.04H-0.561146L0.273106 212.626V213.648L-0.24028 213.949V213.972L0.313213 214.281V215.343L-0.641361 216ZM-2.5826 212.832V213.624H-0.890034L-0.553127 213.378V213.069L-0.890034 212.832H-2.5826ZM-2.5826 214.345V215.2H-0.906078L-0.513016 214.923V214.622L-0.906078 214.345H-2.5826Z" fill="#C3D5E2"/>
<path d="M1.93847 216H1.30476V215.398L2.64438 214.59V214.558H2.21121L1.27268 213.972V212.665L2.19517 212H5.13911V216H4.29684V214.582H3.7273L1.93847 216ZM2.11495 213.56L2.49197 213.806H4.29684V212.808H2.49197L2.11495 213.069V213.56Z" fill="#C3D5E2"/>
<path d="M8.48903 216H7.62269L7.65478 212.816H5.9221V212H10.1896V212.816H8.46497L8.48903 216Z" fill="#C3D5E2"/>
<path d="M11.6304 216H10.6598V215.192H11.133L11.3817 214.804V212H14.7588V216H13.9166V212.816H12.216V215.01L11.6304 216Z" fill="#C3D5E2"/>
<path d="M18.6462 216H16.705L15.7504 215.026V212.966L16.705 212H18.6462L19.6008 212.966V215.026L18.6462 216ZM16.5846 214.685L17.0659 215.176H18.2852L18.7665 214.685V213.315L18.2852 212.824H17.0659L16.5846 213.315V214.685Z" fill="#C3D5E2"/>
<path d="M22.317 216H21.2822V214.962H22.317V216Z" fill="#C3D5E2"/>
<path d="M28.3702 216H26.2926L25.338 215.026V212.966L26.2926 212H28.3702L29.2285 212.871L28.4905 213.315L28.0092 212.824H26.6536L26.1803 213.315V214.693L26.6536 215.176H28.0092L28.4905 214.685L29.2045 215.152L28.3702 216Z" fill="#C3D5E2"/>
<path d="M33.0276 216H30.2602V212.04H33.1079L33.9421 212.626V213.648L33.4287 213.949V213.972L33.9822 214.281V215.343L33.0276 216ZM31.0864 212.832V213.624H32.779L33.1159 213.378V213.069L32.779 212.832H31.0864ZM31.0864 214.345V215.2H32.7629L33.156 214.923V214.622L32.7629 214.345H31.0864Z" fill="#C3D5E2"/>
<path d="M35.6075 216H34.9738V215.398L36.3134 214.59V214.558H35.8802L34.9417 213.972V212.665L35.8642 212H38.8081V216H37.9658V214.582H37.3963L35.6075 216ZM35.784 213.56L36.161 213.806H37.9658V212.808H36.161L35.784 213.069V213.56Z" fill="#C3D5E2"/>
<path d="M42.158 216H41.2917L41.3238 212.816H39.5911V212H43.8586V212.816H42.134L42.158 216Z" fill="#C3D5E2"/>
<path d="M45.2994 216H44.3288V215.192H44.802L45.0507 214.804V212H48.4278V216H47.5856V212.816H45.885V215.01L45.2994 216Z" fill="#C3D5E2"/>
<path d="M52.3152 216H50.374L49.4194 215.026V212.966L50.374 212H52.3152L53.2698 212.966V215.026L52.3152 216ZM50.2536 214.685L50.7349 215.176H51.9542L52.4355 214.685V213.315L51.9542 212.824H50.7349L50.2536 213.315V214.685Z" fill="#C3D5E2"/>
<path d="M55.986 216H54.9512V214.962H55.986V216Z" fill="#C3D5E2"/>
<path d="M62.0392 216H59.9616L59.007 215.026V212.966L59.9616 212H62.0392L62.8975 212.871L62.1595 213.315L61.6782 212.824H60.3226L59.8493 213.315V214.693L60.3226 215.176H61.6782L62.1595 214.685L62.8735 215.152L62.0392 216Z" fill="#C3D5E2"/>
<path d="M66.6966 216H63.9292V212.04H66.7769L67.6111 212.626V213.648L67.0977 213.949V213.972L67.6512 214.281V215.343L66.6966 216ZM64.7554 212.832V213.624H66.448L66.7849 213.378V213.069L66.448 212.832H64.7554ZM64.7554 214.345V215.2H66.4319L66.825 214.923V214.622L66.4319 214.345H64.7554Z" fill="#C3D5E2"/>
<path d="M69.2765 216H68.6428V215.398L69.9824 214.59V214.558H69.5492L68.6107 213.972V212.665L69.5332 212H72.4771V216H71.6348V214.582H71.0653L69.2765 216ZM69.453 213.56L69.83 213.806H71.6348V212.808H69.83L69.453 213.069V213.56Z" fill="#C3D5E2"/>
<path d="M75.827 216H74.9607L74.9928 212.816H73.2601V212H77.5276V212.816H75.803L75.827 216Z" fill="#C3D5E2"/>
<path d="M78.9684 216H77.9978V215.192H78.4711L78.7197 214.804V212H82.0968V216H81.2546V212.816H79.554V215.01L78.9684 216Z" fill="#C3D5E2"/>
<path d="M85.9842 216H84.043L83.0884 215.026V212.966L84.043 212H85.9842L86.9388 212.966V215.026L85.9842 216ZM83.9226 214.685L84.4039 215.176H85.6232L86.1045 214.685V213.315L85.6232 212.824H84.4039L83.9226 213.315V214.685Z" fill="#C3D5E2"/>
<path d="M89.655 216H88.6202V214.962H89.655V216Z" fill="#C3D5E2"/>
<path d="M95.7082 216H93.6306L92.676 215.026V212.966L93.6306 212H95.7082L96.5665 212.871L95.8285 213.315L95.3472 212.824H93.9916L93.5183 213.315V214.693L93.9916 215.176H95.3472L95.8285 214.685L96.5425 215.152L95.7082 216Z" fill="#C3D5E2"/>
<path d="M100.366 216H97.5982V212.04H100.446L101.28 212.626V213.648L100.767 213.949V213.972L101.32 214.281V215.343L100.366 216ZM98.4244 212.832V213.624H100.117L100.454 213.378V213.069L100.117 212.832H98.4244ZM98.4244 214.345V215.2H100.101L100.494 214.923V214.622L100.101 214.345H98.4244Z" fill="#C3D5E2"/>
<path d="M102.945 216H102.312V215.398L103.651 214.59V214.558H103.218L102.28 213.972V212.665L103.202 212H106.146V216H105.304V214.582H104.734L102.945 216ZM103.122 213.56L103.499 213.806H105.304V212.808H103.499L103.122 213.069V213.56Z" fill="#C3D5E2"/>
<path d="M109.496 216H108.63L108.662 212.816H106.929V212H111.197V212.816H109.472L109.496 216Z" fill="#C3D5E2"/>
<path d="M112.637 216H111.667V215.192H112.14L112.389 214.804V212H115.766V216H114.924V212.816H113.223V215.01L112.637 216Z" fill="#C3D5E2"/>
<path d="M119.653 216H117.712L116.757 215.026V212.966L117.712 212H119.653L120.608 212.966V215.026L119.653 216ZM117.592 214.685L118.073 215.176H119.292L119.774 214.685V213.315L119.292 212.824H118.073L117.592 213.315V214.685Z" fill="#C3D5E2"/>
<path d="M123.324 216H122.289V214.962H123.324V216Z" fill="#C3D5E2"/>
<path d="M129.377 216H127.3L126.345 215.026V212.966L127.3 212H129.377L130.236 212.871L129.498 213.315L129.016 212.824H127.661L127.187 213.315V214.693L127.661 215.176H129.016L129.498 214.685L130.211 215.152L129.377 216Z" fill="#C3D5E2"/>
<path d="M134.035 216H131.267V212.04H134.115L134.949 212.626V213.648L134.436 213.949V213.972L134.989 214.281V215.343L134.035 216ZM132.093 212.832V213.624H133.786L134.123 213.378V213.069L133.786 212.832H132.093ZM132.093 214.345V215.2H133.77L134.163 214.923V214.622L133.77 214.345H132.093Z" fill="#C3D5E2"/>
<path d="M136.614 216H135.981V215.398L137.32 214.59V214.558H136.887L135.949 213.972V212.665L136.871 212H139.815V216H138.973V214.582H138.403L136.614 216ZM136.791 213.56L137.168 213.806H138.973V212.808H137.168L136.791 213.069V213.56Z" fill="#C3D5E2"/>
<path d="M143.165 216H142.299L142.331 212.816H140.598V212H144.866V212.816H143.141L143.165 216Z" fill="#C3D5E2"/>
<path d="M146.306 216H145.336V215.192H145.809L146.058 214.804V212H149.435V216H148.593V212.816H146.892V215.01L146.306 216Z" fill="#C3D5E2"/>
<path d="M153.322 216H151.381L150.426 215.026V212.966L151.381 212H153.322L154.277 212.966V215.026L153.322 216ZM151.261 214.685L151.742 215.176H152.961L153.443 214.685V213.315L152.961 212.824H151.742L151.261 213.315V214.685Z" fill="#C3D5E2"/>
<path d="M156.993 216H155.958V214.962H156.993V216Z" fill="#C3D5E2"/>
<path d="M163.046 216H160.969L160.014 215.026V212.966L160.969 212H163.046L163.905 212.871L163.167 213.315L162.685 212.824H161.33L160.856 213.315V214.693L161.33 215.176H162.685L163.167 214.685L163.88 215.152L163.046 216Z" fill="#C3D5E2"/>
<path d="M167.704 216H164.936V212.04H167.784L168.618 212.626V213.648L168.105 213.949V213.972L168.658 214.281V215.343L167.704 216ZM165.762 212.832V213.624H167.455L167.792 213.378V213.069L167.455 212.832H165.762ZM165.762 214.345V215.2H167.439L167.832 214.923V214.622L167.439 214.345H165.762Z" fill="#C3D5E2"/>
<path d="M170.283 216H169.65V215.398L170.989 214.59V214.558H170.556L169.618 213.972V212.665L170.54 212H173.484V216H172.642V214.582H172.072L170.283 216ZM170.46 213.56L170.837 213.806H172.642V212.808H170.837L170.46 213.069V213.56Z" fill="#C3D5E2"/>
<path d="M176.834 216H175.968L176 212.816H174.267V212H178.535V212.816H176.81L176.834 216Z" fill="#C3D5E2"/>
<path d="M179.975 216H179.005V215.192H179.478L179.727 214.804V212H183.104V216H182.262V212.816H180.561V215.01L179.975 216Z" fill="#C3D5E2"/>
<path d="M186.991 216H185.05L184.095 215.026V212.966L185.05 212H186.991L187.946 212.966V215.026L186.991 216ZM184.93 214.685L185.411 215.176H186.63L187.112 214.685V213.315L186.63 212.824H185.411L184.93 213.315V214.685Z" fill="#C3D5E2"/>
<path d="M190.662 216H189.627V214.962H190.662V216Z" fill="#C3D5E2"/>
<path d="M196.715 216H194.638L193.683 215.026V212.966L194.638 212H196.715L197.574 212.871L196.836 213.315L196.354 212.824H194.999L194.525 213.315V214.693L194.999 215.176H196.354L196.836 214.685L197.549 215.152L196.715 216Z" fill="#C3D5E2"/>
<path d="M201.373 216H198.605V212.04H201.453L202.287 212.626V213.648L201.774 213.949V213.972L202.327 214.281V215.343L201.373 216ZM199.431 212.832V213.624H201.124L201.461 213.378V213.069L201.124 212.832H199.431ZM199.431 214.345V215.2H201.108L201.501 214.923V214.622L201.108 214.345H199.431Z" fill="#C3D5E2"/>
<path d="M203.952 216H203.319V215.398L204.658 214.59V214.558H204.225L203.287 213.972V212.665L204.209 212H207.153V216H206.311V214.582H205.741L203.952 216ZM204.129 213.56L204.506 213.806H206.311V212.808H204.506L204.129 213.069V213.56Z" fill="#C3D5E2"/>
<path d="M210.503 216H209.637L209.669 212.816H207.936V212H212.204V212.816H210.479L210.503 216Z" fill="#C3D5E2"/>
<path d="M213.644 216H212.674V215.192H213.147L213.396 214.804V212H216.773V216H215.931V212.816H214.23V215.01L213.644 216Z" fill="#C3D5E2"/>
<path d="M220.66 216H218.719L217.764 215.026V212.966L218.719 212H220.66L221.615 212.966V215.026L220.66 216ZM218.599 214.685L219.08 215.176H220.299L220.781 214.685V213.315L220.299 212.824H219.08L218.599 213.315V214.685Z" fill="#C3D5E2"/>
<path d="M224.331 216H223.296V214.962H224.331V216Z" fill="#C3D5E2"/>
<path d="M230.384 216H228.307L227.352 215.026V212.966L228.307 212H230.384L231.243 212.871L230.505 213.315L230.023 212.824H228.668L228.194 213.315V214.693L228.668 215.176H230.023L230.505 214.685L231.218 215.152L230.384 216Z" fill="#C3D5E2"/>
<path d="M235.042 216H232.274V212.04H235.122L235.956 212.626V213.648L235.443 213.949V213.972L235.996 214.281V215.343L235.042 216ZM233.1 212.832V213.624H234.793L235.13 213.378V213.069L234.793 212.832H233.1ZM233.1 214.345V215.2H234.777L235.17 214.923V214.622L234.777 214.345H233.1Z" fill="#C3D5E2"/>
<path d="M237.622 216H236.988V215.398L238.327 214.59V214.558H237.894L236.956 213.972V212.665L237.878 212H240.822V216H239.98V214.582H239.41L237.622 216ZM237.798 213.56L238.175 213.806H239.98V212.808H238.175L237.798 213.069V213.56Z" fill="#C3D5E2"/>
<path d="M244.172 216H243.306L243.338 212.816H241.605V212H245.873V212.816H244.148L244.172 216Z" fill="#C3D5E2"/>
<path d="M247.313 216H246.343V215.192H246.816L247.065 214.804V212H250.442V216H249.6V212.816H247.899V215.01L247.313 216Z" fill="#C3D5E2"/>
<path d="M254.329 216H252.388L251.433 215.026V212.966L252.388 212H254.329L255.284 212.966V215.026L254.329 216ZM252.268 214.685L252.749 215.176H253.968L254.45 214.685V213.315L253.968 212.824H252.749L252.268 213.315V214.685Z" fill="#C3D5E2"/>
<path d="M258 216H256.965V214.962H258V216Z" fill="#C3D5E2"/>
<path d="M-31.9678 223H-34.0454L-35 222.026V219.966L-34.0454 219H-31.9678L-31.1095 219.871L-31.8475 220.315L-32.3288 219.824H-33.6844L-34.1577 220.315V221.693L-33.6844 222.176H-32.3288L-31.8475 221.685L-31.1336 222.152L-31.9678 223Z" fill="#C3D5E2"/>
<path d="M-27.3104 223H-30.0778V219.04H-27.2302L-26.3959 219.626V220.648L-26.9093 220.949V220.972L-26.3558 221.281V222.343L-27.3104 223ZM-29.2516 219.832V220.624H-27.559L-27.2221 220.378V220.069L-27.559 219.832H-29.2516ZM-29.2516 221.345V222.2H-27.5751L-27.182 221.923V221.622L-27.5751 221.345H-29.2516Z" fill="#C3D5E2"/>
<path d="M-24.7305 223H-25.3642V222.398L-24.0246 221.59V221.558H-24.4578L-25.3963 220.972V219.665L-24.4738 219H-21.5299V223H-22.3722V221.582H-22.9417L-24.7305 223ZM-24.5541 220.56L-24.177 220.806H-22.3722V219.808H-24.177L-24.5541 220.069V220.56Z" fill="#C3D5E2"/>
<path d="M-18.18 223H-19.0463L-19.0142 219.816H-20.7469V219H-16.4794V219.816H-18.204L-18.18 223Z" fill="#C3D5E2"/>
<path d="M-15.0386 223H-16.0092V222.192H-15.536L-15.2873 221.804V219H-11.9102V223H-12.7524V219.816H-14.453V222.01L-15.0386 223Z" fill="#C3D5E2"/>
<path d="M-8.02281 223H-9.96405L-10.9186 222.026V219.966L-9.96405 219H-8.02281L-7.06823 219.966V222.026L-8.02281 223ZM-10.0844 221.685L-9.60307 222.176H-8.38378L-7.90248 221.685V220.315L-8.38378 219.824H-9.60307L-10.0844 220.315V221.685Z" fill="#C3D5E2"/>
<path d="M-4.35202 223H-5.38682V221.962H-4.35202V223Z" fill="#C3D5E2"/>
<path d="M1.70119 223H-0.376419L-1.33099 222.026V219.966L-0.376419 219H1.70119L2.55951 219.871L1.82151 220.315L1.34022 219.824H-0.0154419L-0.48872 220.315V221.693L-0.0154419 222.176H1.34022L1.82151 221.685L2.53544 222.152L1.70119 223Z" fill="#C3D5E2"/>
<path d="M6.35864 223H3.59117V219.04H6.43885L7.27311 219.626V220.648L6.75972 220.949V220.972L7.31321 221.281V222.343L6.35864 223ZM4.4174 219.832V220.624H6.10997L6.44687 220.378V220.069L6.10997 219.832H4.4174ZM4.4174 221.345V222.2H6.09392L6.48698 221.923V221.622L6.09392 221.345H4.4174Z" fill="#C3D5E2"/>
<path d="M8.93847 223H8.30476V222.398L9.64438 221.59V221.558H9.21121L8.27268 220.972V219.665L9.19517 219H12.1391V223H11.2968V221.582H10.7273L8.93847 223ZM9.11495 220.56L9.49197 220.806H11.2968V219.808H9.49197L9.11495 220.069V220.56Z" fill="#C3D5E2"/>
<path d="M15.489 223H14.6227L14.6548 219.816H12.9221V219H17.1896V219.816H15.465L15.489 223Z" fill="#C3D5E2"/>
<path d="M18.6304 223H17.6598V222.192H18.133L18.3817 221.804V219H21.7588V223H20.9166V219.816H19.216V222.01L18.6304 223Z" fill="#C3D5E2"/>
<path d="M25.6462 223H23.705L22.7504 222.026V219.966L23.705 219H25.6462L26.6008 219.966V222.026L25.6462 223ZM23.5846 221.685L24.0659 222.176H25.2852L25.7665 221.685V220.315L25.2852 219.824H24.0659L23.5846 220.315V221.685Z" fill="#C3D5E2"/>
<path d="M29.317 223H28.2822V221.962H29.317V223Z" fill="#C3D5E2"/>
<path d="M35.3702 223H33.2926L32.338 222.026V219.966L33.2926 219H35.3702L36.2285 219.871L35.4905 220.315L35.0092 219.824H33.6536L33.1803 220.315V221.693L33.6536 222.176H35.0092L35.4905 221.685L36.2045 222.152L35.3702 223Z" fill="#C3D5E2"/>
<path d="M40.0276 223H37.2602V219.04H40.1079L40.9421 219.626V220.648L40.4287 220.949V220.972L40.9822 221.281V222.343L40.0276 223ZM38.0864 219.832V220.624H39.779L40.1159 220.378V220.069L39.779 219.832H38.0864ZM38.0864 221.345V222.2H39.7629L40.156 221.923V221.622L39.7629 221.345H38.0864Z" fill="#C3D5E2"/>
<path d="M42.6075 223H41.9738V222.398L43.3134 221.59V221.558H42.8802L41.9417 220.972V219.665L42.8642 219H45.8081V223H44.9658V221.582H44.3963L42.6075 223ZM42.784 220.56L43.161 220.806H44.9658V219.808H43.161L42.784 220.069V220.56Z" fill="#C3D5E2"/>
<path d="M49.158 223H48.2917L48.3238 219.816H46.5911V219H50.8586V219.816H49.134L49.158 223Z" fill="#C3D5E2"/>
<path d="M52.2994 223H51.3288V222.192H51.802L52.0507 221.804V219H55.4278V223H54.5856V219.816H52.885V222.01L52.2994 223Z" fill="#C3D5E2"/>
<path d="M59.3152 223H57.374L56.4194 222.026V219.966L57.374 219H59.3152L60.2698 219.966V222.026L59.3152 223ZM57.2536 221.685L57.7349 222.176H58.9542L59.4355 221.685V220.315L58.9542 219.824H57.7349L57.2536 220.315V221.685Z" fill="#C3D5E2"/>
<path d="M62.986 223H61.9512V221.962H62.986V223Z" fill="#C3D5E2"/>
<path d="M69.0392 223H66.9616L66.007 222.026V219.966L66.9616 219H69.0392L69.8975 219.871L69.1595 220.315L68.6782 219.824H67.3226L66.8493 220.315V221.693L67.3226 222.176H68.6782L69.1595 221.685L69.8735 222.152L69.0392 223Z" fill="#C3D5E2"/>
<path d="M73.6966 223H70.9292V219.04H73.7769L74.6111 219.626V220.648L74.0977 220.949V220.972L74.6512 221.281V222.343L73.6966 223ZM71.7554 219.832V220.624H73.448L73.7849 220.378V220.069L73.448 219.832H71.7554ZM71.7554 221.345V222.2H73.4319L73.825 221.923V221.622L73.4319 221.345H71.7554Z" fill="#C3D5E2"/>
<path d="M76.2765 223H75.6428V222.398L76.9824 221.59V221.558H76.5492L75.6107 220.972V219.665L76.5332 219H79.4771V223H78.6348V221.582H78.0653L76.2765 223ZM76.453 220.56L76.83 220.806H78.6348V219.808H76.83L76.453 220.069V220.56Z" fill="#C3D5E2"/>
<path d="M82.827 223H81.9607L81.9928 219.816H80.2601V219H84.5276V219.816H82.803L82.827 223Z" fill="#C3D5E2"/>
<path d="M85.9684 223H84.9978V222.192H85.4711L85.7197 221.804V219H89.0968V223H88.2546V219.816H86.554V222.01L85.9684 223Z" fill="#C3D5E2"/>
<path d="M92.9842 223H91.043L90.0884 222.026V219.966L91.043 219H92.9842L93.9388 219.966V222.026L92.9842 223ZM90.9226 221.685L91.4039 222.176H92.6232L93.1045 221.685V220.315L92.6232 219.824H91.4039L90.9226 220.315V221.685Z" fill="#C3D5E2"/>
<path d="M96.655 223H95.6202V221.962H96.655V223Z" fill="#C3D5E2"/>
<path d="M102.708 223H100.631L99.676 222.026V219.966L100.631 219H102.708L103.567 219.871L102.829 220.315L102.347 219.824H100.992L100.518 220.315V221.693L100.992 222.176H102.347L102.829 221.685L103.542 222.152L102.708 223Z" fill="#C3D5E2"/>
<path d="M107.366 223H104.598V219.04H107.446L108.28 219.626V220.648L107.767 220.949V220.972L108.32 221.281V222.343L107.366 223ZM105.424 219.832V220.624H107.117L107.454 220.378V220.069L107.117 219.832H105.424ZM105.424 221.345V222.2H107.101L107.494 221.923V221.622L107.101 221.345H105.424Z" fill="#C3D5E2"/>
<path d="M109.945 223H109.312V222.398L110.651 221.59V221.558H110.218L109.28 220.972V219.665L110.202 219H113.146V223H112.304V221.582H111.734L109.945 223ZM110.122 220.56L110.499 220.806H112.304V219.808H110.499L110.122 220.069V220.56Z" fill="#C3D5E2"/>
<path d="M116.496 223H115.63L115.662 219.816H113.929V219H118.197V219.816H116.472L116.496 223Z" fill="#C3D5E2"/>
<path d="M119.637 223H118.667V222.192H119.14L119.389 221.804V219H122.766V223H121.924V219.816H120.223V222.01L119.637 223Z" fill="#C3D5E2"/>
<path d="M126.653 223H124.712L123.757 222.026V219.966L124.712 219H126.653L127.608 219.966V222.026L126.653 223ZM124.592 221.685L125.073 222.176H126.292L126.774 221.685V220.315L126.292 219.824H125.073L124.592 220.315V221.685Z" fill="#C3D5E2"/>
<path d="M130.324 223H129.289V221.962H130.324V223Z" fill="#C3D5E2"/>
<path d="M136.377 223H134.3L133.345 222.026V219.966L134.3 219H136.377L137.236 219.871L136.498 220.315L136.016 219.824H134.661L134.187 220.315V221.693L134.661 222.176H136.016L136.498 221.685L137.211 222.152L136.377 223Z" fill="#C3D5E2"/>
<path d="M141.035 223H138.267V219.04H141.115L141.949 219.626V220.648L141.436 220.949V220.972L141.989 221.281V222.343L141.035 223ZM139.093 219.832V220.624H140.786L141.123 220.378V220.069L140.786 219.832H139.093ZM139.093 221.345V222.2H140.77L141.163 221.923V221.622L140.77 221.345H139.093Z" fill="#C3D5E2"/>
<path d="M143.614 223H142.981V222.398L144.32 221.59V221.558H143.887L142.949 220.972V219.665L143.871 219H146.815V223H145.973V221.582H145.403L143.614 223ZM143.791 220.56L144.168 220.806H145.973V219.808H144.168L143.791 220.069V220.56Z" fill="#C3D5E2"/>
<path d="M150.165 223H149.299L149.331 219.816H147.598V219H151.866V219.816H150.141L150.165 223Z" fill="#C3D5E2"/>
<path d="M153.306 223H152.336V222.192H152.809L153.058 221.804V219H156.435V223H155.593V219.816H153.892V222.01L153.306 223Z" fill="#C3D5E2"/>
<path d="M160.322 223H158.381L157.426 222.026V219.966L158.381 219H160.322L161.277 219.966V222.026L160.322 223ZM158.261 221.685L158.742 222.176H159.961L160.443 221.685V220.315L159.961 219.824H158.742L158.261 220.315V221.685Z" fill="#C3D5E2"/>
<path d="M163.993 223H162.958V221.962H163.993V223Z" fill="#C3D5E2"/>
<path d="M170.046 223H167.969L167.014 222.026V219.966L167.969 219H170.046L170.905 219.871L170.167 220.315L169.685 219.824H168.33L167.856 220.315V221.693L168.33 222.176H169.685L170.167 221.685L170.88 222.152L170.046 223Z" fill="#C3D5E2"/>
<path d="M174.704 223H171.936V219.04H174.784L175.618 219.626V220.648L175.105 220.949V220.972L175.658 221.281V222.343L174.704 223ZM172.762 219.832V220.624H174.455L174.792 220.378V220.069L174.455 219.832H172.762ZM172.762 221.345V222.2H174.439L174.832 221.923V221.622L174.439 221.345H172.762Z" fill="#C3D5E2"/>
<path d="M177.283 223H176.65V222.398L177.989 221.59V221.558H177.556L176.618 220.972V219.665L177.54 219H180.484V223H179.642V221.582H179.072L177.283 223ZM177.46 220.56L177.837 220.806H179.642V219.808H177.837L177.46 220.069V220.56Z" fill="#C3D5E2"/>
<path d="M183.834 223H182.968L183 219.816H181.267V219H185.535V219.816H183.81L183.834 223Z" fill="#C3D5E2"/>
<path d="M186.975 223H186.005V222.192H186.478L186.727 221.804V219H190.104V223H189.262V219.816H187.561V222.01L186.975 223Z" fill="#C3D5E2"/>
<path d="M193.991 223H192.05L191.095 222.026V219.966L192.05 219H193.991L194.946 219.966V222.026L193.991 223ZM191.93 221.685L192.411 222.176H193.63L194.112 221.685V220.315L193.63 219.824H192.411L191.93 220.315V221.685Z" fill="#C3D5E2"/>
<path d="M197.662 223H196.627V221.962H197.662V223Z" fill="#C3D5E2"/>
<path d="M203.715 223H201.638L200.683 222.026V219.966L201.638 219H203.715L204.574 219.871L203.836 220.315L203.354 219.824H201.999L201.525 220.315V221.693L201.999 222.176H203.354L203.836 221.685L204.549 222.152L203.715 223Z" fill="#C3D5E2"/>
<path d="M208.373 223H205.605V219.04H208.453L209.287 219.626V220.648L208.774 220.949V220.972L209.327 221.281V222.343L208.373 223ZM206.431 219.832V220.624H208.124L208.461 220.378V220.069L208.124 219.832H206.431ZM206.431 221.345V222.2H208.108L208.501 221.923V221.622L208.108 221.345H206.431Z" fill="#C3D5E2"/>
<path d="M210.952 223H210.319V222.398L211.658 221.59V221.558H211.225L210.287 220.972V219.665L211.209 219H214.153V223H213.311V221.582H212.741L210.952 223ZM211.129 220.56L211.506 220.806H213.311V219.808H211.506L211.129 220.069V220.56Z" fill="#C3D5E2"/>
<path d="M217.503 223H216.637L216.669 219.816H214.936V219H219.204V219.816H217.479L217.503 223Z" fill="#C3D5E2"/>
<path d="M220.644 223H219.674V222.192H220.147L220.396 221.804V219H223.773V223H222.931V219.816H221.23V222.01L220.644 223Z" fill="#C3D5E2"/>
<path d="M227.66 223H225.719L224.764 222.026V219.966L225.719 219H227.66L228.615 219.966V222.026L227.66 223ZM225.599 221.685L226.08 222.176H227.299L227.781 221.685V220.315L227.299 219.824H226.08L225.599 220.315V221.685Z" fill="#C3D5E2"/>
<path d="M231.331 223H230.296V221.962H231.331V223Z" fill="#C3D5E2"/>
<path d="M237.384 223H235.307L234.352 222.026V219.966L235.307 219H237.384L238.243 219.871L237.505 220.315L237.023 219.824H235.668L235.194 220.315V221.693L235.668 222.176H237.023L237.505 221.685L238.218 222.152L237.384 223Z" fill="#C3D5E2"/>
<path d="M242.042 223H239.274V219.04H242.122L242.956 219.626V220.648L242.443 220.949V220.972L242.996 221.281V222.343L242.042 223ZM240.1 219.832V220.624H241.793L242.13 220.378V220.069L241.793 219.832H240.1ZM240.1 221.345V222.2H241.777L242.17 221.923V221.622L241.777 221.345H240.1Z" fill="#C3D5E2"/>
<path d="M244.622 223H243.988V222.398L245.327 221.59V221.558H244.894L243.956 220.972V219.665L244.878 219H247.822V223H246.98V221.582H246.41L244.622 223ZM244.798 220.56L245.175 220.806H246.98V219.808H245.175L244.798 220.069V220.56Z" fill="#C3D5E2"/>
<path d="M251.172 223H250.306L250.338 219.816H248.605V219H252.873V219.816H251.148L251.172 223Z" fill="#C3D5E2"/>
<path d="M254.313 223H253.343V222.192H253.816L254.065 221.804V219H257.442V223H256.6V219.816H254.899V222.01L254.313 223Z" fill="#C3D5E2"/>
<path d="M261.329 223H259.388L258.433 222.026V219.966L259.388 219H261.329L262.284 219.966V222.026L261.329 223ZM259.268 221.685L259.749 222.176H260.968L261.45 221.685V220.315L260.968 219.824H259.749L259.268 220.315V221.685Z" fill="#C3D5E2"/>
<path d="M265 223H263.965V221.962H265V223Z" fill="#C3D5E2"/>
<path d="M-45.9678 230H-48.0454L-49 229.026V226.966L-48.0454 226H-45.9678L-45.1095 226.871L-45.8475 227.315L-46.3288 226.824H-47.6844L-48.1577 227.315V228.693L-47.6844 229.176H-46.3288L-45.8475 228.685L-45.1336 229.152L-45.9678 230Z" fill="#C3D5E2"/>
<path d="M-41.3104 230H-44.0778V226.04H-41.2302L-40.3959 226.626V227.648L-40.9093 227.949V227.972L-40.3558 228.281V229.343L-41.3104 230ZM-43.2516 226.832V227.624H-41.559L-41.2221 227.378V227.069L-41.559 226.832H-43.2516ZM-43.2516 228.345V229.2H-41.5751L-41.182 228.923V228.622L-41.5751 228.345H-43.2516Z" fill="#C3D5E2"/>
<path d="M-38.7305 230H-39.3642V229.398L-38.0246 228.59V228.558H-38.4578L-39.3963 227.972V226.665L-38.4738 226H-35.5299V230H-36.3722V228.582H-36.9417L-38.7305 230ZM-38.5541 227.56L-38.177 227.806H-36.3722V226.808H-38.177L-38.5541 227.069V227.56Z" fill="#C3D5E2"/>
<path d="M-32.18 230H-33.0463L-33.0142 226.816H-34.7469V226H-30.4794V226.816H-32.204L-32.18 230Z" fill="#C3D5E2"/>
<path d="M-29.0386 230H-30.0092V229.192H-29.536L-29.2873 228.804V226H-25.9102V230H-26.7524V226.816H-28.453V229.01L-29.0386 230Z" fill="#C3D5E2"/>
<path d="M-22.0228 230H-23.964L-24.9186 229.026V226.966L-23.964 226H-22.0228L-21.0682 226.966V229.026L-22.0228 230ZM-24.0844 228.685L-23.6031 229.176H-22.3838L-21.9025 228.685V227.315L-22.3838 226.824H-23.6031L-24.0844 227.315V228.685Z" fill="#C3D5E2"/>
<path d="M-18.352 230H-19.3868V228.962H-18.352V230Z" fill="#C3D5E2"/>
<path d="M-12.2988 230H-14.3764L-15.331 229.026V226.966L-14.3764 226H-12.2988L-11.4405 226.871L-12.1785 227.315L-12.6598 226.824H-14.0154L-14.4887 227.315V228.693L-14.0154 229.176H-12.6598L-12.1785 228.685L-11.4646 229.152L-12.2988 230Z" fill="#C3D5E2"/>
<path d="M-7.64136 230H-10.4088V226.04H-7.56115L-6.72689 226.626V227.648L-7.24028 227.949V227.972L-6.68679 228.281V229.343L-7.64136 230ZM-9.5826 226.832V227.624H-7.89003L-7.55313 227.378V227.069L-7.89003 226.832H-9.5826ZM-9.5826 228.345V229.2H-7.90608L-7.51302 228.923V228.622L-7.90608 228.345H-9.5826Z" fill="#C3D5E2"/>
<path d="M-5.06153 230H-5.69524V229.398L-4.35562 228.59V228.558H-4.78879L-5.72732 227.972V226.665L-4.80483 226H-1.86089V230H-2.70316V228.582H-3.2727L-5.06153 230ZM-4.88505 227.56L-4.50803 227.806H-2.70316V226.808H-4.50803L-4.88505 227.069V227.56Z" fill="#C3D5E2"/>
<path d="M1.48903 230H0.622692L0.654778 226.816H-1.0779V226H3.18962V226.816H1.46497L1.48903 230Z" fill="#C3D5E2"/>
<path d="M4.63039 230H3.65976V229.192H4.13304L4.38171 228.804V226H7.75883V230H6.91656V226.816H5.21597V229.01L4.63039 230Z" fill="#C3D5E2"/>
<path d="M11.6462 230H9.70496L8.75038 229.026V226.966L9.70496 226H11.6462L12.6008 226.966V229.026L11.6462 230ZM9.58463 228.685L10.0659 229.176H11.2852L11.7665 228.685V227.315L11.2852 226.824H10.0659L9.58463 227.315V228.685Z" fill="#C3D5E2"/>
<path d="M15.317 230H14.2822V228.962H15.317V230Z" fill="#C3D5E2"/>
<path d="M21.3702 230H19.2926L18.338 229.026V226.966L19.2926 226H21.3702L22.2285 226.871L21.4905 227.315L21.0092 226.824H19.6536L19.1803 227.315V228.693L19.6536 229.176H21.0092L21.4905 228.685L22.2045 229.152L21.3702 230Z" fill="#C3D5E2"/>
<path d="M26.0276 230H23.2602V226.04H26.1079L26.9421 226.626V227.648L26.4287 227.949V227.972L26.9822 228.281V229.343L26.0276 230ZM24.0864 226.832V227.624H25.779L26.1159 227.378V227.069L25.779 226.832H24.0864ZM24.0864 228.345V229.2H25.7629L26.156 228.923V228.622L25.7629 228.345H24.0864Z" fill="#C3D5E2"/>
<path d="M28.6075 230H27.9738V229.398L29.3134 228.59V228.558H28.8802L27.9417 227.972V226.665L28.8642 226H31.8081V230H30.9658V228.582H30.3963L28.6075 230ZM28.784 227.56L29.161 227.806H30.9658V226.808H29.161L28.784 227.069V227.56Z" fill="#C3D5E2"/>
<path d="M35.158 230H34.2917L34.3238 226.816H32.5911V226H36.8586V226.816H35.134L35.158 230Z" fill="#C3D5E2"/>
<path d="M38.2994 230H37.3288V229.192H37.802L38.0507 228.804V226H41.4278V230H40.5856V226.816H38.885V229.01L38.2994 230Z" fill="#C3D5E2"/>
<path d="M45.3152 230H43.374L42.4194 229.026V226.966L43.374 226H45.3152L46.2698 226.966V229.026L45.3152 230ZM43.2536 228.685L43.7349 229.176H44.9542L45.4355 228.685V227.315L44.9542 226.824H43.7349L43.2536 227.315V228.685Z" fill="#C3D5E2"/>
<path d="M48.986 230H47.9512V228.962H48.986V230Z" fill="#C3D5E2"/>
<path d="M55.0392 230H52.9616L52.007 229.026V226.966L52.9616 226H55.0392L55.8975 226.871L55.1595 227.315L54.6782 226.824H53.3226L52.8493 227.315V228.693L53.3226 229.176H54.6782L55.1595 228.685L55.8735 229.152L55.0392 230Z" fill="#C3D5E2"/>
<path d="M59.6966 230H56.9292V226.04H59.7769L60.6111 226.626V227.648L60.0977 227.949V227.972L60.6512 228.281V229.343L59.6966 230ZM57.7554 226.832V227.624H59.448L59.7849 227.378V227.069L59.448 226.832H57.7554ZM57.7554 228.345V229.2H59.4319L59.825 228.923V228.622L59.4319 228.345H57.7554Z" fill="#C3D5E2"/>
<path d="M62.2765 230H61.6428V229.398L62.9824 228.59V228.558H62.5492L61.6107 227.972V226.665L62.5332 226H65.4771V230H64.6348V228.582H64.0653L62.2765 230ZM62.453 227.56L62.83 227.806H64.6348V226.808H62.83L62.453 227.069V227.56Z" fill="#C3D5E2"/>
<path d="M68.827 230H67.9607L67.9928 226.816H66.2601V226H70.5276V226.816H68.803L68.827 230Z" fill="#C3D5E2"/>
<path d="M71.9684 230H70.9978V229.192H71.4711L71.7197 228.804V226H75.0968V230H74.2546V226.816H72.554V229.01L71.9684 230Z" fill="#C3D5E2"/>
<path d="M78.9842 230H77.043L76.0884 229.026V226.966L77.043 226H78.9842L79.9388 226.966V229.026L78.9842 230ZM76.9226 228.685L77.4039 229.176H78.6232L79.1045 228.685V227.315L78.6232 226.824H77.4039L76.9226 227.315V228.685Z" fill="#C3D5E2"/>
<path d="M82.655 230H81.6202V228.962H82.655V230Z" fill="#C3D5E2"/>
<path d="M88.7082 230H86.6306L85.676 229.026V226.966L86.6306 226H88.7082L89.5665 226.871L88.8285 227.315L88.3472 226.824H86.9916L86.5183 227.315V228.693L86.9916 229.176H88.3472L88.8285 228.685L89.5425 229.152L88.7082 230Z" fill="#C3D5E2"/>
<path d="M93.3656 230H90.5982V226.04H93.4459L94.2801 226.626V227.648L93.7667 227.949V227.972L94.3202 228.281V229.343L93.3656 230ZM91.4244 226.832V227.624H93.117L93.4539 227.378V227.069L93.117 226.832H91.4244ZM91.4244 228.345V229.2H93.1009L93.494 228.923V228.622L93.1009 228.345H91.4244Z" fill="#C3D5E2"/>
<path d="M95.9455 230H95.3118V229.398L96.6514 228.59V228.558H96.2182L95.2797 227.972V226.665L96.2022 226H99.1461V230H98.3038V228.582H97.7343L95.9455 230ZM96.122 227.56L96.499 227.806H98.3038V226.808H96.499L96.122 227.069V227.56Z" fill="#C3D5E2"/>
<path d="M102.496 230H101.63L101.662 226.816H99.9291V226H104.197V226.816H102.472L102.496 230Z" fill="#C3D5E2"/>
<path d="M105.637 230H104.667V229.192H105.14L105.389 228.804V226H108.766V230H107.924V226.816H106.223V229.01L105.637 230Z" fill="#C3D5E2"/>
<path d="M112.653 230H110.712L109.757 229.026V226.966L110.712 226H112.653L113.608 226.966V229.026L112.653 230ZM110.592 228.685L111.073 229.176H112.292L112.774 228.685V227.315L112.292 226.824H111.073L110.592 227.315V228.685Z" fill="#C3D5E2"/>
<path d="M116.324 230H115.289V228.962H116.324V230Z" fill="#C3D5E2"/>
<path d="M122.377 230H120.3L119.345 229.026V226.966L120.3 226H122.377L123.236 226.871L122.498 227.315L122.016 226.824H120.661L120.187 227.315V228.693L120.661 229.176H122.016L122.498 228.685L123.211 229.152L122.377 230Z" fill="#C3D5E2"/>
<path d="M127.035 230H124.267V226.04H127.115L127.949 226.626V227.648L127.436 227.949V227.972L127.989 228.281V229.343L127.035 230ZM125.093 226.832V227.624H126.786L127.123 227.378V227.069L126.786 226.832H125.093ZM125.093 228.345V229.2H126.77L127.163 228.923V228.622L126.77 228.345H125.093Z" fill="#C3D5E2"/>
<path d="M129.614 230H128.981V229.398L130.32 228.59V228.558H129.887L128.949 227.972V226.665L129.871 226H132.815V230H131.973V228.582H131.403L129.614 230ZM129.791 227.56L130.168 227.806H131.973V226.808H130.168L129.791 227.069V227.56Z" fill="#C3D5E2"/>
<path d="M136.165 230H135.299L135.331 226.816H133.598V226H137.866V226.816H136.141L136.165 230Z" fill="#C3D5E2"/>
<path d="M139.306 230H138.336V229.192H138.809L139.058 228.804V226H142.435V230H141.593V226.816H139.892V229.01L139.306 230Z" fill="#C3D5E2"/>
<path d="M146.322 230H144.381L143.426 229.026V226.966L144.381 226H146.322L147.277 226.966V229.026L146.322 230ZM144.261 228.685L144.742 229.176H145.961L146.443 228.685V227.315L145.961 226.824H144.742L144.261 227.315V228.685Z" fill="#C3D5E2"/>
<path d="M149.993 230H148.958V228.962H149.993V230Z" fill="#C3D5E2"/>
<path d="M156.046 230H153.969L153.014 229.026V226.966L153.969 226H156.046L156.905 226.871L156.167 227.315L155.685 226.824H154.33L153.856 227.315V228.693L154.33 229.176H155.685L156.167 228.685L156.88 229.152L156.046 230Z" fill="#C3D5E2"/>
<path d="M160.704 230H157.936V226.04H160.784L161.618 226.626V227.648L161.105 227.949V227.972L161.658 228.281V229.343L160.704 230ZM158.762 226.832V227.624H160.455L160.792 227.378V227.069L160.455 226.832H158.762ZM158.762 228.345V229.2H160.439L160.832 228.923V228.622L160.439 228.345H158.762Z" fill="#C3D5E2"/>
<path d="M163.283 230H162.65V229.398L163.989 228.59V228.558H163.556L162.618 227.972V226.665L163.54 226H166.484V230H165.642V228.582H165.072L163.283 230ZM163.46 227.56L163.837 227.806H165.642V226.808H163.837L163.46 227.069V227.56Z" fill="#C3D5E2"/>
<path d="M169.834 230H168.968L169 226.816H167.267V226H171.535V226.816H169.81L169.834 230Z" fill="#C3D5E2"/>
<path d="M172.975 230H172.005V229.192H172.478L172.727 228.804V226H176.104V230H175.262V226.816H173.561V229.01L172.975 230Z" fill="#C3D5E2"/>
<path d="M179.991 230H178.05L177.095 229.026V226.966L178.05 226H179.991L180.946 226.966V229.026L179.991 230ZM177.93 228.685L178.411 229.176H179.63L180.112 228.685V227.315L179.63 226.824H178.411L177.93 227.315V228.685Z" fill="#C3D5E2"/>
<path d="M183.662 230H182.627V228.962H183.662V230Z" fill="#C3D5E2"/>
<path d="M189.715 230H187.638L186.683 229.026V226.966L187.638 226H189.715L190.574 226.871L189.836 227.315L189.354 226.824H187.999L187.525 227.315V228.693L187.999 229.176H189.354L189.836 228.685L190.549 229.152L189.715 230Z" fill="#C3D5E2"/>
<path d="M194.373 230H191.605V226.04H194.453L195.287 226.626V227.648L194.774 227.949V227.972L195.327 228.281V229.343L194.373 230ZM192.431 226.832V227.624H194.124L194.461 227.378V227.069L194.124 226.832H192.431ZM192.431 228.345V229.2H194.108L194.501 228.923V228.622L194.108 228.345H192.431Z" fill="#C3D5E2"/>
<path d="M196.952 230H196.319V229.398L197.658 228.59V228.558H197.225L196.287 227.972V226.665L197.209 226H200.153V230H199.311V228.582H198.741L196.952 230ZM197.129 227.56L197.506 227.806H199.311V226.808H197.506L197.129 227.069V227.56Z" fill="#C3D5E2"/>
<path d="M203.503 230H202.637L202.669 226.816H200.936V226H205.204V226.816H203.479L203.503 230Z" fill="#C3D5E2"/>
<path d="M206.644 230H205.674V229.192H206.147L206.396 228.804V226H209.773V230H208.931V226.816H207.23V229.01L206.644 230Z" fill="#C3D5E2"/>
<path d="M213.66 230H211.719L210.764 229.026V226.966L211.719 226H213.66L214.615 226.966V229.026L213.66 230ZM211.599 228.685L212.08 229.176H213.299L213.781 228.685V227.315L213.299 226.824H212.08L211.599 227.315V228.685Z" fill="#C3D5E2"/>
<path d="M217.331 230H216.296V228.962H217.331V230Z" fill="#C3D5E2"/>
<path d="M223.384 230H221.307L220.352 229.026V226.966L221.307 226H223.384L224.243 226.871L223.505 227.315L223.023 226.824H221.668L221.194 227.315V228.693L221.668 229.176H223.023L223.505 228.685L224.218 229.152L223.384 230Z" fill="#C3D5E2"/>
<path d="M228.042 230H225.274V226.04H228.122L228.956 226.626V227.648L228.443 227.949V227.972L228.996 228.281V229.343L228.042 230ZM226.1 226.832V227.624H227.793L228.13 227.378V227.069L227.793 226.832H226.1ZM226.1 228.345V229.2H227.777L228.17 228.923V228.622L227.777 228.345H226.1Z" fill="#C3D5E2"/>
<path d="M230.622 230H229.988V229.398L231.327 228.59V228.558H230.894L229.956 227.972V226.665L230.878 226H233.822V230H232.98V228.582H232.41L230.622 230ZM230.798 227.56L231.175 227.806H232.98V226.808H231.175L230.798 227.069V227.56Z" fill="#C3D5E2"/>
<path d="M237.172 230H236.306L236.338 226.816H234.605V226H238.873V226.816H237.148L237.172 230Z" fill="#C3D5E2"/>
<path d="M240.313 230H239.343V229.192H239.816L240.065 228.804V226H243.442V230H242.6V226.816H240.899V229.01L240.313 230Z" fill="#C3D5E2"/>
<path d="M247.329 230H245.388L244.433 229.026V226.966L245.388 226H247.329L248.284 226.966V229.026L247.329 230ZM245.268 228.685L245.749 229.176H246.968L247.45 228.685V227.315L246.968 226.824H245.749L245.268 227.315V228.685Z" fill="#C3D5E2"/>
<path d="M251 230H249.965V228.962H251V230Z" fill="#C3D5E2"/>
</g>
<defs>
<filter id="filter0_d_63_1195" x="0" y="0" width="208" height="238" filterUnits="userSpaceOnUse" color-interpolation-filters="sRGB">
<feFlood flood-opacity="0" result="BackgroundImageFix"/>
<feColorMatrix in="SourceAlpha" type="matrix" values="0 0 0 0 0 0 0 0 0 0 0 0 0 0 0 0 0 0 127 0" result="hardAlpha"/>
<feOffset dx="2" dy="2"/>
<feGaussianBlur stdDeviation="2"/>
<feComposite in2="hardAlpha" operator="out"/>
<feColorMatrix type="matrix" values="0 0 0 0 0.623529 0 0 0 0 0.623529 0 0 0 0 0.623529 0 0 0 0.25 0"/>
<feBlend mode="normal" in2="BackgroundImageFix" result="effect1_dropShadow_63_1195"/>
<feBlend mode="normal" in="SourceGraphic" in2="effect1_dropShadow_63_1195" result="shape"/>
</filter>
</defs>
</svg>
