<svg width="208" height="238" viewBox="0 0 208 238" fill="none" xmlns="http://www.w3.org/2000/svg">
<g clip-path="url(#clip0_185_4644)" filter="url(#filter0_dd_185_4644)">
<g filter="url(#filter1_d_185_4644)">
<rect x="4" width="200" height="230" fill="#EDEDED"/>
</g>
<mask id="mask0_185_4644" style="mask-type:alpha" maskUnits="userSpaceOnUse" x="4" y="0" width="200" height="230">
<rect x="4" width="200" height="230" fill="#EDEDED"/>
</mask>
<g mask="url(#mask0_185_4644)">
<path d="M-21.1992 160V164H-20.4024V162.4H-19.3744L-17.7807 164H-17.2149V163.432L-18.6413 162L-17.2149 160.568V160H-17.7807L-19.3744 161.6H-20.4024V160H-21.1992Z" fill="#E2C3C3"/>
<path d="M-16.4212 162.968L-15.3932 164H-12.4368V161.032L-13.4648 160H-15.6243V160.8H-13.7995L-13.2337 161.368V161.6H-15.3932L-16.4212 162.632V162.968ZM-15.0585 163.2L-15.4569 162.8L-15.0585 162.4H-13.2337V163.2H-15.0585Z" fill="#E2C3C3"/>
<path d="M-11.6431 160.568L-10.2167 162L-11.6431 163.432V164H-11.0773L-9.65092 162.568L-8.22454 164H-7.65876V163.432L-9.08515 162L-7.65876 160.568V160H-8.22454L-9.65092 161.432L-11.0773 160H-11.6431V160.568Z" fill="#E2C3C3"/>
<path d="M-6.86501 162.968L-5.83706 164H-2.8807V161.032L-3.90865 160H-6.06815V160.8H-4.24333L-3.67756 161.368V161.6H-5.83706L-6.86501 162.632V162.968ZM-5.50238 163.2L-5.90081 162.8L-5.50238 162.4H-3.67756V163.2H-5.50238Z" fill="#E2C3C3"/>
<path d="M-2.08695 160V164H-1.29008V162.4H1.10051V164H1.89737V160H1.10051V161.6H-1.29008V160H-2.08695Z" fill="#E2C3C3"/>
<path d="M2.69112 160V164H3.48799V162.4H5.87858V164H6.67544V160H5.87858V161.6H3.48799V160H2.69112Z" fill="#E2C3C3"/>
<path d="M7.46919 161.032V162.968L8.49714 164H10.6566V163.2H8.83183L8.26605 162.632V162.4H11.4535V161.032L10.4256 160H8.49714L7.46919 161.032ZM8.83183 160.8H10.0909L10.6566 161.368V161.6H8.26605V161.368L8.83183 160.8Z" fill="#E2C3C3"/>
<path d="M13.841 164H14.6379V163.2H13.841V164Z" fill="#E2C3C3"/>
<path d="M17.0253 160V164H17.8222V162.4H18.8501L20.4439 164H21.0096V163.432L19.5833 162L21.0096 160.568V160H20.4439L18.8501 161.6H17.8222V160H17.0253Z" fill="#E2C3C3"/>
<path d="M21.8034 162.968L22.8314 164H25.7877V161.032L24.7598 160H22.6003V160.8H24.4251L24.9909 161.368V161.6H22.8314L21.8034 162.632V162.968ZM23.166 163.2L22.7676 162.8L23.166 162.4H24.9909V163.2H23.166Z" fill="#E2C3C3"/>
<path d="M26.5815 160.568L28.0078 162L26.5815 163.432V164H27.1472L28.5736 162.568L30 164H30.5658V163.432L29.1394 162L30.5658 160.568V160H30L28.5736 161.432L27.1472 160H26.5815V160.568Z" fill="#E2C3C3"/>
<path d="M31.3595 162.968L32.3875 164H35.3439V161.032L34.3159 160H32.1564V160.8H33.9812L34.547 161.368V161.6H32.3875L31.3595 162.632V162.968ZM32.7222 163.2L32.3237 162.8L32.7222 162.4H34.547V163.2H32.7222Z" fill="#E2C3C3"/>
<path d="M36.1376 160V164H36.9345V162.4H39.3251V164H40.1219V160H39.3251V161.6H36.9345V160H36.1376Z" fill="#E2C3C3"/>
<path d="M40.9157 160V164H41.7125V162.4H44.1031V164H44.9V160H44.1031V161.6H41.7125V160H40.9157Z" fill="#E2C3C3"/>
<path d="M45.6937 161.032V162.968L46.7217 164H48.8812V163.2H47.0564L46.4906 162.632V162.4H49.6781V161.032L48.6501 160H46.7217L45.6937 161.032ZM47.0564 160.8H48.3154L48.8812 161.368V161.6H46.4906V161.368L47.0564 160.8Z" fill="#E2C3C3"/>
<path d="M52.0655 164H52.8624V163.2H52.0655V164Z" fill="#E2C3C3"/>
<path d="M55.2499 160V164H56.0467V162.4H57.0747L58.6684 164H59.2342V163.432L57.8078 162L59.2342 160.568V160H58.6684L57.0747 161.6H56.0467V160H55.2499Z" fill="#E2C3C3"/>
<path d="M60.0279 162.968L61.0559 164H64.0123V161.032L62.9843 160H60.8248V160.8H62.6496L63.2154 161.368V161.6H61.0559L60.0279 162.632V162.968ZM61.3906 163.2L60.9921 162.8L61.3906 162.4H63.2154V163.2H61.3906Z" fill="#E2C3C3"/>
<path d="M64.806 160.568L66.2324 162L64.806 163.432V164H65.3718L66.7982 162.568L68.2246 164H68.7903V163.432L67.3639 162L68.7903 160.568V160H68.2246L66.7982 161.432L65.3718 160H64.806V160.568Z" fill="#E2C3C3"/>
<path d="M69.5841 162.968L70.612 164H73.5684V161.032L72.5404 160H70.3809V160.8H72.2058L72.7715 161.368V161.6H70.612L69.5841 162.632V162.968ZM70.9467 163.2L70.5483 162.8L70.9467 162.4H72.7715V163.2H70.9467Z" fill="#E2C3C3"/>
<path d="M74.3621 160V164H75.159V162.4H77.5496V164H78.3465V160H77.5496V161.6H75.159V160H74.3621Z" fill="#E2C3C3"/>
<path d="M79.1402 160V164H79.9371V162.4H82.3277V164H83.1245V160H82.3277V161.6H79.9371V160H79.1402Z" fill="#E2C3C3"/>
<path d="M83.9183 161.032V162.968L84.9462 164H87.1057V163.2H85.2809L84.7152 162.632V162.4H87.9026V161.032L86.8746 160H84.9462L83.9183 161.032ZM85.2809 160.8H86.54L87.1057 161.368V161.6H84.7152V161.368L85.2809 160.8Z" fill="#E2C3C3"/>
<path d="M90.2901 164H91.0869V163.2H90.2901V164Z" fill="#E2C3C3"/>
<path d="M93.4744 160V164H94.2713V162.4H95.2992L96.893 164H97.4587V163.432L96.0324 162L97.4587 160.568V160H96.893L95.2992 161.6H94.2713V160H93.4744Z" fill="#E2C3C3"/>
<path d="M98.2525 162.968L99.2804 164H102.237V161.032L101.209 160H99.0494V160.8H100.874L101.44 161.368V161.6H99.2804L98.2525 162.632V162.968ZM99.6151 163.2L99.2167 162.8L99.6151 162.4H101.44V163.2H99.6151Z" fill="#E2C3C3"/>
<path d="M103.031 160.568L104.457 162L103.031 163.432V164H103.596L105.023 162.568L106.449 164H107.015V163.432L105.588 162L107.015 160.568V160H106.449L105.023 161.432L103.596 160H103.031V160.568Z" fill="#E2C3C3"/>
<path d="M107.809 162.968L108.837 164H111.793V161.032L110.765 160H108.605V160.8H110.43L110.996 161.368V161.6H108.837L107.809 162.632V162.968ZM109.171 163.2L108.773 162.8L109.171 162.4H110.996V163.2H109.171Z" fill="#E2C3C3"/>
<path d="M112.587 160V164H113.384V162.4H115.774V164H116.571V160H115.774V161.6H113.384V160H112.587Z" fill="#E2C3C3"/>
<path d="M117.365 160V164H118.162V162.4H120.552V164H121.349V160H120.552V161.6H118.162V160H117.365Z" fill="#E2C3C3"/>
<path d="M122.143 161.032V162.968L123.171 164H125.33V163.2H123.505L122.94 162.632V162.4H126.127V161.032L125.099 160H123.171L122.143 161.032ZM123.505 160.8H124.765L125.33 161.368V161.6H122.94V161.368L123.505 160.8Z" fill="#E2C3C3"/>
<path d="M128.515 164H129.311V163.2H128.515V164Z" fill="#E2C3C3"/>
<path d="M131.699 160V164H132.496V162.4H133.524L135.118 164H135.683V163.432L134.257 162L135.683 160.568V160H135.118L133.524 161.6H132.496V160H131.699Z" fill="#E2C3C3"/>
<path d="M136.477 162.968L137.505 164H140.461V161.032L139.433 160H137.274V160.8H139.099L139.664 161.368V161.6H137.505L136.477 162.632V162.968ZM137.84 163.2L137.441 162.8L137.84 162.4H139.664V163.2H137.84Z" fill="#E2C3C3"/>
<path d="M141.255 160.568L142.681 162L141.255 163.432V164H141.821L143.247 162.568L144.674 164H145.239V163.432L143.813 162L145.239 160.568V160H144.674L143.247 161.432L141.821 160H141.255V160.568Z" fill="#E2C3C3"/>
<path d="M146.033 162.968L147.061 164H150.017V161.032L148.99 160H146.83V160.8H148.655L149.221 161.368V161.6H147.061L146.033 162.632V162.968ZM147.396 163.2L146.997 162.8L147.396 162.4H149.221V163.2H147.396Z" fill="#E2C3C3"/>
<path d="M150.811 160V164H151.608V162.4H153.999V164H154.796V160H153.999V161.6H151.608V160H150.811Z" fill="#E2C3C3"/>
<path d="M155.589 160V164H156.386V162.4H158.777V164H159.574V160H158.777V161.6H156.386V160H155.589Z" fill="#E2C3C3"/>
<path d="M160.367 161.032V162.968L161.395 164H163.555V163.2H161.73L161.164 162.632V162.4H164.352V161.032L163.324 160H161.395L160.367 161.032ZM161.73 160.8H162.989L163.555 161.368V161.6H161.164V161.368L161.73 160.8Z" fill="#E2C3C3"/>
<path d="M166.739 164H167.536V163.2H166.739V164Z" fill="#E2C3C3"/>
<path d="M169.924 160V164H170.72V162.4H171.748L173.342 164H173.908V163.432L172.481 162L173.908 160.568V160H173.342L171.748 161.6H170.72V160H169.924Z" fill="#E2C3C3"/>
<path d="M174.702 162.968L175.73 164H178.686V161.032L177.658 160H175.498V160.8H177.323L177.889 161.368V161.6H175.73L174.702 162.632V162.968ZM176.064 163.2L175.666 162.8L176.064 162.4H177.889V163.2H176.064Z" fill="#E2C3C3"/>
<path d="M179.48 160.568L180.906 162L179.48 163.432V164H180.045L181.472 162.568L182.898 164H183.464V163.432L182.038 162L183.464 160.568V160H182.898L181.472 161.432L180.045 160H179.48V160.568Z" fill="#E2C3C3"/>
<path d="M184.258 162.968L185.286 164H188.242V161.032L187.214 160H185.055V160.8H186.879L187.445 161.368V161.6H185.286L184.258 162.632V162.968ZM185.62 163.2L185.222 162.8L185.62 162.4H187.445V163.2H185.62Z" fill="#E2C3C3"/>
<path d="M189.036 160V164H189.833V162.4H192.223V164H193.02V160H192.223V161.6H189.833V160H189.036Z" fill="#E2C3C3"/>
<path d="M193.814 160V164H194.611V162.4H197.001V164H197.798V160H197.001V161.6H194.611V160H193.814Z" fill="#E2C3C3"/>
<path d="M198.592 161.032V162.968L199.62 164H201.779V163.2H199.955L199.389 162.632V162.4H202.576V161.032L201.548 160H199.62L198.592 161.032ZM199.955 160.8H201.214L201.779 161.368V161.6H199.389V161.368L199.955 160.8Z" fill="#E2C3C3"/>
<path d="M204.964 164H205.761V163.2H204.964V164Z" fill="#E2C3C3"/>
<path d="M208.148 160V164H208.945V162.4H209.973L211.567 164H212.132V163.432L210.706 162L212.132 160.568V160H211.567L209.973 161.6H208.945V160H208.148Z" fill="#E2C3C3"/>
<path d="M212.926 162.968L213.954 164H216.91V161.032L215.882 160H213.723V160.8H215.548L216.114 161.368V161.6H213.954L212.926 162.632V162.968ZM214.289 163.2L213.89 162.8L214.289 162.4H216.114V163.2H214.289Z" fill="#E2C3C3"/>
<path d="M217.704 160.568L219.131 162L217.704 163.432V164H218.27L219.696 162.568L221.123 164H221.689V163.432L220.262 162L221.689 160.568V160H221.123L219.696 161.432L218.27 160H217.704V160.568Z" fill="#E2C3C3"/>
<path d="M222.482 162.968L223.51 164H226.467V161.032L225.439 160H223.279V160.8H225.104L225.67 161.368V161.6H223.51L222.482 162.632V162.968ZM223.845 163.2L223.446 162.8L223.845 162.4H225.67V163.2H223.845Z" fill="#E2C3C3"/>
<path d="M227.26 160V164H228.057V162.4H230.448V164H231.245V160H230.448V161.6H228.057V160H227.26Z" fill="#E2C3C3"/>
<path d="M232.038 160V164H232.835V162.4H235.226V164H236.023V160H235.226V161.6H232.835V160H232.038Z" fill="#E2C3C3"/>
<path d="M236.816 161.032V162.968L237.844 164H240.004V163.2H238.179L237.613 162.632V162.4H240.801V161.032L239.773 160H237.844L236.816 161.032ZM238.179 160.8H239.438L240.004 161.368V161.6H237.613V161.368L238.179 160.8Z" fill="#E2C3C3"/>
<path d="M-31 167V171H-30.2031V169.4H-29.1752L-27.5815 171H-27.0157V170.432L-28.4421 169L-27.0157 167.568V167H-27.5815L-29.1752 168.6H-30.2031V167H-31Z" fill="#E2C3C3"/>
<path d="M-26.2219 169.968L-25.194 171H-22.2376V168.032L-23.2656 167H-25.4251V167.8H-23.6003L-23.0345 168.368V168.6H-25.194L-26.2219 169.632V169.968ZM-24.8593 170.2L-25.2577 169.8L-24.8593 169.4H-23.0345V170.2H-24.8593Z" fill="#E2C3C3"/>
<path d="M-21.4439 167.568L-20.0175 169L-21.4439 170.432V171H-20.8781L-19.4517 169.568L-18.0253 171H-17.4595V170.432L-18.8859 169L-17.4595 167.568V167H-18.0253L-19.4517 168.432L-20.8781 167H-21.4439V167.568Z" fill="#E2C3C3"/>
<path d="M-16.6658 169.968L-15.6378 171H-12.6815V168.032L-13.7094 167H-15.8689V167.8H-14.0441L-13.4783 168.368V168.6H-15.6378L-16.6658 169.632V169.968ZM-15.3032 170.2L-15.7016 169.8L-15.3032 169.4H-13.4783V170.2H-15.3032Z" fill="#E2C3C3"/>
<path d="M-11.8877 167V171H-11.0909V169.4H-8.70027V171H-7.90341V167H-8.70027V168.6H-11.0909V167H-11.8877Z" fill="#E2C3C3"/>
<path d="M-7.10966 167V171H-6.3128V169.4H-3.9222V171H-3.12534V167H-3.9222V168.6H-6.3128V167H-7.10966Z" fill="#E2C3C3"/>
<path d="M-2.33159 168.032V169.968L-1.30364 171H0.855865V170.2H-0.968954L-1.53473 169.632V169.4H1.65273V168.032L0.624774 167H-1.30364L-2.33159 168.032ZM-0.968954 167.8H0.290091L0.855865 168.368V168.6H-1.53473V168.368L-0.968954 167.8Z" fill="#E2C3C3"/>
<path d="M4.0402 171H4.83707V170.2H4.0402V171Z" fill="#E2C3C3"/>
<path d="M7.22455 167V171H8.02141V169.4H9.04936L10.6431 171H11.2089V170.432L9.78248 169L11.2089 167.568V167H10.6431L9.04936 168.6H8.02141V167H7.22455Z" fill="#E2C3C3"/>
<path d="M12.0026 169.968L13.0306 171H15.9869V168.032L14.959 167H12.7995V167.8H14.6243L15.1901 168.368V168.6H13.0306L12.0026 169.632V169.968ZM13.3653 170.2L12.9668 169.8L13.3653 169.4H15.1901V170.2H13.3653Z" fill="#E2C3C3"/>
<path d="M16.7807 167.568L18.2071 169L16.7807 170.432V171H17.3465L18.7728 169.568L20.1992 171H20.765V170.432L19.3386 169L20.765 167.568V167H20.1992L18.7728 168.432L17.3465 167H16.7807V167.568Z" fill="#E2C3C3"/>
<path d="M21.5588 169.968L22.5867 171H25.5431V168.032L24.5151 167H22.3556V167.8H24.1804L24.7462 168.368V168.6H22.5867L21.5588 169.632V169.968ZM22.9214 170.2L22.523 169.8L22.9214 169.4H24.7462V170.2H22.9214Z" fill="#E2C3C3"/>
<path d="M26.3368 167V171H27.1337V169.4H29.5243V171H30.3211V167H29.5243V168.6H27.1337V167H26.3368Z" fill="#E2C3C3"/>
<path d="M31.1149 167V171H31.9118V169.4H34.3023V171H35.0992V167H34.3023V168.6H31.9118V167H31.1149Z" fill="#E2C3C3"/>
<path d="M35.893 168.032V169.968L36.9209 171H39.0804V170.2H37.2556L36.6898 169.632V169.4H39.8773V168.032L38.8493 167H36.9209L35.893 168.032ZM37.2556 167.8H38.5146L39.0804 168.368V168.6H36.6898V168.368L37.2556 167.8Z" fill="#E2C3C3"/>
<path d="M42.2648 171H43.0616V170.2H42.2648V171Z" fill="#E2C3C3"/>
<path d="M45.4491 167V171H46.246V169.4H47.2739L48.8676 171H49.4334V170.432L48.007 169L49.4334 167.568V167H48.8676L47.2739 168.6H46.246V167H45.4491Z" fill="#E2C3C3"/>
<path d="M50.2272 169.968L51.2551 171H54.2115V168.032L53.1835 167H51.024V167.8H52.8488L53.4146 168.368V168.6H51.2551L50.2272 169.632V169.968ZM51.5898 170.2L51.1914 169.8L51.5898 169.4H53.4146V170.2H51.5898Z" fill="#E2C3C3"/>
<path d="M55.0052 167.568L56.4316 169L55.0052 170.432V171H55.571L56.9974 169.568L58.4238 171H58.9895V170.432L57.5632 169L58.9895 167.568V167H58.4238L56.9974 168.432L55.571 167H55.0052V167.568Z" fill="#E2C3C3"/>
<path d="M59.7833 169.968L60.8112 171H63.7676V168.032L62.7397 167H60.5802V167.8H62.405L62.9707 168.368V168.6H60.8112L59.7833 169.632V169.968ZM61.1459 170.2L60.7475 169.8L61.1459 169.4H62.9707V170.2H61.1459Z" fill="#E2C3C3"/>
<path d="M64.5614 167V171H65.3582V169.4H67.7488V171H68.5457V167H67.7488V168.6H65.3582V167H64.5614Z" fill="#E2C3C3"/>
<path d="M69.3394 167V171H70.1363V169.4H72.5269V171H73.3238V167H72.5269V168.6H70.1363V167H69.3394Z" fill="#E2C3C3"/>
<path d="M74.1175 168.032V169.968L75.1455 171H77.305V170.2H75.4801L74.9144 169.632V169.4H78.1018V168.032L77.0739 167H75.1455L74.1175 168.032ZM75.4801 167.8H76.7392L77.305 168.368V168.6H74.9144V168.368L75.4801 167.8Z" fill="#E2C3C3"/>
<path d="M80.4893 171H81.2862V170.2H80.4893V171Z" fill="#E2C3C3"/>
<path d="M83.6736 167V171H84.4705V169.4H85.4985L87.0922 171H87.658V170.432L86.2316 169L87.658 167.568V167H87.0922L85.4985 168.6H84.4705V167H83.6736Z" fill="#E2C3C3"/>
<path d="M88.4517 169.968L89.4797 171H92.436V168.032L91.4081 167H89.2486V167.8H91.0734L91.6392 168.368V168.6H89.4797L88.4517 169.632V169.968ZM89.8143 170.2L89.4159 169.8L89.8143 169.4H91.6392V170.2H89.8143Z" fill="#E2C3C3"/>
<path d="M93.2298 167.568L94.6562 169L93.2298 170.432V171H93.7955L95.2219 169.568L96.6483 171H97.2141V170.432L95.7877 169L97.2141 167.568V167H96.6483L95.2219 168.432L93.7955 167H93.2298V167.568Z" fill="#E2C3C3"/>
<path d="M98.0078 169.968L99.0358 171H101.992V168.032L100.964 167H98.8047V167.8H100.63L101.195 168.368V168.6H99.0358L98.0078 169.632V169.968ZM99.3705 170.2L98.9721 169.8L99.3705 169.4H101.195V170.2H99.3705Z" fill="#E2C3C3"/>
<path d="M102.786 167V171H103.583V169.4H105.973V171H106.77V167H105.973V168.6H103.583V167H102.786Z" fill="#E2C3C3"/>
<path d="M107.564 167V171H108.361V169.4H110.751V171H111.548V167H110.751V168.6H108.361V167H107.564Z" fill="#E2C3C3"/>
<path d="M112.342 168.032V169.968L113.37 171H115.53V170.2H113.705L113.139 169.632V169.4H116.326V168.032L115.298 167H113.37L112.342 168.032ZM113.705 167.8H114.964L115.53 168.368V168.6H113.139V168.368L113.705 167.8Z" fill="#E2C3C3"/>
<path d="M118.714 171H119.511V170.2H118.714V171Z" fill="#E2C3C3"/>
<path d="M121.898 167V171H122.695V169.4H123.723L125.317 171H125.883V170.432L124.456 169L125.883 167.568V167H125.317L123.723 168.6H122.695V167H121.898Z" fill="#E2C3C3"/>
<path d="M126.676 169.968L127.704 171H130.661V168.032L129.633 167H127.473V167.8H129.298L129.864 168.368V168.6H127.704L126.676 169.632V169.968ZM128.039 170.2L127.64 169.8L128.039 169.4H129.864V170.2H128.039Z" fill="#E2C3C3"/>
<path d="M131.454 167.568L132.881 169L131.454 170.432V171H132.02L133.446 169.568L134.873 171H135.439V170.432L134.012 169L135.439 167.568V167H134.873L133.446 168.432L132.02 167H131.454V167.568Z" fill="#E2C3C3"/>
<path d="M136.232 169.968L137.26 171H140.217V168.032L139.189 167H137.029V167.8H138.854L139.42 168.368V168.6H137.26L136.232 169.632V169.968ZM137.595 170.2L137.197 169.8L137.595 169.4H139.42V170.2H137.595Z" fill="#E2C3C3"/>
<path d="M141.01 167V171H141.807V169.4H144.198V171H144.995V167H144.198V168.6H141.807V167H141.01Z" fill="#E2C3C3"/>
<path d="M145.789 167V171H146.585V169.4H148.976V171H149.773V167H148.976V168.6H146.585V167H145.789Z" fill="#E2C3C3"/>
<path d="M150.567 168.032V169.968L151.595 171H153.754V170.2H151.929L151.363 169.632V169.4H154.551V168.032L153.523 167H151.595L150.567 168.032ZM151.929 167.8H153.188L153.754 168.368V168.6H151.363V168.368L151.929 167.8Z" fill="#E2C3C3"/>
<path d="M156.938 171H157.735V170.2H156.938V171Z" fill="#E2C3C3"/>
<path d="M160.123 167V171H160.92V169.4H161.948L163.541 171H164.107V170.432L162.681 169L164.107 167.568V167H163.541L161.948 168.6H160.92V167H160.123Z" fill="#E2C3C3"/>
<path d="M164.901 169.968L165.929 171H168.885V168.032L167.857 167H165.698V167.8H167.522L168.088 168.368V168.6H165.929L164.901 169.632V169.968ZM166.263 170.2L165.865 169.8L166.263 169.4H168.088V170.2H166.263Z" fill="#E2C3C3"/>
<path d="M169.679 167.568L171.105 169L169.679 170.432V171H170.245L171.671 169.568L173.097 171H173.663V170.432L172.237 169L173.663 167.568V167H173.097L171.671 168.432L170.245 167H169.679V167.568Z" fill="#E2C3C3"/>
<path d="M174.457 169.968L175.485 171H178.441V168.032L177.413 167H175.254V167.8H177.079L177.644 168.368V168.6H175.485L174.457 169.632V169.968ZM175.82 170.2L175.421 169.8L175.82 169.4H177.644V170.2H175.82Z" fill="#E2C3C3"/>
<path d="M179.235 167V171H180.032V169.4H182.422V171H183.219V167H182.422V168.6H180.032V167H179.235Z" fill="#E2C3C3"/>
<path d="M184.013 167V171H184.81V169.4H187.201V171H187.997V167H187.201V168.6H184.81V167H184.013Z" fill="#E2C3C3"/>
<path d="M188.791 168.032V169.968L189.819 171H191.979V170.2H190.154L189.588 169.632V169.4H192.775V168.032L191.748 167H189.819L188.791 168.032ZM190.154 167.8H191.413L191.979 168.368V168.6H189.588V168.368L190.154 167.8Z" fill="#E2C3C3"/>
<path d="M195.163 171H195.96V170.2H195.163V171Z" fill="#E2C3C3"/>
<path d="M198.347 167V171H199.144V169.4H200.172L201.766 171H202.332V170.432L200.905 169L202.332 167.568V167H201.766L200.172 168.6H199.144V167H198.347Z" fill="#E2C3C3"/>
<path d="M203.125 169.968L204.153 171H207.11V168.032L206.082 167H203.922V167.8H205.747L206.313 168.368V168.6H204.153L203.125 169.632V169.968ZM204.488 170.2L204.09 169.8L204.488 169.4H206.313V170.2H204.488Z" fill="#E2C3C3"/>
<path d="M207.903 167.568L209.33 169L207.903 170.432V171H208.469L209.896 169.568L211.322 171H211.888V170.432L210.461 169L211.888 167.568V167H211.322L209.896 168.432L208.469 167H207.903V167.568Z" fill="#E2C3C3"/>
<path d="M212.681 169.968L213.709 171H216.666V168.032L215.638 167H213.478V167.8H215.303L215.869 168.368V168.6H213.709L212.681 169.632V169.968ZM214.044 170.2L213.646 169.8L214.044 169.4H215.869V170.2H214.044Z" fill="#E2C3C3"/>
<path d="M217.46 167V171H218.256V169.4H220.647V171H221.444V167H220.647V168.6H218.256V167H217.46Z" fill="#E2C3C3"/>
<path d="M222.238 167V171H223.034V169.4H225.425V171H226.222V167H225.425V168.6H223.034V167H222.238Z" fill="#E2C3C3"/>
<path d="M227.016 168.032V169.968L228.044 171H230.203V170.2H228.378L227.813 169.632V169.4H231V168.032L229.972 167H228.044L227.016 168.032ZM228.378 167.8H229.637L230.203 168.368V168.6H227.813V168.368L228.378 167.8Z" fill="#E2C3C3"/>
<path d="M-18 174V178H-17.2031V176.4H-16.1752L-14.5815 178H-14.0157V177.432L-15.4421 176L-14.0157 174.568V174H-14.5815L-16.1752 175.6H-17.2031V174H-18Z" fill="#E2C3C3"/>
<path d="M-13.2219 176.968L-12.194 178H-9.23761V175.032L-10.2656 174H-12.4251V174.8H-10.6003L-10.0345 175.368V175.6H-12.194L-13.2219 176.632V176.968ZM-11.8593 177.2L-12.2577 176.8L-11.8593 176.4H-10.0345V177.2H-11.8593Z" fill="#E2C3C3"/>
<path d="M-8.44386 174.568L-7.01748 176L-8.44386 177.432V178H-7.87809L-6.4517 176.568L-5.02532 178H-4.45955V177.432L-5.88593 176L-4.45955 174.568V174H-5.02532L-6.4517 175.432L-7.87809 174H-8.44386V174.568Z" fill="#E2C3C3"/>
<path d="M-3.6658 176.968L-2.63784 178H0.318522V175.032L-0.709431 174H-2.86893V174.8H-1.04411L-0.47834 175.368V175.6H-2.63784L-3.6658 176.632V176.968ZM-2.30316 177.2L-2.70159 176.8L-2.30316 176.4H-0.47834V177.2H-2.30316Z" fill="#E2C3C3"/>
<path d="M1.11227 174V178H1.90914V176.4H4.29973V178H5.09659V174H4.29973V175.6H1.90914V174H1.11227Z" fill="#E2C3C3"/>
<path d="M5.89034 174V178H6.6872V176.4H9.0778V178H9.87466V174H9.0778V175.6H6.6872V174H5.89034Z" fill="#E2C3C3"/>
<path d="M10.6684 175.032V176.968L11.6964 178H13.8559V177.2H12.031L11.4653 176.632V176.4H14.6527V175.032L13.6248 174H11.6964L10.6684 175.032ZM12.031 174.8H13.2901L13.8559 175.368V175.6H11.4653V175.368L12.031 174.8Z" fill="#E2C3C3"/>
<path d="M17.0402 178H17.8371V177.2H17.0402V178Z" fill="#E2C3C3"/>
<path d="M20.2245 174V178H21.0214V176.4H22.0494L23.6431 178H24.2089V177.432L22.7825 176L24.2089 174.568V174H23.6431L22.0494 175.6H21.0214V174H20.2245Z" fill="#E2C3C3"/>
<path d="M25.0026 176.968L26.0306 178H28.9869V175.032L27.959 174H25.7995V174.8H27.6243L28.1901 175.368V175.6H26.0306L25.0026 176.632V176.968ZM26.3653 177.2L25.9668 176.8L26.3653 176.4H28.1901V177.2H26.3653Z" fill="#E2C3C3"/>
<path d="M29.7807 174.568L31.2071 176L29.7807 177.432V178H30.3465L31.7728 176.568L33.1992 178H33.765V177.432L32.3386 176L33.765 174.568V174H33.1992L31.7728 175.432L30.3465 174H29.7807V174.568Z" fill="#E2C3C3"/>
<path d="M34.5588 176.968L35.5867 178H38.5431V175.032L37.5151 174H35.3556V174.8H37.1804L37.7462 175.368V175.6H35.5867L34.5588 176.632V176.968ZM35.9214 177.2L35.523 176.8L35.9214 176.4H37.7462V177.2H35.9214Z" fill="#E2C3C3"/>
<path d="M39.3368 174V178H40.1337V176.4H42.5243V178H43.3211V174H42.5243V175.6H40.1337V174H39.3368Z" fill="#E2C3C3"/>
<path d="M44.1149 174V178H44.9118V176.4H47.3023V178H48.0992V174H47.3023V175.6H44.9118V174H44.1149Z" fill="#E2C3C3"/>
<path d="M48.893 175.032V176.968L49.9209 178H52.0804V177.2H50.2556L49.6898 176.632V176.4H52.8773V175.032L51.8493 174H49.9209L48.893 175.032ZM50.2556 174.8H51.5146L52.0804 175.368V175.6H49.6898V175.368L50.2556 174.8Z" fill="#E2C3C3"/>
<path d="M55.2648 178H56.0616V177.2H55.2648V178Z" fill="#E2C3C3"/>
<path d="M58.4491 174V178H59.246V176.4H60.2739L61.8676 178H62.4334V177.432L61.007 176L62.4334 174.568V174H61.8676L60.2739 175.6H59.246V174H58.4491Z" fill="#E2C3C3"/>
<path d="M63.2272 176.968L64.2551 178H67.2115V175.032L66.1835 174H64.024V174.8H65.8488L66.4146 175.368V175.6H64.2551L63.2272 176.632V176.968ZM64.5898 177.2L64.1914 176.8L64.5898 176.4H66.4146V177.2H64.5898Z" fill="#E2C3C3"/>
<path d="M68.0052 174.568L69.4316 176L68.0052 177.432V178H68.571L69.9974 176.568L71.4238 178H71.9895V177.432L70.5632 176L71.9895 174.568V174H71.4238L69.9974 175.432L68.571 174H68.0052V174.568Z" fill="#E2C3C3"/>
<path d="M72.7833 176.968L73.8112 178H76.7676V175.032L75.7397 174H73.5802V174.8H75.405L75.9707 175.368V175.6H73.8112L72.7833 176.632V176.968ZM74.1459 177.2L73.7475 176.8L74.1459 176.4H75.9707V177.2H74.1459Z" fill="#E2C3C3"/>
<path d="M77.5614 174V178H78.3582V176.4H80.7488V178H81.5457V174H80.7488V175.6H78.3582V174H77.5614Z" fill="#E2C3C3"/>
<path d="M82.3394 174V178H83.1363V176.4H85.5269V178H86.3238V174H85.5269V175.6H83.1363V174H82.3394Z" fill="#E2C3C3"/>
<path d="M87.1175 175.032V176.968L88.1455 178H90.305V177.2H88.4801L87.9144 176.632V176.4H91.1018V175.032L90.0739 174H88.1455L87.1175 175.032ZM88.4801 174.8H89.7392L90.305 175.368V175.6H87.9144V175.368L88.4801 174.8Z" fill="#E2C3C3"/>
<path d="M93.4893 178H94.2862V177.2H93.4893V178Z" fill="#E2C3C3"/>
<path d="M96.6736 174V178H97.4705V176.4H98.4985L100.092 178H100.658V177.432L99.2316 176L100.658 174.568V174H100.092L98.4985 175.6H97.4705V174H96.6736Z" fill="#E2C3C3"/>
<path d="M101.452 176.968L102.48 178H105.436V175.032L104.408 174H102.249V174.8H104.073L104.639 175.368V175.6H102.48L101.452 176.632V176.968ZM102.814 177.2L102.416 176.8L102.814 176.4H104.639V177.2H102.814Z" fill="#E2C3C3"/>
<path d="M106.23 174.568L107.656 176L106.23 177.432V178H106.796L108.222 176.568L109.648 178H110.214V177.432L108.788 176L110.214 174.568V174H109.648L108.222 175.432L106.796 174H106.23V174.568Z" fill="#E2C3C3"/>
<path d="M111.008 176.968L112.036 178H114.992V175.032L113.964 174H111.805V174.8H113.63L114.195 175.368V175.6H112.036L111.008 176.632V176.968ZM112.37 177.2L111.972 176.8L112.37 176.4H114.195V177.2H112.37Z" fill="#E2C3C3"/>
<path d="M115.786 174V178H116.583V176.4H118.973V178H119.77V174H118.973V175.6H116.583V174H115.786Z" fill="#E2C3C3"/>
<path d="M120.564 174V178H121.361V176.4H123.751V178H124.548V174H123.751V175.6H121.361V174H120.564Z" fill="#E2C3C3"/>
<path d="M125.342 175.032V176.968L126.37 178H128.53V177.2H126.705L126.139 176.632V176.4H129.326V175.032L128.298 174H126.37L125.342 175.032ZM126.705 174.8H127.964L128.53 175.368V175.6H126.139V175.368L126.705 174.8Z" fill="#E2C3C3"/>
<path d="M131.714 178H132.511V177.2H131.714V178Z" fill="#E2C3C3"/>
<path d="M134.898 174V178H135.695V176.4H136.723L138.317 178H138.883V177.432L137.456 176L138.883 174.568V174H138.317L136.723 175.6H135.695V174H134.898Z" fill="#E2C3C3"/>
<path d="M139.676 176.968L140.704 178H143.661V175.032L142.633 174H140.473V174.8H142.298L142.864 175.368V175.6H140.704L139.676 176.632V176.968ZM141.039 177.2L140.64 176.8L141.039 176.4H142.864V177.2H141.039Z" fill="#E2C3C3"/>
<path d="M144.454 174.568L145.881 176L144.454 177.432V178H145.02L146.446 176.568L147.873 178H148.439V177.432L147.012 176L148.439 174.568V174H147.873L146.446 175.432L145.02 174H144.454V174.568Z" fill="#E2C3C3"/>
<path d="M149.232 176.968L150.26 178H153.217V175.032L152.189 174H150.029V174.8H151.854L152.42 175.368V175.6H150.26L149.232 176.632V176.968ZM150.595 177.2L150.197 176.8L150.595 176.4H152.42V177.2H150.595Z" fill="#E2C3C3"/>
<path d="M154.01 174V178H154.807V176.4H157.198V178H157.995V174H157.198V175.6H154.807V174H154.01Z" fill="#E2C3C3"/>
<path d="M158.789 174V178H159.585V176.4H161.976V178H162.773V174H161.976V175.6H159.585V174H158.789Z" fill="#E2C3C3"/>
<path d="M163.567 175.032V176.968L164.595 178H166.754V177.2H164.929L164.363 176.632V176.4H167.551V175.032L166.523 174H164.595L163.567 175.032ZM164.929 174.8H166.188L166.754 175.368V175.6H164.363V175.368L164.929 174.8Z" fill="#E2C3C3"/>
<path d="M169.938 178H170.735V177.2H169.938V178Z" fill="#E2C3C3"/>
<path d="M173.123 174V178H173.92V176.4H174.948L176.541 178H177.107V177.432L175.681 176L177.107 174.568V174H176.541L174.948 175.6H173.92V174H173.123Z" fill="#E2C3C3"/>
<path d="M177.901 176.968L178.929 178H181.885V175.032L180.857 174H178.698V174.8H180.522L181.088 175.368V175.6H178.929L177.901 176.632V176.968ZM179.263 177.2L178.865 176.8L179.263 176.4H181.088V177.2H179.263Z" fill="#E2C3C3"/>
<path d="M182.679 174.568L184.105 176L182.679 177.432V178H183.245L184.671 176.568L186.097 178H186.663V177.432L185.237 176L186.663 174.568V174H186.097L184.671 175.432L183.245 174H182.679V174.568Z" fill="#E2C3C3"/>
<path d="M187.457 176.968L188.485 178H191.441V175.032L190.413 174H188.254V174.8H190.079L190.644 175.368V175.6H188.485L187.457 176.632V176.968ZM188.82 177.2L188.421 176.8L188.82 176.4H190.644V177.2H188.82Z" fill="#E2C3C3"/>
<path d="M192.235 174V178H193.032V176.4H195.422V178H196.219V174H195.422V175.6H193.032V174H192.235Z" fill="#E2C3C3"/>
<path d="M197.013 174V178H197.81V176.4H200.201V178H200.997V174H200.201V175.6H197.81V174H197.013Z" fill="#E2C3C3"/>
<path d="M201.791 175.032V176.968L202.819 178H204.979V177.2H203.154L202.588 176.632V176.4H205.775V175.032L204.748 174H202.819L201.791 175.032ZM203.154 174.8H204.413L204.979 175.368V175.6H202.588V175.368L203.154 174.8Z" fill="#E2C3C3"/>
<path d="M208.163 178H208.96V177.2H208.163V178Z" fill="#E2C3C3"/>
<path d="M211.347 174V178H212.144V176.4H213.172L214.766 178H215.332V177.432L213.905 176L215.332 174.568V174H214.766L213.172 175.6H212.144V174H211.347Z" fill="#E2C3C3"/>
<path d="M216.125 176.968L217.153 178H220.11V175.032L219.082 174H216.922V174.8H218.747L219.313 175.368V175.6H217.153L216.125 176.632V176.968ZM217.488 177.2L217.09 176.8L217.488 176.4H219.313V177.2H217.488Z" fill="#E2C3C3"/>
<path d="M220.903 174.568L222.33 176L220.903 177.432V178H221.469L222.896 176.568L224.322 178H224.888V177.432L223.461 176L224.888 174.568V174H224.322L222.896 175.432L221.469 174H220.903V174.568Z" fill="#E2C3C3"/>
<path d="M225.681 176.968L226.709 178H229.666V175.032L228.638 174H226.478V174.8H228.303L228.869 175.368V175.6H226.709L225.681 176.632V176.968ZM227.044 177.2L226.646 176.8L227.044 176.4H228.869V177.2H227.044Z" fill="#E2C3C3"/>
<path d="M230.46 174V178H231.256V176.4H233.647V178H234.444V174H233.647V175.6H231.256V174H230.46Z" fill="#E2C3C3"/>
<path d="M235.238 174V178H236.034V176.4H238.425V178H239.222V174H238.425V175.6H236.034V174H235.238Z" fill="#E2C3C3"/>
<path d="M240.016 175.032V176.968L241.044 178H243.203V177.2H241.378L240.813 176.632V176.4H244V175.032L242.972 174H241.044L240.016 175.032ZM241.378 174.8H242.637L243.203 175.368V175.6H240.813V175.368L241.378 174.8Z" fill="#E2C3C3"/>
<path d="M-39 181V185H-38.2031V183.4H-37.1752L-35.5815 185H-35.0157V184.432L-36.4421 183L-35.0157 181.568V181H-35.5815L-37.1752 182.6H-38.2031V181H-39Z" fill="#E2C3C3"/>
<path d="M-34.2219 183.968L-33.194 185H-30.2376V182.032L-31.2656 181H-33.4251V181.8H-31.6003L-31.0345 182.368V182.6H-33.194L-34.2219 183.632V183.968ZM-32.8593 184.2L-33.2577 183.8L-32.8593 183.4H-31.0345V184.2H-32.8593Z" fill="#E2C3C3"/>
<path d="M-29.4439 181.568L-28.0175 183L-29.4439 184.432V185H-28.8781L-27.4517 183.568L-26.0253 185H-25.4595V184.432L-26.8859 183L-25.4595 181.568V181H-26.0253L-27.4517 182.432L-28.8781 181H-29.4439V181.568Z" fill="#E2C3C3"/>
<path d="M-24.6658 183.968L-23.6378 185H-20.6815V182.032L-21.7094 181H-23.8689V181.8H-22.0441L-21.4783 182.368V182.6H-23.6378L-24.6658 183.632V183.968ZM-23.3032 184.2L-23.7016 183.8L-23.3032 183.4H-21.4783V184.2H-23.3032Z" fill="#E2C3C3"/>
<path d="M-19.8877 181V185H-19.0909V183.4H-16.7003V185H-15.9034V181H-16.7003V182.6H-19.0909V181H-19.8877Z" fill="#E2C3C3"/>
<path d="M-15.1097 181V185H-14.3128V183.4H-11.9222V185H-11.1253V181H-11.9222V182.6H-14.3128V181H-15.1097Z" fill="#E2C3C3"/>
<path d="M-10.3316 182.032V183.968L-9.30364 185H-7.14414V184.2H-8.96895L-9.53473 183.632V183.4H-6.34727V182.032L-7.37523 181H-9.30364L-10.3316 182.032ZM-8.96895 181.8H-7.70991L-7.14414 182.368V182.6H-9.53473V182.368L-8.96895 181.8Z" fill="#E2C3C3"/>
<path d="M-3.9598 185H-3.16293V184.2H-3.9598V185Z" fill="#E2C3C3"/>
<path d="M-0.775454 181V185H0.0214092V183.4H1.04936L2.64309 185H3.20886V184.432L1.78248 183L3.20886 181.568V181H2.64309L1.04936 182.6H0.0214092V181H-0.775454Z" fill="#E2C3C3"/>
<path d="M4.00261 183.968L5.03057 185H7.98693V182.032L6.95898 181H4.79948V181.8H6.6243L7.19007 182.368V182.6H5.03057L4.00261 183.632V183.968ZM5.36525 184.2L4.96682 183.8L5.36525 183.4H7.19007V184.2H5.36525Z" fill="#E2C3C3"/>
<path d="M8.78068 181.568L10.2071 183L8.78068 184.432V185H9.34646L10.7728 183.568L12.1992 185H12.765V184.432L11.3386 183L12.765 181.568V181H12.1992L10.7728 182.432L9.34646 181H8.78068V181.568Z" fill="#E2C3C3"/>
<path d="M13.5588 183.968L14.5867 185H17.5431V182.032L16.5151 181H14.3556V181.8H16.1804L16.7462 182.368V182.6H14.5867L13.5588 183.632V183.968ZM14.9214 184.2L14.523 183.8L14.9214 183.4H16.7462V184.2H14.9214Z" fill="#E2C3C3"/>
<path d="M18.3368 181V185H19.1337V183.4H21.5243V185H22.3211V181H21.5243V182.6H19.1337V181H18.3368Z" fill="#E2C3C3"/>
<path d="M23.1149 181V185H23.9118V183.4H26.3023V185H27.0992V181H26.3023V182.6H23.9118V181H23.1149Z" fill="#E2C3C3"/>
<path d="M27.893 182.032V183.968L28.9209 185H31.0804V184.2H29.2556L28.6898 183.632V183.4H31.8773V182.032L30.8493 181H28.9209L27.893 182.032ZM29.2556 181.8H30.5146L31.0804 182.368V182.6H28.6898V182.368L29.2556 181.8Z" fill="#E2C3C3"/>
<path d="M34.2648 185H35.0616V184.2H34.2648V185Z" fill="#E2C3C3"/>
<path d="M37.4491 181V185H38.246V183.4H39.2739L40.8676 185H41.4334V184.432L40.007 183L41.4334 181.568V181H40.8676L39.2739 182.6H38.246V181H37.4491Z" fill="#E2C3C3"/>
<path d="M42.2272 183.968L43.2551 185H46.2115V182.032L45.1835 181H43.024V181.8H44.8488L45.4146 182.368V182.6H43.2551L42.2272 183.632V183.968ZM43.5898 184.2L43.1914 183.8L43.5898 183.4H45.4146V184.2H43.5898Z" fill="#E2C3C3"/>
<path d="M47.0052 181.568L48.4316 183L47.0052 184.432V185H47.571L48.9974 183.568L50.4238 185H50.9895V184.432L49.5632 183L50.9895 181.568V181H50.4238L48.9974 182.432L47.571 181H47.0052V181.568Z" fill="#E2C3C3"/>
<path d="M51.7833 183.968L52.8112 185H55.7676V182.032L54.7397 181H52.5802V181.8H54.405L54.9707 182.368V182.6H52.8112L51.7833 183.632V183.968ZM53.1459 184.2L52.7475 183.8L53.1459 183.4H54.9707V184.2H53.1459Z" fill="#E2C3C3"/>
<path d="M56.5614 181V185H57.3582V183.4H59.7488V185H60.5457V181H59.7488V182.6H57.3582V181H56.5614Z" fill="#E2C3C3"/>
<path d="M61.3394 181V185H62.1363V183.4H64.5269V185H65.3238V181H64.5269V182.6H62.1363V181H61.3394Z" fill="#E2C3C3"/>
<path d="M66.1175 182.032V183.968L67.1455 185H69.305V184.2H67.4801L66.9144 183.632V183.4H70.1018V182.032L69.0739 181H67.1455L66.1175 182.032ZM67.4801 181.8H68.7392L69.305 182.368V182.6H66.9144V182.368L67.4801 181.8Z" fill="#E2C3C3"/>
<path d="M72.4893 185H73.2862V184.2H72.4893V185Z" fill="#E2C3C3"/>
<path d="M75.6736 181V185H76.4705V183.4H77.4985L79.0922 185H79.658V184.432L78.2316 183L79.658 181.568V181H79.0922L77.4985 182.6H76.4705V181H75.6736Z" fill="#E2C3C3"/>
<path d="M80.4517 183.968L81.4797 185H84.436V182.032L83.4081 181H81.2486V181.8H83.0734L83.6392 182.368V182.6H81.4797L80.4517 183.632V183.968ZM81.8143 184.2L81.4159 183.8L81.8143 183.4H83.6392V184.2H81.8143Z" fill="#E2C3C3"/>
<path d="M85.2298 181.568L86.6562 183L85.2298 184.432V185H85.7955L87.2219 183.568L88.6483 185H89.2141V184.432L87.7877 183L89.2141 181.568V181H88.6483L87.2219 182.432L85.7955 181H85.2298V181.568Z" fill="#E2C3C3"/>
<path d="M90.0078 183.968L91.0358 185H93.9922V182.032L92.9642 181H90.8047V181.8H92.6295L93.1953 182.368V182.6H91.0358L90.0078 183.632V183.968ZM91.3705 184.2L90.9721 183.8L91.3705 183.4H93.1953V184.2H91.3705Z" fill="#E2C3C3"/>
<path d="M94.7859 181V185H95.5828V183.4H97.9734V185H98.7702V181H97.9734V182.6H95.5828V181H94.7859Z" fill="#E2C3C3"/>
<path d="M99.564 181V185H100.361V183.4H102.751V185H103.548V181H102.751V182.6H100.361V181H99.564Z" fill="#E2C3C3"/>
<path d="M104.342 182.032V183.968L105.37 185H107.53V184.2H105.705L105.139 183.632V183.4H108.326V182.032L107.298 181H105.37L104.342 182.032ZM105.705 181.8H106.964L107.53 182.368V182.6H105.139V182.368L105.705 181.8Z" fill="#E2C3C3"/>
<path d="M110.714 185H111.511V184.2H110.714V185Z" fill="#E2C3C3"/>
<path d="M113.898 181V185H114.695V183.4H115.723L117.317 185H117.883V184.432L116.456 183L117.883 181.568V181H117.317L115.723 182.6H114.695V181H113.898Z" fill="#E2C3C3"/>
<path d="M118.676 183.968L119.704 185H122.661V182.032L121.633 181H119.473V181.8H121.298L121.864 182.368V182.6H119.704L118.676 183.632V183.968ZM120.039 184.2L119.64 183.8L120.039 183.4H121.864V184.2H120.039Z" fill="#E2C3C3"/>
<path d="M123.454 181.568L124.881 183L123.454 184.432V185H124.02L125.446 183.568L126.873 185H127.439V184.432L126.012 183L127.439 181.568V181H126.873L125.446 182.432L124.02 181H123.454V181.568Z" fill="#E2C3C3"/>
<path d="M128.232 183.968L129.26 185H132.217V182.032L131.189 181H129.029V181.8H130.854L131.42 182.368V182.6H129.26L128.232 183.632V183.968ZM129.595 184.2L129.197 183.8L129.595 183.4H131.42V184.2H129.595Z" fill="#E2C3C3"/>
<path d="M133.01 181V185H133.807V183.4H136.198V185H136.995V181H136.198V182.6H133.807V181H133.01Z" fill="#E2C3C3"/>
<path d="M137.789 181V185H138.585V183.4H140.976V185H141.773V181H140.976V182.6H138.585V181H137.789Z" fill="#E2C3C3"/>
<path d="M142.567 182.032V183.968L143.595 185H145.754V184.2H143.929L143.363 183.632V183.4H146.551V182.032L145.523 181H143.595L142.567 182.032ZM143.929 181.8H145.188L145.754 182.368V182.6H143.363V182.368L143.929 181.8Z" fill="#E2C3C3"/>
<path d="M148.938 185H149.735V184.2H148.938V185Z" fill="#E2C3C3"/>
<path d="M152.123 181V185H152.92V183.4H153.948L155.541 185H156.107V184.432L154.681 183L156.107 181.568V181H155.541L153.948 182.6H152.92V181H152.123Z" fill="#E2C3C3"/>
<path d="M156.901 183.968L157.929 185H160.885V182.032L159.857 181H157.698V181.8H159.522L160.088 182.368V182.6H157.929L156.901 183.632V183.968ZM158.263 184.2L157.865 183.8L158.263 183.4H160.088V184.2H158.263Z" fill="#E2C3C3"/>
<path d="M161.679 181.568L163.105 183L161.679 184.432V185H162.245L163.671 183.568L165.097 185H165.663V184.432L164.237 183L165.663 181.568V181H165.097L163.671 182.432L162.245 181H161.679V181.568Z" fill="#E2C3C3"/>
<path d="M166.457 183.968L167.485 185H170.441V182.032L169.413 181H167.254V181.8H169.079L169.644 182.368V182.6H167.485L166.457 183.632V183.968ZM167.82 184.2L167.421 183.8L167.82 183.4H169.644V184.2H167.82Z" fill="#E2C3C3"/>
<path d="M171.235 181V185H172.032V183.4H174.422V185H175.219V181H174.422V182.6H172.032V181H171.235Z" fill="#E2C3C3"/>
<path d="M176.013 181V185H176.81V183.4H179.201V185H179.997V181H179.201V182.6H176.81V181H176.013Z" fill="#E2C3C3"/>
<path d="M180.791 182.032V183.968L181.819 185H183.979V184.2H182.154L181.588 183.632V183.4H184.775V182.032L183.748 181H181.819L180.791 182.032ZM182.154 181.8H183.413L183.979 182.368V182.6H181.588V182.368L182.154 181.8Z" fill="#E2C3C3"/>
<path d="M187.163 185H187.96V184.2H187.163V185Z" fill="#E2C3C3"/>
<path d="M190.347 181V185H191.144V183.4H192.172L193.766 185H194.332V184.432L192.905 183L194.332 181.568V181H193.766L192.172 182.6H191.144V181H190.347Z" fill="#E2C3C3"/>
<path d="M195.125 183.968L196.153 185H199.11V182.032L198.082 181H195.922V181.8H197.747L198.313 182.368V182.6H196.153L195.125 183.632V183.968ZM196.488 184.2L196.09 183.8L196.488 183.4H198.313V184.2H196.488Z" fill="#E2C3C3"/>
<path d="M199.903 181.568L201.33 183L199.903 184.432V185H200.469L201.896 183.568L203.322 185H203.888V184.432L202.461 183L203.888 181.568V181H203.322L201.896 182.432L200.469 181H199.903V181.568Z" fill="#E2C3C3"/>
<path d="M204.681 183.968L205.709 185H208.666V182.032L207.638 181H205.478V181.8H207.303L207.869 182.368V182.6H205.709L204.681 183.632V183.968ZM206.044 184.2L205.646 183.8L206.044 183.4H207.869V184.2H206.044Z" fill="#E2C3C3"/>
<path d="M209.46 181V185H210.256V183.4H212.647V185H213.444V181H212.647V182.6H210.256V181H209.46Z" fill="#E2C3C3"/>
<path d="M214.238 181V185H215.034V183.4H217.425V185H218.222V181H217.425V182.6H215.034V181H214.238Z" fill="#E2C3C3"/>
<path d="M219.016 182.032V183.968L220.044 185H222.203V184.2H220.378L219.813 183.632V183.4H223V182.032L221.972 181H220.044L219.016 182.032ZM220.378 181.8H221.637L222.203 182.368V182.6H219.813V182.368L220.378 181.8Z" fill="#E2C3C3"/>
<path d="M-21 188V192H-20.2031V190.4H-19.1752L-17.5815 192H-17.0157V191.432L-18.4421 190L-17.0157 188.568V188H-17.5815L-19.1752 189.6H-20.2031V188H-21Z" fill="#E2C3C3"/>
<path d="M-16.2219 190.968L-15.194 192H-12.2376V189.032L-13.2656 188H-15.4251V188.8H-13.6003L-13.0345 189.368V189.6H-15.194L-16.2219 190.632V190.968ZM-14.8593 191.2L-15.2577 190.8L-14.8593 190.4H-13.0345V191.2H-14.8593Z" fill="#E2C3C3"/>
<path d="M-11.4439 188.568L-10.0175 190L-11.4439 191.432V192H-10.8781L-9.4517 190.568L-8.02532 192H-7.45955V191.432L-8.88593 190L-7.45955 188.568V188H-8.02532L-9.4517 189.432L-10.8781 188H-11.4439V188.568Z" fill="#E2C3C3"/>
<path d="M-6.6658 190.968L-5.63784 192H-2.68148V189.032L-3.70943 188H-5.86893V188.8H-4.04411L-3.47834 189.368V189.6H-5.63784L-6.6658 190.632V190.968ZM-5.30316 191.2L-5.70159 190.8L-5.30316 190.4H-3.47834V191.2H-5.30316Z" fill="#E2C3C3"/>
<path d="M-1.88773 188V192H-1.09086V190.4H1.29973V192H2.09659V188H1.29973V189.6H-1.09086V188H-1.88773Z" fill="#E2C3C3"/>
<path d="M2.89034 188V192H3.6872V190.4H6.0778V192H6.87466V188H6.0778V189.6H3.6872V188H2.89034Z" fill="#E2C3C3"/>
<path d="M7.66841 189.032V190.968L8.69636 192H10.8559V191.2H9.03105L8.46527 190.632V190.4H11.6527V189.032L10.6248 188H8.69636L7.66841 189.032ZM9.03105 188.8H10.2901L10.8559 189.368V189.6H8.46527V189.368L9.03105 188.8Z" fill="#E2C3C3"/>
<path d="M14.0402 192H14.8371V191.2H14.0402V192Z" fill="#E2C3C3"/>
<path d="M17.2245 188V192H18.0214V190.4H19.0494L20.6431 192H21.2089V191.432L19.7825 190L21.2089 188.568V188H20.6431L19.0494 189.6H18.0214V188H17.2245Z" fill="#E2C3C3"/>
<path d="M22.0026 190.968L23.0306 192H25.9869V189.032L24.959 188H22.7995V188.8H24.6243L25.1901 189.368V189.6H23.0306L22.0026 190.632V190.968ZM23.3653 191.2L22.9668 190.8L23.3653 190.4H25.1901V191.2H23.3653Z" fill="#E2C3C3"/>
<path d="M26.7807 188.568L28.2071 190L26.7807 191.432V192H27.3465L28.7728 190.568L30.1992 192H30.765V191.432L29.3386 190L30.765 188.568V188H30.1992L28.7728 189.432L27.3465 188H26.7807V188.568Z" fill="#E2C3C3"/>
<path d="M31.5588 190.968L32.5867 192H35.5431V189.032L34.5151 188H32.3556V188.8H34.1804L34.7462 189.368V189.6H32.5867L31.5588 190.632V190.968ZM32.9214 191.2L32.523 190.8L32.9214 190.4H34.7462V191.2H32.9214Z" fill="#E2C3C3"/>
<path d="M36.3368 188V192H37.1337V190.4H39.5243V192H40.3211V188H39.5243V189.6H37.1337V188H36.3368Z" fill="#E2C3C3"/>
<path d="M41.1149 188V192H41.9118V190.4H44.3023V192H45.0992V188H44.3023V189.6H41.9118V188H41.1149Z" fill="#E2C3C3"/>
<path d="M45.893 189.032V190.968L46.9209 192H49.0804V191.2H47.2556L46.6898 190.632V190.4H49.8773V189.032L48.8493 188H46.9209L45.893 189.032ZM47.2556 188.8H48.5146L49.0804 189.368V189.6H46.6898V189.368L47.2556 188.8Z" fill="#E2C3C3"/>
<path d="M52.2648 192H53.0616V191.2H52.2648V192Z" fill="#E2C3C3"/>
<path d="M55.4491 188V192H56.246V190.4H57.2739L58.8676 192H59.4334V191.432L58.007 190L59.4334 188.568V188H58.8676L57.2739 189.6H56.246V188H55.4491Z" fill="#E2C3C3"/>
<path d="M60.2272 190.968L61.2551 192H64.2115V189.032L63.1835 188H61.024V188.8H62.8488L63.4146 189.368V189.6H61.2551L60.2272 190.632V190.968ZM61.5898 191.2L61.1914 190.8L61.5898 190.4H63.4146V191.2H61.5898Z" fill="#E2C3C3"/>
<path d="M65.0052 188.568L66.4316 190L65.0052 191.432V192H65.571L66.9974 190.568L68.4238 192H68.9895V191.432L67.5632 190L68.9895 188.568V188H68.4238L66.9974 189.432L65.571 188H65.0052V188.568Z" fill="#E2C3C3"/>
<path d="M69.7833 190.968L70.8112 192H73.7676V189.032L72.7397 188H70.5802V188.8H72.405L72.9707 189.368V189.6H70.8112L69.7833 190.632V190.968ZM71.1459 191.2L70.7475 190.8L71.1459 190.4H72.9707V191.2H71.1459Z" fill="#E2C3C3"/>
<path d="M74.5614 188V192H75.3582V190.4H77.7488V192H78.5457V188H77.7488V189.6H75.3582V188H74.5614Z" fill="#E2C3C3"/>
<path d="M79.3394 188V192H80.1363V190.4H82.5269V192H83.3238V188H82.5269V189.6H80.1363V188H79.3394Z" fill="#E2C3C3"/>
<path d="M84.1175 189.032V190.968L85.1455 192H87.305V191.2H85.4801L84.9144 190.632V190.4H88.1018V189.032L87.0739 188H85.1455L84.1175 189.032ZM85.4801 188.8H86.7392L87.305 189.368V189.6H84.9144V189.368L85.4801 188.8Z" fill="#E2C3C3"/>
<path d="M90.4893 192H91.2862V191.2H90.4893V192Z" fill="#E2C3C3"/>
<path d="M93.6736 188V192H94.4705V190.4H95.4985L97.0922 192H97.658V191.432L96.2316 190L97.658 188.568V188H97.0922L95.4985 189.6H94.4705V188H93.6736Z" fill="#E2C3C3"/>
<path d="M98.4517 190.968L99.4797 192H102.436V189.032L101.408 188H99.2486V188.8H101.073L101.639 189.368V189.6H99.4797L98.4517 190.632V190.968ZM99.8143 191.2L99.4159 190.8L99.8143 190.4H101.639V191.2H99.8143Z" fill="#E2C3C3"/>
<path d="M103.23 188.568L104.656 190L103.23 191.432V192H103.796L105.222 190.568L106.648 192H107.214V191.432L105.788 190L107.214 188.568V188H106.648L105.222 189.432L103.796 188H103.23V188.568Z" fill="#E2C3C3"/>
<path d="M108.008 190.968L109.036 192H111.992V189.032L110.964 188H108.805V188.8H110.63L111.195 189.368V189.6H109.036L108.008 190.632V190.968ZM109.37 191.2L108.972 190.8L109.37 190.4H111.195V191.2H109.37Z" fill="#E2C3C3"/>
<path d="M112.786 188V192H113.583V190.4H115.973V192H116.77V188H115.973V189.6H113.583V188H112.786Z" fill="#E2C3C3"/>
<path d="M117.564 188V192H118.361V190.4H120.751V192H121.548V188H120.751V189.6H118.361V188H117.564Z" fill="#E2C3C3"/>
<path d="M122.342 189.032V190.968L123.37 192H125.53V191.2H123.705L123.139 190.632V190.4H126.326V189.032L125.298 188H123.37L122.342 189.032ZM123.705 188.8H124.964L125.53 189.368V189.6H123.139V189.368L123.705 188.8Z" fill="#E2C3C3"/>
<path d="M128.714 192H129.511V191.2H128.714V192Z" fill="#E2C3C3"/>
<path d="M131.898 188V192H132.695V190.4H133.723L135.317 192H135.883V191.432L134.456 190L135.883 188.568V188H135.317L133.723 189.6H132.695V188H131.898Z" fill="#E2C3C3"/>
<path d="M136.676 190.968L137.704 192H140.661V189.032L139.633 188H137.473V188.8H139.298L139.864 189.368V189.6H137.704L136.676 190.632V190.968ZM138.039 191.2L137.64 190.8L138.039 190.4H139.864V191.2H138.039Z" fill="#E2C3C3"/>
<path d="M141.454 188.568L142.881 190L141.454 191.432V192H142.02L143.446 190.568L144.873 192H145.439V191.432L144.012 190L145.439 188.568V188H144.873L143.446 189.432L142.02 188H141.454V188.568Z" fill="#E2C3C3"/>
<path d="M146.232 190.968L147.26 192H150.217V189.032L149.189 188H147.029V188.8H148.854L149.42 189.368V189.6H147.26L146.232 190.632V190.968ZM147.595 191.2L147.197 190.8L147.595 190.4H149.42V191.2H147.595Z" fill="#E2C3C3"/>
<path d="M151.01 188V192H151.807V190.4H154.198V192H154.995V188H154.198V189.6H151.807V188H151.01Z" fill="#E2C3C3"/>
<path d="M155.789 188V192H156.585V190.4H158.976V192H159.773V188H158.976V189.6H156.585V188H155.789Z" fill="#E2C3C3"/>
<path d="M160.567 189.032V190.968L161.595 192H163.754V191.2H161.929L161.363 190.632V190.4H164.551V189.032L163.523 188H161.595L160.567 189.032ZM161.929 188.8H163.188L163.754 189.368V189.6H161.363V189.368L161.929 188.8Z" fill="#E2C3C3"/>
<path d="M166.938 192H167.735V191.2H166.938V192Z" fill="#E2C3C3"/>
<path d="M170.123 188V192H170.92V190.4H171.948L173.541 192H174.107V191.432L172.681 190L174.107 188.568V188H173.541L171.948 189.6H170.92V188H170.123Z" fill="#E2C3C3"/>
<path d="M174.901 190.968L175.929 192H178.885V189.032L177.857 188H175.698V188.8H177.522L178.088 189.368V189.6H175.929L174.901 190.632V190.968ZM176.263 191.2L175.865 190.8L176.263 190.4H178.088V191.2H176.263Z" fill="#E2C3C3"/>
<path d="M179.679 188.568L181.105 190L179.679 191.432V192H180.245L181.671 190.568L183.097 192H183.663V191.432L182.237 190L183.663 188.568V188H183.097L181.671 189.432L180.245 188H179.679V188.568Z" fill="#E2C3C3"/>
<path d="M184.457 190.968L185.485 192H188.441V189.032L187.413 188H185.254V188.8H187.079L187.644 189.368V189.6H185.485L184.457 190.632V190.968ZM185.82 191.2L185.421 190.8L185.82 190.4H187.644V191.2H185.82Z" fill="#E2C3C3"/>
<path d="M189.235 188V192H190.032V190.4H192.422V192H193.219V188H192.422V189.6H190.032V188H189.235Z" fill="#E2C3C3"/>
<path d="M194.013 188V192H194.81V190.4H197.201V192H197.997V188H197.201V189.6H194.81V188H194.013Z" fill="#E2C3C3"/>
<path d="M198.791 189.032V190.968L199.819 192H201.979V191.2H200.154L199.588 190.632V190.4H202.775V189.032L201.748 188H199.819L198.791 189.032ZM200.154 188.8H201.413L201.979 189.368V189.6H199.588V189.368L200.154 188.8Z" fill="#E2C3C3"/>
<path d="M205.163 192H205.96V191.2H205.163V192Z" fill="#E2C3C3"/>
<path d="M208.347 188V192H209.144V190.4H210.172L211.766 192H212.332V191.432L210.905 190L212.332 188.568V188H211.766L210.172 189.6H209.144V188H208.347Z" fill="#E2C3C3"/>
<path d="M213.125 190.968L214.153 192H217.11V189.032L216.082 188H213.922V188.8H215.747L216.313 189.368V189.6H214.153L213.125 190.632V190.968ZM214.488 191.2L214.09 190.8L214.488 190.4H216.313V191.2H214.488Z" fill="#E2C3C3"/>
<path d="M217.903 188.568L219.33 190L217.903 191.432V192H218.469L219.896 190.568L221.322 192H221.888V191.432L220.461 190L221.888 188.568V188H221.322L219.896 189.432L218.469 188H217.903V188.568Z" fill="#E2C3C3"/>
<path d="M222.681 190.968L223.709 192H226.666V189.032L225.638 188H223.478V188.8H225.303L225.869 189.368V189.6H223.709L222.681 190.632V190.968ZM224.044 191.2L223.646 190.8L224.044 190.4H225.869V191.2H224.044Z" fill="#E2C3C3"/>
<path d="M227.46 188V192H228.256V190.4H230.647V192H231.444V188H230.647V189.6H228.256V188H227.46Z" fill="#E2C3C3"/>
<path d="M232.238 188V192H233.034V190.4H235.425V192H236.222V188H235.425V189.6H233.034V188H232.238Z" fill="#E2C3C3"/>
<path d="M237.016 189.032V190.968L238.044 192H240.203V191.2H238.378L237.813 190.632V190.4H241V189.032L239.972 188H238.044L237.016 189.032ZM238.378 188.8H239.637L240.203 189.368V189.6H237.813V189.368L238.378 188.8Z" fill="#E2C3C3"/>
<path d="M-3 195V199H-2.20314V197.4H-1.17518L0.418545 199H0.984318V198.432L-0.442068 197L0.984318 195.568V195H0.418545L-1.17518 196.6H-2.20314V195H-3Z" fill="#E2C3C3"/>
<path d="M1.77807 197.968L2.80602 199H5.76239V196.032L4.73443 195H2.57493V195.8H4.39975L4.96552 196.368V196.6H2.80602L1.77807 197.632V197.968ZM3.1407 198.2L2.74227 197.8L3.1407 197.4H4.96552V198.2H3.1407Z" fill="#E2C3C3"/>
<path d="M6.55614 195.568L7.98252 197L6.55614 198.432V199H7.12191L8.5483 197.568L9.97468 199H10.5405V198.432L9.11407 197L10.5405 195.568V195H9.97468L8.5483 196.432L7.12191 195H6.55614V195.568Z" fill="#E2C3C3"/>
<path d="M11.3342 197.968L12.3622 199H15.3185V196.032L14.2906 195H12.1311V195.8H13.9559L14.5217 196.368V196.6H12.3622L11.3342 197.632V197.968ZM12.6968 198.2L12.2984 197.8L12.6968 197.4H14.5217V198.2H12.6968Z" fill="#E2C3C3"/>
<path d="M16.1123 195V199H16.9091V197.4H19.2997V199H20.0966V195H19.2997V196.6H16.9091V195H16.1123Z" fill="#E2C3C3"/>
<path d="M20.8903 195V199H21.6872V197.4H24.0778V199H24.8747V195H24.0778V196.6H21.6872V195H20.8903Z" fill="#E2C3C3"/>
<path d="M25.6684 196.032V197.968L26.6964 199H28.8559V198.2H27.031L26.4653 197.632V197.4H29.6527V196.032L28.6248 195H26.6964L25.6684 196.032ZM27.031 195.8H28.2901L28.8559 196.368V196.6H26.4653V196.368L27.031 195.8Z" fill="#E2C3C3"/>
<path d="M32.0402 199H32.8371V198.2H32.0402V199Z" fill="#E2C3C3"/>
<path d="M35.2245 195V199H36.0214V197.4H37.0494L38.6431 199H39.2089V198.432L37.7825 197L39.2089 195.568V195H38.6431L37.0494 196.6H36.0214V195H35.2245Z" fill="#E2C3C3"/>
<path d="M40.0026 197.968L41.0306 199H43.9869V196.032L42.959 195H40.7995V195.8H42.6243L43.1901 196.368V196.6H41.0306L40.0026 197.632V197.968ZM41.3653 198.2L40.9668 197.8L41.3653 197.4H43.1901V198.2H41.3653Z" fill="#E2C3C3"/>
<path d="M44.7807 195.568L46.2071 197L44.7807 198.432V199H45.3465L46.7728 197.568L48.1992 199H48.765V198.432L47.3386 197L48.765 195.568V195H48.1992L46.7728 196.432L45.3465 195H44.7807V195.568Z" fill="#E2C3C3"/>
<path d="M49.5588 197.968L50.5867 199H53.5431V196.032L52.5151 195H50.3556V195.8H52.1804L52.7462 196.368V196.6H50.5867L49.5588 197.632V197.968ZM50.9214 198.2L50.523 197.8L50.9214 197.4H52.7462V198.2H50.9214Z" fill="#E2C3C3"/>
<path d="M54.3368 195V199H55.1337V197.4H57.5243V199H58.3211V195H57.5243V196.6H55.1337V195H54.3368Z" fill="#E2C3C3"/>
<path d="M59.1149 195V199H59.9118V197.4H62.3023V199H63.0992V195H62.3023V196.6H59.9118V195H59.1149Z" fill="#E2C3C3"/>
<path d="M63.893 196.032V197.968L64.9209 199H67.0804V198.2H65.2556L64.6898 197.632V197.4H67.8773V196.032L66.8493 195H64.9209L63.893 196.032ZM65.2556 195.8H66.5146L67.0804 196.368V196.6H64.6898V196.368L65.2556 195.8Z" fill="#E2C3C3"/>
<path d="M70.2648 199H71.0616V198.2H70.2648V199Z" fill="#E2C3C3"/>
<path d="M73.4491 195V199H74.246V197.4H75.2739L76.8676 199H77.4334V198.432L76.007 197L77.4334 195.568V195H76.8676L75.2739 196.6H74.246V195H73.4491Z" fill="#E2C3C3"/>
<path d="M78.2272 197.968L79.2551 199H82.2115V196.032L81.1835 195H79.024V195.8H80.8488L81.4146 196.368V196.6H79.2551L78.2272 197.632V197.968ZM79.5898 198.2L79.1914 197.8L79.5898 197.4H81.4146V198.2H79.5898Z" fill="#E2C3C3"/>
<path d="M83.0052 195.568L84.4316 197L83.0052 198.432V199H83.571L84.9974 197.568L86.4238 199H86.9895V198.432L85.5632 197L86.9895 195.568V195H86.4238L84.9974 196.432L83.571 195H83.0052V195.568Z" fill="#E2C3C3"/>
<path d="M87.7833 197.968L88.8112 199H91.7676V196.032L90.7397 195H88.5802V195.8H90.405L90.9707 196.368V196.6H88.8112L87.7833 197.632V197.968ZM89.1459 198.2L88.7475 197.8L89.1459 197.4H90.9707V198.2H89.1459Z" fill="#E2C3C3"/>
<path d="M92.5614 195V199H93.3582V197.4H95.7488V199H96.5457V195H95.7488V196.6H93.3582V195H92.5614Z" fill="#E2C3C3"/>
<path d="M97.3394 195V199H98.1363V197.4H100.527V199H101.324V195H100.527V196.6H98.1363V195H97.3394Z" fill="#E2C3C3"/>
<path d="M102.118 196.032V197.968L103.145 199H105.305V198.2H103.48L102.914 197.632V197.4H106.102V196.032L105.074 195H103.145L102.118 196.032ZM103.48 195.8H104.739L105.305 196.368V196.6H102.914V196.368L103.48 195.8Z" fill="#E2C3C3"/>
<path d="M108.489 199H109.286V198.2H108.489V199Z" fill="#E2C3C3"/>
<path d="M111.674 195V199H112.471V197.4H113.498L115.092 199H115.658V198.432L114.232 197L115.658 195.568V195H115.092L113.498 196.6H112.471V195H111.674Z" fill="#E2C3C3"/>
<path d="M116.452 197.968L117.48 199H120.436V196.032L119.408 195H117.249V195.8H119.073L119.639 196.368V196.6H117.48L116.452 197.632V197.968ZM117.814 198.2L117.416 197.8L117.814 197.4H119.639V198.2H117.814Z" fill="#E2C3C3"/>
<path d="M121.23 195.568L122.656 197L121.23 198.432V199H121.796L123.222 197.568L124.648 199H125.214V198.432L123.788 197L125.214 195.568V195H124.648L123.222 196.432L121.796 195H121.23V195.568Z" fill="#E2C3C3"/>
<path d="M126.008 197.968L127.036 199H129.992V196.032L128.964 195H126.805V195.8H128.63L129.195 196.368V196.6H127.036L126.008 197.632V197.968ZM127.37 198.2L126.972 197.8L127.37 197.4H129.195V198.2H127.37Z" fill="#E2C3C3"/>
<path d="M130.786 195V199H131.583V197.4H133.973V199H134.77V195H133.973V196.6H131.583V195H130.786Z" fill="#E2C3C3"/>
<path d="M135.564 195V199H136.361V197.4H138.751V199H139.548V195H138.751V196.6H136.361V195H135.564Z" fill="#E2C3C3"/>
<path d="M140.342 196.032V197.968L141.37 199H143.53V198.2H141.705L141.139 197.632V197.4H144.326V196.032L143.298 195H141.37L140.342 196.032ZM141.705 195.8H142.964L143.53 196.368V196.6H141.139V196.368L141.705 195.8Z" fill="#E2C3C3"/>
<path d="M146.714 199H147.511V198.2H146.714V199Z" fill="#E2C3C3"/>
<path d="M149.898 195V199H150.695V197.4H151.723L153.317 199H153.883V198.432L152.456 197L153.883 195.568V195H153.317L151.723 196.6H150.695V195H149.898Z" fill="#E2C3C3"/>
<path d="M154.676 197.968L155.704 199H158.661V196.032L157.633 195H155.473V195.8H157.298L157.864 196.368V196.6H155.704L154.676 197.632V197.968ZM156.039 198.2L155.64 197.8L156.039 197.4H157.864V198.2H156.039Z" fill="#E2C3C3"/>
<path d="M159.454 195.568L160.881 197L159.454 198.432V199H160.02L161.446 197.568L162.873 199H163.439V198.432L162.012 197L163.439 195.568V195H162.873L161.446 196.432L160.02 195H159.454V195.568Z" fill="#E2C3C3"/>
<path d="M164.232 197.968L165.26 199H168.217V196.032L167.189 195H165.029V195.8H166.854L167.42 196.368V196.6H165.26L164.232 197.632V197.968ZM165.595 198.2L165.197 197.8L165.595 197.4H167.42V198.2H165.595Z" fill="#E2C3C3"/>
<path d="M169.01 195V199H169.807V197.4H172.198V199H172.995V195H172.198V196.6H169.807V195H169.01Z" fill="#E2C3C3"/>
<path d="M173.789 195V199H174.585V197.4H176.976V199H177.773V195H176.976V196.6H174.585V195H173.789Z" fill="#E2C3C3"/>
<path d="M178.567 196.032V197.968L179.595 199H181.754V198.2H179.929L179.363 197.632V197.4H182.551V196.032L181.523 195H179.595L178.567 196.032ZM179.929 195.8H181.188L181.754 196.368V196.6H179.363V196.368L179.929 195.8Z" fill="#E2C3C3"/>
<path d="M184.938 199H185.735V198.2H184.938V199Z" fill="#E2C3C3"/>
<path d="M188.123 195V199H188.92V197.4H189.948L191.541 199H192.107V198.432L190.681 197L192.107 195.568V195H191.541L189.948 196.6H188.92V195H188.123Z" fill="#E2C3C3"/>
<path d="M192.901 197.968L193.929 199H196.885V196.032L195.857 195H193.698V195.8H195.522L196.088 196.368V196.6H193.929L192.901 197.632V197.968ZM194.263 198.2L193.865 197.8L194.263 197.4H196.088V198.2H194.263Z" fill="#E2C3C3"/>
<path d="M197.679 195.568L199.105 197L197.679 198.432V199H198.245L199.671 197.568L201.097 199H201.663V198.432L200.237 197L201.663 195.568V195H201.097L199.671 196.432L198.245 195H197.679V195.568Z" fill="#E2C3C3"/>
<path d="M202.457 197.968L203.485 199H206.441V196.032L205.413 195H203.254V195.8H205.079L205.644 196.368V196.6H203.485L202.457 197.632V197.968ZM203.82 198.2L203.421 197.8L203.82 197.4H205.644V198.2H203.82Z" fill="#E2C3C3"/>
<path d="M207.235 195V199H208.032V197.4H210.422V199H211.219V195H210.422V196.6H208.032V195H207.235Z" fill="#E2C3C3"/>
<path d="M212.013 195V199H212.81V197.4H215.201V199H215.997V195H215.201V196.6H212.81V195H212.013Z" fill="#E2C3C3"/>
<path d="M216.791 196.032V197.968L217.819 199H219.979V198.2H218.154L217.588 197.632V197.4H220.775V196.032L219.748 195H217.819L216.791 196.032ZM218.154 195.8H219.413L219.979 196.368V196.6H217.588V196.368L218.154 195.8Z" fill="#E2C3C3"/>
<path d="M223.163 199H223.96V198.2H223.163V199Z" fill="#E2C3C3"/>
<path d="M226.347 195V199H227.144V197.4H228.172L229.766 199H230.332V198.432L228.905 197L230.332 195.568V195H229.766L228.172 196.6H227.144V195H226.347Z" fill="#E2C3C3"/>
<path d="M231.125 197.968L232.153 199H235.11V196.032L234.082 195H231.922V195.8H233.747L234.313 196.368V196.6H232.153L231.125 197.632V197.968ZM232.488 198.2L232.09 197.8L232.488 197.4H234.313V198.2H232.488Z" fill="#E2C3C3"/>
<path d="M235.903 195.568L237.33 197L235.903 198.432V199H236.469L237.896 197.568L239.322 199H239.888V198.432L238.461 197L239.888 195.568V195H239.322L237.896 196.432L236.469 195H235.903V195.568Z" fill="#E2C3C3"/>
<path d="M240.681 197.968L241.709 199H244.666V196.032L243.638 195H241.478V195.8H243.303L243.869 196.368V196.6H241.709L240.681 197.632V197.968ZM242.044 198.2L241.646 197.8L242.044 197.4H243.869V198.2H242.044Z" fill="#E2C3C3"/>
<path d="M245.46 195V199H246.256V197.4H248.647V199H249.444V195H248.647V196.6H246.256V195H245.46Z" fill="#E2C3C3"/>
<path d="M250.238 195V199H251.034V197.4H253.425V199H254.222V195H253.425V196.6H251.034V195H250.238Z" fill="#E2C3C3"/>
<path d="M255.016 196.032V197.968L256.044 199H258.203V198.2H256.378L255.813 197.632V197.4H259V196.032L257.972 195H256.044L255.016 196.032ZM256.378 195.8H257.637L258.203 196.368V196.6H255.813V196.368L256.378 195.8Z" fill="#E2C3C3"/>
<path d="M-9 202V206H-8.20314V204.4H-7.17518L-5.58146 206H-5.01568V205.432L-6.44207 204L-5.01568 202.568V202H-5.58146L-7.17518 203.6H-8.20314V202H-9Z" fill="#E2C3C3"/>
<path d="M-4.22193 204.968L-3.19398 206H-0.237614V203.032L-1.26557 202H-3.42507V202.8H-1.60025L-1.03448 203.368V203.6H-3.19398L-4.22193 204.632V204.968ZM-2.8593 205.2L-3.25773 204.8L-2.8593 204.4H-1.03448V205.2H-2.8593Z" fill="#E2C3C3"/>
<path d="M0.556137 202.568L1.98252 204L0.556137 205.432V206H1.12191L2.5483 204.568L3.97468 206H4.54045V205.432L3.11407 204L4.54045 202.568V202H3.97468L2.5483 203.432L1.12191 202H0.556137V202.568Z" fill="#E2C3C3"/>
<path d="M5.3342 204.968L6.36216 206H9.31852V203.032L8.29057 202H6.13107V202.8H7.95589L8.52166 203.368V203.6H6.36216L5.3342 204.632V204.968ZM6.69684 205.2L6.29841 204.8L6.69684 204.4H8.52166V205.2H6.69684Z" fill="#E2C3C3"/>
<path d="M10.1123 202V206H10.9091V204.4H13.2997V206H14.0966V202H13.2997V203.6H10.9091V202H10.1123Z" fill="#E2C3C3"/>
<path d="M14.8903 202V206H15.6872V204.4H18.0778V206H18.8747V202H18.0778V203.6H15.6872V202H14.8903Z" fill="#E2C3C3"/>
<path d="M19.6684 203.032V204.968L20.6964 206H22.8559V205.2H21.031L20.4653 204.632V204.4H23.6527V203.032L22.6248 202H20.6964L19.6684 203.032ZM21.031 202.8H22.2901L22.8559 203.368V203.6H20.4653V203.368L21.031 202.8Z" fill="#E2C3C3"/>
<path d="M26.0402 206H26.8371V205.2H26.0402V206Z" fill="#E2C3C3"/>
<path d="M29.2245 202V206H30.0214V204.4H31.0494L32.6431 206H33.2089V205.432L31.7825 204L33.2089 202.568V202H32.6431L31.0494 203.6H30.0214V202H29.2245Z" fill="#E2C3C3"/>
<path d="M34.0026 204.968L35.0306 206H37.9869V203.032L36.959 202H34.7995V202.8H36.6243L37.1901 203.368V203.6H35.0306L34.0026 204.632V204.968ZM35.3653 205.2L34.9668 204.8L35.3653 204.4H37.1901V205.2H35.3653Z" fill="#E2C3C3"/>
<path d="M38.7807 202.568L40.2071 204L38.7807 205.432V206H39.3465L40.7728 204.568L42.1992 206H42.765V205.432L41.3386 204L42.765 202.568V202H42.1992L40.7728 203.432L39.3465 202H38.7807V202.568Z" fill="#E2C3C3"/>
<path d="M43.5588 204.968L44.5867 206H47.5431V203.032L46.5151 202H44.3556V202.8H46.1804L46.7462 203.368V203.6H44.5867L43.5588 204.632V204.968ZM44.9214 205.2L44.523 204.8L44.9214 204.4H46.7462V205.2H44.9214Z" fill="#E2C3C3"/>
<path d="M48.3368 202V206H49.1337V204.4H51.5243V206H52.3211V202H51.5243V203.6H49.1337V202H48.3368Z" fill="#E2C3C3"/>
<path d="M53.1149 202V206H53.9118V204.4H56.3023V206H57.0992V202H56.3023V203.6H53.9118V202H53.1149Z" fill="#E2C3C3"/>
<path d="M57.893 203.032V204.968L58.9209 206H61.0804V205.2H59.2556L58.6898 204.632V204.4H61.8773V203.032L60.8493 202H58.9209L57.893 203.032ZM59.2556 202.8H60.5146L61.0804 203.368V203.6H58.6898V203.368L59.2556 202.8Z" fill="#E2C3C3"/>
<path d="M64.2648 206H65.0616V205.2H64.2648V206Z" fill="#E2C3C3"/>
<path d="M67.4491 202V206H68.246V204.4H69.2739L70.8676 206H71.4334V205.432L70.007 204L71.4334 202.568V202H70.8676L69.2739 203.6H68.246V202H67.4491Z" fill="#E2C3C3"/>
<path d="M72.2272 204.968L73.2551 206H76.2115V203.032L75.1835 202H73.024V202.8H74.8488L75.4146 203.368V203.6H73.2551L72.2272 204.632V204.968ZM73.5898 205.2L73.1914 204.8L73.5898 204.4H75.4146V205.2H73.5898Z" fill="#E2C3C3"/>
<path d="M77.0052 202.568L78.4316 204L77.0052 205.432V206H77.571L78.9974 204.568L80.4238 206H80.9895V205.432L79.5632 204L80.9895 202.568V202H80.4238L78.9974 203.432L77.571 202H77.0052V202.568Z" fill="#E2C3C3"/>
<path d="M81.7833 204.968L82.8112 206H85.7676V203.032L84.7397 202H82.5802V202.8H84.405L84.9707 203.368V203.6H82.8112L81.7833 204.632V204.968ZM83.1459 205.2L82.7475 204.8L83.1459 204.4H84.9707V205.2H83.1459Z" fill="#E2C3C3"/>
<path d="M86.5614 202V206H87.3582V204.4H89.7488V206H90.5457V202H89.7488V203.6H87.3582V202H86.5614Z" fill="#E2C3C3"/>
<path d="M91.3394 202V206H92.1363V204.4H94.5269V206H95.3238V202H94.5269V203.6H92.1363V202H91.3394Z" fill="#E2C3C3"/>
<path d="M96.1175 203.032V204.968L97.1455 206H99.305V205.2H97.4801L96.9144 204.632V204.4H100.102V203.032L99.0739 202H97.1455L96.1175 203.032ZM97.4801 202.8H98.7392L99.305 203.368V203.6H96.9144V203.368L97.4801 202.8Z" fill="#E2C3C3"/>
<path d="M102.489 206H103.286V205.2H102.489V206Z" fill="#E2C3C3"/>
<path d="M105.674 202V206H106.471V204.4H107.498L109.092 206H109.658V205.432L108.232 204L109.658 202.568V202H109.092L107.498 203.6H106.471V202H105.674Z" fill="#E2C3C3"/>
<path d="M110.452 204.968L111.48 206H114.436V203.032L113.408 202H111.249V202.8H113.073L113.639 203.368V203.6H111.48L110.452 204.632V204.968ZM111.814 205.2L111.416 204.8L111.814 204.4H113.639V205.2H111.814Z" fill="#E2C3C3"/>
<path d="M115.23 202.568L116.656 204L115.23 205.432V206H115.796L117.222 204.568L118.648 206H119.214V205.432L117.788 204L119.214 202.568V202H118.648L117.222 203.432L115.796 202H115.23V202.568Z" fill="#E2C3C3"/>
<path d="M120.008 204.968L121.036 206H123.992V203.032L122.964 202H120.805V202.8H122.63L123.195 203.368V203.6H121.036L120.008 204.632V204.968ZM121.37 205.2L120.972 204.8L121.37 204.4H123.195V205.2H121.37Z" fill="#E2C3C3"/>
<path d="M124.786 202V206H125.583V204.4H127.973V206H128.77V202H127.973V203.6H125.583V202H124.786Z" fill="#E2C3C3"/>
<path d="M129.564 202V206H130.361V204.4H132.751V206H133.548V202H132.751V203.6H130.361V202H129.564Z" fill="#E2C3C3"/>
<path d="M134.342 203.032V204.968L135.37 206H137.53V205.2H135.705L135.139 204.632V204.4H138.326V203.032L137.298 202H135.37L134.342 203.032ZM135.705 202.8H136.964L137.53 203.368V203.6H135.139V203.368L135.705 202.8Z" fill="#E2C3C3"/>
<path d="M140.714 206H141.511V205.2H140.714V206Z" fill="#E2C3C3"/>
<path d="M143.898 202V206H144.695V204.4H145.723L147.317 206H147.883V205.432L146.456 204L147.883 202.568V202H147.317L145.723 203.6H144.695V202H143.898Z" fill="#E2C3C3"/>
<path d="M148.676 204.968L149.704 206H152.661V203.032L151.633 202H149.473V202.8H151.298L151.864 203.368V203.6H149.704L148.676 204.632V204.968ZM150.039 205.2L149.64 204.8L150.039 204.4H151.864V205.2H150.039Z" fill="#E2C3C3"/>
<path d="M153.454 202.568L154.881 204L153.454 205.432V206H154.02L155.446 204.568L156.873 206H157.439V205.432L156.012 204L157.439 202.568V202H156.873L155.446 203.432L154.02 202H153.454V202.568Z" fill="#E2C3C3"/>
<path d="M158.232 204.968L159.26 206H162.217V203.032L161.189 202H159.029V202.8H160.854L161.42 203.368V203.6H159.26L158.232 204.632V204.968ZM159.595 205.2L159.197 204.8L159.595 204.4H161.42V205.2H159.595Z" fill="#E2C3C3"/>
<path d="M163.01 202V206H163.807V204.4H166.198V206H166.995V202H166.198V203.6H163.807V202H163.01Z" fill="#E2C3C3"/>
<path d="M167.789 202V206H168.585V204.4H170.976V206H171.773V202H170.976V203.6H168.585V202H167.789Z" fill="#E2C3C3"/>
<path d="M172.567 203.032V204.968L173.595 206H175.754V205.2H173.929L173.363 204.632V204.4H176.551V203.032L175.523 202H173.595L172.567 203.032ZM173.929 202.8H175.188L175.754 203.368V203.6H173.363V203.368L173.929 202.8Z" fill="#E2C3C3"/>
<path d="M178.938 206H179.735V205.2H178.938V206Z" fill="#E2C3C3"/>
<path d="M182.123 202V206H182.92V204.4H183.948L185.541 206H186.107V205.432L184.681 204L186.107 202.568V202H185.541L183.948 203.6H182.92V202H182.123Z" fill="#E2C3C3"/>
<path d="M186.901 204.968L187.929 206H190.885V203.032L189.857 202H187.698V202.8H189.522L190.088 203.368V203.6H187.929L186.901 204.632V204.968ZM188.263 205.2L187.865 204.8L188.263 204.4H190.088V205.2H188.263Z" fill="#E2C3C3"/>
<path d="M191.679 202.568L193.105 204L191.679 205.432V206H192.245L193.671 204.568L195.097 206H195.663V205.432L194.237 204L195.663 202.568V202H195.097L193.671 203.432L192.245 202H191.679V202.568Z" fill="#E2C3C3"/>
<path d="M196.457 204.968L197.485 206H200.441V203.032L199.413 202H197.254V202.8H199.079L199.644 203.368V203.6H197.485L196.457 204.632V204.968ZM197.82 205.2L197.421 204.8L197.82 204.4H199.644V205.2H197.82Z" fill="#E2C3C3"/>
<path d="M201.235 202V206H202.032V204.4H204.422V206H205.219V202H204.422V203.6H202.032V202H201.235Z" fill="#E2C3C3"/>
<path d="M206.013 202V206H206.81V204.4H209.201V206H209.997V202H209.201V203.6H206.81V202H206.013Z" fill="#E2C3C3"/>
<path d="M210.791 203.032V204.968L211.819 206H213.979V205.2H212.154L211.588 204.632V204.4H214.775V203.032L213.748 202H211.819L210.791 203.032ZM212.154 202.8H213.413L213.979 203.368V203.6H211.588V203.368L212.154 202.8Z" fill="#E2C3C3"/>
<path d="M217.163 206H217.96V205.2H217.163V206Z" fill="#E2C3C3"/>
<path d="M220.347 202V206H221.144V204.4H222.172L223.766 206H224.332V205.432L222.905 204L224.332 202.568V202H223.766L222.172 203.6H221.144V202H220.347Z" fill="#E2C3C3"/>
<path d="M225.125 204.968L226.153 206H229.11V203.032L228.082 202H225.922V202.8H227.747L228.313 203.368V203.6H226.153L225.125 204.632V204.968ZM226.488 205.2L226.09 204.8L226.488 204.4H228.313V205.2H226.488Z" fill="#E2C3C3"/>
<path d="M229.903 202.568L231.33 204L229.903 205.432V206H230.469L231.896 204.568L233.322 206H233.888V205.432L232.461 204L233.888 202.568V202H233.322L231.896 203.432L230.469 202H229.903V202.568Z" fill="#E2C3C3"/>
<path d="M234.681 204.968L235.709 206H238.666V203.032L237.638 202H235.478V202.8H237.303L237.869 203.368V203.6H235.709L234.681 204.632V204.968ZM236.044 205.2L235.646 204.8L236.044 204.4H237.869V205.2H236.044Z" fill="#E2C3C3"/>
<path d="M239.46 202V206H240.256V204.4H242.647V206H243.444V202H242.647V203.6H240.256V202H239.46Z" fill="#E2C3C3"/>
<path d="M244.238 202V206H245.034V204.4H247.425V206H248.222V202H247.425V203.6H245.034V202H244.238Z" fill="#E2C3C3"/>
<path d="M249.016 203.032V204.968L250.044 206H252.203V205.2H250.378L249.813 204.632V204.4H253V203.032L251.972 202H250.044L249.016 203.032ZM250.378 202.8H251.637L252.203 203.368V203.6H249.813V203.368L250.378 202.8Z" fill="#E2C3C3"/>
<path d="M-15 209V213H-14.2031V211.4H-13.1752L-11.5815 213H-11.0157V212.432L-12.4421 211L-11.0157 209.568V209H-11.5815L-13.1752 210.6H-14.2031V209H-15Z" fill="#E2C3C3"/>
<path d="M-10.2219 211.968L-9.19398 213H-6.23761V210.032L-7.26557 209H-9.42507V209.8H-7.60025L-7.03448 210.368V210.6H-9.19398L-10.2219 211.632V211.968ZM-8.8593 212.2L-9.25773 211.8L-8.8593 211.4H-7.03448V212.2H-8.8593Z" fill="#E2C3C3"/>
<path d="M-5.44386 209.568L-4.01748 211L-5.44386 212.432V213H-4.87809L-3.4517 211.568L-2.02532 213H-1.45955V212.432L-2.88593 211L-1.45955 209.568V209H-2.02532L-3.4517 210.432L-4.87809 209H-5.44386V209.568Z" fill="#E2C3C3"/>
<path d="M-0.665795 211.968L0.362159 213H3.31852V210.032L2.29057 209H0.131069V209.8H1.95589L2.52166 210.368V210.6H0.362159L-0.665795 211.632V211.968ZM0.696842 212.2L0.29841 211.8L0.696842 211.4H2.52166V212.2H0.696842Z" fill="#E2C3C3"/>
<path d="M4.11227 209V213H4.90914V211.4H7.29973V213H8.09659V209H7.29973V210.6H4.90914V209H4.11227Z" fill="#E2C3C3"/>
<path d="M8.89034 209V213H9.6872V211.4H12.0778V213H12.8747V209H12.0778V210.6H9.6872V209H8.89034Z" fill="#E2C3C3"/>
<path d="M13.6684 210.032V211.968L14.6964 213H16.8559V212.2H15.031L14.4653 211.632V211.4H17.6527V210.032L16.6248 209H14.6964L13.6684 210.032ZM15.031 209.8H16.2901L16.8559 210.368V210.6H14.4653V210.368L15.031 209.8Z" fill="#E2C3C3"/>
<path d="M20.0402 213H20.8371V212.2H20.0402V213Z" fill="#E2C3C3"/>
<path d="M23.2245 209V213H24.0214V211.4H25.0494L26.6431 213H27.2089V212.432L25.7825 211L27.2089 209.568V209H26.6431L25.0494 210.6H24.0214V209H23.2245Z" fill="#E2C3C3"/>
<path d="M28.0026 211.968L29.0306 213H31.9869V210.032L30.959 209H28.7995V209.8H30.6243L31.1901 210.368V210.6H29.0306L28.0026 211.632V211.968ZM29.3653 212.2L28.9668 211.8L29.3653 211.4H31.1901V212.2H29.3653Z" fill="#E2C3C3"/>
<path d="M32.7807 209.568L34.2071 211L32.7807 212.432V213H33.3465L34.7728 211.568L36.1992 213H36.765V212.432L35.3386 211L36.765 209.568V209H36.1992L34.7728 210.432L33.3465 209H32.7807V209.568Z" fill="#E2C3C3"/>
<path d="M37.5588 211.968L38.5867 213H41.5431V210.032L40.5151 209H38.3556V209.8H40.1804L40.7462 210.368V210.6H38.5867L37.5588 211.632V211.968ZM38.9214 212.2L38.523 211.8L38.9214 211.4H40.7462V212.2H38.9214Z" fill="#E2C3C3"/>
<path d="M42.3368 209V213H43.1337V211.4H45.5243V213H46.3211V209H45.5243V210.6H43.1337V209H42.3368Z" fill="#E2C3C3"/>
<path d="M47.1149 209V213H47.9118V211.4H50.3023V213H51.0992V209H50.3023V210.6H47.9118V209H47.1149Z" fill="#E2C3C3"/>
<path d="M51.893 210.032V211.968L52.9209 213H55.0804V212.2H53.2556L52.6898 211.632V211.4H55.8773V210.032L54.8493 209H52.9209L51.893 210.032ZM53.2556 209.8H54.5146L55.0804 210.368V210.6H52.6898V210.368L53.2556 209.8Z" fill="#E2C3C3"/>
<path d="M58.2648 213H59.0616V212.2H58.2648V213Z" fill="#E2C3C3"/>
<path d="M61.4491 209V213H62.246V211.4H63.2739L64.8676 213H65.4334V212.432L64.007 211L65.4334 209.568V209H64.8676L63.2739 210.6H62.246V209H61.4491Z" fill="#E2C3C3"/>
<path d="M66.2272 211.968L67.2551 213H70.2115V210.032L69.1835 209H67.024V209.8H68.8488L69.4146 210.368V210.6H67.2551L66.2272 211.632V211.968ZM67.5898 212.2L67.1914 211.8L67.5898 211.4H69.4146V212.2H67.5898Z" fill="#E2C3C3"/>
<path d="M71.0052 209.568L72.4316 211L71.0052 212.432V213H71.571L72.9974 211.568L74.4238 213H74.9895V212.432L73.5632 211L74.9895 209.568V209H74.4238L72.9974 210.432L71.571 209H71.0052V209.568Z" fill="#E2C3C3"/>
<path d="M75.7833 211.968L76.8112 213H79.7676V210.032L78.7397 209H76.5802V209.8H78.405L78.9707 210.368V210.6H76.8112L75.7833 211.632V211.968ZM77.1459 212.2L76.7475 211.8L77.1459 211.4H78.9707V212.2H77.1459Z" fill="#E2C3C3"/>
<path d="M80.5614 209V213H81.3582V211.4H83.7488V213H84.5457V209H83.7488V210.6H81.3582V209H80.5614Z" fill="#E2C3C3"/>
<path d="M85.3394 209V213H86.1363V211.4H88.5269V213H89.3238V209H88.5269V210.6H86.1363V209H85.3394Z" fill="#E2C3C3"/>
<path d="M90.1175 210.032V211.968L91.1455 213H93.305V212.2H91.4801L90.9144 211.632V211.4H94.1018V210.032L93.0739 209H91.1455L90.1175 210.032ZM91.4801 209.8H92.7392L93.305 210.368V210.6H90.9144V210.368L91.4801 209.8Z" fill="#E2C3C3"/>
<path d="M96.4893 213H97.2862V212.2H96.4893V213Z" fill="#E2C3C3"/>
<path d="M99.6736 209V213H100.471V211.4H101.498L103.092 213H103.658V212.432L102.232 211L103.658 209.568V209H103.092L101.498 210.6H100.471V209H99.6736Z" fill="#E2C3C3"/>
<path d="M104.452 211.968L105.48 213H108.436V210.032L107.408 209H105.249V209.8H107.073L107.639 210.368V210.6H105.48L104.452 211.632V211.968ZM105.814 212.2L105.416 211.8L105.814 211.4H107.639V212.2H105.814Z" fill="#E2C3C3"/>
<path d="M109.23 209.568L110.656 211L109.23 212.432V213H109.796L111.222 211.568L112.648 213H113.214V212.432L111.788 211L113.214 209.568V209H112.648L111.222 210.432L109.796 209H109.23V209.568Z" fill="#E2C3C3"/>
<path d="M114.008 211.968L115.036 213H117.992V210.032L116.964 209H114.805V209.8H116.63L117.195 210.368V210.6H115.036L114.008 211.632V211.968ZM115.37 212.2L114.972 211.8L115.37 211.4H117.195V212.2H115.37Z" fill="#E2C3C3"/>
<path d="M118.786 209V213H119.583V211.4H121.973V213H122.77V209H121.973V210.6H119.583V209H118.786Z" fill="#E2C3C3"/>
<path d="M123.564 209V213H124.361V211.4H126.751V213H127.548V209H126.751V210.6H124.361V209H123.564Z" fill="#E2C3C3"/>
<path d="M128.342 210.032V211.968L129.37 213H131.53V212.2H129.705L129.139 211.632V211.4H132.326V210.032L131.298 209H129.37L128.342 210.032ZM129.705 209.8H130.964L131.53 210.368V210.6H129.139V210.368L129.705 209.8Z" fill="#E2C3C3"/>
<path d="M134.714 213H135.511V212.2H134.714V213Z" fill="#E2C3C3"/>
<path d="M137.898 209V213H138.695V211.4H139.723L141.317 213H141.883V212.432L140.456 211L141.883 209.568V209H141.317L139.723 210.6H138.695V209H137.898Z" fill="#E2C3C3"/>
<path d="M142.676 211.968L143.704 213H146.661V210.032L145.633 209H143.473V209.8H145.298L145.864 210.368V210.6H143.704L142.676 211.632V211.968ZM144.039 212.2L143.64 211.8L144.039 211.4H145.864V212.2H144.039Z" fill="#E2C3C3"/>
<path d="M147.454 209.568L148.881 211L147.454 212.432V213H148.02L149.446 211.568L150.873 213H151.439V212.432L150.012 211L151.439 209.568V209H150.873L149.446 210.432L148.02 209H147.454V209.568Z" fill="#E2C3C3"/>
<path d="M152.232 211.968L153.26 213H156.217V210.032L155.189 209H153.029V209.8H154.854L155.42 210.368V210.6H153.26L152.232 211.632V211.968ZM153.595 212.2L153.197 211.8L153.595 211.4H155.42V212.2H153.595Z" fill="#E2C3C3"/>
<path d="M157.01 209V213H157.807V211.4H160.198V213H160.995V209H160.198V210.6H157.807V209H157.01Z" fill="#E2C3C3"/>
<path d="M161.789 209V213H162.585V211.4H164.976V213H165.773V209H164.976V210.6H162.585V209H161.789Z" fill="#E2C3C3"/>
<path d="M166.567 210.032V211.968L167.595 213H169.754V212.2H167.929L167.363 211.632V211.4H170.551V210.032L169.523 209H167.595L166.567 210.032ZM167.929 209.8H169.188L169.754 210.368V210.6H167.363V210.368L167.929 209.8Z" fill="#E2C3C3"/>
<path d="M172.938 213H173.735V212.2H172.938V213Z" fill="#E2C3C3"/>
<path d="M176.123 209V213H176.92V211.4H177.948L179.541 213H180.107V212.432L178.681 211L180.107 209.568V209H179.541L177.948 210.6H176.92V209H176.123Z" fill="#E2C3C3"/>
<path d="M180.901 211.968L181.929 213H184.885V210.032L183.857 209H181.698V209.8H183.522L184.088 210.368V210.6H181.929L180.901 211.632V211.968ZM182.263 212.2L181.865 211.8L182.263 211.4H184.088V212.2H182.263Z" fill="#E2C3C3"/>
<path d="M185.679 209.568L187.105 211L185.679 212.432V213H186.245L187.671 211.568L189.097 213H189.663V212.432L188.237 211L189.663 209.568V209H189.097L187.671 210.432L186.245 209H185.679V209.568Z" fill="#E2C3C3"/>
<path d="M190.457 211.968L191.485 213H194.441V210.032L193.413 209H191.254V209.8H193.079L193.644 210.368V210.6H191.485L190.457 211.632V211.968ZM191.82 212.2L191.421 211.8L191.82 211.4H193.644V212.2H191.82Z" fill="#E2C3C3"/>
<path d="M195.235 209V213H196.032V211.4H198.422V213H199.219V209H198.422V210.6H196.032V209H195.235Z" fill="#E2C3C3"/>
<path d="M200.013 209V213H200.81V211.4H203.201V213H203.997V209H203.201V210.6H200.81V209H200.013Z" fill="#E2C3C3"/>
<path d="M204.791 210.032V211.968L205.819 213H207.979V212.2H206.154L205.588 211.632V211.4H208.775V210.032L207.748 209H205.819L204.791 210.032ZM206.154 209.8H207.413L207.979 210.368V210.6H205.588V210.368L206.154 209.8Z" fill="#E2C3C3"/>
<path d="M211.163 213H211.96V212.2H211.163V213Z" fill="#E2C3C3"/>
<path d="M214.347 209V213H215.144V211.4H216.172L217.766 213H218.332V212.432L216.905 211L218.332 209.568V209H217.766L216.172 210.6H215.144V209H214.347Z" fill="#E2C3C3"/>
<path d="M219.125 211.968L220.153 213H223.11V210.032L222.082 209H219.922V209.8H221.747L222.313 210.368V210.6H220.153L219.125 211.632V211.968ZM220.488 212.2L220.09 211.8L220.488 211.4H222.313V212.2H220.488Z" fill="#E2C3C3"/>
<path d="M223.903 209.568L225.33 211L223.903 212.432V213H224.469L225.896 211.568L227.322 213H227.888V212.432L226.461 211L227.888 209.568V209H227.322L225.896 210.432L224.469 209H223.903V209.568Z" fill="#E2C3C3"/>
<path d="M228.681 211.968L229.709 213H232.666V210.032L231.638 209H229.478V209.8H231.303L231.869 210.368V210.6H229.709L228.681 211.632V211.968ZM230.044 212.2L229.646 211.8L230.044 211.4H231.869V212.2H230.044Z" fill="#E2C3C3"/>
<path d="M233.46 209V213H234.256V211.4H236.647V213H237.444V209H236.647V210.6H234.256V209H233.46Z" fill="#E2C3C3"/>
<path d="M238.238 209V213H239.034V211.4H241.425V213H242.222V209H241.425V210.6H239.034V209H238.238Z" fill="#E2C3C3"/>
<path d="M243.016 210.032V211.968L244.044 213H246.203V212.2H244.378L243.813 211.632V211.4H247V210.032L245.972 209H244.044L243.016 210.032ZM244.378 209.8H245.637L246.203 210.368V210.6H243.813V210.368L244.378 209.8Z" fill="#E2C3C3"/>
<path d="M-9 216V220H-8.20314V218.4H-7.17518L-5.58146 220H-5.01568V219.432L-6.44207 218L-5.01568 216.568V216H-5.58146L-7.17518 217.6H-8.20314V216H-9Z" fill="#E2C3C3"/>
<path d="M-4.22193 218.968L-3.19398 220H-0.237614V217.032L-1.26557 216H-3.42507V216.8H-1.60025L-1.03448 217.368V217.6H-3.19398L-4.22193 218.632V218.968ZM-2.8593 219.2L-3.25773 218.8L-2.8593 218.4H-1.03448V219.2H-2.8593Z" fill="#E2C3C3"/>
<path d="M0.556137 216.568L1.98252 218L0.556137 219.432V220H1.12191L2.5483 218.568L3.97468 220H4.54045V219.432L3.11407 218L4.54045 216.568V216H3.97468L2.5483 217.432L1.12191 216H0.556137V216.568Z" fill="#E2C3C3"/>
<path d="M5.3342 218.968L6.36216 220H9.31852V217.032L8.29057 216H6.13107V216.8H7.95589L8.52166 217.368V217.6H6.36216L5.3342 218.632V218.968ZM6.69684 219.2L6.29841 218.8L6.69684 218.4H8.52166V219.2H6.69684Z" fill="#E2C3C3"/>
<path d="M10.1123 216V220H10.9091V218.4H13.2997V220H14.0966V216H13.2997V217.6H10.9091V216H10.1123Z" fill="#E2C3C3"/>
<path d="M14.8903 216V220H15.6872V218.4H18.0778V220H18.8747V216H18.0778V217.6H15.6872V216H14.8903Z" fill="#E2C3C3"/>
<path d="M19.6684 217.032V218.968L20.6964 220H22.8559V219.2H21.031L20.4653 218.632V218.4H23.6527V217.032L22.6248 216H20.6964L19.6684 217.032ZM21.031 216.8H22.2901L22.8559 217.368V217.6H20.4653V217.368L21.031 216.8Z" fill="#E2C3C3"/>
<path d="M26.0402 220H26.8371V219.2H26.0402V220Z" fill="#E2C3C3"/>
<path d="M29.2245 216V220H30.0214V218.4H31.0494L32.6431 220H33.2089V219.432L31.7825 218L33.2089 216.568V216H32.6431L31.0494 217.6H30.0214V216H29.2245Z" fill="#E2C3C3"/>
<path d="M34.0026 218.968L35.0306 220H37.9869V217.032L36.959 216H34.7995V216.8H36.6243L37.1901 217.368V217.6H35.0306L34.0026 218.632V218.968ZM35.3653 219.2L34.9668 218.8L35.3653 218.4H37.1901V219.2H35.3653Z" fill="#E2C3C3"/>
<path d="M38.7807 216.568L40.2071 218L38.7807 219.432V220H39.3465L40.7728 218.568L42.1992 220H42.765V219.432L41.3386 218L42.765 216.568V216H42.1992L40.7728 217.432L39.3465 216H38.7807V216.568Z" fill="#E2C3C3"/>
<path d="M43.5588 218.968L44.5867 220H47.5431V217.032L46.5151 216H44.3556V216.8H46.1804L46.7462 217.368V217.6H44.5867L43.5588 218.632V218.968ZM44.9214 219.2L44.523 218.8L44.9214 218.4H46.7462V219.2H44.9214Z" fill="#E2C3C3"/>
<path d="M48.3368 216V220H49.1337V218.4H51.5243V220H52.3211V216H51.5243V217.6H49.1337V216H48.3368Z" fill="#E2C3C3"/>
<path d="M53.1149 216V220H53.9118V218.4H56.3023V220H57.0992V216H56.3023V217.6H53.9118V216H53.1149Z" fill="#E2C3C3"/>
<path d="M57.893 217.032V218.968L58.9209 220H61.0804V219.2H59.2556L58.6898 218.632V218.4H61.8773V217.032L60.8493 216H58.9209L57.893 217.032ZM59.2556 216.8H60.5146L61.0804 217.368V217.6H58.6898V217.368L59.2556 216.8Z" fill="#E2C3C3"/>
<path d="M64.2648 220H65.0616V219.2H64.2648V220Z" fill="#E2C3C3"/>
<path d="M67.4491 216V220H68.246V218.4H69.2739L70.8676 220H71.4334V219.432L70.007 218L71.4334 216.568V216H70.8676L69.2739 217.6H68.246V216H67.4491Z" fill="#E2C3C3"/>
<path d="M72.2272 218.968L73.2551 220H76.2115V217.032L75.1835 216H73.024V216.8H74.8488L75.4146 217.368V217.6H73.2551L72.2272 218.632V218.968ZM73.5898 219.2L73.1914 218.8L73.5898 218.4H75.4146V219.2H73.5898Z" fill="#E2C3C3"/>
<path d="M77.0052 216.568L78.4316 218L77.0052 219.432V220H77.571L78.9974 218.568L80.4238 220H80.9895V219.432L79.5632 218L80.9895 216.568V216H80.4238L78.9974 217.432L77.571 216H77.0052V216.568Z" fill="#E2C3C3"/>
<path d="M81.7833 218.968L82.8112 220H85.7676V217.032L84.7397 216H82.5802V216.8H84.405L84.9707 217.368V217.6H82.8112L81.7833 218.632V218.968ZM83.1459 219.2L82.7475 218.8L83.1459 218.4H84.9707V219.2H83.1459Z" fill="#E2C3C3"/>
<path d="M86.5614 216V220H87.3582V218.4H89.7488V220H90.5457V216H89.7488V217.6H87.3582V216H86.5614Z" fill="#E2C3C3"/>
<path d="M91.3394 216V220H92.1363V218.4H94.5269V220H95.3238V216H94.5269V217.6H92.1363V216H91.3394Z" fill="#E2C3C3"/>
<path d="M96.1175 217.032V218.968L97.1455 220H99.305V219.2H97.4801L96.9144 218.632V218.4H100.102V217.032L99.0739 216H97.1455L96.1175 217.032ZM97.4801 216.8H98.7392L99.305 217.368V217.6H96.9144V217.368L97.4801 216.8Z" fill="#E2C3C3"/>
<path d="M102.489 220H103.286V219.2H102.489V220Z" fill="#E2C3C3"/>
<path d="M105.674 216V220H106.471V218.4H107.498L109.092 220H109.658V219.432L108.232 218L109.658 216.568V216H109.092L107.498 217.6H106.471V216H105.674Z" fill="#E2C3C3"/>
<path d="M110.452 218.968L111.48 220H114.436V217.032L113.408 216H111.249V216.8H113.073L113.639 217.368V217.6H111.48L110.452 218.632V218.968ZM111.814 219.2L111.416 218.8L111.814 218.4H113.639V219.2H111.814Z" fill="#E2C3C3"/>
<path d="M115.23 216.568L116.656 218L115.23 219.432V220H115.796L117.222 218.568L118.648 220H119.214V219.432L117.788 218L119.214 216.568V216H118.648L117.222 217.432L115.796 216H115.23V216.568Z" fill="#E2C3C3"/>
<path d="M120.008 218.968L121.036 220H123.992V217.032L122.964 216H120.805V216.8H122.63L123.195 217.368V217.6H121.036L120.008 218.632V218.968ZM121.37 219.2L120.972 218.8L121.37 218.4H123.195V219.2H121.37Z" fill="#E2C3C3"/>
<path d="M124.786 216V220H125.583V218.4H127.973V220H128.77V216H127.973V217.6H125.583V216H124.786Z" fill="#E2C3C3"/>
<path d="M129.564 216V220H130.361V218.4H132.751V220H133.548V216H132.751V217.6H130.361V216H129.564Z" fill="#E2C3C3"/>
<path d="M134.342 217.032V218.968L135.37 220H137.53V219.2H135.705L135.139 218.632V218.4H138.326V217.032L137.298 216H135.37L134.342 217.032ZM135.705 216.8H136.964L137.53 217.368V217.6H135.139V217.368L135.705 216.8Z" fill="#E2C3C3"/>
<path d="M140.714 220H141.511V219.2H140.714V220Z" fill="#E2C3C3"/>
<path d="M143.898 216V220H144.695V218.4H145.723L147.317 220H147.883V219.432L146.456 218L147.883 216.568V216H147.317L145.723 217.6H144.695V216H143.898Z" fill="#E2C3C3"/>
<path d="M148.676 218.968L149.704 220H152.661V217.032L151.633 216H149.473V216.8H151.298L151.864 217.368V217.6H149.704L148.676 218.632V218.968ZM150.039 219.2L149.64 218.8L150.039 218.4H151.864V219.2H150.039Z" fill="#E2C3C3"/>
<path d="M153.454 216.568L154.881 218L153.454 219.432V220H154.02L155.446 218.568L156.873 220H157.439V219.432L156.012 218L157.439 216.568V216H156.873L155.446 217.432L154.02 216H153.454V216.568Z" fill="#E2C3C3"/>
<path d="M158.232 218.968L159.26 220H162.217V217.032L161.189 216H159.029V216.8H160.854L161.42 217.368V217.6H159.26L158.232 218.632V218.968ZM159.595 219.2L159.197 218.8L159.595 218.4H161.42V219.2H159.595Z" fill="#E2C3C3"/>
<path d="M163.01 216V220H163.807V218.4H166.198V220H166.995V216H166.198V217.6H163.807V216H163.01Z" fill="#E2C3C3"/>
<path d="M167.789 216V220H168.585V218.4H170.976V220H171.773V216H170.976V217.6H168.585V216H167.789Z" fill="#E2C3C3"/>
<path d="M172.567 217.032V218.968L173.595 220H175.754V219.2H173.929L173.363 218.632V218.4H176.551V217.032L175.523 216H173.595L172.567 217.032ZM173.929 216.8H175.188L175.754 217.368V217.6H173.363V217.368L173.929 216.8Z" fill="#E2C3C3"/>
<path d="M178.938 220H179.735V219.2H178.938V220Z" fill="#E2C3C3"/>
<path d="M182.123 216V220H182.92V218.4H183.948L185.541 220H186.107V219.432L184.681 218L186.107 216.568V216H185.541L183.948 217.6H182.92V216H182.123Z" fill="#E2C3C3"/>
<path d="M186.901 218.968L187.929 220H190.885V217.032L189.857 216H187.698V216.8H189.522L190.088 217.368V217.6H187.929L186.901 218.632V218.968ZM188.263 219.2L187.865 218.8L188.263 218.4H190.088V219.2H188.263Z" fill="#E2C3C3"/>
<path d="M191.679 216.568L193.105 218L191.679 219.432V220H192.245L193.671 218.568L195.097 220H195.663V219.432L194.237 218L195.663 216.568V216H195.097L193.671 217.432L192.245 216H191.679V216.568Z" fill="#E2C3C3"/>
<path d="M196.457 218.968L197.485 220H200.441V217.032L199.413 216H197.254V216.8H199.079L199.644 217.368V217.6H197.485L196.457 218.632V218.968ZM197.82 219.2L197.421 218.8L197.82 218.4H199.644V219.2H197.82Z" fill="#E2C3C3"/>
<path d="M201.235 216V220H202.032V218.4H204.422V220H205.219V216H204.422V217.6H202.032V216H201.235Z" fill="#E2C3C3"/>
<path d="M206.013 216V220H206.81V218.4H209.201V220H209.997V216H209.201V217.6H206.81V216H206.013Z" fill="#E2C3C3"/>
<path d="M210.791 217.032V218.968L211.819 220H213.979V219.2H212.154L211.588 218.632V218.4H214.775V217.032L213.748 216H211.819L210.791 217.032ZM212.154 216.8H213.413L213.979 217.368V217.6H211.588V217.368L212.154 216.8Z" fill="#E2C3C3"/>
<path d="M217.163 220H217.96V219.2H217.163V220Z" fill="#E2C3C3"/>
<path d="M220.347 216V220H221.144V218.4H222.172L223.766 220H224.332V219.432L222.905 218L224.332 216.568V216H223.766L222.172 217.6H221.144V216H220.347Z" fill="#E2C3C3"/>
<path d="M225.125 218.968L226.153 220H229.11V217.032L228.082 216H225.922V216.8H227.747L228.313 217.368V217.6H226.153L225.125 218.632V218.968ZM226.488 219.2L226.09 218.8L226.488 218.4H228.313V219.2H226.488Z" fill="#E2C3C3"/>
<path d="M229.903 216.568L231.33 218L229.903 219.432V220H230.469L231.896 218.568L233.322 220H233.888V219.432L232.461 218L233.888 216.568V216H233.322L231.896 217.432L230.469 216H229.903V216.568Z" fill="#E2C3C3"/>
<path d="M234.681 218.968L235.709 220H238.666V217.032L237.638 216H235.478V216.8H237.303L237.869 217.368V217.6H235.709L234.681 218.632V218.968ZM236.044 219.2L235.646 218.8L236.044 218.4H237.869V219.2H236.044Z" fill="#E2C3C3"/>
<path d="M239.46 216V220H240.256V218.4H242.647V220H243.444V216H242.647V217.6H240.256V216H239.46Z" fill="#E2C3C3"/>
<path d="M244.238 216V220H245.034V218.4H247.425V220H248.222V216H247.425V217.6H245.034V216H244.238Z" fill="#E2C3C3"/>
<path d="M249.016 217.032V218.968L250.044 220H252.203V219.2H250.378L249.813 218.632V218.4H253V217.032L251.972 216H250.044L249.016 217.032ZM250.378 216.8H251.637L252.203 217.368V217.6H249.813V217.368L250.378 216.8Z" fill="#E2C3C3"/>
</g>
</g>
<defs>
<filter id="filter0_dd_185_4644" x="0" y="0" width="208" height="238" filterUnits="userSpaceOnUse" color-interpolation-filters="sRGB">
<feFlood flood-opacity="0" result="BackgroundImageFix"/>
<feColorMatrix in="SourceAlpha" type="matrix" values="0 0 0 0 0 0 0 0 0 0 0 0 0 0 0 0 0 0 127 0" result="hardAlpha"/>
<feOffset dy="4"/>
<feGaussianBlur stdDeviation="2"/>
<feComposite in2="hardAlpha" operator="out"/>
<feColorMatrix type="matrix" values="0 0 0 0 0 0 0 0 0 0 0 0 0 0 0 0 0 0 0.25 0"/>
<feBlend mode="normal" in2="BackgroundImageFix" result="effect1_dropShadow_185_4644"/>
<feColorMatrix in="SourceAlpha" type="matrix" values="0 0 0 0 0 0 0 0 0 0 0 0 0 0 0 0 0 0 127 0" result="hardAlpha"/>
<feOffset dy="4"/>
<feGaussianBlur stdDeviation="2"/>
<feComposite in2="hardAlpha" operator="out"/>
<feColorMatrix type="matrix" values="0 0 0 0 0 0 0 0 0 0 0 0 0 0 0 0 0 0 0.25 0"/>
<feBlend mode="normal" in2="effect1_dropShadow_185_4644" result="effect2_dropShadow_185_4644"/>
<feBlend mode="normal" in="SourceGraphic" in2="effect2_dropShadow_185_4644" result="shape"/>
</filter>
<filter id="filter1_d_185_4644" x="2" y="-2" width="208" height="238" filterUnits="userSpaceOnUse" color-interpolation-filters="sRGB">
<feFlood flood-opacity="0" result="BackgroundImageFix"/>
<feColorMatrix in="SourceAlpha" type="matrix" values="0 0 0 0 0 0 0 0 0 0 0 0 0 0 0 0 0 0 127 0" result="hardAlpha"/>
<feOffset dx="2" dy="2"/>
<feGaussianBlur stdDeviation="2"/>
<feComposite in2="hardAlpha" operator="out"/>
<feColorMatrix type="matrix" values="0 0 0 0 0.625 0 0 0 0 0.625 0 0 0 0 0.625 0 0 0 0.25 0"/>
<feBlend mode="normal" in2="BackgroundImageFix" result="effect1_dropShadow_185_4644"/>
<feBlend mode="normal" in="SourceGraphic" in2="effect1_dropShadow_185_4644" result="shape"/>
</filter>
<clipPath id="clip0_185_4644">
<rect width="200" height="230" fill="white" transform="translate(4)"/>
</clipPath>
</defs>
</svg>
