<svg width="230" height="270" viewBox="0 0 230 270" fill="none" xmlns="http://www.w3.org/2000/svg">
<g filter="url(#filter0_d_63_1147)">
<rect x="5" y="5" width="220" height="260" fill="#EDEDED"/>
</g>
<mask id="mask0_63_1147" style="mask-type:alpha" maskUnits="userSpaceOnUse" x="5" y="5" width="220" height="260">
<rect x="5" y="5" width="220" height="260" fill="#EDEDED"/>
</mask>
<g mask="url(#mask0_63_1147)">
<path d="M-24 233.948V236.852L-22.452 238.4H-19.548L-18 236.852V236H-18.852L-20.052 237.2H-21.948L-22.8 236.348V234.452L-21.948 233.6H-20.052L-18.852 234.8H-18V233.948L-19.548 232.4H-22.452L-24 233.948Z" fill="#ED0E24"/>
<path d="M-16.8047 232.4V238.4H-12.3527L-10.8047 236.852V236.348L-11.7527 235.4L-10.8047 234.452V233.948L-12.3527 232.4H-16.8047ZM-15.6047 233.6H-12.8567L-12.2567 234.2L-12.8567 234.8H-15.6047V233.6ZM-15.6047 236H-12.8567L-12.2567 236.6L-12.8567 237.2H-15.6047V236Z" fill="#ED0E24"/>
<path d="M-9.60938 236.852L-8.06137 238.4H-3.60938V233.948L-5.15738 232.4H-8.40938V233.6H-5.66138L-4.80938 234.452V234.8H-8.06137L-9.60938 236.348V236.852ZM-7.55737 237.2L-8.15737 236.6L-7.55737 236H-4.80938V237.2H-7.55737Z" fill="#ED0E24"/>
<path d="M-2.41406 231.548V238.4H2.03794L3.58594 236.852V233.948L2.03794 232.4H-1.21406V232.052L-0.362062 231.2H2.38594V230H-0.866062L-2.41406 231.548ZM-1.21406 233.6H1.53394L2.38594 234.452V236.348L1.53394 237.2H-1.21406V233.6Z" fill="#ED0E24"/>
<path d="M4.78125 233.948V236.852L6.32925 238.4H9.23325L10.7812 236.852V233.948L9.23325 232.4H6.32925L4.78125 233.948ZM6.83325 233.6H8.72925L9.58125 234.452V236.348L8.72925 237.2H6.83325L5.98125 236.348V234.452L6.83325 233.6Z" fill="#ED0E24"/>
<path d="M11.9766 237.2V239.6H13.1766V238.4H16.7766V239.6H17.9766V237.2H16.7766V232.4H14.7246L13.1766 233.948V237.2H11.9766ZM14.3766 237.2V234.452L15.2286 233.6H15.5766V237.2H14.3766Z" fill="#ED0E24"/>
<path d="M19.1719 236.852L20.7199 238.4H25.1719V233.948L23.6239 232.4H20.3719V233.6H23.1199L23.9719 234.452V234.8H20.7199L19.1719 236.348V236.852ZM21.2239 237.2L20.6239 236.6L21.2239 236H23.9719V237.2H21.2239Z" fill="#ED0E24"/>
<path d="M28.7672 238.4H29.9672V237.2H28.7672V238.4Z" fill="#ED0E24"/>
<path d="M33.5625 233.948V236.852L35.1105 238.4H38.0145L39.5625 236.852V236H38.7105L37.5105 237.2H35.6145L34.7625 236.348V234.452L35.6145 233.6H37.5105L38.7105 234.8H39.5625V233.948L38.0145 232.4H35.1105L33.5625 233.948Z" fill="#ED0E24"/>
<path d="M40.7578 232.4V238.4H45.2098L46.7578 236.852V236.348L45.8098 235.4L46.7578 234.452V233.948L45.2098 232.4H40.7578ZM41.9578 233.6H44.7058L45.3058 234.2L44.7058 234.8H41.9578V233.6ZM41.9578 236H44.7058L45.3058 236.6L44.7058 237.2H41.9578V236Z" fill="#ED0E24"/>
<path d="M47.9531 236.852L49.5011 238.4H53.9531V233.948L52.4051 232.4H49.1531V233.6H51.9011L52.7531 234.452V234.8H49.5011L47.9531 236.348V236.852ZM50.0051 237.2L49.4051 236.6L50.0051 236H52.7531V237.2H50.0051Z" fill="#ED0E24"/>
<path d="M55.1484 231.548V238.4H59.6004L61.1484 236.852V233.948L59.6004 232.4H56.3484V232.052L57.2004 231.2H59.9484V230H56.6964L55.1484 231.548ZM56.3484 233.6H59.0964L59.9484 234.452V236.348L59.0964 237.2H56.3484V233.6Z" fill="#ED0E24"/>
<path d="M62.3438 233.948V236.852L63.8917 238.4H66.7958L68.3438 236.852V233.948L66.7958 232.4H63.8917L62.3438 233.948ZM64.3958 233.6H66.2917L67.1438 234.452V236.348L66.2917 237.2H64.3958L63.5437 236.348V234.452L64.3958 233.6Z" fill="#ED0E24"/>
<path d="M69.5391 237.2V239.6H70.7391V238.4H74.3391V239.6H75.5391V237.2H74.3391V232.4H72.2871L70.7391 233.948V237.2H69.5391ZM71.9391 237.2V234.452L72.7911 233.6H73.1391V237.2H71.9391Z" fill="#ED0E24"/>
<path d="M76.7344 236.852L78.2824 238.4H82.7344V233.948L81.1864 232.4H77.9344V233.6H80.6824L81.5344 234.452V234.8H78.2824L76.7344 236.348V236.852ZM78.7864 237.2L78.1864 236.6L78.7864 236H81.5344V237.2H78.7864Z" fill="#ED0E24"/>
<path d="M86.3297 238.4H87.5297V237.2H86.3297V238.4Z" fill="#ED0E24"/>
<path d="M91.125 233.948V236.852L92.673 238.4H95.577L97.125 236.852V236H96.273L95.073 237.2H93.177L92.325 236.348V234.452L93.177 233.6H95.073L96.273 234.8H97.125V233.948L95.577 232.4H92.673L91.125 233.948Z" fill="#ED0E24"/>
<path d="M98.3203 232.4V238.4H102.772L104.32 236.852V236.348L103.372 235.4L104.32 234.452V233.948L102.772 232.4H98.3203ZM99.5203 233.6H102.268L102.868 234.2L102.268 234.8H99.5203V233.6ZM99.5203 236H102.268L102.868 236.6L102.268 237.2H99.5203V236Z" fill="#ED0E24"/>
<path d="M105.516 236.852L107.064 238.4H111.516V233.948L109.968 232.4H106.716V233.6H109.464L110.316 234.452V234.8H107.064L105.516 236.348V236.852ZM107.568 237.2L106.968 236.6L107.568 236H110.316V237.2H107.568Z" fill="#ED0E24"/>
<path d="M112.711 231.548V238.4H117.163L118.711 236.852V233.948L117.163 232.4H113.911V232.052L114.763 231.2H117.511V230H114.259L112.711 231.548ZM113.911 233.6H116.659L117.511 234.452V236.348L116.659 237.2H113.911V233.6Z" fill="#ED0E24"/>
<path d="M119.906 233.948V236.852L121.454 238.4H124.358L125.906 236.852V233.948L124.358 232.4H121.454L119.906 233.948ZM121.958 233.6H123.854L124.706 234.452V236.348L123.854 237.2H121.958L121.106 236.348V234.452L121.958 233.6Z" fill="#ED0E24"/>
<path d="M127.102 237.2V239.6H128.302V238.4H131.902V239.6H133.102V237.2H131.902V232.4H129.85L128.302 233.948V237.2H127.102ZM129.502 237.2V234.452L130.354 233.6H130.702V237.2H129.502Z" fill="#ED0E24"/>
<path d="M134.297 236.852L135.845 238.4H140.297V233.948L138.749 232.4H135.497V233.6H138.245L139.097 234.452V234.8H135.845L134.297 236.348V236.852ZM136.349 237.2L135.749 236.6L136.349 236H139.097V237.2H136.349Z" fill="#ED0E24"/>
<path d="M143.892 238.4H145.092V237.2H143.892V238.4Z" fill="#ED0E24"/>
<path d="M148.688 233.948V236.852L150.236 238.4H153.139L154.688 236.852V236H153.835L152.635 237.2H150.74L149.887 236.348V234.452L150.74 233.6H152.635L153.835 234.8H154.688V233.948L153.139 232.4H150.236L148.688 233.948Z" fill="#ED0E24"/>
<path d="M155.883 232.4V238.4H160.335L161.883 236.852V236.348L160.935 235.4L161.883 234.452V233.948L160.335 232.4H155.883ZM157.083 233.6H159.831L160.431 234.2L159.831 234.8H157.083V233.6ZM157.083 236H159.831L160.431 236.6L159.831 237.2H157.083V236Z" fill="#ED0E24"/>
<path d="M163.078 236.852L164.626 238.4H169.078V233.948L167.53 232.4H164.278V233.6H167.026L167.878 234.452V234.8H164.626L163.078 236.348V236.852ZM165.13 237.2L164.53 236.6L165.13 236H167.878V237.2H165.13Z" fill="#ED0E24"/>
<path d="M170.273 231.548V238.4H174.725L176.273 236.852V233.948L174.725 232.4H171.473V232.052L172.325 231.2H175.073V230H171.821L170.273 231.548ZM171.473 233.6H174.221L175.073 234.452V236.348L174.221 237.2H171.473V233.6Z" fill="#ED0E24"/>
<path d="M177.469 233.948V236.852L179.017 238.4H181.921L183.469 236.852V233.948L181.921 232.4H179.017L177.469 233.948ZM179.521 233.6H181.417L182.269 234.452V236.348L181.417 237.2H179.521L178.669 236.348V234.452L179.521 233.6Z" fill="#ED0E24"/>
<path d="M184.664 237.2V239.6H185.864V238.4H189.464V239.6H190.664V237.2H189.464V232.4H187.412L185.864 233.948V237.2H184.664ZM187.064 237.2V234.452L187.916 233.6H188.264V237.2H187.064Z" fill="#ED0E24"/>
<path d="M191.859 236.852L193.407 238.4H197.859V233.948L196.311 232.4H193.059V233.6H195.807L196.659 234.452V234.8H193.407L191.859 236.348V236.852ZM193.911 237.2L193.311 236.6L193.911 236H196.659V237.2H193.911Z" fill="#ED0E24"/>
<path d="M201.455 238.4H202.655V237.2H201.455V238.4Z" fill="#ED0E24"/>
<path d="M206.25 233.948V236.852L207.798 238.4H210.702L212.25 236.852V236H211.398L210.198 237.2H208.302L207.45 236.348V234.452L208.302 233.6H210.198L211.398 234.8H212.25V233.948L210.702 232.4H207.798L206.25 233.948Z" fill="#ED0E24"/>
<path d="M213.445 232.4V238.4H217.897L219.445 236.852V236.348L218.497 235.4L219.445 234.452V233.948L217.897 232.4H213.445ZM214.645 233.6H217.393L217.993 234.2L217.393 234.8H214.645V233.6ZM214.645 236H217.393L217.993 236.6L217.393 237.2H214.645V236Z" fill="#ED0E24"/>
<path d="M220.641 236.852L222.189 238.4H226.641V233.948L225.093 232.4H221.841V233.6H224.589L225.441 234.452V234.8H222.189L220.641 236.348V236.852ZM222.693 237.2L222.093 236.6L222.693 236H225.441V237.2H222.693Z" fill="#ED0E24"/>
<path d="M227.836 231.548V238.4H232.288L233.836 236.852V233.948L232.288 232.4H229.036V232.052L229.888 231.2H232.636V230H229.384L227.836 231.548ZM229.036 233.6H231.784L232.636 234.452V236.348L231.784 237.2H229.036V233.6Z" fill="#ED0E24"/>
<path d="M235.031 233.948V236.852L236.579 238.4H239.483L241.031 236.852V233.948L239.483 232.4H236.579L235.031 233.948ZM237.083 233.6H238.979L239.831 234.452V236.348L238.979 237.2H237.083L236.231 236.348V234.452L237.083 233.6Z" fill="#ED0E24"/>
<path d="M242.227 237.2V239.6H243.427V238.4H247.027V239.6H248.227V237.2H247.027V232.4H244.975L243.427 233.948V237.2H242.227ZM244.627 237.2V234.452L245.479 233.6H245.827V237.2H244.627Z" fill="#ED0E24"/>
<path d="M249.422 236.852L250.97 238.4H255.422V233.948L253.874 232.4H250.622V233.6H253.37L254.222 234.452V234.8H250.97L249.422 236.348V236.852ZM251.474 237.2L250.874 236.6L251.474 236H254.222V237.2H251.474Z" fill="#ED0E24"/>
</g>
<defs>
<filter id="filter0_d_63_1147" x="0" y="0" width="230" height="270" filterUnits="userSpaceOnUse" color-interpolation-filters="sRGB">
<feFlood flood-opacity="0" result="BackgroundImageFix"/>
<feColorMatrix in="SourceAlpha" type="matrix" values="0 0 0 0 0 0 0 0 0 0 0 0 0 0 0 0 0 0 127 0" result="hardAlpha"/>
<feOffset/>
<feGaussianBlur stdDeviation="2.5"/>
<feComposite in2="hardAlpha" operator="out"/>
<feColorMatrix type="matrix" values="0 0 0 0 1 0 0 0 0 0.495833 0 0 0 0 0.979833 0 0 0 1 0"/>
<feBlend mode="normal" in2="BackgroundImageFix" result="effect1_dropShadow_63_1147"/>
<feBlend mode="normal" in="SourceGraphic" in2="effect1_dropShadow_63_1147" result="shape"/>
</filter>
</defs>
</svg>
