<svg width="16" height="16" viewBox="0 0 16 16" fill="none" xmlns="http://www.w3.org/2000/svg">
<path d="M10.1987 5.75501C10.1987 4.54301 9.21273 3.55701 8.00073 3.55701C6.78873 3.55701 5.80273 4.54301 5.80273 5.75501C5.80273 6.96701 6.78873 7.95301 8.00073 7.95301C9.21273 7.95301 10.1987 6.96701 10.1987 5.75501ZM6.55273 5.75501C6.55273 4.95651 7.20223 4.30701 8.00073 4.30701C8.79923 4.30701 9.44873 4.95651 9.44873 5.75501C9.44873 6.55351 8.79923 7.20301 8.00073 7.20301C7.20223 7.20301 6.55273 6.55351 6.55273 5.75501Z" fill="#B1E4D0"/>
<path d="M10.2128 11.9985C11.5923 10.453 13.1838 8.1635 13.1838 5.8085C13.1838 2.9505 10.8583 0.625 8.00027 0.625C5.14227 0.625 2.81677 2.9505 2.81677 5.8085C2.81677 8.1635 4.40827 10.453 5.78777 11.9985C4.35277 12.1465 2.00977 12.553 2.00977 13.628C2.00977 15.007 5.77527 15.375 8.00027 15.375C10.2253 15.375 13.9908 15.007 13.9908 13.628C13.9908 12.553 11.6478 12.1465 10.2128 11.9985ZM8.00027 1.375C10.4448 1.375 12.4338 3.364 12.4338 5.8085C12.4338 9.026 8.94927 12.304 8.00027 13.1365C7.05127 12.3035 3.56677 9.026 3.56677 5.8085C3.56677 3.364 5.55577 1.375 8.00027 1.375ZM8.00027 14.625C4.73477 14.625 2.85277 13.9725 2.75927 13.635C2.82777 13.395 4.01427 12.866 6.43977 12.695C7.14877 13.4155 7.69927 13.868 7.76477 13.9215C7.83377 13.977 7.91727 14.005 8.00077 14.005C8.08427 14.005 8.16777 13.977 8.23677 13.9215C8.30277 13.8685 8.85327 13.4155 9.56177 12.695C11.9873 12.866 13.1733 13.3945 13.2418 13.623C13.1478 13.9725 11.2658 14.625 8.00027 14.625Z" fill="#B1E4D0"/>
</svg>
