<svg width="16" height="16" viewBox="0 0 16 16" fill="none" xmlns="http://www.w3.org/2000/svg">
<path d="M14.8805 3.25753C14.8805 3.25753 14.8805 3.25703 14.88 3.25703C14.8775 3.25403 14.874 3.25303 14.8715 3.25053C14.58 2.97003 14.1855 2.79553 13.75 2.79553H2.25C1.814 2.79553 1.4195 2.97003 1.1275 3.25053C1.1255 3.25303 1.122 3.25403 1.1195 3.25703C1.1195 3.25703 1.1195 3.25753 1.119 3.25753C0.8155 3.55303 0.625 3.96453 0.625 4.42053V11.579C0.625 12.475 1.354 13.204 2.25 13.204H13.75C14.646 13.204 15.375 12.475 15.375 11.579V4.42053C15.375 3.96453 15.1845 3.55303 14.8805 3.25753ZM13.75 3.54553C13.8155 3.54553 13.8785 3.55403 13.9395 3.56753L8.5685 8.15953C8.2385 8.44153 7.761 8.44153 7.431 8.15953L2.0605 3.56753C2.1215 3.55403 2.1845 3.54553 2.25 3.54553H13.75ZM14.625 11.5795C14.625 12.062 14.2325 12.4545 13.75 12.4545H2.25C1.7675 12.4545 1.375 12.062 1.375 11.5795V4.42053C1.375 4.28503 1.4085 4.15853 1.4635 4.04403L6.9435 8.73003C7.25 8.99153 7.625 9.12253 8 9.12253C8.375 9.12253 8.75 8.99153 9.056 8.73003L14.536 4.04453C14.591 4.15903 14.6245 4.28603 14.6245 4.42103V11.5795H14.625Z" fill="#B1E4D0"/>
</svg>
