<svg width="16" height="16" viewBox="0 0 16 16" fill="none" xmlns="http://www.w3.org/2000/svg">
<g clip-path="url(#clip0_921_3867)">
<path d="M8.91055 1.802C10.3155 1.8255 11.634 2.3845 12.625 3.375C13.615 4.3655 14.174 5.6845 14.198 7.089C14.2015 7.294 14.369 7.4575 14.573 7.4575H14.5795C14.7865 7.454 14.9515 7.283 14.948 7.076C14.9205 5.476 14.2845 3.973 13.1555 2.8445C12.0265 1.716 10.5235 1.079 8.92355 1.052C8.72855 1.0645 8.54605 1.214 8.54205 1.4205C8.53855 1.628 8.70355 1.7985 8.91055 1.802Z" fill="#B1E4D0"/>
<path d="M8.66432 3.78149C9.62982 3.74149 10.5563 4.10049 11.2278 4.77149C11.8998 5.44349 12.2603 6.37749 12.2178 7.33499C12.2083 7.54199 12.3688 7.71699 12.5758 7.72599C12.5818 7.72649 12.5868 7.72649 12.5928 7.72649C12.7918 7.72649 12.9578 7.56949 12.9668 7.36799C13.0188 6.20149 12.5783 5.06149 11.7578 4.24099C10.9373 3.42099 9.79432 2.97649 8.63082 3.03199C8.42382 3.04099 8.26382 3.21649 8.27282 3.42299C8.28182 3.63049 8.46282 3.79999 8.66432 3.78149Z" fill="#B1E4D0"/>
<path d="M14.9382 10.9175L13.3387 9.31803C12.7242 8.70353 11.6542 8.70353 11.0407 9.31803L9.79217 10.566C9.71017 10.6475 9.58817 10.6775 9.48867 10.6425C7.46467 9.92453 6.07517 8.53503 5.35717 6.51103C5.32167 6.41103 5.35217 6.28903 5.43367 6.20753L6.68167 4.95903C6.98867 4.65203 7.15767 4.24403 7.15767 3.81003C7.15767 3.37603 6.98867 2.96803 6.68167 2.66103L5.08217 1.06153C4.46767 0.447029 3.39817 0.446529 2.78567 1.06053L1.11017 2.73653C0.819167 3.02653 0.650167 3.40353 0.634167 3.79953C0.510167 6.86553 1.64467 9.62203 4.00617 11.9925C4.00667 11.993 4.00667 11.993 4.00717 11.9935C6.26167 14.2385 8.86467 15.375 11.7517 15.375C11.9002 15.375 12.0497 15.372 12.1997 15.3655C12.5947 15.35 12.9727 15.181 13.2642 14.8895L14.9387 13.215C15.2457 12.908 15.4147 12.5 15.4147 12.066C15.4147 11.632 15.2452 11.224 14.9382 10.9175ZM14.4077 12.685L12.7332 14.3595C12.5757 14.517 12.3752 14.6085 12.1687 14.617C9.31667 14.7285 6.75267 13.67 4.53617 11.463C2.32867 9.24653 1.26817 6.67853 1.38217 3.83053C1.39167 3.62353 1.48267 3.42353 1.63967 3.26703L3.31617 1.59053C3.64667 1.25953 4.22167 1.26053 4.55217 1.59153L6.15167 3.19103C6.31717 3.35653 6.40817 3.57603 6.40817 3.80953C6.40817 4.04353 6.31717 4.26303 6.15167 4.42853L4.90367 5.67703C4.61717 5.96353 4.51817 6.38953 4.65017 6.76203C5.44717 9.00903 6.99067 10.5525 9.23717 11.349C9.61017 11.483 10.0362 11.3825 10.3227 11.096L11.5712 9.84803C11.9007 9.51753 12.4772 9.51653 12.8087 9.84803L14.4082 11.4475C14.5737 11.6125 14.6647 11.8325 14.6647 12.066C14.6642 12.3 14.5732 12.5195 14.4077 12.685Z" fill="#B1E4D0"/>
</g>
<defs>
<clipPath id="clip0_921_3867">
<rect width="16" height="16" fill="white"/>
</clipPath>
</defs>
</svg>
