<svg width="110" height="19" viewBox="0 0 110 19" fill="none" xmlns="http://www.w3.org/2000/svg">
<g filter="url(#filter0_f_901_3707)">
<path d="M5.29861 2.1589C5.21563 2.22246 5.14302 2.27542 5.08078 2.3178C5.01854 2.38136 4.98742 2.42373 4.98742 2.44491C4.98742 2.48729 5.00817 2.50847 5.04966 2.50847C5.07041 2.50847 5.10153 2.49788 5.14302 2.47669L5.20526 2.44491C5.20526 2.4661 5.19488 2.49788 5.17414 2.54025C5.15339 2.60381 5.12227 2.63559 5.08078 2.63559C5.03929 2.63559 4.98742 2.60381 4.92519 2.54025C4.88369 2.49788 4.8422 2.4661 4.80071 2.44491C4.75922 2.44491 4.7281 2.44491 4.70735 2.44491H4.64511C4.60362 2.4661 4.56213 2.49788 4.52064 2.54025C4.49989 2.58263 4.47915 2.65678 4.4584 2.76271C4.43765 2.86864 4.41691 3.02754 4.39616 3.23941C4.39616 3.28178 4.37542 3.31356 4.33392 3.33475C4.31318 3.37712 4.29243 3.3983 4.27169 3.3983C4.25094 3.3983 4.23019 3.37712 4.20945 3.33475C4.1887 3.31356 4.17833 3.28178 4.17833 3.23941C4.17833 3.21822 4.16796 3.20763 4.14721 3.20763H4.11609C4.09535 3.22881 4.06423 3.27119 4.02273 3.33475C3.98124 3.41949 3.9605 3.50424 3.9605 3.58898C3.9605 3.67373 3.98124 3.74788 4.02273 3.81144C4.08497 3.91737 4.12646 3.95975 4.14721 3.93856C4.16796 3.93856 4.17833 3.875 4.17833 3.74788C4.17833 3.59958 4.1887 3.52542 4.20945 3.52542C4.23019 3.52542 4.25094 3.5572 4.27169 3.62076C4.31318 3.68432 4.33392 3.73729 4.33392 3.77966C4.33392 3.86441 4.30281 3.93856 4.24057 4.00212C4.17833 4.06568 4.14721 4.16102 4.14721 4.28814C4.14721 4.37288 4.15758 4.45763 4.17833 4.54237C4.19908 4.69068 4.21982 4.76483 4.24057 4.76483C4.26131 4.76483 4.27169 4.75424 4.27169 4.73305C4.29243 4.6483 4.31318 4.60593 4.33392 4.60593L4.39616 4.66949L4.36504 4.73305C4.36504 4.79661 4.3443 4.84958 4.30281 4.89195C4.24057 4.95551 4.20945 4.99788 4.20945 5.01907V5.05085C4.23019 5.07203 4.29243 5.08263 4.39616 5.08263C4.52064 5.08263 4.58288 5.08263 4.58288 5.08263C4.58288 5.10381 4.58288 5.125 4.58288 5.14619C4.58288 5.16737 4.56213 5.19915 4.52064 5.24152C4.49989 5.2839 4.48952 5.32627 4.48952 5.36864V5.46398C4.53101 5.54873 4.63474 5.66525 4.80071 5.81356C4.92519 5.91949 5.02892 6.02542 5.1119 6.13136C5.19488 6.25847 5.23638 6.35381 5.23638 6.41737C5.23638 6.48093 5.26749 6.56568 5.32973 6.67161C5.39197 6.79873 5.47495 6.91525 5.57868 7.02119C5.68241 7.10593 5.7654 7.20127 5.82764 7.3072C5.91062 7.43432 5.95211 7.52966 5.95211 7.59322C5.95211 7.65678 5.96248 7.72034 5.98323 7.7839C6.00398 7.84746 6.0351 7.88983 6.07659 7.91102C6.09733 7.9322 6.10771 7.96398 6.10771 8.00636C6.12845 8.06991 6.12845 8.13347 6.10771 8.19703C6.10771 8.26059 6.11808 8.34534 6.13883 8.45127C6.18032 8.5572 6.23218 8.65254 6.29442 8.73729L6.54337 9.05508L6.2633 9.1822C6.20106 9.20339 6.13883 9.21398 6.07659 9.21398C6.0351 9.23517 5.9936 9.24576 5.95211 9.24576L5.88987 9.21398L5.85875 9.1822C5.83801 9.1822 5.82764 9.1928 5.82764 9.21398L5.88987 9.3411C5.88987 9.40466 5.84838 9.46822 5.7654 9.53178C5.66167 9.61653 5.52682 9.68008 5.36085 9.72246C5.27787 9.74364 5.18451 9.78602 5.08078 9.84958C4.9978 9.91314 4.92519 9.98729 4.86295 10.072C4.77996 10.178 4.69698 10.2521 4.614 10.2945C4.53101 10.3581 4.47915 10.3898 4.4584 10.3898C4.43765 10.3898 4.42728 10.3792 4.42728 10.3581C4.42728 10.3369 4.44803 10.2945 4.48952 10.2309V10.1992L4.42728 10.2309C4.38579 10.2521 4.31318 10.3051 4.20945 10.3898C4.10572 10.4958 4.00199 10.5805 3.89826 10.6441C3.79453 10.7288 3.70117 10.7818 3.61819 10.803C3.55595 10.8242 3.46259 10.8771 3.33812 10.9619C3.21364 11.0466 3.08916 11.1525 2.96469 11.2797C2.84021 11.3856 2.72611 11.4703 2.62238 11.5339C2.51865 11.5975 2.43567 11.6292 2.37343 11.6292L2.28007 11.5975V11.6292L2.37343 11.6928C2.45641 11.7352 2.4979 11.7775 2.4979 11.8199C2.4979 11.8623 2.45641 11.9258 2.37343 12.0106C2.31119 12.0742 2.25932 12.1377 2.21783 12.2013C2.17634 12.286 2.15559 12.3496 2.15559 12.3919C2.15559 12.4343 2.14522 12.4661 2.12448 12.4873C2.10373 12.5297 2.08298 12.5508 2.06224 12.5508C2.02075 12.5508 2 12.5932 2 12.678V12.7733C2 12.9004 2.02075 13.0487 2.06224 13.2182C2.12448 13.3877 2.19709 13.5254 2.28007 13.6314C2.34231 13.7161 2.42529 13.7903 2.52902 13.8538C2.63275 13.9386 2.73648 14.0021 2.84021 14.0445C2.94394 14.0657 3.02693 14.0975 3.08916 14.1398C3.17215 14.1822 3.21364 14.214 3.21364 14.2352C3.21364 14.3199 3.34849 14.3517 3.61819 14.3305C3.90863 14.3305 4.21982 14.2987 4.55176 14.2352C4.90444 14.1928 5.18451 14.1292 5.39197 14.0445C5.55794 13.9597 5.70316 13.8962 5.82764 13.8538C5.97286 13.8114 6.06622 13.7903 6.10771 13.7903L6.16994 13.822L6.20106 13.7903L6.23218 13.7267L6.20106 13.6631C6.20106 13.6208 6.21144 13.589 6.23218 13.5678C6.27367 13.5466 6.31517 13.536 6.35666 13.536C6.4189 13.536 6.51225 13.4831 6.63673 13.3771C6.76121 13.2712 6.88568 13.1547 7.01016 13.0275C7.13463 12.8792 7.23836 12.7627 7.32135 12.678C7.42508 12.6144 7.49769 12.5826 7.53918 12.5826H7.5703C7.88149 13.0064 8.04746 14.0127 8.0682 15.6017C8.0682 15.7076 8.07858 15.7924 8.09932 15.8559C8.12007 15.9195 8.15119 15.9513 8.19268 15.9513C8.21343 15.9513 8.23417 15.9725 8.25492 16.0148C8.27566 16.0784 8.28604 16.1419 8.28604 16.2055V16.3008C8.28604 16.4068 8.31716 16.4597 8.37939 16.4597H8.44163C8.48312 16.4597 8.54536 16.4809 8.62835 16.5233C8.73208 16.5657 8.8358 16.6292 8.93954 16.714C9.06401 16.7987 9.19886 16.8623 9.34408 16.9047C9.51005 16.9682 9.65527 17 9.77975 17C9.90422 17 9.96646 16.9682 9.96646 16.9047C9.96646 16.8835 10.0183 16.8411 10.1221 16.7775C10.2465 16.7352 10.3918 16.6928 10.5577 16.6504C10.9104 16.5657 11.1594 16.428 11.3046 16.2373C11.4498 16.0678 11.5224 15.803 11.5224 15.4428C11.5224 15.2945 11.5328 15.1568 11.5535 15.0297C11.595 14.9025 11.6261 14.8178 11.6469 14.7754C11.6884 14.7119 11.7195 14.5742 11.7402 14.3623C11.761 14.1716 11.7714 13.9492 11.7714 13.6949C11.7714 13.0381 11.8336 12.7097 11.9581 12.7097C11.9996 12.7097 12.0514 12.7521 12.1137 12.8369C12.1552 12.9004 12.1863 12.9428 12.207 12.964C12.2485 12.9852 12.29 12.9958 12.3315 12.9958H12.4249C12.4664 13.0381 12.4975 13.0911 12.5182 13.1547C12.5597 13.2818 12.6427 13.3771 12.7672 13.4407C12.9124 13.5042 13.0369 13.536 13.1406 13.536H13.234C13.2547 13.5148 13.2858 13.5042 13.3273 13.5042C13.3896 13.5042 13.431 13.5042 13.4518 13.5042C13.5348 13.5254 13.6385 13.589 13.763 13.6949C13.8875 13.8008 14.0016 13.9068 14.1053 14.0127C14.209 14.1398 14.2609 14.2246 14.2609 14.2669V14.2987C14.2609 14.3199 14.2713 14.3305 14.292 14.3305C14.3335 14.3093 14.3854 14.2881 14.4476 14.2669C14.5513 14.2034 14.6343 14.161 14.6965 14.1398C14.7795 14.1398 14.8314 14.1398 14.8521 14.1398H14.9455C14.987 14.161 15.0077 14.1822 15.0077 14.2034V14.3305C15.0285 14.3729 15.0596 14.4047 15.1011 14.4258L15.1945 14.4576L15.2567 14.4258C15.2982 14.4047 15.3397 14.3729 15.3812 14.3305C15.4019 14.2881 15.4849 14.2246 15.6301 14.1398C15.7753 14.0763 15.9413 14.0127 16.128 13.9492C16.3355 13.8856 16.5118 13.8114 16.657 13.7267C16.823 13.6631 16.9267 13.6102 16.9682 13.5678C17.0512 13.4407 17.0927 13.2606 17.0927 13.0275V12.8686C17.0927 12.572 17.0408 12.2542 16.9371 11.9153C16.8334 11.5975 16.6985 11.3538 16.5326 11.1843C16.4703 11.0996 16.377 11.0148 16.2525 10.9301C16.1488 10.8453 16.0347 10.7606 15.9102 10.6758C15.8065 10.5911 15.7131 10.5275 15.6301 10.4852C15.5679 10.464 15.5264 10.4534 15.5056 10.4534C15.4849 10.4534 15.4538 10.4428 15.4123 10.4216C15.3293 10.4004 15.2359 10.3581 15.1322 10.2945C15.0285 10.2097 14.8833 10.1144 14.6965 10.0085C14.5098 9.92373 14.3335 9.82839 14.1675 9.72246C13.7941 9.53178 13.5348 9.37288 13.3896 9.24576C13.2443 9.13983 13.1199 8.99153 13.0161 8.80085C12.9331 8.7161 12.8916 8.64195 12.8916 8.57839C12.8916 8.51483 12.9331 8.41949 13.0161 8.29237C13.0991 8.18644 13.2443 8.01695 13.4518 7.7839C13.6385 7.59322 13.7941 7.41314 13.9186 7.24364C14.043 7.07415 14.1053 6.96822 14.1053 6.92585C14.1053 6.88347 14.1157 6.8517 14.1364 6.83051H14.1986C14.2401 6.83051 14.2713 6.80932 14.292 6.76695C14.3335 6.74576 14.3646 6.6928 14.3854 6.60805C14.4269 6.50212 14.5513 6.31144 14.7588 6.03602C14.987 5.76059 15.2256 5.49576 15.4745 5.24152C15.7442 5.00847 15.9309 4.86017 16.0347 4.79661C16.1176 4.77542 16.1695 4.74364 16.1903 4.70127C16.211 4.6589 16.2214 4.61652 16.2214 4.57415V4.54237C16.2006 4.5 16.1591 4.47881 16.0969 4.47881C16.0554 4.47881 16.0347 4.45763 16.0347 4.41525C16.0347 4.39407 16.0347 4.36229 16.0347 4.31991V4.25636C16.0554 4.1928 16.0969 4.13983 16.1591 4.09746C16.1799 4.07627 16.1903 4.0339 16.1903 3.97034C16.1903 3.90678 16.1695 3.84322 16.128 3.77966C16.0865 3.67373 16.0658 3.59958 16.0658 3.5572C16.0658 3.51483 16.0762 3.48305 16.0969 3.46186C16.1384 3.44068 16.1695 3.4089 16.1903 3.36652C16.211 3.32415 16.2214 3.28178 16.2214 3.23941C16.2214 3.21822 16.211 3.20763 16.1903 3.20763C16.1903 3.20763 16.1799 3.20763 16.1591 3.20763H16.128C16.0865 3.20763 16.0347 3.18644 15.9724 3.14407C15.9309 3.12288 15.8791 3.08051 15.8168 3.01695C15.7546 2.95339 15.7131 2.90042 15.6924 2.85805V2.82627C15.6924 2.80508 15.7027 2.79449 15.7235 2.79449L15.7546 2.76271L15.7235 2.73093C15.682 2.70975 15.6301 2.67797 15.5679 2.63559C15.5056 2.59322 15.433 2.55085 15.35 2.50847C15.2878 2.48729 15.2256 2.4661 15.1633 2.44491C15.1011 2.44491 14.987 2.43432 14.821 2.41314C14.6758 2.39195 14.5098 2.37076 14.3231 2.34958C14.0949 2.32839 13.9289 2.3178 13.8252 2.3178C13.7215 2.3178 13.6489 2.33898 13.6074 2.38136C13.5659 2.42373 13.5348 2.49788 13.514 2.60381C13.4518 2.7733 13.3999 2.85805 13.3584 2.85805C13.3377 2.85805 13.3169 2.83686 13.2962 2.79449C13.2754 2.75212 13.2443 2.73093 13.2028 2.73093H13.1717C13.1095 2.73093 13.0369 2.7733 12.9539 2.85805C12.7257 3.04873 12.5597 3.18644 12.456 3.27119C12.3523 3.35593 12.2693 3.3983 12.207 3.3983C12.1863 3.3983 12.1448 3.43008 12.0826 3.49364C12.0203 3.5572 11.9581 3.64195 11.8958 3.74788C11.8336 3.85381 11.7714 3.93856 11.7091 4.00212C11.6676 4.06568 11.6365 4.09746 11.6158 4.09746C11.5743 4.09746 11.5432 4.11864 11.5224 4.16102C11.5017 4.22458 11.4705 4.28814 11.4291 4.3517C11.4083 4.41525 11.3564 4.48941 11.2735 4.57415C11.1905 4.68008 11.0867 4.76483 10.9623 4.82839C10.8378 4.89195 10.7444 4.95551 10.6822 5.01907C10.6407 5.08263 10.62 5.13559 10.62 5.17797V5.24152C10.62 5.26271 10.6096 5.2733 10.5888 5.2733L10.5266 5.24152H10.4644C10.4229 5.24152 10.3606 5.26271 10.2777 5.30508C10.1947 5.38983 10.1221 5.47458 10.0598 5.55932C10.0183 5.64407 9.99758 5.70763 9.99758 5.75V5.87712C9.99758 5.91949 9.98721 5.97246 9.96646 6.03602C9.94572 6.09958 9.90422 6.17373 9.84199 6.25847C9.77975 6.34322 9.72788 6.42797 9.68639 6.51271C9.6449 6.61864 9.62415 6.6928 9.62415 6.73517C9.62415 6.77754 9.61378 6.80932 9.59303 6.83051C9.57229 6.8517 9.55154 6.86229 9.5308 6.86229L9.49968 6.83051C9.45818 6.80932 9.43744 6.78814 9.43744 6.76695C9.43744 6.74576 9.43744 6.72458 9.43744 6.70339V6.57627C9.43744 6.51271 9.42707 6.41737 9.40632 6.29025C9.36483 6.07839 9.30259 5.84534 9.21961 5.5911C9.15737 5.33686 9.08476 5.10381 9.00177 4.89195C8.93954 4.68008 8.8773 4.54237 8.81506 4.47881C8.77357 4.41525 8.73208 4.3517 8.69058 4.28814C8.66984 4.24576 8.65946 4.21398 8.65946 4.1928C8.65946 4.17161 8.62835 4.08686 8.56611 3.93856C8.52462 3.81144 8.46238 3.65254 8.37939 3.46186C8.10969 2.86864 7.87112 2.57203 7.66366 2.57203H7.63254C7.59105 2.57203 7.53918 2.55085 7.47694 2.50847C7.4147 2.48729 7.34209 2.44491 7.25911 2.38136C7.19687 2.33898 7.15538 2.29661 7.13463 2.25424C7.11389 2.21186 7.10351 2.18008 7.10351 2.1589V2.12712L7.13463 2.09534C7.13463 2.07415 7.09314 2.06356 7.01016 2.06356C6.96867 2.08475 6.9168 2.11652 6.85456 2.1589C6.79232 2.20127 6.74046 2.24364 6.69897 2.28602C6.63673 2.37076 6.59524 2.41314 6.57449 2.41314C6.57449 2.39195 6.58486 2.34958 6.60561 2.28602C6.62636 2.24364 6.63673 2.21186 6.63673 2.19068C6.63673 2.1483 6.62636 2.11652 6.60561 2.09534C6.58486 2.07415 6.51225 2.06356 6.38778 2.06356C6.32554 2.04237 6.24256 2.03178 6.13883 2.03178C6.0351 2.03178 5.94174 2.02119 5.85875 2C5.79652 2 5.70316 2.01059 5.57868 2.03178C5.47495 2.07415 5.3816 2.11652 5.29861 2.1589Z" fill="#B1E4D0"/>
<path d="M28.0254 2.1589C27.9425 2.22246 27.8698 2.27542 27.8076 2.3178C27.7454 2.38136 27.7142 2.42373 27.7142 2.44491C27.7142 2.48729 27.735 2.50847 27.7765 2.50847C27.7972 2.50847 27.8283 2.49788 27.8698 2.47669L27.9321 2.44491C27.9321 2.4661 27.9217 2.49788 27.901 2.54025C27.8802 2.60381 27.8491 2.63559 27.8076 2.63559C27.7661 2.63559 27.7142 2.60381 27.652 2.54025C27.6105 2.49788 27.569 2.4661 27.5275 2.44491C27.486 2.44491 27.4549 2.44491 27.4342 2.44491H27.3719C27.3304 2.4661 27.289 2.49788 27.2475 2.54025C27.2267 2.58263 27.206 2.65678 27.1852 2.76271C27.1645 2.86864 27.1437 3.02754 27.123 3.23941C27.123 3.28178 27.1022 3.31356 27.0607 3.33475C27.04 3.37712 27.0193 3.3983 26.9985 3.3983C26.9778 3.3983 26.957 3.37712 26.9363 3.33475C26.9155 3.31356 26.9052 3.28178 26.9052 3.23941C26.9052 3.21822 26.8948 3.20763 26.874 3.20763H26.8429C26.8222 3.22881 26.791 3.27119 26.7496 3.33475C26.7081 3.41949 26.6873 3.50424 26.6873 3.58898C26.6873 3.67373 26.7081 3.74788 26.7496 3.81144C26.8118 3.91737 26.8533 3.95975 26.874 3.93856C26.8948 3.93856 26.9052 3.875 26.9052 3.74788C26.9052 3.59958 26.9155 3.52542 26.9363 3.52542C26.957 3.52542 26.9778 3.5572 26.9985 3.62076C27.04 3.68432 27.0607 3.73729 27.0607 3.77966C27.0607 3.86441 27.0296 3.93856 26.9674 4.00212C26.9052 4.06568 26.874 4.16102 26.874 4.28814C26.874 4.37288 26.8844 4.45763 26.9052 4.54237C26.9259 4.69068 26.9466 4.76483 26.9674 4.76483C26.9881 4.76483 26.9985 4.75424 26.9985 4.73305C27.0193 4.6483 27.04 4.60593 27.0607 4.60593L27.123 4.66949L27.0919 4.73305C27.0919 4.79661 27.0711 4.84958 27.0296 4.89195C26.9674 4.95551 26.9363 4.99788 26.9363 5.01907V5.05085C26.957 5.07203 27.0193 5.08263 27.123 5.08263C27.2475 5.08263 27.3097 5.08263 27.3097 5.08263C27.3097 5.10381 27.3097 5.125 27.3097 5.14619C27.3097 5.16737 27.289 5.19915 27.2475 5.24152C27.2267 5.2839 27.2163 5.32627 27.2163 5.36864V5.46398C27.2578 5.54873 27.3616 5.66525 27.5275 5.81356C27.652 5.91949 27.7557 6.02542 27.8387 6.13136C27.9217 6.25847 27.9632 6.35381 27.9632 6.41737C27.9632 6.48093 27.9943 6.56568 28.0566 6.67161C28.1188 6.79873 28.2018 6.91525 28.3055 7.02119C28.4092 7.10593 28.4922 7.20127 28.5545 7.3072C28.6374 7.43432 28.6789 7.52966 28.6789 7.59322C28.6789 7.65678 28.6893 7.72034 28.7101 7.7839C28.7308 7.84746 28.7619 7.88983 28.8034 7.91102C28.8242 7.9322 28.8345 7.96398 28.8345 8.00636C28.8553 8.06991 28.8553 8.13347 28.8345 8.19703C28.8345 8.26059 28.8449 8.34534 28.8656 8.45127C28.9071 8.5572 28.959 8.65254 29.0212 8.73729L29.2702 9.05508L28.9901 9.1822C28.9279 9.20339 28.8656 9.21398 28.8034 9.21398C28.7619 9.23517 28.7204 9.24576 28.6789 9.24576L28.6167 9.21398L28.5856 9.1822C28.5648 9.1822 28.5545 9.1928 28.5545 9.21398L28.6167 9.3411C28.6167 9.40466 28.5752 9.46822 28.4922 9.53178C28.3885 9.61653 28.2536 9.68008 28.0877 9.72246C28.0047 9.74364 27.9113 9.78602 27.8076 9.84958C27.7246 9.91314 27.652 9.98729 27.5898 10.072C27.5068 10.178 27.4238 10.2521 27.3408 10.2945C27.2578 10.3581 27.206 10.3898 27.1852 10.3898C27.1645 10.3898 27.1541 10.3792 27.1541 10.3581C27.1541 10.3369 27.1748 10.2945 27.2163 10.2309V10.1992L27.1541 10.2309C27.1126 10.2521 27.04 10.3051 26.9363 10.3898C26.8325 10.4958 26.7288 10.5805 26.6251 10.6441C26.5214 10.7288 26.428 10.7818 26.345 10.803C26.2828 10.8242 26.1894 10.8771 26.0649 10.9619C25.9405 11.0466 25.816 11.1525 25.6915 11.2797C25.567 11.3856 25.4529 11.4703 25.3492 11.5339C25.2455 11.5975 25.1625 11.6292 25.1003 11.6292L25.0069 11.5975V11.6292L25.1003 11.6928C25.1832 11.7352 25.2247 11.7775 25.2247 11.8199C25.2247 11.8623 25.1832 11.9258 25.1003 12.0106C25.038 12.0742 24.9861 12.1377 24.9447 12.2013C24.9032 12.286 24.8824 12.3496 24.8824 12.3919C24.8824 12.4343 24.872 12.4661 24.8513 12.4873C24.8306 12.5297 24.8098 12.5508 24.7891 12.5508C24.7476 12.5508 24.7268 12.5932 24.7268 12.678V12.7733C24.7268 12.9004 24.7476 13.0487 24.7891 13.2182C24.8513 13.3877 24.9239 13.5254 25.0069 13.6314C25.0691 13.7161 25.1521 13.7903 25.2558 13.8538C25.3596 13.9386 25.4633 14.0021 25.567 14.0445C25.6708 14.0657 25.7537 14.0975 25.816 14.1398C25.899 14.1822 25.9405 14.214 25.9405 14.2352C25.9405 14.3199 26.0753 14.3517 26.345 14.3305C26.6355 14.3305 26.9466 14.2987 27.2786 14.2352C27.6313 14.1928 27.9113 14.1292 28.1188 14.0445C28.2848 13.9597 28.43 13.8962 28.5545 13.8538C28.6997 13.8114 28.793 13.7903 28.8345 13.7903L28.8968 13.822L28.9279 13.7903L28.959 13.7267L28.9279 13.6631C28.9279 13.6208 28.9383 13.589 28.959 13.5678C29.0005 13.5466 29.042 13.536 29.0835 13.536C29.1457 13.536 29.2391 13.4831 29.3636 13.3771C29.488 13.2712 29.6125 13.1547 29.737 13.0275C29.8615 12.8792 29.9652 12.7627 30.0482 12.678C30.1519 12.6144 30.2245 12.5826 30.266 12.5826H30.2971C30.6083 13.0064 30.7743 14.0127 30.795 15.6017C30.795 15.7076 30.8054 15.7924 30.8261 15.8559C30.8469 15.9195 30.878 15.9513 30.9195 15.9513C30.9402 15.9513 30.961 15.9725 30.9817 16.0148C31.0025 16.0784 31.0129 16.1419 31.0129 16.2055V16.3008C31.0129 16.4068 31.044 16.4597 31.1062 16.4597H31.1685C31.2099 16.4597 31.2722 16.4809 31.3552 16.5233C31.4589 16.5657 31.5626 16.6292 31.6664 16.714C31.7908 16.7987 31.9257 16.8623 32.0709 16.9047C32.2369 16.9682 32.3821 17 32.5066 17C32.631 17 32.6933 16.9682 32.6933 16.9047C32.6933 16.8835 32.7451 16.8411 32.8489 16.7775C32.9734 16.7352 33.1186 16.6928 33.2845 16.6504C33.6372 16.5657 33.8862 16.428 34.0314 16.2373C34.1766 16.0678 34.2492 15.803 34.2492 15.4428C34.2492 15.2945 34.2596 15.1568 34.2804 15.0297C34.3218 14.9025 34.353 14.8178 34.3737 14.7754C34.4152 14.7119 34.4463 14.5742 34.4671 14.3623C34.4878 14.1716 34.4982 13.9492 34.4982 13.6949C34.4982 13.0381 34.5604 12.7097 34.6849 12.7097C34.7264 12.7097 34.7783 12.7521 34.8405 12.8369C34.882 12.9004 34.9131 12.9428 34.9339 12.964C34.9753 12.9852 35.0168 12.9958 35.0583 12.9958H35.1517C35.1932 13.0381 35.2243 13.0911 35.245 13.1547C35.2865 13.2818 35.3695 13.3771 35.494 13.4407C35.6392 13.5042 35.7637 13.536 35.8674 13.536H35.9608C35.9815 13.5148 36.0126 13.5042 36.0541 13.5042C36.1164 13.5042 36.1579 13.5042 36.1786 13.5042C36.2616 13.5254 36.3653 13.589 36.4898 13.6949C36.6143 13.8008 36.7284 13.9068 36.8321 14.0127C36.9358 14.1398 36.9877 14.2246 36.9877 14.2669V14.2987C36.9877 14.3199 36.9981 14.3305 37.0188 14.3305C37.0603 14.3093 37.1122 14.2881 37.1744 14.2669C37.2781 14.2034 37.3611 14.161 37.4234 14.1398C37.5064 14.1398 37.5582 14.1398 37.579 14.1398H37.6723C37.7138 14.161 37.7346 14.1822 37.7346 14.2034V14.3305C37.7553 14.3729 37.7864 14.4047 37.8279 14.4258L37.9213 14.4576L37.9835 14.4258C38.025 14.4047 38.0665 14.3729 38.108 14.3305C38.1287 14.2881 38.2117 14.2246 38.3569 14.1398C38.5022 14.0763 38.6681 14.0127 38.8548 13.9492C39.0623 13.8856 39.2386 13.8114 39.3839 13.7267C39.5498 13.6631 39.6536 13.6102 39.6951 13.5678C39.778 13.4407 39.8195 13.2606 39.8195 13.0275V12.8686C39.8195 12.572 39.7677 12.2542 39.6639 11.9153C39.5602 11.5975 39.4254 11.3538 39.2594 11.1843C39.1972 11.0996 39.1038 11.0148 38.9793 10.9301C38.8756 10.8453 38.7615 10.7606 38.637 10.6758C38.5333 10.5911 38.4399 10.5275 38.3569 10.4852C38.2947 10.464 38.2532 10.4534 38.2325 10.4534C38.2117 10.4534 38.1806 10.4428 38.1391 10.4216C38.0561 10.4004 37.9628 10.3581 37.859 10.2945C37.7553 10.2097 37.6101 10.1144 37.4234 10.0085C37.2367 9.92373 37.0603 9.82839 36.8943 9.72246C36.5209 9.53178 36.2616 9.37288 36.1164 9.24576C35.9712 9.13983 35.8467 8.99153 35.7429 8.80085C35.66 8.7161 35.6185 8.64195 35.6185 8.57839C35.6185 8.51483 35.66 8.41949 35.7429 8.29237C35.8259 8.18644 35.9712 8.01695 36.1786 7.7839C36.3653 7.59322 36.5209 7.41314 36.6454 7.24364C36.7699 7.07415 36.8321 6.96822 36.8321 6.92585C36.8321 6.88347 36.8425 6.8517 36.8632 6.83051H36.9255C36.967 6.83051 36.9981 6.80932 37.0188 6.76695C37.0603 6.74576 37.0914 6.6928 37.1122 6.60805C37.1537 6.50212 37.2781 6.31144 37.4856 6.03602C37.7138 5.76059 37.9524 5.49576 38.2013 5.24152C38.471 5.00847 38.6578 4.86017 38.7615 4.79661C38.8445 4.77542 38.8963 4.74364 38.9171 4.70127C38.9378 4.6589 38.9482 4.61652 38.9482 4.57415V4.54237C38.9275 4.5 38.886 4.47881 38.8237 4.47881C38.7822 4.47881 38.7615 4.45763 38.7615 4.41525C38.7615 4.39407 38.7615 4.36229 38.7615 4.31991V4.25636C38.7822 4.1928 38.8237 4.13983 38.886 4.09746C38.9067 4.07627 38.9171 4.0339 38.9171 3.97034C38.9171 3.90678 38.8963 3.84322 38.8548 3.77966C38.8134 3.67373 38.7926 3.59958 38.7926 3.5572C38.7926 3.51483 38.803 3.48305 38.8237 3.46186C38.8652 3.44068 38.8963 3.4089 38.9171 3.36652C38.9378 3.32415 38.9482 3.28178 38.9482 3.23941C38.9482 3.21822 38.9378 3.20763 38.9171 3.20763C38.9171 3.20763 38.9067 3.20763 38.886 3.20763H38.8548C38.8134 3.20763 38.7615 3.18644 38.6992 3.14407C38.6578 3.12288 38.6059 3.08051 38.5437 3.01695C38.4814 2.95339 38.4399 2.90042 38.4192 2.85805V2.82627C38.4192 2.80508 38.4296 2.79449 38.4503 2.79449L38.4814 2.76271L38.4503 2.73093C38.4088 2.70975 38.3569 2.67797 38.2947 2.63559C38.2325 2.59322 38.1599 2.55085 38.0769 2.50847C38.0146 2.48729 37.9524 2.4661 37.8902 2.44491C37.8279 2.44491 37.7138 2.43432 37.5478 2.41314C37.4026 2.39195 37.2367 2.37076 37.0499 2.34958C36.8217 2.32839 36.6558 2.3178 36.552 2.3178C36.4483 2.3178 36.3757 2.33898 36.3342 2.38136C36.2927 2.42373 36.2616 2.49788 36.2408 2.60381C36.1786 2.7733 36.1267 2.85805 36.0853 2.85805C36.0645 2.85805 36.0438 2.83686 36.023 2.79449C36.0023 2.75212 35.9712 2.73093 35.9297 2.73093H35.8985C35.8363 2.73093 35.7637 2.7733 35.6807 2.85805C35.4525 3.04873 35.2865 3.18644 35.1828 3.27119C35.0791 3.35593 34.9961 3.3983 34.9339 3.3983C34.9131 3.3983 34.8716 3.43008 34.8094 3.49364C34.7471 3.5572 34.6849 3.64195 34.6227 3.74788C34.5604 3.85381 34.4982 3.93856 34.4359 4.00212C34.3945 4.06568 34.3633 4.09746 34.3426 4.09746C34.3011 4.09746 34.27 4.11864 34.2492 4.16102C34.2285 4.22458 34.1974 4.28814 34.1559 4.3517C34.1351 4.41525 34.0833 4.48941 34.0003 4.57415C33.9173 4.68008 33.8136 4.76483 33.6891 4.82839C33.5646 4.89195 33.4713 4.95551 33.409 5.01907C33.3675 5.08263 33.3468 5.13559 33.3468 5.17797V5.24152C33.3468 5.26271 33.3364 5.2733 33.3157 5.2733L33.2534 5.24152H33.1912C33.1497 5.24152 33.0875 5.26271 33.0045 5.30508C32.9215 5.38983 32.8489 5.47458 32.7866 5.55932C32.7451 5.64407 32.7244 5.70763 32.7244 5.75V5.87712C32.7244 5.91949 32.714 5.97246 32.6933 6.03602C32.6725 6.09958 32.631 6.17373 32.5688 6.25847C32.5066 6.34322 32.4547 6.42797 32.4132 6.51271C32.3717 6.61864 32.351 6.6928 32.351 6.73517C32.351 6.77754 32.3406 6.80932 32.3199 6.83051C32.2991 6.8517 32.2784 6.86229 32.2576 6.86229L32.2265 6.83051C32.185 6.80932 32.1643 6.78814 32.1643 6.76695C32.1643 6.74576 32.1643 6.72458 32.1643 6.70339V6.57627C32.1643 6.51271 32.1539 6.41737 32.1331 6.29025C32.0917 6.07839 32.0294 5.84534 31.9464 5.5911C31.8842 5.33686 31.8116 5.10381 31.7286 4.89195C31.6664 4.68008 31.6041 4.54237 31.5419 4.47881C31.5004 4.41525 31.4589 4.3517 31.4174 4.28814C31.3967 4.24576 31.3863 4.21398 31.3863 4.1928C31.3863 4.17161 31.3552 4.08686 31.2929 3.93856C31.2514 3.81144 31.1892 3.65254 31.1062 3.46186C30.8365 2.86864 30.5979 2.57203 30.3905 2.57203H30.3594C30.3179 2.57203 30.266 2.55085 30.2038 2.50847C30.1415 2.48729 30.0689 2.44491 29.9859 2.38136C29.9237 2.33898 29.8822 2.29661 29.8615 2.25424C29.8407 2.21186 29.8303 2.18008 29.8303 2.1589V2.12712L29.8615 2.09534C29.8615 2.07415 29.82 2.06356 29.737 2.06356C29.6955 2.08475 29.6436 2.11652 29.5814 2.1589C29.5191 2.20127 29.4673 2.24364 29.4258 2.28602C29.3636 2.37076 29.3221 2.41314 29.3013 2.41314C29.3013 2.39195 29.3117 2.34958 29.3324 2.28602C29.3532 2.24364 29.3636 2.21186 29.3636 2.19068C29.3636 2.1483 29.3532 2.11652 29.3324 2.09534C29.3117 2.07415 29.2391 2.06356 29.1146 2.06356C29.0524 2.04237 28.9694 2.03178 28.8656 2.03178C28.7619 2.03178 28.6686 2.02119 28.5856 2C28.5233 2 28.43 2.01059 28.3055 2.03178C28.2018 2.07415 28.1084 2.11652 28.0254 2.1589Z" fill="#B1E4D0"/>
<path d="M50.7523 2.1589C50.6693 2.22246 50.5967 2.27542 50.5344 2.3178C50.4722 2.38136 50.4411 2.42373 50.4411 2.44491C50.4411 2.48729 50.4618 2.50847 50.5033 2.50847C50.5241 2.50847 50.5552 2.49788 50.5967 2.47669L50.6589 2.44491C50.6589 2.4661 50.6485 2.49788 50.6278 2.54025C50.607 2.60381 50.5759 2.63559 50.5344 2.63559C50.4929 2.63559 50.4411 2.60381 50.3788 2.54025C50.3373 2.49788 50.2958 2.4661 50.2544 2.44491C50.2129 2.44491 50.1817 2.44491 50.161 2.44491H50.0988C50.0573 2.4661 50.0158 2.49788 49.9743 2.54025C49.9535 2.58263 49.9328 2.65678 49.912 2.76271C49.8913 2.86864 49.8706 3.02754 49.8498 3.23941C49.8498 3.28178 49.8291 3.31356 49.7876 3.33475C49.7668 3.37712 49.7461 3.3983 49.7253 3.3983C49.7046 3.3983 49.6838 3.37712 49.6631 3.33475C49.6423 3.31356 49.632 3.28178 49.632 3.23941C49.632 3.21822 49.6216 3.20763 49.6009 3.20763H49.5697C49.549 3.22881 49.5179 3.27119 49.4764 3.33475C49.4349 3.41949 49.4141 3.50424 49.4141 3.58898C49.4141 3.67373 49.4349 3.74788 49.4764 3.81144C49.5386 3.91737 49.5801 3.95975 49.6009 3.93856C49.6216 3.93856 49.632 3.875 49.632 3.74788C49.632 3.59958 49.6423 3.52542 49.6631 3.52542C49.6838 3.52542 49.7046 3.5572 49.7253 3.62076C49.7668 3.68432 49.7876 3.73729 49.7876 3.77966C49.7876 3.86441 49.7564 3.93856 49.6942 4.00212C49.632 4.06568 49.6009 4.16102 49.6009 4.28814C49.6009 4.37288 49.6112 4.45763 49.632 4.54237C49.6527 4.69068 49.6735 4.76483 49.6942 4.76483C49.715 4.76483 49.7253 4.75424 49.7253 4.73305C49.7461 4.6483 49.7668 4.60593 49.7876 4.60593L49.8498 4.66949L49.8187 4.73305C49.8187 4.79661 49.7979 4.84958 49.7564 4.89195C49.6942 4.95551 49.6631 4.99788 49.6631 5.01907V5.05085C49.6838 5.07203 49.7461 5.08263 49.8498 5.08263C49.9743 5.08263 50.0365 5.08263 50.0365 5.08263C50.0365 5.10381 50.0365 5.125 50.0365 5.14619C50.0365 5.16737 50.0158 5.19915 49.9743 5.24152C49.9535 5.2839 49.9432 5.32627 49.9432 5.36864V5.46398C49.9847 5.54873 50.0884 5.66525 50.2544 5.81356C50.3788 5.91949 50.4826 6.02542 50.5655 6.13136C50.6485 6.25847 50.69 6.35381 50.69 6.41737C50.69 6.48093 50.7211 6.56568 50.7834 6.67161C50.8456 6.79873 50.9286 6.91525 51.0323 7.02119C51.1361 7.10593 51.219 7.20127 51.2813 7.3072C51.3643 7.43432 51.4058 7.52966 51.4058 7.59322C51.4058 7.65678 51.4161 7.72034 51.4369 7.7839C51.4576 7.84746 51.4887 7.88983 51.5302 7.91102C51.551 7.9322 51.5614 7.96398 51.5614 8.00636C51.5821 8.06991 51.5821 8.13347 51.5614 8.19703C51.5614 8.26059 51.5717 8.34534 51.5925 8.45127C51.634 8.5572 51.6858 8.65254 51.7481 8.73729L51.997 9.05508L51.7169 9.1822C51.6547 9.20339 51.5925 9.21398 51.5302 9.21398C51.4887 9.23517 51.4472 9.24576 51.4058 9.24576L51.3435 9.21398L51.3124 9.1822C51.2917 9.1822 51.2813 9.1928 51.2813 9.21398L51.3435 9.3411C51.3435 9.40466 51.302 9.46822 51.219 9.53178C51.1153 9.61653 50.9805 9.68008 50.8145 9.72246C50.7315 9.74364 50.6382 9.78602 50.5344 9.84958C50.4514 9.91314 50.3788 9.98729 50.3166 10.072C50.2336 10.178 50.1506 10.2521 50.0676 10.2945C49.9847 10.3581 49.9328 10.3898 49.912 10.3898C49.8913 10.3898 49.8809 10.3792 49.8809 10.3581C49.8809 10.3369 49.9017 10.2945 49.9432 10.2309V10.1992L49.8809 10.2309C49.8394 10.2521 49.7668 10.3051 49.6631 10.3898C49.5594 10.4958 49.4556 10.5805 49.3519 10.6441C49.2482 10.7288 49.1548 10.7818 49.0718 10.803C49.0096 10.8242 48.9162 10.8771 48.7918 10.9619C48.6673 11.0466 48.5428 11.1525 48.4183 11.2797C48.2939 11.3856 48.1798 11.4703 48.076 11.5339C47.9723 11.5975 47.8893 11.6292 47.8271 11.6292L47.7337 11.5975V11.6292L47.8271 11.6928C47.9101 11.7352 47.9515 11.7775 47.9515 11.8199C47.9515 11.8623 47.9101 11.9258 47.8271 12.0106C47.7648 12.0742 47.713 12.1377 47.6715 12.2013C47.63 12.286 47.6092 12.3496 47.6092 12.3919C47.6092 12.4343 47.5989 12.4661 47.5781 12.4873C47.5574 12.5297 47.5366 12.5508 47.5159 12.5508C47.4744 12.5508 47.4536 12.5932 47.4536 12.678V12.7733C47.4536 12.9004 47.4744 13.0487 47.5159 13.2182C47.5781 13.3877 47.6507 13.5254 47.7337 13.6314C47.796 13.7161 47.8789 13.7903 47.9827 13.8538C48.0864 13.9386 48.1901 14.0021 48.2939 14.0445C48.3976 14.0657 48.4806 14.0975 48.5428 14.1398C48.6258 14.1822 48.6673 14.214 48.6673 14.2352C48.6673 14.3199 48.8021 14.3517 49.0718 14.3305C49.3623 14.3305 49.6735 14.2987 50.0054 14.2352C50.3581 14.1928 50.6382 14.1292 50.8456 14.0445C51.0116 13.9597 51.1568 13.8962 51.2813 13.8538C51.4265 13.8114 51.5199 13.7903 51.5614 13.7903L51.6236 13.822L51.6547 13.7903L51.6858 13.7267L51.6547 13.6631C51.6547 13.6208 51.6651 13.589 51.6858 13.5678C51.7273 13.5466 51.7688 13.536 51.8103 13.536C51.8725 13.536 51.9659 13.4831 52.0904 13.3771C52.2148 13.2712 52.3393 13.1547 52.4638 13.0275C52.5883 12.8792 52.692 12.7627 52.775 12.678C52.8787 12.6144 52.9513 12.5826 52.9928 12.5826H53.0239C53.3351 13.0064 53.5011 14.0127 53.5218 15.6017C53.5218 15.7076 53.5322 15.7924 53.553 15.8559C53.5737 15.9195 53.6048 15.9513 53.6463 15.9513C53.6671 15.9513 53.6878 15.9725 53.7086 16.0148C53.7293 16.0784 53.7397 16.1419 53.7397 16.2055V16.3008C53.7397 16.4068 53.7708 16.4597 53.833 16.4597H53.8953C53.9368 16.4597 53.999 16.4809 54.082 16.5233C54.1857 16.5657 54.2894 16.6292 54.3932 16.714C54.5177 16.7987 54.6525 16.8623 54.7977 16.9047C54.9637 16.9682 55.1089 17 55.2334 17C55.3579 17 55.4201 16.9682 55.4201 16.9047C55.4201 16.8835 55.472 16.8411 55.5757 16.7775C55.7002 16.7352 55.8454 16.6928 56.0114 16.6504C56.364 16.5657 56.613 16.428 56.7582 16.2373C56.9034 16.0678 56.9761 15.803 56.9761 15.4428C56.9761 15.2945 56.9864 15.1568 57.0072 15.0297C57.0487 14.9025 57.0798 14.8178 57.1005 14.7754C57.142 14.7119 57.1731 14.5742 57.1939 14.3623C57.2146 14.1716 57.225 13.9492 57.225 13.6949C57.225 13.0381 57.2872 12.7097 57.4117 12.7097C57.4532 12.7097 57.5051 12.7521 57.5673 12.8369C57.6088 12.9004 57.6399 12.9428 57.6607 12.964C57.7022 12.9852 57.7437 12.9958 57.7851 12.9958H57.8785C57.92 13.0381 57.9511 13.0911 57.9719 13.1547C58.0134 13.2818 58.0963 13.3771 58.2208 13.4407C58.366 13.5042 58.4905 13.536 58.5942 13.536H58.6876C58.7083 13.5148 58.7395 13.5042 58.781 13.5042C58.8432 13.5042 58.8847 13.5042 58.9054 13.5042C58.9884 13.5254 59.0921 13.589 59.2166 13.6949C59.3411 13.8008 59.4552 13.9068 59.5589 14.0127C59.6627 14.1398 59.7145 14.2246 59.7145 14.2669V14.2987C59.7145 14.3199 59.7249 14.3305 59.7456 14.3305C59.7871 14.3093 59.839 14.2881 59.9012 14.2669C60.005 14.2034 60.088 14.161 60.1502 14.1398C60.2332 14.1398 60.285 14.1398 60.3058 14.1398H60.3991C60.4406 14.161 60.4614 14.1822 60.4614 14.2034V14.3305C60.4821 14.3729 60.5132 14.4047 60.5547 14.4258L60.6481 14.4576L60.7103 14.4258C60.7518 14.4047 60.7933 14.3729 60.8348 14.3305C60.8556 14.2881 60.9385 14.2246 61.0838 14.1398C61.229 14.0763 61.395 14.0127 61.5817 13.9492C61.7891 13.8856 61.9655 13.8114 62.1107 13.7267C62.2767 13.6631 62.3804 13.6102 62.4219 13.5678C62.5049 13.4407 62.5464 13.2606 62.5464 13.0275V12.8686C62.5464 12.572 62.4945 12.2542 62.3908 11.9153C62.287 11.5975 62.1522 11.3538 61.9862 11.1843C61.924 11.0996 61.8306 11.0148 61.7061 10.9301C61.6024 10.8453 61.4883 10.7606 61.3638 10.6758C61.2601 10.5911 61.1667 10.5275 61.0838 10.4852C61.0215 10.464 60.98 10.4534 60.9593 10.4534C60.9385 10.4534 60.9074 10.4428 60.8659 10.4216C60.7829 10.4004 60.6896 10.3581 60.5859 10.2945C60.4821 10.2097 60.3369 10.1144 60.1502 10.0085C59.9635 9.92373 59.7871 9.82839 59.6212 9.72246C59.2477 9.53178 58.9884 9.37288 58.8432 9.24576C58.698 9.13983 58.5735 8.99153 58.4698 8.80085C58.3868 8.7161 58.3453 8.64195 58.3453 8.57839C58.3453 8.51483 58.3868 8.41949 58.4698 8.29237C58.5527 8.18644 58.698 8.01695 58.9054 7.7839C59.0921 7.59322 59.2477 7.41314 59.3722 7.24364C59.4967 7.07415 59.5589 6.96822 59.5589 6.92585C59.5589 6.88347 59.5693 6.8517 59.59 6.83051H59.6523C59.6938 6.83051 59.7249 6.80932 59.7456 6.76695C59.7871 6.74576 59.8183 6.6928 59.839 6.60805C59.8805 6.50212 60.005 6.31144 60.2124 6.03602C60.4406 5.76059 60.6792 5.49576 60.9282 5.24152C61.1979 5.00847 61.3846 4.86017 61.4883 4.79661C61.5713 4.77542 61.6232 4.74364 61.6439 4.70127C61.6646 4.6589 61.675 4.61652 61.675 4.57415V4.54237C61.6543 4.5 61.6128 4.47881 61.5505 4.47881C61.5091 4.47881 61.4883 4.45763 61.4883 4.41525C61.4883 4.39407 61.4883 4.36229 61.4883 4.31991V4.25636C61.5091 4.1928 61.5505 4.13983 61.6128 4.09746C61.6335 4.07627 61.6439 4.0339 61.6439 3.97034C61.6439 3.90678 61.6232 3.84322 61.5817 3.77966C61.5402 3.67373 61.5194 3.59958 61.5194 3.5572C61.5194 3.51483 61.5298 3.48305 61.5505 3.46186C61.592 3.44068 61.6232 3.4089 61.6439 3.36652C61.6646 3.32415 61.675 3.28178 61.675 3.23941C61.675 3.21822 61.6646 3.20763 61.6439 3.20763C61.6439 3.20763 61.6335 3.20763 61.6128 3.20763H61.5817C61.5402 3.20763 61.4883 3.18644 61.4261 3.14407C61.3846 3.12288 61.3327 3.08051 61.2705 3.01695C61.2082 2.95339 61.1667 2.90042 61.146 2.85805V2.82627C61.146 2.80508 61.1564 2.79449 61.1771 2.79449L61.2082 2.76271L61.1771 2.73093C61.1356 2.70975 61.0838 2.67797 61.0215 2.63559C60.9593 2.59322 60.8867 2.55085 60.8037 2.50847C60.7415 2.48729 60.6792 2.4661 60.617 2.44491C60.5547 2.44491 60.4406 2.43432 60.2747 2.41314C60.1294 2.39195 59.9635 2.37076 59.7768 2.34958C59.5486 2.32839 59.3826 2.3178 59.2789 2.3178C59.1751 2.3178 59.1025 2.33898 59.061 2.38136C59.0195 2.42373 58.9884 2.49788 58.9677 2.60381C58.9054 2.7733 58.8536 2.85805 58.8121 2.85805C58.7913 2.85805 58.7706 2.83686 58.7498 2.79449C58.7291 2.75212 58.698 2.73093 58.6565 2.73093H58.6254C58.5631 2.73093 58.4905 2.7733 58.4075 2.85805C58.1793 3.04873 58.0134 3.18644 57.9096 3.27119C57.8059 3.35593 57.7229 3.3983 57.6607 3.3983C57.6399 3.3983 57.5984 3.43008 57.5362 3.49364C57.474 3.5572 57.4117 3.64195 57.3495 3.74788C57.2872 3.85381 57.225 3.93856 57.1628 4.00212C57.1213 4.06568 57.0902 4.09746 57.0694 4.09746C57.0279 4.09746 56.9968 4.11864 56.9761 4.16102C56.9553 4.22458 56.9242 4.28814 56.8827 4.3517C56.8619 4.41525 56.8101 4.48941 56.7271 4.57415C56.6441 4.68008 56.5404 4.76483 56.4159 4.82839C56.2914 4.89195 56.1981 4.95551 56.1358 5.01907C56.0943 5.08263 56.0736 5.13559 56.0736 5.17797V5.24152C56.0736 5.26271 56.0632 5.2733 56.0425 5.2733L55.9802 5.24152H55.918C55.8765 5.24152 55.8143 5.26271 55.7313 5.30508C55.6483 5.38983 55.5757 5.47458 55.5135 5.55932C55.472 5.64407 55.4512 5.70763 55.4512 5.75V5.87712C55.4512 5.91949 55.4408 5.97246 55.4201 6.03602C55.3994 6.09958 55.3579 6.17373 55.2956 6.25847C55.2334 6.34322 55.1815 6.42797 55.14 6.51271C55.0985 6.61864 55.0778 6.6928 55.0778 6.73517C55.0778 6.77754 55.0674 6.80932 55.0467 6.83051C55.0259 6.8517 55.0052 6.86229 54.9844 6.86229L54.9533 6.83051C54.9118 6.80932 54.8911 6.78814 54.8911 6.76695C54.8911 6.74576 54.8911 6.72458 54.8911 6.70339V6.57627C54.8911 6.51271 54.8807 6.41737 54.86 6.29025C54.8185 6.07839 54.7562 5.84534 54.6732 5.5911C54.611 5.33686 54.5384 5.10381 54.4554 4.89195C54.3932 4.68008 54.3309 4.54237 54.2687 4.47881C54.2272 4.41525 54.1857 4.3517 54.1442 4.28814C54.1235 4.24576 54.1131 4.21398 54.1131 4.1928C54.1131 4.17161 54.082 4.08686 54.0197 3.93856C53.9783 3.81144 53.916 3.65254 53.833 3.46186C53.5633 2.86864 53.3248 2.57203 53.1173 2.57203H53.0862C53.0447 2.57203 52.9928 2.55085 52.9306 2.50847C52.8683 2.48729 52.7957 2.44491 52.7128 2.38136C52.6505 2.33898 52.609 2.29661 52.5883 2.25424C52.5675 2.21186 52.5572 2.18008 52.5572 2.1589V2.12712L52.5883 2.09534C52.5883 2.07415 52.5468 2.06356 52.4638 2.06356C52.4223 2.08475 52.3704 2.11652 52.3082 2.1589C52.246 2.20127 52.1941 2.24364 52.1526 2.28602C52.0904 2.37076 52.0489 2.41314 52.0281 2.41314C52.0281 2.39195 52.0385 2.34958 52.0593 2.28602C52.08 2.24364 52.0904 2.21186 52.0904 2.19068C52.0904 2.1483 52.08 2.11652 52.0593 2.09534C52.0385 2.07415 51.9659 2.06356 51.8414 2.06356C51.7792 2.04237 51.6962 2.03178 51.5925 2.03178C51.4887 2.03178 51.3954 2.02119 51.3124 2C51.2502 2 51.1568 2.01059 51.0323 2.03178C50.9286 2.07415 50.8352 2.11652 50.7523 2.1589Z" fill="#B1E4D0"/>
<path d="M73.4791 2.1589C73.3961 2.22246 73.3235 2.27542 73.2612 2.3178C73.199 2.38136 73.1679 2.42373 73.1679 2.44491C73.1679 2.48729 73.1886 2.50847 73.2301 2.50847C73.2509 2.50847 73.282 2.49788 73.3235 2.47669L73.3857 2.44491C73.3857 2.4661 73.3753 2.49788 73.3546 2.54025C73.3339 2.60381 73.3027 2.63559 73.2612 2.63559C73.2197 2.63559 73.1679 2.60381 73.1057 2.54025C73.0642 2.49788 73.0227 2.4661 72.9812 2.44491C72.9397 2.44491 72.9086 2.44491 72.8878 2.44491H72.8256C72.7841 2.4661 72.7426 2.49788 72.7011 2.54025C72.6804 2.58263 72.6596 2.65678 72.6389 2.76271C72.6181 2.86864 72.5974 3.02754 72.5766 3.23941C72.5766 3.28178 72.5559 3.31356 72.5144 3.33475C72.4936 3.37712 72.4729 3.3983 72.4521 3.3983C72.4314 3.3983 72.4107 3.37712 72.3899 3.33475C72.3692 3.31356 72.3588 3.28178 72.3588 3.23941C72.3588 3.21822 72.3484 3.20763 72.3277 3.20763H72.2966C72.2758 3.22881 72.2447 3.27119 72.2032 3.33475C72.1617 3.41949 72.141 3.50424 72.141 3.58898C72.141 3.67373 72.1617 3.74788 72.2032 3.81144C72.2654 3.91737 72.3069 3.95975 72.3277 3.93856C72.3484 3.93856 72.3588 3.875 72.3588 3.74788C72.3588 3.59958 72.3692 3.52542 72.3899 3.52542C72.4107 3.52542 72.4314 3.5572 72.4521 3.62076C72.4936 3.68432 72.5144 3.73729 72.5144 3.77966C72.5144 3.86441 72.4833 3.93856 72.421 4.00212C72.3588 4.06568 72.3277 4.16102 72.3277 4.28814C72.3277 4.37288 72.338 4.45763 72.3588 4.54237C72.3795 4.69068 72.4003 4.76483 72.421 4.76483C72.4418 4.76483 72.4521 4.75424 72.4521 4.73305C72.4729 4.6483 72.4936 4.60593 72.5144 4.60593L72.5766 4.66949L72.5455 4.73305C72.5455 4.79661 72.5248 4.84958 72.4833 4.89195C72.421 4.95551 72.3899 4.99788 72.3899 5.01907V5.05085C72.4107 5.07203 72.4729 5.08263 72.5766 5.08263C72.7011 5.08263 72.7633 5.08263 72.7633 5.08263C72.7633 5.10381 72.7633 5.125 72.7633 5.14619C72.7633 5.16737 72.7426 5.19915 72.7011 5.24152C72.6804 5.2839 72.67 5.32627 72.67 5.36864V5.46398C72.7115 5.54873 72.8152 5.66525 72.9812 5.81356C73.1057 5.91949 73.2094 6.02542 73.2924 6.13136C73.3753 6.25847 73.4168 6.35381 73.4168 6.41737C73.4168 6.48093 73.448 6.56568 73.5102 6.67161C73.5724 6.79873 73.6554 6.91525 73.7591 7.02119C73.8629 7.10593 73.9459 7.20127 74.0081 7.3072C74.0911 7.43432 74.1326 7.52966 74.1326 7.59322C74.1326 7.65678 74.1429 7.72034 74.1637 7.7839C74.1844 7.84746 74.2156 7.88983 74.257 7.91102C74.2778 7.9322 74.2882 7.96398 74.2882 8.00636C74.3089 8.06991 74.3089 8.13347 74.2882 8.19703C74.2882 8.26059 74.2985 8.34534 74.3193 8.45127C74.3608 8.5572 74.4126 8.65254 74.4749 8.73729L74.7238 9.05508L74.4438 9.1822C74.3815 9.20339 74.3193 9.21398 74.257 9.21398C74.2156 9.23517 74.1741 9.24576 74.1326 9.24576L74.0703 9.21398L74.0392 9.1822C74.0185 9.1822 74.0081 9.1928 74.0081 9.21398L74.0703 9.3411C74.0703 9.40466 74.0288 9.46822 73.9459 9.53178C73.8421 9.61653 73.7073 9.68008 73.5413 9.72246C73.4583 9.74364 73.365 9.78602 73.2612 9.84958C73.1783 9.91314 73.1057 9.98729 73.0434 10.072C72.9604 10.178 72.8774 10.2521 72.7945 10.2945C72.7115 10.3581 72.6596 10.3898 72.6389 10.3898C72.6181 10.3898 72.6077 10.3792 72.6077 10.3581C72.6077 10.3369 72.6285 10.2945 72.67 10.2309V10.1992L72.6077 10.2309C72.5663 10.2521 72.4936 10.3051 72.3899 10.3898C72.2862 10.4958 72.1824 10.5805 72.0787 10.6441C71.975 10.7288 71.8816 10.7818 71.7987 10.803C71.7364 10.8242 71.6431 10.8771 71.5186 10.9619C71.3941 11.0466 71.2696 11.1525 71.1451 11.2797C71.0207 11.3856 70.9066 11.4703 70.8028 11.5339C70.6991 11.5975 70.6161 11.6292 70.5539 11.6292L70.4605 11.5975V11.6292L70.5539 11.6928C70.6369 11.7352 70.6784 11.7775 70.6784 11.8199C70.6784 11.8623 70.6369 11.9258 70.5539 12.0106C70.4917 12.0742 70.4398 12.1377 70.3983 12.2013C70.3568 12.286 70.3361 12.3496 70.3361 12.3919C70.3361 12.4343 70.3257 12.4661 70.3049 12.4873C70.2842 12.5297 70.2635 12.5508 70.2427 12.5508C70.2012 12.5508 70.1805 12.5932 70.1805 12.678V12.7733C70.1805 12.9004 70.2012 13.0487 70.2427 13.2182C70.3049 13.3877 70.3775 13.5254 70.4605 13.6314C70.5228 13.7161 70.6058 13.7903 70.7095 13.8538C70.8132 13.9386 70.9169 14.0021 71.0207 14.0445C71.1244 14.0657 71.2074 14.0975 71.2696 14.1398C71.3526 14.1822 71.3941 14.214 71.3941 14.2352C71.3941 14.3199 71.529 14.3517 71.7987 14.3305C72.0891 14.3305 72.4003 14.2987 72.7322 14.2352C73.0849 14.1928 73.365 14.1292 73.5724 14.0445C73.7384 13.9597 73.8836 13.8962 74.0081 13.8538C74.1533 13.8114 74.2467 13.7903 74.2882 13.7903L74.3504 13.822L74.3815 13.7903L74.4126 13.7267L74.3815 13.6631C74.3815 13.6208 74.3919 13.589 74.4126 13.5678C74.4541 13.5466 74.4956 13.536 74.5371 13.536C74.5994 13.536 74.6927 13.4831 74.8172 13.3771C74.9417 13.2712 75.0661 13.1547 75.1906 13.0275C75.3151 12.8792 75.4188 12.7627 75.5018 12.678C75.6055 12.6144 75.6782 12.5826 75.7196 12.5826H75.7508C76.062 13.0064 76.2279 14.0127 76.2487 15.6017C76.2487 15.7076 76.259 15.7924 76.2798 15.8559C76.3005 15.9195 76.3316 15.9513 76.3731 15.9513C76.3939 15.9513 76.4146 15.9725 76.4354 16.0148C76.4561 16.0784 76.4665 16.1419 76.4665 16.2055V16.3008C76.4665 16.4068 76.4976 16.4597 76.5599 16.4597H76.6221C76.6636 16.4597 76.7258 16.4809 76.8088 16.5233C76.9125 16.5657 77.0163 16.6292 77.12 16.714C77.2445 16.7987 77.3793 16.8623 77.5245 16.9047C77.6905 16.9682 77.8357 17 77.9602 17C78.0847 17 78.1469 16.9682 78.1469 16.9047C78.1469 16.8835 78.1988 16.8411 78.3025 16.7775C78.427 16.7352 78.5722 16.6928 78.7382 16.6504C79.0909 16.5657 79.3398 16.428 79.485 16.2373C79.6303 16.0678 79.7029 15.803 79.7029 15.4428C79.7029 15.2945 79.7132 15.1568 79.734 15.0297C79.7755 14.9025 79.8066 14.8178 79.8273 14.7754C79.8688 14.7119 79.9 14.5742 79.9207 14.3623C79.9415 14.1716 79.9518 13.9492 79.9518 13.6949C79.9518 13.0381 80.0141 12.7097 80.1385 12.7097C80.18 12.7097 80.2319 12.7521 80.2941 12.8369C80.3356 12.9004 80.3667 12.9428 80.3875 12.964C80.429 12.9852 80.4705 12.9958 80.512 12.9958H80.6053C80.6468 13.0381 80.6779 13.0911 80.6987 13.1547C80.7402 13.2818 80.8232 13.3771 80.9476 13.4407C81.0929 13.5042 81.2173 13.536 81.3211 13.536H81.4144C81.4352 13.5148 81.4663 13.5042 81.5078 13.5042C81.57 13.5042 81.6115 13.5042 81.6322 13.5042C81.7152 13.5254 81.819 13.589 81.9434 13.6949C82.0679 13.8008 82.182 13.9068 82.2858 14.0127C82.3895 14.1398 82.4413 14.2246 82.4413 14.2669V14.2987C82.4413 14.3199 82.4517 14.3305 82.4725 14.3305C82.514 14.3093 82.5658 14.2881 82.6281 14.2669C82.7318 14.2034 82.8148 14.161 82.877 14.1398C82.96 14.1398 83.0119 14.1398 83.0326 14.1398H83.126C83.1675 14.161 83.1882 14.1822 83.1882 14.2034V14.3305C83.2089 14.3729 83.2401 14.4047 83.2816 14.4258L83.3749 14.4576L83.4372 14.4258C83.4786 14.4047 83.5201 14.3729 83.5616 14.3305C83.5824 14.2881 83.6654 14.2246 83.8106 14.1398C83.9558 14.0763 84.1218 14.0127 84.3085 13.9492C84.5159 13.8856 84.6923 13.8114 84.8375 13.7267C85.0035 13.6631 85.1072 13.6102 85.1487 13.5678C85.2317 13.4407 85.2732 13.2606 85.2732 13.0275V12.8686C85.2732 12.572 85.2213 12.2542 85.1176 11.9153C85.0138 11.5975 84.879 11.3538 84.713 11.1843C84.6508 11.0996 84.5574 11.0148 84.433 10.9301C84.3292 10.8453 84.2151 10.7606 84.0907 10.6758C83.9869 10.5911 83.8936 10.5275 83.8106 10.4852C83.7483 10.464 83.7068 10.4534 83.6861 10.4534C83.6654 10.4534 83.6342 10.4428 83.5928 10.4216C83.5098 10.4004 83.4164 10.3581 83.3127 10.2945C83.2089 10.2097 83.0637 10.1144 82.877 10.0085C82.6903 9.92373 82.514 9.82839 82.348 9.72246C81.9746 9.53178 81.7152 9.37288 81.57 9.24576C81.4248 9.13983 81.3003 8.99153 81.1966 8.80085C81.1136 8.7161 81.0721 8.64195 81.0721 8.57839C81.0721 8.51483 81.1136 8.41949 81.1966 8.29237C81.2796 8.18644 81.4248 8.01695 81.6322 7.7839C81.819 7.59322 81.9746 7.41314 82.099 7.24364C82.2235 7.07415 82.2858 6.96822 82.2858 6.92585C82.2858 6.88347 82.2961 6.8517 82.3169 6.83051H82.3791C82.4206 6.83051 82.4517 6.80932 82.4725 6.76695C82.514 6.74576 82.5451 6.6928 82.5658 6.60805C82.6073 6.50212 82.7318 6.31144 82.9392 6.03602C83.1675 5.76059 83.406 5.49576 83.655 5.24152C83.9247 5.00847 84.1114 4.86017 84.2151 4.79661C84.2981 4.77542 84.35 4.74364 84.3707 4.70127C84.3915 4.6589 84.4018 4.61652 84.4018 4.57415V4.54237C84.3811 4.5 84.3396 4.47881 84.2774 4.47881C84.2359 4.47881 84.2151 4.45763 84.2151 4.41525C84.2151 4.39407 84.2151 4.36229 84.2151 4.31991V4.25636C84.2359 4.1928 84.2774 4.13983 84.3396 4.09746C84.3604 4.07627 84.3707 4.0339 84.3707 3.97034C84.3707 3.90678 84.35 3.84322 84.3085 3.77966C84.267 3.67373 84.2462 3.59958 84.2462 3.5572C84.2462 3.51483 84.2566 3.48305 84.2774 3.46186C84.3189 3.44068 84.35 3.4089 84.3707 3.36652C84.3915 3.32415 84.4018 3.28178 84.4018 3.23941C84.4018 3.21822 84.3915 3.20763 84.3707 3.20763C84.3707 3.20763 84.3604 3.20763 84.3396 3.20763H84.3085C84.267 3.20763 84.2151 3.18644 84.1529 3.14407C84.1114 3.12288 84.0595 3.08051 83.9973 3.01695C83.9351 2.95339 83.8936 2.90042 83.8728 2.85805V2.82627C83.8728 2.80508 83.8832 2.79449 83.9039 2.79449L83.9351 2.76271L83.9039 2.73093C83.8624 2.70975 83.8106 2.67797 83.7483 2.63559C83.6861 2.59322 83.6135 2.55085 83.5305 2.50847C83.4683 2.48729 83.406 2.4661 83.3438 2.44491C83.2816 2.44491 83.1675 2.43432 83.0015 2.41314C82.8563 2.39195 82.6903 2.37076 82.5036 2.34958C82.2754 2.32839 82.1094 2.3178 82.0057 2.3178C81.9019 2.3178 81.8293 2.33898 81.7878 2.38136C81.7464 2.42373 81.7152 2.49788 81.6945 2.60381C81.6322 2.7733 81.5804 2.85805 81.5389 2.85805C81.5182 2.85805 81.4974 2.83686 81.4767 2.79449C81.4559 2.75212 81.4248 2.73093 81.3833 2.73093H81.3522C81.2899 2.73093 81.2173 2.7733 81.1343 2.85805C80.9061 3.04873 80.7402 3.18644 80.6364 3.27119C80.5327 3.35593 80.4497 3.3983 80.3875 3.3983C80.3667 3.3983 80.3253 3.43008 80.263 3.49364C80.2008 3.5572 80.1385 3.64195 80.0763 3.74788C80.0141 3.85381 79.9518 3.93856 79.8896 4.00212C79.8481 4.06568 79.817 4.09746 79.7962 4.09746C79.7547 4.09746 79.7236 4.11864 79.7029 4.16102C79.6821 4.22458 79.651 4.28814 79.6095 4.3517C79.5888 4.41525 79.5369 4.48941 79.4539 4.57415C79.3709 4.68008 79.2672 4.76483 79.1427 4.82839C79.0183 4.89195 78.9249 4.95551 78.8627 5.01907C78.8212 5.08263 78.8004 5.13559 78.8004 5.17797V5.24152C78.8004 5.26271 78.79 5.2733 78.7693 5.2733L78.7071 5.24152H78.6448C78.6033 5.24152 78.5411 5.26271 78.4581 5.30508C78.3751 5.38983 78.3025 5.47458 78.2403 5.55932C78.1988 5.64407 78.178 5.70763 78.178 5.75V5.87712C78.178 5.91949 78.1677 5.97246 78.1469 6.03602C78.1262 6.09958 78.0847 6.17373 78.0224 6.25847C77.9602 6.34322 77.9083 6.42797 77.8669 6.51271C77.8254 6.61864 77.8046 6.6928 77.8046 6.73517C77.8046 6.77754 77.7942 6.80932 77.7735 6.83051C77.7528 6.8517 77.732 6.86229 77.7113 6.86229L77.6801 6.83051C77.6386 6.80932 77.6179 6.78814 77.6179 6.76695C77.6179 6.74576 77.6179 6.72458 77.6179 6.70339V6.57627C77.6179 6.51271 77.6075 6.41737 77.5868 6.29025C77.5453 6.07839 77.4831 5.84534 77.4001 5.5911C77.3378 5.33686 77.2652 5.10381 77.1822 4.89195C77.12 4.68008 77.0578 4.54237 76.9955 4.47881C76.954 4.41525 76.9125 4.3517 76.871 4.28814C76.8503 4.24576 76.8399 4.21398 76.8399 4.1928C76.8399 4.17161 76.8088 4.08686 76.7466 3.93856C76.7051 3.81144 76.6428 3.65254 76.5599 3.46186C76.2902 2.86864 76.0516 2.57203 75.8441 2.57203H75.813C75.7715 2.57203 75.7196 2.55085 75.6574 2.50847C75.5952 2.48729 75.5226 2.44491 75.4396 2.38136C75.3773 2.33898 75.3358 2.29661 75.3151 2.25424C75.2943 2.21186 75.284 2.18008 75.284 2.1589V2.12712L75.3151 2.09534C75.3151 2.07415 75.2736 2.06356 75.1906 2.06356C75.1491 2.08475 75.0973 2.11652 75.035 2.1589C74.9728 2.20127 74.9209 2.24364 74.8794 2.28602C74.8172 2.37076 74.7757 2.41314 74.755 2.41314C74.755 2.39195 74.7653 2.34958 74.7861 2.28602C74.8068 2.24364 74.8172 2.21186 74.8172 2.19068C74.8172 2.1483 74.8068 2.11652 74.7861 2.09534C74.7653 2.07415 74.6927 2.06356 74.5682 2.06356C74.506 2.04237 74.423 2.03178 74.3193 2.03178C74.2156 2.03178 74.1222 2.02119 74.0392 2C73.977 2 73.8836 2.01059 73.7591 2.03178C73.6554 2.07415 73.5621 2.11652 73.4791 2.1589Z" fill="#B1E4D0"/>
<path d="M96.2059 2.1589C96.1229 2.22246 96.0503 2.27542 95.9881 2.3178C95.9258 2.38136 95.8947 2.42373 95.8947 2.44491C95.8947 2.48729 95.9155 2.50847 95.9569 2.50847C95.9777 2.50847 96.0088 2.49788 96.0503 2.47669L96.1125 2.44491C96.1125 2.4661 96.1022 2.49788 96.0814 2.54025C96.0607 2.60381 96.0296 2.63559 95.9881 2.63559C95.9466 2.63559 95.8947 2.60381 95.8325 2.54025C95.791 2.49788 95.7495 2.4661 95.708 2.44491C95.6665 2.44491 95.6354 2.44491 95.6146 2.44491H95.5524C95.5109 2.4661 95.4694 2.49788 95.4279 2.54025C95.4072 2.58263 95.3864 2.65678 95.3657 2.76271C95.3449 2.86864 95.3242 3.02754 95.3035 3.23941C95.3035 3.28178 95.2827 3.31356 95.2412 3.33475C95.2205 3.37712 95.1997 3.3983 95.179 3.3983C95.1582 3.3983 95.1375 3.37712 95.1167 3.33475C95.096 3.31356 95.0856 3.28178 95.0856 3.23941C95.0856 3.21822 95.0752 3.20763 95.0545 3.20763H95.0234C95.0026 3.22881 94.9715 3.27119 94.93 3.33475C94.8885 3.41949 94.8678 3.50424 94.8678 3.58898C94.8678 3.67373 94.8885 3.74788 94.93 3.81144C94.9923 3.91737 95.0338 3.95975 95.0545 3.93856C95.0752 3.93856 95.0856 3.875 95.0856 3.74788C95.0856 3.59958 95.096 3.52542 95.1167 3.52542C95.1375 3.52542 95.1582 3.5572 95.179 3.62076C95.2205 3.68432 95.2412 3.73729 95.2412 3.77966C95.2412 3.86441 95.2101 3.93856 95.1479 4.00212C95.0856 4.06568 95.0545 4.16102 95.0545 4.28814C95.0545 4.37288 95.0649 4.45763 95.0856 4.54237C95.1064 4.69068 95.1271 4.76483 95.1479 4.76483C95.1686 4.76483 95.179 4.75424 95.179 4.73305C95.1997 4.6483 95.2205 4.60593 95.2412 4.60593L95.3035 4.66949L95.2723 4.73305C95.2723 4.79661 95.2516 4.84958 95.2101 4.89195C95.1479 4.95551 95.1167 4.99788 95.1167 5.01907V5.05085C95.1375 5.07203 95.1997 5.08263 95.3035 5.08263C95.4279 5.08263 95.4902 5.08263 95.4902 5.08263C95.4902 5.10381 95.4902 5.125 95.4902 5.14619C95.4902 5.16737 95.4694 5.19915 95.4279 5.24152C95.4072 5.2839 95.3968 5.32627 95.3968 5.36864V5.46398C95.4383 5.54873 95.542 5.66525 95.708 5.81356C95.8325 5.91949 95.9362 6.02542 96.0192 6.13136C96.1022 6.25847 96.1437 6.35381 96.1437 6.41737C96.1437 6.48093 96.1748 6.56568 96.237 6.67161C96.2993 6.79873 96.3822 6.91525 96.486 7.02119C96.5897 7.10593 96.6727 7.20127 96.7349 7.3072C96.8179 7.43432 96.8594 7.52966 96.8594 7.59322C96.8594 7.65678 96.8698 7.72034 96.8905 7.7839C96.9113 7.84746 96.9424 7.88983 96.9839 7.91102C97.0046 7.9322 97.015 7.96398 97.015 8.00636C97.0357 8.06991 97.0357 8.13347 97.015 8.19703C97.015 8.26059 97.0254 8.34534 97.0461 8.45127C97.0876 8.5572 97.1395 8.65254 97.2017 8.73729L97.4507 9.05508L97.1706 9.1822C97.1084 9.20339 97.0461 9.21398 96.9839 9.21398C96.9424 9.23517 96.9009 9.24576 96.8594 9.24576L96.7972 9.21398L96.766 9.1822C96.7453 9.1822 96.7349 9.1928 96.7349 9.21398L96.7972 9.3411C96.7972 9.40466 96.7557 9.46822 96.6727 9.53178C96.569 9.61653 96.4341 9.68008 96.2681 9.72246C96.1852 9.74364 96.0918 9.78602 95.9881 9.84958C95.9051 9.91314 95.8325 9.98729 95.7702 10.072C95.6872 10.178 95.6043 10.2521 95.5213 10.2945C95.4383 10.3581 95.3864 10.3898 95.3657 10.3898C95.3449 10.3898 95.3346 10.3792 95.3346 10.3581C95.3346 10.3369 95.3553 10.2945 95.3968 10.2309V10.1992L95.3346 10.2309C95.2931 10.2521 95.2205 10.3051 95.1167 10.3898C95.013 10.4958 94.9093 10.5805 94.8055 10.6441C94.7018 10.7288 94.6085 10.7818 94.5255 10.803C94.4632 10.8242 94.3699 10.8771 94.2454 10.9619C94.1209 11.0466 93.9965 11.1525 93.872 11.2797C93.7475 11.3856 93.6334 11.4703 93.5297 11.5339C93.4259 11.5975 93.3429 11.6292 93.2807 11.6292L93.1874 11.5975V11.6292L93.2807 11.6928C93.3637 11.7352 93.4052 11.7775 93.4052 11.8199C93.4052 11.8623 93.3637 11.9258 93.2807 12.0106C93.2185 12.0742 93.1666 12.1377 93.1251 12.2013C93.0836 12.286 93.0629 12.3496 93.0629 12.3919C93.0629 12.4343 93.0525 12.4661 93.0318 12.4873C93.011 12.5297 92.9903 12.5508 92.9695 12.5508C92.928 12.5508 92.9073 12.5932 92.9073 12.678V12.7733C92.9073 12.9004 92.928 13.0487 92.9695 13.2182C93.0318 13.3877 93.1044 13.5254 93.1874 13.6314C93.2496 13.7161 93.3326 13.7903 93.4363 13.8538C93.54 13.9386 93.6438 14.0021 93.7475 14.0445C93.8512 14.0657 93.9342 14.0975 93.9965 14.1398C94.0794 14.1822 94.1209 14.214 94.1209 14.2352C94.1209 14.3199 94.2558 14.3517 94.5255 14.3305C94.8159 14.3305 95.1271 14.2987 95.459 14.2352C95.8117 14.1928 96.0918 14.1292 96.2993 14.0445C96.4652 13.9597 96.6104 13.8962 96.7349 13.8538C96.8801 13.8114 96.9735 13.7903 97.015 13.7903L97.0772 13.822L97.1084 13.7903L97.1395 13.7267L97.1084 13.6631C97.1084 13.6208 97.1187 13.589 97.1395 13.5678C97.181 13.5466 97.2225 13.536 97.2639 13.536C97.3262 13.536 97.4195 13.4831 97.544 13.3771C97.6685 13.2712 97.793 13.1547 97.9174 13.0275C98.0419 12.8792 98.1457 12.7627 98.2286 12.678C98.3324 12.6144 98.405 12.5826 98.4465 12.5826H98.4776C98.7888 13.0064 98.9547 14.0127 98.9755 15.6017C98.9755 15.7076 98.9859 15.7924 99.0066 15.8559C99.0274 15.9195 99.0585 15.9513 99.1 15.9513C99.1207 15.9513 99.1415 15.9725 99.1622 16.0148C99.183 16.0784 99.1933 16.1419 99.1933 16.2055V16.3008C99.1933 16.4068 99.2244 16.4597 99.2867 16.4597H99.3489C99.3904 16.4597 99.4526 16.4809 99.5356 16.5233C99.6394 16.5657 99.7431 16.6292 99.8468 16.714C99.9713 16.7987 100.106 16.8623 100.251 16.9047C100.417 16.9682 100.563 17 100.687 17C100.812 17 100.874 16.9682 100.874 16.9047C100.874 16.8835 100.926 16.8411 101.029 16.7775C101.154 16.7352 101.299 16.6928 101.465 16.6504C101.818 16.5657 102.067 16.428 102.212 16.2373C102.357 16.0678 102.43 15.803 102.43 15.4428C102.43 15.2945 102.44 15.1568 102.461 15.0297C102.502 14.9025 102.533 14.8178 102.554 14.7754C102.596 14.7119 102.627 14.5742 102.648 14.3623C102.668 14.1716 102.679 13.9492 102.679 13.6949C102.679 13.0381 102.741 12.7097 102.865 12.7097C102.907 12.7097 102.959 12.7521 103.021 12.8369C103.062 12.9004 103.094 12.9428 103.114 12.964C103.156 12.9852 103.197 12.9958 103.239 12.9958H103.332C103.374 13.0381 103.405 13.0911 103.426 13.1547C103.467 13.2818 103.55 13.3771 103.674 13.4407C103.82 13.5042 103.944 13.536 104.048 13.536H104.141C104.162 13.5148 104.193 13.5042 104.235 13.5042C104.297 13.5042 104.338 13.5042 104.359 13.5042C104.442 13.5254 104.546 13.589 104.67 13.6949C104.795 13.8008 104.909 13.9068 105.013 14.0127C105.116 14.1398 105.168 14.2246 105.168 14.2669V14.2987C105.168 14.3199 105.179 14.3305 105.199 14.3305C105.241 14.3093 105.293 14.2881 105.355 14.2669C105.459 14.2034 105.542 14.161 105.604 14.1398C105.687 14.1398 105.739 14.1398 105.759 14.1398H105.853C105.894 14.161 105.915 14.1822 105.915 14.2034V14.3305C105.936 14.3729 105.967 14.4047 106.008 14.4258L106.102 14.4576L106.164 14.4258C106.205 14.4047 106.247 14.3729 106.288 14.3305C106.309 14.2881 106.392 14.2246 106.537 14.1398C106.683 14.0763 106.849 14.0127 107.035 13.9492C107.243 13.8856 107.419 13.8114 107.564 13.7267C107.73 13.6631 107.834 13.6102 107.876 13.5678C107.959 13.4407 108 13.2606 108 13.0275V12.8686C108 12.572 107.948 12.2542 107.844 11.9153C107.741 11.5975 107.606 11.3538 107.44 11.1843C107.378 11.0996 107.284 11.0148 107.16 10.9301C107.056 10.8453 106.942 10.7606 106.817 10.6758C106.714 10.5911 106.62 10.5275 106.537 10.4852C106.475 10.464 106.434 10.4534 106.413 10.4534C106.392 10.4534 106.361 10.4428 106.32 10.4216C106.237 10.4004 106.143 10.3581 106.039 10.2945C105.936 10.2097 105.791 10.1144 105.604 10.0085C105.417 9.92373 105.241 9.82839 105.075 9.72246C104.701 9.53178 104.442 9.37288 104.297 9.24576C104.152 9.13983 104.027 8.99153 103.923 8.80085C103.84 8.7161 103.799 8.64195 103.799 8.57839C103.799 8.51483 103.84 8.41949 103.923 8.29237C104.006 8.18644 104.152 8.01695 104.359 7.7839C104.546 7.59322 104.701 7.41314 104.826 7.24364C104.95 7.07415 105.013 6.96822 105.013 6.92585C105.013 6.88347 105.023 6.8517 105.044 6.83051H105.106C105.147 6.83051 105.179 6.80932 105.199 6.76695C105.241 6.74576 105.272 6.6928 105.293 6.60805C105.334 6.50212 105.459 6.31144 105.666 6.03602C105.894 5.76059 106.133 5.49576 106.382 5.24152C106.652 5.00847 106.838 4.86017 106.942 4.79661C107.025 4.77542 107.077 4.74364 107.098 4.70127C107.118 4.6589 107.129 4.61652 107.129 4.57415V4.54237C107.108 4.5 107.066 4.47881 107.004 4.47881C106.963 4.47881 106.942 4.45763 106.942 4.41525C106.942 4.39407 106.942 4.36229 106.942 4.31991V4.25636C106.963 4.1928 107.004 4.13983 107.066 4.09746C107.087 4.07627 107.098 4.0339 107.098 3.97034C107.098 3.90678 107.077 3.84322 107.035 3.77966C106.994 3.67373 106.973 3.59958 106.973 3.5572C106.973 3.51483 106.983 3.48305 107.004 3.46186C107.046 3.44068 107.077 3.4089 107.098 3.36652C107.118 3.32415 107.129 3.28178 107.129 3.23941C107.129 3.21822 107.118 3.20763 107.098 3.20763C107.098 3.20763 107.087 3.20763 107.066 3.20763H107.035C106.994 3.20763 106.942 3.18644 106.88 3.14407C106.838 3.12288 106.786 3.08051 106.724 3.01695C106.662 2.95339 106.62 2.90042 106.6 2.85805V2.82627C106.6 2.80508 106.61 2.79449 106.631 2.79449L106.662 2.76271L106.631 2.73093C106.589 2.70975 106.537 2.67797 106.475 2.63559C106.413 2.59322 106.34 2.55085 106.257 2.50847C106.195 2.48729 106.133 2.4661 106.071 2.44491C106.008 2.44491 105.894 2.43432 105.728 2.41314C105.583 2.39195 105.417 2.37076 105.23 2.34958C105.002 2.32839 104.836 2.3178 104.733 2.3178C104.629 2.3178 104.556 2.33898 104.515 2.38136C104.473 2.42373 104.442 2.49788 104.421 2.60381C104.359 2.7733 104.307 2.85805 104.266 2.85805C104.245 2.85805 104.224 2.83686 104.203 2.79449C104.183 2.75212 104.152 2.73093 104.11 2.73093H104.079C104.017 2.73093 103.944 2.7733 103.861 2.85805C103.633 3.04873 103.467 3.18644 103.363 3.27119C103.26 3.35593 103.177 3.3983 103.114 3.3983C103.094 3.3983 103.052 3.43008 102.99 3.49364C102.928 3.5572 102.865 3.64195 102.803 3.74788C102.741 3.85381 102.679 3.93856 102.616 4.00212C102.575 4.06568 102.544 4.09746 102.523 4.09746C102.482 4.09746 102.45 4.11864 102.43 4.16102C102.409 4.22458 102.378 4.28814 102.336 4.3517C102.316 4.41525 102.264 4.48941 102.181 4.57415C102.098 4.68008 101.994 4.76483 101.87 4.82839C101.745 4.89195 101.652 4.95551 101.589 5.01907C101.548 5.08263 101.527 5.13559 101.527 5.17797V5.24152C101.527 5.26271 101.517 5.2733 101.496 5.2733L101.434 5.24152H101.372C101.33 5.24152 101.268 5.26271 101.185 5.30508C101.102 5.38983 101.029 5.47458 100.967 5.55932C100.926 5.64407 100.905 5.70763 100.905 5.75V5.87712C100.905 5.91949 100.894 5.97246 100.874 6.03602C100.853 6.09958 100.812 6.17373 100.749 6.25847C100.687 6.34322 100.635 6.42797 100.594 6.51271C100.552 6.61864 100.531 6.6928 100.531 6.73517C100.531 6.77754 100.521 6.80932 100.5 6.83051C100.48 6.8517 100.459 6.86229 100.438 6.86229L100.407 6.83051C100.365 6.80932 100.345 6.78814 100.345 6.76695C100.345 6.74576 100.345 6.72458 100.345 6.70339V6.57627C100.345 6.51271 100.334 6.41737 100.314 6.29025C100.272 6.07839 100.21 5.84534 100.127 5.5911C100.065 5.33686 99.992 5.10381 99.9091 4.89195C99.8468 4.68008 99.7846 4.54237 99.7223 4.47881C99.6809 4.41525 99.6394 4.3517 99.5979 4.28814C99.5771 4.24576 99.5667 4.21398 99.5667 4.1928C99.5667 4.17161 99.5356 4.08686 99.4734 3.93856C99.4319 3.81144 99.3697 3.65254 99.2867 3.46186C99.017 2.86864 98.7784 2.57203 98.5709 2.57203H98.5398C98.4983 2.57203 98.4465 2.55085 98.3842 2.50847C98.322 2.48729 98.2494 2.44491 98.1664 2.38136C98.1042 2.33898 98.0627 2.29661 98.0419 2.25424C98.0212 2.21186 98.0108 2.18008 98.0108 2.1589V2.12712L98.0419 2.09534C98.0419 2.07415 98.0004 2.06356 97.9174 2.06356C97.876 2.08475 97.8241 2.11652 97.7618 2.1589C97.6996 2.20127 97.6477 2.24364 97.6063 2.28602C97.544 2.37076 97.5025 2.41314 97.4818 2.41314C97.4818 2.39195 97.4921 2.34958 97.5129 2.28602C97.5336 2.24364 97.544 2.21186 97.544 2.19068C97.544 2.1483 97.5336 2.11652 97.5129 2.09534C97.4921 2.07415 97.4195 2.06356 97.2951 2.06356C97.2328 2.04237 97.1498 2.03178 97.0461 2.03178C96.9424 2.03178 96.849 2.02119 96.766 2C96.7038 2 96.6104 2.01059 96.486 2.03178C96.3822 2.07415 96.2889 2.11652 96.2059 2.1589Z" fill="#B1E4D0"/>
</g>
<defs>
<filter id="filter0_f_901_3707" x="0" y="0" width="110" height="19" filterUnits="userSpaceOnUse" color-interpolation-filters="sRGB">
<feFlood flood-opacity="0" result="BackgroundImageFix"/>
<feBlend mode="normal" in="SourceGraphic" in2="BackgroundImageFix" result="shape"/>
<feGaussianBlur stdDeviation="1" result="effect1_foregroundBlur_901_3707"/>
</filter>
</defs>
</svg>
