<svg width="1200" height="328" viewBox="0 0 1200 328" fill="none" xmlns="http://www.w3.org/2000/svg">
<g filter="url(#filter0_d_67_3866)">
<mask id="mask0_67_3866" style="mask-type:alpha" maskUnits="userSpaceOnUse" x="-552" y="4" width="2141" height="372">
<rect x="-546.963" y="4" width="2162.35" height="32" transform="rotate(9.0571 -546.963 4)" fill="#D9D9D9"/>
</mask>
<g mask="url(#mask0_67_3866)">
<g filter="url(#filter1_d_67_3866)">
<rect x="-573.93" y="-0.298706" width="2189.65" height="32" transform="rotate(9.0571 -573.93 -0.298706)" fill="#562B54"/>
<line y1="-3.17399" x2="31.5579" y2="-3.17399" transform="matrix(0.776341 0.630314 -0.864346 0.502897 -29.959 86.4137)" stroke="#78FF85" stroke-width="6.34798"/>
<line y1="-3.17399" x2="31.5579" y2="-3.17399" transform="matrix(0.776341 0.630314 -0.864346 0.502897 -5.42773 90.3241)" stroke="#78FF85" stroke-width="6.34798"/>
<line y1="-3.17399" x2="31.5579" y2="-3.17399" transform="matrix(0.776341 0.630314 -0.864346 0.502897 19.1045 94.2346)" stroke="#78FF85" stroke-width="6.34798"/>
<line y1="-3.17399" x2="31.5579" y2="-3.17399" transform="matrix(0.776341 0.630314 -0.864346 0.502897 43.6357 98.1452)" stroke="#78FF85" stroke-width="6.34798"/>
<line y1="-3.17399" x2="31.5579" y2="-3.17399" transform="matrix(0.776341 0.630314 -0.864346 0.502897 68.168 102.056)" stroke="#78FF85" stroke-width="6.34798"/>
<line y1="-3.17399" x2="31.5579" y2="-3.17399" transform="matrix(0.776341 0.630314 -0.864346 0.502897 92.6992 105.966)" stroke="#78FF85" stroke-width="6.34798"/>
<line y1="-3.17399" x2="31.5579" y2="-3.17399" transform="matrix(0.776341 0.630314 -0.864346 0.502897 117.23 109.877)" stroke="#78FF85" stroke-width="6.34798"/>
<line y1="-3.17399" x2="31.5579" y2="-3.17399" transform="matrix(0.776341 0.630314 -0.864346 0.502897 141.763 113.787)" stroke="#78FF85" stroke-width="6.34798"/>
<line y1="-3.17399" x2="31.5579" y2="-3.17399" transform="matrix(0.776341 0.630314 -0.864346 0.502897 166.294 117.698)" stroke="#78FF85" stroke-width="6.34798"/>
<line y1="-3.17399" x2="31.5579" y2="-3.17399" transform="matrix(0.776341 0.630314 -0.864346 0.502897 190.825 121.608)" stroke="#78FF85" stroke-width="6.34798"/>
<line y1="-3.17399" x2="31.5579" y2="-3.17399" transform="matrix(0.776341 0.630314 -0.864346 0.502897 215.357 125.518)" stroke="#78FF85" stroke-width="6.34798"/>
<line y1="-3.17399" x2="31.5579" y2="-3.17399" transform="matrix(0.776341 0.630314 -0.864346 0.502897 239.889 129.429)" stroke="#78FF85" stroke-width="6.34798"/>
<line y1="-3.17399" x2="31.5579" y2="-3.17399" transform="matrix(0.776341 0.630314 -0.864346 0.502897 264.421 133.339)" stroke="#78FF85" stroke-width="6.34798"/>
<line y1="-3.17399" x2="31.5579" y2="-3.17399" transform="matrix(0.776341 0.630314 -0.864346 0.502897 288.952 137.25)" stroke="#78FF85" stroke-width="6.34798"/>
<line y1="-3.17399" x2="31.5579" y2="-3.17399" transform="matrix(0.776341 0.630314 -0.864346 0.502897 313.484 141.161)" stroke="#78FF85" stroke-width="6.34798"/>
<line y1="-3.17399" x2="31.5579" y2="-3.17399" transform="matrix(0.776341 0.630314 -0.864346 0.502897 338.016 145.071)" stroke="#78FF85" stroke-width="6.34798"/>
<line y1="-3.17399" x2="31.5579" y2="-3.17399" transform="matrix(0.776341 0.630314 -0.864346 0.502897 362.548 148.982)" stroke="#78FF85" stroke-width="6.34798"/>
<line y1="-3.17399" x2="31.5579" y2="-3.17399" transform="matrix(0.776341 0.630314 -0.864346 0.502897 387.078 152.892)" stroke="#78FF85" stroke-width="6.34798"/>
<line y1="-3.17399" x2="31.5579" y2="-3.17399" transform="matrix(0.776341 0.630314 -0.864346 0.502897 387.079 152.892)" stroke="#78FF85" stroke-width="6.34798"/>
<line y1="-3.17399" x2="31.5579" y2="-3.17399" transform="matrix(0.776341 0.630314 -0.864346 0.502897 411.602 156.801)" stroke="#78FF85" stroke-width="6.34798"/>
<line y1="-3.17399" x2="31.5579" y2="-3.17399" transform="matrix(0.776341 0.630314 -0.864346 0.502897 436.124 160.71)" stroke="#78FF85" stroke-width="6.34798"/>
<line y1="-3.17399" x2="31.5579" y2="-3.17399" transform="matrix(0.776341 0.630314 -0.864346 0.502897 460.646 164.619)" stroke="#78FF85" stroke-width="6.34798"/>
<line y1="-3.17399" x2="31.5579" y2="-3.17399" transform="matrix(0.776341 0.630314 -0.864346 0.502897 485.168 168.528)" stroke="#78FF85" stroke-width="6.34798"/>
<line y1="-3.17399" x2="31.5579" y2="-3.17399" transform="matrix(0.776341 0.630314 -0.864346 0.502897 509.689 172.437)" stroke="#78FF85" stroke-width="6.34798"/>
<line y1="-3.17399" x2="31.5579" y2="-3.17399" transform="matrix(0.776341 0.630314 -0.864346 0.502897 534.212 176.346)" stroke="#78FF85" stroke-width="6.34798"/>
<line y1="-3.17399" x2="31.5579" y2="-3.17399" transform="matrix(0.776341 0.630314 -0.864346 0.502897 558.733 180.255)" stroke="#78FF85" stroke-width="6.34798"/>
<line y1="-3.17399" x2="31.5579" y2="-3.17399" transform="matrix(0.776341 0.630314 -0.864346 0.502897 583.256 184.164)" stroke="#78FF85" stroke-width="6.34798"/>
<line y1="-3.17399" x2="31.5579" y2="-3.17399" transform="matrix(0.776341 0.630314 -0.864346 0.502897 607.777 188.073)" stroke="#78FF85" stroke-width="6.34798"/>
<line y1="-3.17399" x2="31.5579" y2="-3.17399" transform="matrix(0.776341 0.630314 -0.864346 0.502897 632.3 191.982)" stroke="#78FF85" stroke-width="6.34798"/>
<line y1="-3.17399" x2="31.5579" y2="-3.17399" transform="matrix(0.776341 0.630314 -0.864346 0.502897 656.822 195.891)" stroke="#78FF85" stroke-width="6.34798"/>
<line y1="-3.17399" x2="31.5579" y2="-3.17399" transform="matrix(0.776341 0.630314 -0.864346 0.502897 681.344 199.8)" stroke="#78FF85" stroke-width="6.34798"/>
<line y1="-3.17399" x2="31.5579" y2="-3.17399" transform="matrix(0.776341 0.630314 -0.864346 0.502897 705.866 203.709)" stroke="#78FF85" stroke-width="6.34798"/>
<line y1="-3.17399" x2="31.5579" y2="-3.17399" transform="matrix(0.776341 0.630314 -0.864346 0.502897 730.388 207.618)" stroke="#78FF85" stroke-width="6.34798"/>
<line y1="-3.17399" x2="31.5579" y2="-3.17399" transform="matrix(0.776341 0.630314 -0.864346 0.502897 754.91 211.527)" stroke="#78FF85" stroke-width="6.34798"/>
<line y1="-3.17399" x2="31.5579" y2="-3.17399" transform="matrix(0.776341 0.630314 -0.864346 0.502897 779.432 215.435)" stroke="#78FF85" stroke-width="6.34798"/>
<line y1="-3.17399" x2="31.5579" y2="-3.17399" transform="matrix(0.776341 0.630314 -0.864346 0.502897 803.954 219.344)" stroke="#78FF85" stroke-width="6.34798"/>
<line y1="-3.17399" x2="31.5579" y2="-3.17399" transform="matrix(0.776341 0.630314 -0.864346 0.502897 828.477 223.253)" stroke="#78FF85" stroke-width="6.34798"/>
<line y1="-3.17399" x2="31.5579" y2="-3.17399" transform="matrix(0.776341 0.630314 -0.864346 0.502897 852.999 227.162)" stroke="#78FF85" stroke-width="6.34798"/>
<line y1="-3.17399" x2="31.5579" y2="-3.17399" transform="matrix(0.776341 0.630314 -0.864346 0.502897 877.521 231.071)" stroke="#78FF85" stroke-width="6.34798"/>
<line y1="-3.17399" x2="31.5579" y2="-3.17399" transform="matrix(0.776341 0.630314 -0.864346 0.502897 902.043 234.98)" stroke="#78FF85" stroke-width="6.34798"/>
<line y1="-3.17399" x2="31.5579" y2="-3.17399" transform="matrix(0.776341 0.630314 -0.864346 0.502897 926.564 238.889)" stroke="#78FF85" stroke-width="6.34798"/>
<line y1="-3.17399" x2="31.5579" y2="-3.17399" transform="matrix(0.776341 0.630314 -0.864346 0.502897 951.087 242.798)" stroke="#78FF85" stroke-width="6.34798"/>
<line y1="-3.17399" x2="31.5579" y2="-3.17399" transform="matrix(0.776341 0.630314 -0.864346 0.502897 975.609 246.707)" stroke="#78FF85" stroke-width="6.34798"/>
<line y1="-3.17399" x2="31.5579" y2="-3.17399" transform="matrix(0.776341 0.630314 -0.864346 0.502897 1000.13 250.616)" stroke="#78FF85" stroke-width="6.34798"/>
<line y1="-3.17399" x2="31.5579" y2="-3.17399" transform="matrix(0.776341 0.630314 -0.864346 0.502897 1024.65 254.525)" stroke="#78FF85" stroke-width="6.34798"/>
<line y1="-3.17399" x2="31.5579" y2="-3.17399" transform="matrix(0.776341 0.630314 -0.864346 0.502897 1049.1 258.422)" stroke="#78FF85" stroke-width="6.34798"/>
<line y1="-3.17399" x2="31.5579" y2="-3.17399" transform="matrix(0.776341 0.630314 -0.864346 0.502897 1073.55 262.319)" stroke="#78FF85" stroke-width="6.34798"/>
<line y1="-3.17399" x2="31.5579" y2="-3.17399" transform="matrix(0.776341 0.630314 -0.864346 0.502897 1097.99 266.216)" stroke="#78FF85" stroke-width="6.34798"/>
<line y1="-3.17399" x2="31.5579" y2="-3.17399" transform="matrix(0.776341 0.630314 -0.864346 0.502897 1122.44 270.113)" stroke="#78FF85" stroke-width="6.34798"/>
<line y1="-3.17399" x2="31.5579" y2="-3.17399" transform="matrix(0.776341 0.630314 -0.864346 0.502897 1146.88 274.01)" stroke="#78FF85" stroke-width="6.34798"/>
<line y1="-3.17399" x2="31.5579" y2="-3.17399" transform="matrix(0.776341 0.630314 -0.864346 0.502897 1171.33 277.907)" stroke="#78FF85" stroke-width="6.34798"/>
<line y1="-3.17399" x2="31.5579" y2="-3.17399" transform="matrix(0.776341 0.630314 -0.864346 0.502897 1195.78 281.803)" stroke="#78FF85" stroke-width="6.34798"/>
<line y1="-3.17399" x2="31.7735" y2="-3.17399" transform="matrix(-0.929614 0.368535 -0.674824 -0.737978 19.0723 110.216)" stroke="#78FF85" stroke-width="6.34798"/>
<line y1="-3.17399" x2="31.7735" y2="-3.17399" transform="matrix(-0.929614 0.368535 -0.674824 -0.737978 43.6045 114.126)" stroke="#78FF85" stroke-width="6.34798"/>
<line y1="-3.17399" x2="31.7735" y2="-3.17399" transform="matrix(-0.929614 0.368535 -0.674824 -0.737978 68.1357 118.037)" stroke="#78FF85" stroke-width="6.34798"/>
<line y1="-3.17399" x2="31.7735" y2="-3.17399" transform="matrix(-0.929614 0.368535 -0.674824 -0.737978 92.667 121.947)" stroke="#78FF85" stroke-width="6.34798"/>
<line y1="-3.17399" x2="31.7735" y2="-3.17399" transform="matrix(-0.929614 0.368535 -0.674824 -0.737978 117.198 125.857)" stroke="#78FF85" stroke-width="6.34798"/>
<line y1="-3.17399" x2="31.7735" y2="-3.17399" transform="matrix(-0.929614 0.368535 -0.674824 -0.737978 141.73 129.768)" stroke="#78FF85" stroke-width="6.34798"/>
<line y1="-3.17399" x2="31.7735" y2="-3.17399" transform="matrix(-0.929614 0.368535 -0.674824 -0.737978 166.262 133.679)" stroke="#78FF85" stroke-width="6.34798"/>
<line y1="-3.17399" x2="31.7735" y2="-3.17399" transform="matrix(-0.929614 0.368535 -0.674824 -0.737978 190.794 137.589)" stroke="#78FF85" stroke-width="6.34798"/>
<line y1="-3.17399" x2="31.7735" y2="-3.17399" transform="matrix(-0.929614 0.368535 -0.674824 -0.737978 215.325 141.499)" stroke="#78FF85" stroke-width="6.34798"/>
<line y1="-3.17399" x2="31.7735" y2="-3.17399" transform="matrix(-0.929614 0.368535 -0.674824 -0.737978 239.857 145.41)" stroke="#78FF85" stroke-width="6.34798"/>
<line y1="-3.17399" x2="31.7735" y2="-3.17399" transform="matrix(-0.929614 0.368535 -0.674824 -0.737978 264.389 149.32)" stroke="#78FF85" stroke-width="6.34798"/>
<line y1="-3.17399" x2="31.7735" y2="-3.17399" transform="matrix(-0.929614 0.368535 -0.674824 -0.737978 288.921 153.231)" stroke="#78FF85" stroke-width="6.34798"/>
<line y1="-3.17399" x2="31.7735" y2="-3.17399" transform="matrix(-0.929614 0.368535 -0.674824 -0.737978 313.452 157.141)" stroke="#78FF85" stroke-width="6.34798"/>
<line y1="-3.17399" x2="31.7735" y2="-3.17399" transform="matrix(-0.929614 0.368535 -0.674824 -0.737978 337.984 161.052)" stroke="#78FF85" stroke-width="6.34798"/>
<line y1="-3.17399" x2="31.7735" y2="-3.17399" transform="matrix(-0.929614 0.368535 -0.674824 -0.737978 362.516 164.962)" stroke="#78FF85" stroke-width="6.34798"/>
<line y1="-3.17399" x2="31.7735" y2="-3.17399" transform="matrix(-0.929614 0.368535 -0.674824 -0.737978 387.047 168.873)" stroke="#78FF85" stroke-width="6.34798"/>
<line y1="-3.17399" x2="31.7735" y2="-3.17399" transform="matrix(-0.929614 0.368535 -0.674824 -0.737978 411.578 172.783)" stroke="#78FF85" stroke-width="6.34798"/>
<line y1="-3.17399" x2="31.7735" y2="-3.17399" transform="matrix(-0.929614 0.368535 -0.674824 -0.737978 411.578 172.783)" stroke="#78FF85" stroke-width="6.34798"/>
<line y1="-3.17399" x2="31.7735" y2="-3.17399" transform="matrix(-0.929614 0.368535 -0.674824 -0.737978 436.101 176.692)" stroke="#78FF85" stroke-width="6.34798"/>
<line y1="-3.17399" x2="31.7735" y2="-3.17399" transform="matrix(-0.929614 0.368535 -0.674824 -0.737978 460.623 180.601)" stroke="#78FF85" stroke-width="6.34798"/>
<line y1="-3.17399" x2="31.7735" y2="-3.17399" transform="matrix(-0.929614 0.368535 -0.674824 -0.737978 485.145 184.51)" stroke="#78FF85" stroke-width="6.34798"/>
<line y1="-3.17399" x2="31.7735" y2="-3.17399" transform="matrix(-0.929614 0.368535 -0.674824 -0.737978 509.666 188.419)" stroke="#78FF85" stroke-width="6.34798"/>
<line y1="-3.17399" x2="31.7735" y2="-3.17399" transform="matrix(-0.929614 0.368535 -0.674824 -0.737978 534.188 192.328)" stroke="#78FF85" stroke-width="6.34798"/>
<line y1="-3.17399" x2="31.7735" y2="-3.17399" transform="matrix(-0.929614 0.368535 -0.674824 -0.737978 558.711 196.237)" stroke="#78FF85" stroke-width="6.34798"/>
<line y1="-3.17399" x2="31.7735" y2="-3.17399" transform="matrix(-0.929614 0.368535 -0.674824 -0.737978 583.232 200.146)" stroke="#78FF85" stroke-width="6.34798"/>
<line y1="-3.17399" x2="31.7735" y2="-3.17399" transform="matrix(-0.929614 0.368535 -0.674824 -0.737978 607.755 204.055)" stroke="#78FF85" stroke-width="6.34798"/>
<line y1="-3.17399" x2="31.7735" y2="-3.17399" transform="matrix(-0.929614 0.368535 -0.674824 -0.737978 632.276 207.964)" stroke="#78FF85" stroke-width="6.34798"/>
<line y1="-3.17399" x2="31.7735" y2="-3.17399" transform="matrix(-0.929614 0.368535 -0.674824 -0.737978 656.799 211.873)" stroke="#78FF85" stroke-width="6.34798"/>
<line y1="-3.17399" x2="31.7735" y2="-3.17399" transform="matrix(-0.929614 0.368535 -0.674824 -0.737978 681.321 215.782)" stroke="#78FF85" stroke-width="6.34798"/>
<line y1="-3.17399" x2="31.7735" y2="-3.17399" transform="matrix(-0.929614 0.368535 -0.674824 -0.737978 705.843 219.691)" stroke="#78FF85" stroke-width="6.34798"/>
<line y1="-3.17399" x2="31.7735" y2="-3.17399" transform="matrix(-0.929614 0.368535 -0.674824 -0.737978 730.365 223.6)" stroke="#78FF85" stroke-width="6.34798"/>
<line y1="-3.17399" x2="31.7735" y2="-3.17399" transform="matrix(-0.929614 0.368535 -0.674824 -0.737978 754.888 227.509)" stroke="#78FF85" stroke-width="6.34798"/>
<line y1="-3.17399" x2="31.7735" y2="-3.17399" transform="matrix(-0.929614 0.368535 -0.674824 -0.737978 779.409 231.418)" stroke="#78FF85" stroke-width="6.34798"/>
<line y1="-3.17399" x2="31.7735" y2="-3.17399" transform="matrix(-0.929614 0.368535 -0.674824 -0.737978 803.932 235.327)" stroke="#78FF85" stroke-width="6.34798"/>
<line y1="-3.17399" x2="31.7735" y2="-3.17399" transform="matrix(-0.929614 0.368535 -0.674824 -0.737978 828.453 239.236)" stroke="#78FF85" stroke-width="6.34798"/>
<line y1="-3.17399" x2="31.7735" y2="-3.17399" transform="matrix(-0.929614 0.368535 -0.674824 -0.737978 852.976 243.145)" stroke="#78FF85" stroke-width="6.34798"/>
<line y1="-3.17399" x2="31.7735" y2="-3.17399" transform="matrix(-0.929614 0.368535 -0.674824 -0.737978 877.498 247.054)" stroke="#78FF85" stroke-width="6.34798"/>
<line y1="-3.17399" x2="31.7735" y2="-3.17399" transform="matrix(-0.929614 0.368535 -0.674824 -0.737978 902.02 250.963)" stroke="#78FF85" stroke-width="6.34798"/>
<line y1="-3.17399" x2="31.7735" y2="-3.17399" transform="matrix(-0.929614 0.368535 -0.674824 -0.737978 926.542 254.872)" stroke="#78FF85" stroke-width="6.34798"/>
<line y1="-3.17399" x2="31.7735" y2="-3.17399" transform="matrix(-0.929614 0.368535 -0.674824 -0.737978 951.063 258.78)" stroke="#78FF85" stroke-width="6.34798"/>
<line y1="-3.17399" x2="31.7735" y2="-3.17399" transform="matrix(-0.929614 0.368535 -0.674824 -0.737978 975.586 262.689)" stroke="#78FF85" stroke-width="6.34798"/>
<line y1="-3.17399" x2="31.7735" y2="-3.17399" transform="matrix(-0.929614 0.368535 -0.674824 -0.737978 1000.11 266.598)" stroke="#78FF85" stroke-width="6.34798"/>
<line y1="-3.17399" x2="31.7735" y2="-3.17399" transform="matrix(-0.929614 0.368535 -0.674824 -0.737978 1024.63 270.507)" stroke="#78FF85" stroke-width="6.34798"/>
<line y1="-3.17399" x2="31.7735" y2="-3.17399" transform="matrix(-0.929614 0.368535 -0.674824 -0.737978 1049.15 274.416)" stroke="#78FF85" stroke-width="6.34798"/>
<line y1="-3.17399" x2="31.7735" y2="-3.17399" transform="matrix(-0.929614 0.368535 -0.674824 -0.737978 1073.6 278.313)" stroke="#78FF85" stroke-width="6.34798"/>
<line y1="-3.17399" x2="31.7735" y2="-3.17399" transform="matrix(-0.929614 0.368535 -0.674824 -0.737978 1098.04 282.21)" stroke="#78FF85" stroke-width="6.34798"/>
<line y1="-3.17399" x2="31.7735" y2="-3.17399" transform="matrix(-0.929614 0.368535 -0.674824 -0.737978 1122.49 286.107)" stroke="#78FF85" stroke-width="6.34798"/>
<line y1="-3.17399" x2="31.7735" y2="-3.17399" transform="matrix(-0.929614 0.368535 -0.674824 -0.737978 1146.94 290.004)" stroke="#78FF85" stroke-width="6.34798"/>
<line y1="-3.17399" x2="31.7735" y2="-3.17399" transform="matrix(-0.929614 0.368535 -0.674824 -0.737978 1171.38 293.901)" stroke="#78FF85" stroke-width="6.34798"/>
<line y1="-3.17399" x2="31.7735" y2="-3.17399" transform="matrix(-0.929614 0.368535 -0.674824 -0.737978 1195.83 297.798)" stroke="#78FF85" stroke-width="6.34798"/>
<line y1="-3.17399" x2="31.7735" y2="-3.17399" transform="matrix(-0.929614 0.368535 -0.674824 -0.737978 1220.28 301.695)" stroke="#78FF85" stroke-width="6.34798"/>
<rect x="-574.534" y="3.49335" width="2192.64" height="24.32" transform="rotate(9.0571 -574.534 3.49335)" fill="#562B54"/>
</g>
<path d="M-0.0943297 103.146L-3.08944 102.669L-2.86678 101.272L4.52027 102.45L4.2976 103.847L1.31592 103.371L0.1524 110.843L-1.31158 110.61L-0.0943297 103.146ZM10.1125 106.991L10.6798 103.432L12.1035 103.659L10.6905 112.523L9.2668 112.296L9.89196 108.374L6.30589 107.803L5.68072 111.724L4.24361 111.495L5.65665 102.631L7.09377 102.86L6.52641 106.419L10.1125 106.991ZM20.3315 104.97L20.111 106.354L14.8863 105.521L14.5352 107.723L18.954 108.428L18.7335 109.811L14.3147 109.107L13.9143 111.618L19.139 112.451L18.9184 113.835L12.297 112.779L13.71 103.915L20.3315 104.97ZM33.1179 116.098L28.4037 115.347L29.8167 106.482L34.531 107.234L36.1332 109.624L35.3838 114.325L33.1179 116.098ZM30.9909 108.102L30.0231 114.172L32.7362 114.605L34.0727 113.565L34.6507 109.938L33.7039 108.534L30.9909 108.102ZM43.1456 117.697L36.2152 116.592L36.4015 115.423L42.3552 109.954L42.3617 109.914L37.8757 109.199L38.0984 107.802L44.5587 108.832L44.3724 110.001L38.4321 115.472L38.4257 115.512L43.3683 116.3L43.1456 117.697ZM51.2258 118.985L44.2417 117.871L44.4622 116.488L47.2962 116.94L48.2682 110.842L45.4611 110.394L45.6816 109.011L52.612 110.116L52.3915 111.499L49.6784 111.067L48.7064 117.164L51.4464 117.601L51.2258 118.985ZM60.5696 113.037L60.2057 115.32L58.4149 116.619L57.4881 116.471L59.5069 119.272L59.3463 120.279L58.3525 120.121L55.6481 116.178L54.5065 115.996L53.9605 119.421L52.5637 119.198L53.9767 110.333L59.2551 111.175L60.5696 113.037ZM55.1509 111.953L54.7184 114.666L58.0225 115.193L58.8988 114.534L59.0807 113.392L58.4549 112.48L55.1509 111.953ZM68.2175 113.581L64.7858 116.188L67.5984 120.575L67.44 121.569L66.3789 121.4L63.6894 117.019L62.4528 117.951L62.0139 120.704L60.617 120.482L62.0301 111.617L63.4269 111.84L62.7611 116.017L67.3085 112.459L68.3695 112.628L68.2175 113.581ZM72.4742 113.282L74.1396 113.547L75.5529 121.788L75.3859 122.836L74.2174 122.65L73.8902 120.642L70.5055 120.102L69.5703 121.909L68.4018 121.723L68.5688 120.675L72.4742 113.282ZM72.91 115.472L71.1607 118.843L73.6589 119.241L73.0309 115.492L72.91 115.472Z" fill="#78FF85"/>
<path d="M95.3462 120.652L100.847 121.529L100.601 123.077L95.0995 122.2L97.4933 126.812L97.3083 127.973L96.1479 127.788L93.5853 122.575L89.5291 126.732L88.3687 126.548L88.5537 125.387L92.2629 121.748L86.8045 120.877L87.0512 119.33L92.5095 120.2L90.1157 115.588L90.3007 114.427L91.4611 114.612L94.0238 119.825L98.0799 115.667L99.2404 115.852L99.0554 117.013L95.3462 120.652Z" fill="#78FF85"/>
<path d="M116.197 121.684L113.202 121.207L113.424 119.81L120.811 120.987L120.589 122.384L117.607 121.909L116.443 129.381L114.979 129.147L116.197 121.684ZM126.404 125.528L126.971 121.969L128.395 122.196L126.981 131.061L125.558 130.834L126.183 126.912L122.597 126.34L121.972 130.262L120.535 130.033L121.948 121.169L123.385 121.398L122.817 124.957L126.404 125.528ZM136.622 123.508L136.402 124.891L131.177 124.058L130.826 126.261L135.245 126.965L135.024 128.349L130.606 127.644L130.205 130.156L135.43 130.989L135.209 132.372L128.588 131.317L130.001 122.452L136.622 123.508ZM149.409 134.636L144.695 133.884L146.108 125.02L150.822 125.771L152.424 128.161L151.675 132.862L149.409 134.636ZM147.282 126.639L146.314 132.71L149.027 133.143L150.364 132.102L150.942 128.476L149.995 127.072L147.282 126.639ZM159.437 136.234L152.506 135.129L152.693 133.961L158.646 128.492L158.653 128.452L154.167 127.737L154.389 126.34L160.85 127.37L160.663 128.538L154.723 134.009L154.717 134.05L159.659 134.837L159.437 136.234ZM167.517 137.522L160.533 136.409L160.753 135.026L163.587 135.477L164.559 129.38L161.752 128.932L161.973 127.549L168.903 128.654L168.683 130.037L165.969 129.604L164.997 135.702L167.737 136.139L167.517 137.522ZM176.861 131.575L176.497 133.858L174.706 135.156L173.779 135.009L175.798 137.809L175.637 138.817L174.643 138.658L171.939 134.715L170.797 134.533L170.252 137.958L168.855 137.736L170.268 128.871L175.546 129.712L176.861 131.575ZM171.442 130.491L171.009 133.204L174.313 133.73L175.19 133.071L175.372 131.93L174.746 131.017L171.442 130.491ZM184.509 132.119L181.077 134.726L183.889 139.113L183.731 140.107L182.67 139.938L179.98 135.556L178.744 136.489L178.305 139.242L176.908 139.019L178.321 130.155L179.718 130.377L179.052 134.555L183.599 130.996L184.661 131.165L184.509 132.119ZM188.765 131.82L190.431 132.085L191.844 140.326L191.677 141.374L190.508 141.187L190.181 139.179L186.797 138.64L185.861 140.446L184.693 140.26L184.86 139.213L188.765 131.82ZM189.201 134.01L187.452 137.381L189.95 137.779L189.322 134.029L189.201 134.01Z" fill="#78FF85"/>
<path d="M211.637 139.19L217.139 140.067L216.892 141.614L211.391 140.737L213.784 145.35L213.599 146.51L212.439 146.325L209.876 141.113L205.82 145.27L204.66 145.085L204.845 143.925L208.554 140.285L203.096 139.415L203.342 137.868L208.801 138.738L206.407 134.125L206.592 132.965L207.752 133.15L210.315 138.362L214.371 134.205L215.531 134.39L215.346 135.551L211.637 139.19Z" fill="#78FF85"/>
<path d="M232.49 140.222L229.495 139.744L229.717 138.347L237.104 139.525L236.882 140.922L233.9 140.446L232.736 147.918L231.272 147.685L232.49 140.222ZM242.696 144.066L243.264 140.507L244.688 140.734L243.274 149.598L241.851 149.371L242.476 145.449L238.89 144.878L238.265 148.8L236.828 148.57L238.241 139.706L239.678 139.935L239.11 143.494L242.696 144.066ZM252.915 142.045L252.695 143.429L247.47 142.596L247.119 144.799L251.538 145.503L251.317 146.886L246.899 146.182L246.498 148.693L251.723 149.526L251.502 150.91L244.881 149.854L246.294 140.99L252.915 142.045ZM265.702 153.173L260.988 152.422L262.401 143.557L267.115 144.309L268.717 146.699L267.968 151.4L265.702 153.173ZM263.575 145.177L262.607 151.248L265.32 151.68L266.657 150.64L267.235 147.013L266.288 145.609L263.575 145.177ZM275.73 154.772L268.799 153.667L268.985 152.498L274.939 147.03L274.946 146.989L270.46 146.274L270.682 144.877L277.143 145.907L276.956 147.076L271.016 152.547L271.01 152.587L275.952 153.375L275.73 154.772ZM283.81 156.06L276.826 154.946L277.046 153.563L279.88 154.015L280.852 147.917L278.045 147.47L278.266 146.086L285.196 147.191L284.975 148.574L282.262 148.142L281.29 154.24L284.03 154.676L283.81 156.06ZM293.154 150.112L292.79 152.395L290.999 153.694L290.072 153.546L292.091 156.347L291.93 157.354L290.936 157.196L288.232 153.253L287.09 153.071L286.545 156.496L285.148 156.273L286.561 147.409L291.839 148.25L293.154 150.112ZM287.735 149.028L287.302 151.741L290.606 152.268L291.483 151.609L291.665 150.467L291.039 149.555L287.735 149.028ZM300.801 150.656L297.37 153.263L300.182 157.65L300.024 158.644L298.963 158.475L296.273 154.094L295.037 155.026L294.598 157.779L293.201 157.557L294.614 148.692L296.011 148.915L295.345 153.092L299.892 149.534L300.954 149.703L300.801 150.656ZM305.058 150.357L306.724 150.623L308.137 158.863L307.97 159.911L306.801 159.725L306.474 157.717L303.09 157.177L302.154 158.984L300.986 158.798L301.153 157.75L305.058 150.357ZM305.494 152.548L303.745 155.918L306.243 156.317L305.615 152.567L305.494 152.548Z" fill="#78FF85"/>
<path d="M327.93 157.728L333.431 158.605L333.185 160.152L327.683 159.275L330.077 163.887L329.892 165.048L328.732 164.863L326.169 159.65L322.113 163.808L320.953 163.623L321.138 162.462L324.847 158.823L319.389 157.953L319.635 156.405L325.094 157.275L322.7 152.663L322.885 151.503L324.045 151.688L326.608 156.9L330.664 152.743L331.824 152.928L331.639 154.088L327.93 157.728Z" fill="#78FF85"/>
<path d="M697.656 214.372L694.661 213.895L694.883 212.498L702.27 213.675L702.048 215.072L699.066 214.597L697.902 222.069L696.438 221.835L697.656 214.372ZM707.862 218.216L708.43 214.657L709.854 214.884L708.44 223.749L707.017 223.522L707.642 219.6L704.056 219.028L703.431 222.95L701.994 222.721L703.407 213.856L704.844 214.085L704.276 217.645L707.862 218.216ZM718.081 216.196L717.861 217.579L712.636 216.746L712.285 218.949L716.704 219.653L716.483 221.037L712.065 220.332L711.664 222.844L716.889 223.677L716.668 225.06L710.047 224.005L711.46 215.14L718.081 216.196ZM730.868 227.324L726.154 226.572L727.567 217.708L732.281 218.459L733.883 220.849L733.134 225.55L730.868 227.324ZM728.741 219.327L727.773 225.398L730.486 225.83L731.823 224.79L732.401 221.164L731.454 219.76L728.741 219.327ZM740.896 228.922L733.965 227.817L734.152 226.649L740.105 221.18L740.112 221.14L735.626 220.425L735.848 219.028L742.309 220.058L742.122 221.226L736.182 226.697L736.176 226.737L741.118 227.525L740.896 228.922ZM748.976 230.21L741.992 229.097L742.212 227.713L745.046 228.165L746.018 222.067L743.211 221.62L743.432 220.237L750.362 221.341L750.142 222.725L747.428 222.292L746.456 228.39L749.196 228.827L748.976 230.21ZM758.32 224.263L757.956 226.546L756.165 227.844L755.238 227.696L757.257 230.497L757.096 231.505L756.102 231.346L753.398 227.403L752.256 227.221L751.711 230.646L750.314 230.423L751.727 221.559L757.005 222.4L758.32 224.263ZM752.901 223.178L752.468 225.891L755.772 226.418L756.649 225.759L756.831 224.617L756.205 223.705L752.901 223.178ZM765.968 224.807L762.536 227.414L765.348 231.801L765.19 232.795L764.129 232.626L761.439 228.244L760.203 229.176L759.764 231.93L758.367 231.707L759.78 222.843L761.177 223.065L760.511 227.242L765.058 223.684L766.12 223.853L765.968 224.807ZM770.224 224.508L771.89 224.773L773.303 233.014L773.136 234.061L771.967 233.875L771.64 231.867L768.256 231.328L767.32 233.134L766.152 232.948L766.319 231.9L770.224 224.508ZM770.66 226.698L768.911 230.069L771.409 230.467L770.781 226.717L770.66 226.698Z" fill="#78FF85"/>
<path d="M793.096 231.878L798.597 232.755L798.351 234.302L792.85 233.425L795.243 238.038L795.058 239.198L793.898 239.013L791.335 233.801L787.279 237.958L786.119 237.773L786.304 236.613L790.013 232.973L784.555 232.103L784.801 230.556L790.26 231.426L787.866 226.813L788.051 225.653L789.211 225.838L791.774 231.05L795.83 226.893L796.99 227.078L796.805 228.238L793.096 231.878Z" fill="#78FF85"/>
<path d="M1162.82 288.523L1159.83 288.045L1160.05 286.648L1167.44 287.826L1167.22 289.223L1164.23 288.747L1163.07 296.219L1161.61 295.986L1162.82 288.523ZM1173.03 292.367L1173.6 288.808L1175.02 289.035L1173.61 297.899L1172.18 297.672L1172.81 293.75L1169.22 293.179L1168.6 297.101L1167.16 296.871L1168.57 288.007L1170.01 288.236L1169.44 291.795L1173.03 292.367ZM1183.25 290.346L1183.03 291.73L1177.8 290.897L1177.45 293.1L1181.87 293.804L1181.65 295.187L1177.23 294.483L1176.83 296.995L1182.06 297.827L1181.84 299.211L1175.21 298.155L1176.63 289.291L1183.25 290.346ZM1196.04 301.474L1191.32 300.723L1192.73 291.858L1197.45 292.61L1199.05 295L1198.3 299.701L1196.04 301.474ZM1193.91 293.478L1192.94 299.549L1195.65 299.981L1196.99 298.941L1197.57 295.314L1196.62 293.91L1193.91 293.478ZM1206.06 303.073L1199.13 301.968L1199.32 300.799L1205.27 295.331L1205.28 295.29L1200.79 294.575L1201.02 293.178L1207.48 294.208L1207.29 295.377L1201.35 300.848L1201.34 300.888L1206.29 301.676L1206.06 303.073ZM1214.14 304.361L1207.16 303.247L1207.38 301.864L1210.21 302.316L1211.19 296.218L1208.38 295.771L1208.6 294.387L1215.53 295.492L1215.31 296.875L1212.6 296.443L1211.62 302.541L1214.36 302.977L1214.14 304.361ZM1223.49 298.413L1223.12 300.696L1221.33 301.995L1220.41 301.847L1222.42 304.648L1222.26 305.655L1221.27 305.497L1218.57 301.554L1217.42 301.372L1216.88 304.797L1215.48 304.574L1216.89 295.71L1222.17 296.551L1223.49 298.413ZM1218.07 297.329L1217.64 300.042L1220.94 300.569L1221.82 299.91L1222 298.768L1221.37 297.856L1218.07 297.329ZM1231.14 298.957L1227.7 301.564L1230.52 305.951L1230.36 306.945L1229.3 306.776L1226.61 302.395L1225.37 303.327L1224.93 306.08L1223.54 305.858L1224.95 296.993L1226.34 297.216L1225.68 301.393L1230.23 297.835L1231.29 298.004L1231.14 298.957ZM1235.39 298.658L1237.06 298.924L1238.47 307.164L1238.3 308.212L1237.14 308.026L1236.81 306.018L1233.42 305.478L1232.49 307.285L1231.32 307.099L1231.49 306.051L1235.39 298.658ZM1235.83 300.849L1234.08 304.219L1236.58 304.618L1235.95 300.868L1235.83 300.849Z" fill="#78FF85"/>
<path d="M348.781 158.759L345.786 158.282L346.008 156.885L353.395 158.062L353.173 159.459L350.191 158.984L349.027 166.456L347.563 166.222L348.781 158.759ZM358.987 162.603L359.555 159.044L360.979 159.271L359.565 168.136L358.142 167.909L358.767 163.987L355.181 163.415L354.556 167.337L353.119 167.108L354.532 158.244L355.969 158.473L355.401 162.032L358.987 162.603ZM369.206 160.583L368.986 161.966L363.761 161.133L363.41 163.336L367.829 164.04L367.608 165.424L363.19 164.719L362.789 167.231L368.014 168.064L367.793 169.447L361.172 168.392L362.585 159.527L369.206 160.583ZM381.993 171.711L377.279 170.959L378.692 162.095L383.406 162.846L385.008 165.236L384.259 169.937L381.993 171.711ZM379.866 163.714L378.898 169.785L381.611 170.218L382.948 169.177L383.526 165.551L382.579 164.147L379.866 163.714ZM392.021 173.309L385.09 172.204L385.277 171.036L391.23 165.567L391.237 165.527L386.751 164.812L386.973 163.415L393.434 164.445L393.247 165.613L387.307 171.084L387.301 171.125L392.243 171.912L392.021 173.309ZM400.101 174.597L393.117 173.484L393.337 172.101L396.171 172.552L397.143 166.455L394.336 166.007L394.557 164.624L401.487 165.729L401.267 167.112L398.553 166.679L397.581 172.777L400.321 173.214L400.101 174.597ZM409.445 168.65L409.081 170.933L407.29 172.231L406.363 172.084L408.382 174.884L408.221 175.892L407.227 175.733L404.523 171.79L403.381 171.608L402.836 175.033L401.439 174.811L402.852 165.946L408.13 166.787L409.445 168.65ZM404.026 167.566L403.593 170.279L406.897 170.805L407.774 170.146L407.956 169.005L407.33 168.092L404.026 167.566ZM417.093 169.194L413.661 171.801L416.473 176.188L416.315 177.182L415.254 177.013L412.564 172.631L411.328 173.564L410.889 176.317L409.492 176.094L410.905 167.23L412.302 167.452L411.636 171.63L416.183 168.071L417.245 168.24L417.093 169.194ZM421.349 168.895L423.015 169.16L424.428 177.401L424.261 178.449L423.092 178.262L422.765 176.254L419.381 175.715L418.445 177.521L417.277 177.335L417.444 176.288L421.349 168.895ZM421.785 171.085L420.036 174.456L422.534 174.854L421.906 171.104L421.785 171.085Z" fill="#78FF85"/>
<path d="M444.221 176.265L449.722 177.142L449.476 178.689L443.975 177.812L446.368 182.425L446.183 183.585L445.023 183.4L442.46 178.188L438.404 182.345L437.244 182.16L437.429 181L441.138 177.36L435.68 176.49L435.926 174.943L441.385 175.813L438.991 171.2L439.176 170.04L440.336 170.225L442.899 175.437L446.955 171.28L448.115 171.465L447.93 172.626L444.221 176.265Z" fill="#78FF85"/>
<path d="M813.949 232.91L810.954 232.432L811.176 231.035L818.563 232.213L818.341 233.61L815.359 233.134L814.195 240.606L812.731 240.373L813.949 232.91ZM824.155 236.754L824.723 233.195L826.146 233.422L824.733 242.286L823.31 242.059L823.935 238.137L820.349 237.566L819.724 241.487L818.287 241.258L819.7 232.394L821.137 232.623L820.569 236.182L824.155 236.754ZM834.374 234.733L834.154 236.117L828.929 235.284L828.578 237.486L832.997 238.191L832.776 239.574L828.358 238.87L827.957 241.381L833.182 242.214L832.961 243.598L826.34 242.542L827.753 233.678L834.374 234.733ZM847.161 245.861L842.447 245.11L843.86 236.245L848.574 236.997L850.176 239.387L849.427 244.088L847.161 245.861ZM845.034 237.865L844.066 243.935L846.779 244.368L848.116 243.328L848.694 239.701L847.747 238.297L845.034 237.865ZM857.189 247.46L850.258 246.355L850.444 245.186L856.398 239.718L856.405 239.677L851.919 238.962L852.141 237.565L858.602 238.595L858.415 239.764L852.475 245.235L852.469 245.275L857.411 246.063L857.189 247.46ZM865.269 248.748L858.285 247.634L858.505 246.251L861.339 246.703L862.311 240.605L859.504 240.158L859.725 238.774L866.655 239.879L866.434 241.262L863.721 240.83L862.749 246.927L865.489 247.364L865.269 248.748ZM874.613 242.8L874.249 245.083L872.458 246.382L871.531 246.234L873.55 249.035L873.389 250.042L872.395 249.884L869.691 245.941L868.549 245.759L868.003 249.184L866.607 248.961L868.02 240.096L873.298 240.938L874.613 242.8ZM869.194 241.716L868.761 244.429L872.065 244.956L872.942 244.297L873.124 243.155L872.498 242.243L869.194 241.716ZM882.26 243.344L878.829 245.951L881.641 250.338L881.483 251.332L880.422 251.163L877.732 246.782L876.496 247.714L876.057 250.467L874.66 250.245L876.073 241.38L877.47 241.603L876.804 245.78L881.351 242.222L882.412 242.391L882.26 243.344ZM886.517 243.045L888.183 243.311L889.596 251.551L889.429 252.599L888.26 252.413L887.933 250.405L884.549 249.865L883.613 251.672L882.445 251.486L882.612 250.438L886.517 243.045ZM886.953 245.235L885.204 248.606L887.702 249.004L887.074 245.255L886.953 245.235Z" fill="#78FF85"/>
<path d="M909.389 250.415L914.89 251.292L914.644 252.84L909.142 251.963L911.536 256.575L911.351 257.736L910.191 257.551L907.628 252.338L903.572 256.496L902.412 256.311L902.597 255.15L906.306 251.511L900.848 250.64L901.094 249.093L906.552 249.963L904.159 245.351L904.344 244.19L905.504 244.375L908.067 249.588L912.123 245.431L913.283 245.615L913.098 246.776L909.389 250.415Z" fill="#78FF85"/>
<path d="M465.074 177.297L462.079 176.82L462.301 175.423L469.688 176.6L469.466 177.997L466.484 177.522L465.32 184.994L463.856 184.76L465.074 177.297ZM475.28 181.141L475.848 177.582L477.271 177.809L475.858 186.674L474.435 186.447L475.06 182.525L471.474 181.953L470.849 185.875L469.412 185.646L470.825 176.781L472.262 177.01L471.694 180.57L475.28 181.141ZM485.499 179.121L485.279 180.504L480.054 179.671L479.703 181.874L484.122 182.578L483.901 183.962L479.483 183.257L479.082 185.769L484.307 186.602L484.086 187.985L477.465 186.93L478.878 178.065L485.499 179.121ZM498.286 190.249L493.572 189.497L494.985 180.633L499.699 181.384L501.301 183.774L500.552 188.475L498.286 190.249ZM496.159 182.252L495.191 188.323L497.904 188.755L499.241 187.715L499.819 184.089L498.872 182.685L496.159 182.252ZM508.314 191.847L501.383 190.742L501.569 189.574L507.523 184.105L507.53 184.065L503.044 183.35L503.266 181.953L509.727 182.983L509.54 184.151L503.6 189.622L503.594 189.662L508.536 190.45L508.314 191.847ZM516.394 193.135L509.41 192.022L509.63 190.638L512.464 191.09L513.436 184.992L510.629 184.545L510.85 183.162L517.78 184.266L517.559 185.65L514.846 185.217L513.874 191.315L516.614 191.752L516.394 193.135ZM525.738 187.188L525.374 189.471L523.583 190.769L522.656 190.621L524.675 193.422L524.514 194.43L523.52 194.271L520.816 190.328L519.674 190.146L519.128 193.571L517.732 193.348L519.145 184.484L524.423 185.325L525.738 187.188ZM520.319 186.103L519.886 188.816L523.19 189.343L524.067 188.684L524.249 187.542L523.623 186.63L520.319 186.103ZM533.385 187.732L529.954 190.339L532.766 194.726L532.608 195.72L531.547 195.551L528.857 191.169L527.621 192.101L527.182 194.855L525.785 194.632L527.198 185.768L528.595 185.99L527.929 190.167L532.476 186.609L533.537 186.778L533.385 187.732ZM537.642 187.433L539.308 187.698L540.721 195.939L540.554 196.986L539.385 196.8L539.058 194.792L535.674 194.253L534.738 196.059L533.57 195.873L533.737 194.825L537.642 187.433ZM538.078 189.623L536.329 192.994L538.827 193.392L538.199 189.642L538.078 189.623Z" fill="#78FF85"/>
<path d="M560.514 194.803L566.015 195.68L565.769 197.227L560.267 196.35L562.661 200.963L562.476 202.123L561.316 201.938L558.753 196.726L554.697 200.883L553.537 200.698L553.722 199.538L557.431 195.898L551.973 195.028L552.219 193.481L557.677 194.351L555.284 189.738L555.469 188.578L556.629 188.763L559.192 193.975L563.248 189.818L564.408 190.003L564.223 191.163L560.514 194.803Z" fill="#78FF85"/>
<path d="M930.24 251.447L927.245 250.97L927.467 249.573L934.854 250.751L934.632 252.147L931.65 251.672L930.486 259.144L929.022 258.911L930.24 251.447ZM940.446 255.292L941.014 251.733L942.438 251.959L941.024 260.824L939.601 260.597L940.226 256.675L936.64 256.103L936.015 260.025L934.578 259.796L935.991 250.932L937.428 251.161L936.86 254.72L940.446 255.292ZM950.665 253.271L950.445 254.654L945.22 253.822L944.869 256.024L949.288 256.729L949.067 258.112L944.649 257.408L944.248 259.919L949.473 260.752L949.252 262.135L942.631 261.08L944.044 252.216L950.665 253.271ZM963.452 264.399L958.738 263.647L960.151 254.783L964.865 255.535L966.467 257.925L965.718 262.625L963.452 264.399ZM961.325 256.403L960.357 262.473L963.07 262.906L964.407 261.866L964.985 258.239L964.038 256.835L961.325 256.403ZM973.48 265.997L966.549 264.893L966.735 263.724L972.689 258.255L972.696 258.215L968.21 257.5L968.432 256.103L974.893 257.133L974.706 258.302L968.766 263.772L968.76 263.813L973.702 264.601L973.48 265.997ZM981.56 267.285L974.576 266.172L974.796 264.789L977.63 265.241L978.602 259.143L975.795 258.695L976.016 257.312L982.946 258.417L982.725 259.8L980.012 259.368L979.04 265.465L981.78 265.902L981.56 267.285ZM990.904 261.338L990.54 263.621L988.749 264.92L987.822 264.772L989.841 267.573L989.68 268.58L988.686 268.422L985.982 264.478L984.84 264.297L984.295 267.721L982.898 267.499L984.311 258.634L989.589 259.476L990.904 261.338ZM985.485 260.254L985.052 262.967L988.356 263.494L989.233 262.834L989.415 261.693L988.789 260.78L985.485 260.254ZM998.551 261.882L995.12 264.489L997.932 268.876L997.774 269.87L996.713 269.701L994.023 265.32L992.787 266.252L992.348 269.005L990.951 268.783L992.364 259.918L993.761 260.141L993.095 264.318L997.642 260.759L998.704 260.929L998.551 261.882ZM1002.81 261.583L1004.47 261.848L1005.89 270.089L1005.72 271.137L1004.55 270.95L1004.22 268.943L1000.84 268.403L999.904 270.21L998.736 270.023L998.903 268.976L1002.81 261.583ZM1003.24 263.773L1001.49 267.144L1003.99 267.542L1003.36 263.793L1003.24 263.773Z" fill="#78FF85"/>
<path d="M1025.68 268.953L1031.18 269.83L1030.93 271.378L1025.43 270.501L1027.83 275.113L1027.64 276.273L1026.48 276.088L1023.92 270.876L1019.86 275.033L1018.7 274.848L1018.89 273.688L1022.6 270.048L1017.14 269.178L1017.39 267.631L1022.84 268.501L1020.45 263.889L1020.63 262.728L1021.8 262.913L1024.36 268.126L1028.41 263.968L1029.57 264.153L1029.39 265.314L1025.68 268.953Z" fill="#78FF85"/>
<path d="M581.365 195.835L578.37 195.357L578.592 193.96L585.979 195.138L585.757 196.535L582.775 196.059L581.611 203.531L580.147 203.298L581.365 195.835ZM591.571 199.679L592.139 196.12L593.563 196.347L592.149 205.211L590.726 204.984L591.351 201.062L587.765 200.491L587.14 204.412L585.703 204.183L587.116 195.319L588.553 195.548L587.985 199.107L591.571 199.679ZM601.79 197.658L601.57 199.042L596.345 198.209L595.994 200.411L600.413 201.116L600.192 202.499L595.774 201.795L595.373 204.306L600.598 205.139L600.377 206.523L593.756 205.467L595.169 196.603L601.79 197.658ZM614.577 208.786L609.863 208.035L611.276 199.17L615.99 199.922L617.592 202.312L616.843 207.013L614.577 208.786ZM612.45 200.79L611.482 206.86L614.195 207.293L615.532 206.253L616.11 202.626L615.163 201.222L612.45 200.79ZM624.605 210.385L617.674 209.28L617.86 208.111L623.814 202.643L623.821 202.602L619.335 201.887L619.557 200.49L626.018 201.52L625.831 202.689L619.891 208.16L619.885 208.2L624.827 208.988L624.605 210.385ZM632.685 211.673L625.701 210.559L625.921 209.176L628.755 209.628L629.727 203.53L626.92 203.083L627.141 201.699L634.071 202.804L633.85 204.187L631.137 203.755L630.165 209.852L632.905 210.289L632.685 211.673ZM642.029 205.725L641.665 208.008L639.874 209.307L638.947 209.159L640.966 211.96L640.805 212.967L639.811 212.809L637.107 208.866L635.965 208.684L635.42 212.109L634.023 211.886L635.436 203.021L640.714 203.863L642.029 205.725ZM636.61 204.641L636.177 207.354L639.481 207.881L640.358 207.222L640.54 206.08L639.914 205.168L636.61 204.641ZM649.676 206.269L646.245 208.876L649.057 213.263L648.899 214.257L647.838 214.088L645.148 209.707L643.912 210.639L643.473 213.392L642.076 213.17L643.489 204.305L644.886 204.528L644.22 208.705L648.767 205.147L649.829 205.316L649.676 206.269ZM653.933 205.97L655.599 206.236L657.012 214.476L656.845 215.524L655.676 215.338L655.349 213.33L651.965 212.79L651.029 214.597L649.861 214.411L650.028 213.363L653.933 205.97ZM654.369 208.16L652.62 211.531L655.118 211.929L654.49 208.18L654.369 208.16Z" fill="#78FF85"/>
<path d="M676.805 213.34L682.306 214.217L682.06 215.765L676.558 214.888L678.952 219.5L678.767 220.661L677.607 220.476L675.044 215.263L670.988 219.421L669.828 219.236L670.013 218.075L673.722 214.436L668.264 213.565L668.51 212.018L673.969 212.888L671.575 208.276L671.76 207.115L672.92 207.3L675.483 212.513L679.539 208.355L680.699 208.54L680.514 209.701L676.805 213.34Z" fill="#78FF85"/>
<path d="M1046.53 269.985L1043.54 269.508L1043.76 268.111L1051.15 269.288L1050.92 270.685L1047.94 270.21L1046.78 277.682L1045.31 277.448L1046.53 269.985ZM1056.74 273.829L1057.3 270.27L1058.73 270.497L1057.32 279.362L1055.89 279.135L1056.52 275.213L1052.93 274.641L1052.31 278.563L1050.87 278.334L1052.28 269.469L1053.72 269.699L1053.15 273.258L1056.74 273.829ZM1066.96 271.809L1066.74 273.192L1061.51 272.359L1061.16 274.562L1065.58 275.266L1065.36 276.65L1060.94 275.945L1060.54 278.457L1065.76 279.29L1065.54 280.673L1058.92 279.618L1060.34 270.753L1066.96 271.809ZM1079.74 282.937L1075.03 282.185L1076.44 273.321L1081.16 274.072L1082.76 276.462L1082.01 281.163L1079.74 282.937ZM1077.62 274.94L1076.65 281.011L1079.36 281.443L1080.7 280.403L1081.28 276.777L1080.33 275.373L1077.62 274.94ZM1089.77 284.535L1082.84 283.43L1083.03 282.262L1088.98 276.793L1088.99 276.753L1084.5 276.038L1084.72 274.641L1091.18 275.671L1091 276.839L1085.06 282.31L1085.05 282.35L1089.99 283.138L1089.77 284.535ZM1097.85 285.823L1090.87 284.71L1091.09 283.326L1093.92 283.778L1094.89 277.681L1092.09 277.233L1092.31 275.85L1099.24 276.954L1099.02 278.338L1096.3 277.905L1095.33 284.003L1098.07 284.44L1097.85 285.823ZM1107.19 279.876L1106.83 282.159L1105.04 283.457L1104.11 283.309L1106.13 286.11L1105.97 287.118L1104.98 286.959L1102.27 283.016L1101.13 282.834L1100.59 286.259L1099.19 286.036L1100.6 277.172L1105.88 278.013L1107.19 279.876ZM1101.78 278.791L1101.34 281.505L1104.65 282.031L1105.52 281.372L1105.71 280.23L1105.08 279.318L1101.78 278.791ZM1114.84 280.42L1111.41 283.027L1114.22 287.414L1114.06 288.408L1113 288.239L1110.31 283.857L1109.08 284.789L1108.64 287.543L1107.24 287.32L1108.66 278.456L1110.05 278.678L1109.39 282.855L1113.93 279.297L1114.99 279.466L1114.84 280.42ZM1119.1 280.121L1120.76 280.386L1122.18 288.627L1122.01 289.674L1120.84 289.488L1120.52 287.48L1117.13 286.941L1116.2 288.747L1115.03 288.561L1115.19 287.513L1119.1 280.121ZM1119.54 282.311L1117.79 285.682L1120.28 286.08L1119.66 282.33L1119.54 282.311Z" fill="#78FF85"/>
<path d="M1141.97 287.491L1147.47 288.368L1147.23 289.915L1141.72 289.038L1144.12 293.651L1143.93 294.811L1142.77 294.626L1140.21 289.414L1136.15 293.571L1134.99 293.386L1135.18 292.226L1138.89 288.586L1133.43 287.716L1133.68 286.169L1139.13 287.039L1136.74 282.426L1136.93 281.266L1138.09 281.451L1140.65 286.663L1144.7 282.506L1145.87 282.691L1145.68 283.851L1141.97 287.491Z" fill="#78FF85"/>
</g>
</g>
<defs>
<filter id="filter0_d_67_3866" x="-555.778" y="0.221818" width="2147.98" height="379.551" filterUnits="userSpaceOnUse" color-interpolation-filters="sRGB">
<feFlood flood-opacity="0" result="BackgroundImageFix"/>
<feColorMatrix in="SourceAlpha" type="matrix" values="0 0 0 0 0 0 0 0 0 0 0 0 0 0 0 0 0 0 127 0" result="hardAlpha"/>
<feOffset/>
<feGaussianBlur stdDeviation="1.88909"/>
<feComposite in2="hardAlpha" operator="out"/>
<feColorMatrix type="matrix" values="0 0 0 0 0.470588 0 0 0 0 1 0 0 0 0 0.521569 0 0 0 1 0"/>
<feBlend mode="normal" in2="BackgroundImageFix" result="effect1_dropShadow_67_3866"/>
<feBlend mode="normal" in="SourceGraphic" in2="effect1_dropShadow_67_3866" result="shape"/>
</filter>
<filter id="filter1_d_67_3866" x="-582.745" y="-0.298706" width="2203.25" height="388.266" filterUnits="userSpaceOnUse" color-interpolation-filters="sRGB">
<feFlood flood-opacity="0" result="BackgroundImageFix"/>
<feColorMatrix in="SourceAlpha" type="matrix" values="0 0 0 0 0 0 0 0 0 0 0 0 0 0 0 0 0 0 127 0" result="hardAlpha"/>
<feOffset dy="3.77818"/>
<feGaussianBlur stdDeviation="1.88909"/>
<feComposite in2="hardAlpha" operator="out"/>
<feColorMatrix type="matrix" values="0 0 0 0 0 0 0 0 0 0 0 0 0 0 0 0 0 0 0.25 0"/>
<feBlend mode="normal" in2="BackgroundImageFix" result="effect1_dropShadow_67_3866"/>
<feBlend mode="normal" in="SourceGraphic" in2="effect1_dropShadow_67_3866" result="shape"/>
</filter>
</defs>
</svg>
