<svg width="120" height="39" viewBox="0 0 120 39" fill="none" xmlns="http://www.w3.org/2000/svg">
<path d="M4.464 13.992H0.45V12.12H10.35V13.992H6.354L6.39 24H4.428L4.464 13.992ZM13.925 24H12.053V11.49H13.799V15.972H13.907L15.257 14.91H18.875L20.333 17.358V24H18.461V17.898L17.813 16.8H15.743L13.925 18.06V24ZM29.5239 24H24.8079L22.6659 21.786V17.106L24.8079 14.91H29.2539L31.3959 17.106V20.238H24.4839V21.102L25.5459 22.146H28.7139L29.7759 21.066L31.3599 22.11L29.5239 24ZM24.4839 17.808V18.636H29.5779V17.808L28.5339 16.764H25.5459L24.4839 17.808ZM50.5699 24H44.2519V12.12H50.5699L53.1619 14.91V21.21L50.5699 24ZM46.1239 13.992V22.128H49.7599L51.2899 20.49V15.63L49.7599 13.992H46.1239ZM63.8648 24H54.9548V22.686L60.8948 16.782H55.2968V14.91H63.8108V16.458L58.2308 22.128H63.8648V24ZM74.6218 24H65.6938V22.128H69.5458V16.872H65.8738V15H71.4718V22.128H74.6218V24ZM71.3818 13.578H69.2938V11.508H71.3818V13.578ZM84.2988 24H76.3608V22.128H78.5568V16.782H76.3608V14.91H80.0328V16.026H80.1408L81.5988 14.91H85.5408V16.8H82.1388L80.4288 18.15V22.128H84.2988V24ZM95.5238 16.278L92.5538 18.69L96.3338 22.614V24H94.9658L91.1138 19.878L89.4938 21.192V23.964H87.6038V11.49H89.4938V18.798L94.1558 14.91H95.5238V16.278ZM103.851 24H100.359L98.2167 21.786V17.106L100.359 14.91H103.923L104.967 15.702H105.021L105.111 14.91H106.677V24H105.075L105.057 23.1H105.003L103.851 24ZM100.071 21.012L101.169 22.146H103.455L104.859 21.048V17.844L103.383 16.764H101.169L100.071 17.898V21.012Z" fill="#0D0D0E"/>
<g filter="url(#filter0_f_67_3858)">
<path d="M37.2156 21.1411C39.1272 21.3379 41.3364 18.3254 39.9743 16.6744C39.2748 15.8265 37.7948 15.8784 36.7787 15.7738C36.5324 15.7484 36.1015 16.3256 35.8517 16.5259C35.3982 16.8895 35.4151 17.6597 35.3595 18.2001C35.2477 19.2859 35.0967 20.2621 35.8169 21.135C36.6414 22.1344 38.1782 22.0151 38.8935 20.959C39.3387 20.3016 40.1427 18.5707 39.6235 17.7521C39.0954 16.9195 38.0669 17.5836 37.541 17.9812C37.0389 18.3607 36.3779 18.7485 37.3715 18.8508C37.8586 18.9009 38.6881 19.0711 38.76 18.3728C38.824 17.7509 37.2172 17.4156 36.7446 17.3669C35.7712 17.2667 36.0523 18.4608 35.9722 19.2389C35.9021 19.9191 36.9724 19.948 37.4393 19.7448C37.5975 19.6759 38.7047 19.1603 38.4198 18.9587C37.4783 18.2926 37.2729 18.8373 37.1862 19.6793C37.1483 20.0473 37.0558 20.2375 37.4939 20.2827C37.8301 20.3173 38.7749 20.6116 38.9254 20.1639C39.1044 19.6313 39.2265 19.0841 39.285 18.5156C39.3245 18.1326 39.1927 17.2916 38.6995 17.2134C38.4705 17.1771 38.1356 17.102 37.9072 17.1417C37.6927 17.179 37.7432 17.7367 37.4611 17.7857C36.2823 17.9905 36.2382 20.3308 37.2879 20.4389C38.0551 20.5179 38.7795 20.3525 39.3967 19.8576C39.7497 19.5746 39.9567 17.2727 39.7602 17.0072C39.245 16.3112 36.784 17.2403 36.4909 17.6956" stroke="#FF7EFA" stroke-width="2"/>
</g>
<g filter="url(#filter1_f_67_3858)">
<path d="M38.0101 25.0585C37.8816 26.3058 38.6482 27.7126 38.8534 28.8457C39.0002 29.6566 40.2269 30.8679 40.8578 31.3529C41.6714 31.9784 42.97 32.2989 43.9832 32.4033C45.1643 32.5249 46.2066 32.8047 47.4247 32.9302C48.8463 33.0765 49.8599 33.1017 51.2097 32.668C51.7767 32.4858 52.8348 32.364 53.2897 31.8947C53.8104 31.3576 54.4104 30.7729 54.954 30.2542C55.4382 29.7922 55.6721 29.0315 56.0506 28.469C56.9378 27.1508 57.9304 25.9811 58.527 24.5059C58.6214 24.2726 58.9904 24.0097 59.1251 23.6951C59.3146 23.2528 59.6096 22.923 59.8104 22.5098C60.0995 21.9147 60.4754 21.3024 60.6619 20.7473C61.8609 17.177 62.6318 12.4666 60.0072 9.28147C59.2201 8.32639 57.8072 6.9767 56.4978 6.77275C55.585 6.63058 54.4454 6.02644 53.5502 5.69274C52.8034 5.41439 52.18 5.29283 51.3762 5.21006C50.041 5.07259 48.18 4.66022 47.0895 5.53561C46.0115 6.40088 44.7842 7.09011 43.7036 7.95751C42.7428 8.72873 41.8527 9.53024 40.8887 10.304C40.5507 10.5753 40.2626 11.2155 39.8751 11.2829C39.552 11.3391 38.9658 12.3815 38.93 12.729" stroke="#545454" stroke-width="2"/>
</g>
<defs>
<filter id="filter0_f_67_3858" x="32.2627" y="12.7729" width="11.1348" height="12.0493" filterUnits="userSpaceOnUse" color-interpolation-filters="sRGB">
<feFlood flood-opacity="0" result="BackgroundImageFix"/>
<feBlend mode="normal" in="SourceGraphic" in2="BackgroundImageFix" result="shape"/>
<feGaussianBlur stdDeviation="1" result="effect1_foregroundBlur_67_3858"/>
</filter>
<filter id="filter1_f_67_3858" x="32.9961" y="-0.00769043" width="33.7725" height="38.0338" filterUnits="userSpaceOnUse" color-interpolation-filters="sRGB">
<feFlood flood-opacity="0" result="BackgroundImageFix"/>
<feBlend mode="normal" in="SourceGraphic" in2="BackgroundImageFix" result="shape"/>
<feGaussianBlur stdDeviation="2" result="effect1_foregroundBlur_67_3858"/>
</filter>
</defs>
</svg>
