<svg width="72" height="54" viewBox="0 0 72 54" fill="none" xmlns="http://www.w3.org/2000/svg">
<g filter="url(#filter0_f_63_1273)">
<path d="M31.0997 15.8085C35.6227 19.6581 40.068 24.0603 44.9887 27.4403C45.3644 27.6983 45.803 27.8977 46.2413 28.0114C47.9931 28.4656 48.5491 30.7759 50.1231 31.4979C50.1798 31.5239 49.7919 29.6447 49.7861 29.3793C49.7659 28.4582 49.5431 27.7389 49.4118 26.8528C48.8798 23.2619 48.9742 19.2871 48.7336 15.6401C48.6294 14.0614 47.9188 6.23075 45.393 5.81552C44.8154 5.72056 43.7538 6.97863 43.4838 7.29098C41.0528 10.1026 38.8033 13.0975 36.4175 15.9524C32.6601 20.4486 28.5572 24.6522 24.8451 29.1681C20.7278 34.177 15.8281 38.262 11.0383 42.6006C9.48373 44.0088 7.96877 45.4609 6.55742 47.0129C6.20085 47.405 5.15084 48.4527 5.66505 48.3269C8.34201 47.672 11.1114 45.8664 13.572 44.7152C32.1204 36.0368 48.7843 24.5056 65.4494 12.7097C67.8683 10.9976 65.1768 10.6734 63.4302 10.7893C58.5608 11.1124 53.7469 12.7069 48.9968 13.7479C44.9787 14.6285 42.2719 15.0629 38.1341 14.7374C32.7418 14.3133 27.5763 13.6612 22.5929 11.7808" stroke="#78FF85" stroke-opacity="0.7" stroke-width="3" stroke-linecap="round"/>
</g>
<defs>
<filter id="filter0_f_63_1273" x="0.0253906" y="0.310303" width="71.8867" height="53.527" filterUnits="userSpaceOnUse" color-interpolation-filters="sRGB">
<feFlood flood-opacity="0" result="BackgroundImageFix"/>
<feBlend mode="normal" in="SourceGraphic" in2="BackgroundImageFix" result="shape"/>
<feGaussianBlur stdDeviation="2" result="effect1_foregroundBlur_63_1273"/>
</filter>
</defs>
</svg>
