<svg width="120" height="114" viewBox="0 0 120 114" fill="none" xmlns="http://www.w3.org/2000/svg">
<g filter="url(#filter0_f_63_1278)">
<path d="M24.8291 21.4192C30.493 16.3383 35.9008 9.71448 43.7691 8.53992C48.8565 7.7805 54.2337 8.23473 59.3597 8.23473C67.7022 8.23473 76.5987 7.33494 84.816 9.05875C97.1771 11.6518 103.533 25.4716 109.511 35.4582C111.672 39.0672 111.43 44.8321 111.43 48.8867C111.43 53.8318 111.978 58.7524 111.978 63.7192C111.978 68.5419 112.147 73.3441 111.551 78.1245C111.2 80.9449 111.547 83.6138 110.212 86.2427C108.704 89.2102 106.247 92.059 103.878 94.3609C99.2068 98.8985 91.9368 101.53 85.6077 102.418C79.8452 103.227 73.9309 103.108 68.1293 103.822C60.6055 104.748 52.9691 105.801 45.383 105.989C37.6194 106.181 29.1427 103.897 22.6672 99.4881C19.5103 97.339 17.8718 93.8085 16.029 90.607C12.4164 84.3308 9.965 77.1924 8.96456 70.0063C8.1226 63.9585 7.13039 55.6136 9.36042 49.8023C11.7399 43.6015 14.8405 39.0779 19.2263 34.0543C25.156 27.2621 32.9876 22.8927 39.7497 17.0244C43.5441 13.7315 47.7834 10.4652 52.2343 8.23473" stroke="#78FF85" stroke-opacity="0.71" stroke-width="3" stroke-linecap="round"/>
</g>
<defs>
<filter id="filter0_f_63_1278" x="0.5" y="0.500153" width="119" height="113" filterUnits="userSpaceOnUse" color-interpolation-filters="sRGB">
<feFlood flood-opacity="0" result="BackgroundImageFix"/>
<feBlend mode="normal" in="SourceGraphic" in2="BackgroundImageFix" result="shape"/>
<feGaussianBlur stdDeviation="3" result="effect1_foregroundBlur_63_1278"/>
</filter>
</defs>
</svg>
