<svg width="241" height="111" viewBox="0 0 241 111" fill="none" xmlns="http://www.w3.org/2000/svg">
<g filter="url(#filter0_f_901_5371)">
<path d="M10 54.8016C11.9526 54.8016 13.9051 54.8016 15.8577 54.8016C17.5185 54.8016 19.091 55.6196 20.747 55.6483C21.6782 55.6644 22.6115 55.6483 23.543 55.6483C24.138 55.6483 25.0227 55.8238 25.5893 55.6169C26.4362 55.3078 26.7085 51.8653 26.9327 51.1326C27.4883 49.3171 28.0537 47.2855 29.2446 45.7703C30.6454 43.9878 32.6336 42.7387 34.3056 41.2389C36.8623 38.9456 37.7791 36.3192 39.1792 33.3522C40.3043 30.9681 38.2844 38.5845 37.3516 41.0508C34.3368 49.0223 31.2553 57.0574 29.9631 65.5263C29.6836 67.3582 29.707 69.2183 29.4008 71.0455C29.1579 72.4944 28.4759 73.7933 28.2761 75.2476C28.1627 76.0724 27.8087 76.7484 27.5888 77.5368C27.5467 77.6877 27.3357 79.4151 27.2139 79.2928C26.1478 78.2227 28.099 73.2341 28.4323 72.0176C29.2031 69.2041 29.8182 65.7699 31.3065 63.2685C32.8515 60.6717 34.4657 58.0374 35.5865 55.225C35.992 54.2074 36.2296 52.803 36.8518 51.9009C37.1477 51.4718 38.3204 51.6971 38.7419 51.6971C42.6257 51.6971 46.5431 51.5472 50.4261 51.6971C50.7381 51.7091 51.0346 52.0291 51.3321 51.9793C52.0076 51.8663 52.9539 48.7656 53.1284 48.2476C55.0477 42.5519 54.9291 36.1492 57.5178 30.6553C57.77 30.1202 57.9608 29.1024 58.2051 29.9968C58.8181 32.2409 59.2356 34.5534 59.611 36.8487C60.5986 42.8867 61.1475 48.8975 61.173 55.0211C61.1938 60.0156 61.2889 64.6183 62.1415 69.5089C62.537 71.7776 63.1412 78.6483 63.1412 76.3451C63.1412 71.7098 64.9604 67.1177 65.8123 62.5786C66.2912 60.0274 67.786 57.3786 67.9211 54.8016C67.9668 53.9309 68.6318 52.8165 69.1864 52.1361C69.8472 51.3254 70.1071 51.5546 71.0921 52.2302C73.3248 53.7616 75.029 55.4072 77.8246 55.8051C81.7173 56.3591 85.4566 55.6483 89.2901 55.6483C90.271 55.6483 91.2972 55.8992 92.2267 55.8992C92.487 55.8992 92.9118 52.2281 92.9765 51.9323C93.6957 48.6437 94.7601 45.5812 96.3193 42.603C97.3226 40.6868 98.3768 38.7964 99.3497 36.8644C99.7872 35.9958 100.537 33.2256 100.537 34.1989C100.537 37.8257 100.568 41.4538 100.537 45.0804C100.48 51.7379 99.2523 58.2302 98.4437 64.8208C97.6666 71.155 96.5642 90.2767 96.8817 83.9026C97.1165 79.1885 98.2641 74.1196 99.4591 69.5716C101.194 62.9691 104.361 56.8611 106.004 50.2232C107.106 45.7723 108.728 41.5616 110.378 37.3034C111.51 34.3807 112.759 31.7184 113.205 28.5857C113.884 23.8143 113.266 38.2356 112.908 43.0421C112.835 44.0309 111.287 52.3975 112.612 52.9671C115.015 54.001 118.514 53.6824 121.062 53.9706C124.016 54.3047 127.589 54.3756 130.278 55.8051C131.085 56.2339 131.86 50.9288 132.028 50.2546C133.485 44.4036 134.768 38.3122 135.621 32.3487C136.46 26.4802 136.669 20.4575 137.792 14.6467C137.837 14.4115 138.693 11.2074 138.76 12.185C139.009 15.809 138.776 19.5334 138.776 23.1606C138.776 31.6275 138.776 40.0943 138.776 48.5612C138.776 58.325 138.748 67.9295 137.105 77.5838C135.947 84.3829 135.035 91.4277 133.434 98.1395C133.149 99.3322 133.128 99.2801 133.153 98.0141C133.217 94.6927 134.349 91.5343 135.09 88.3242C136.74 81.1707 137.57 73.8916 139.057 66.718C139.54 64.3884 141.271 60.8105 140.729 58.3608C140.5 57.3272 139.704 56.174 140.307 54.9271C141.111 53.2652 144.168 55.1179 145.196 55.3504C148.44 56.0841 151.89 55.9715 155.193 55.9149C157.889 55.8686 160.677 55.7825 163.238 54.8643C163.628 54.7244 164.383 55.0063 164.644 54.6135C165.536 53.2701 165.478 50.6452 165.784 49.11C165.941 48.3233 167.732 38.5085 168.736 38.6205C169.135 38.665 169.847 47.1095 169.924 47.6832C170.823 54.4279 171.848 61.1563 171.939 67.9723C171.973 70.5538 171.954 73.1362 171.954 75.7179C171.954 77.2253 172.981 72.8802 173.36 71.4218C174.284 67.871 174.843 64.2313 175.953 60.7284C176.924 57.6654 178.349 54.7605 179.796 51.9009C179.919 51.6565 181.319 48.8118 181.373 48.8905C181.723 49.397 181.744 50.416 181.858 50.9758C182.176 52.5497 182.566 54.1146 183.139 55.6169C184.553 59.3279 186.068 56.9062 188.481 55.6953C189.55 55.1585 190.875 55.35 192.042 55.3661C194.066 55.3939 196.061 55.743 198.072 55.9305C202.682 56.3604 207.335 56.2128 211.959 56.2128C218.321 56.2128 224.626 55.9305 231 55.9305" stroke="#FF7EFA" stroke-width="4"/>
</g>
<defs>
<filter id="filter0_f_901_5371" x="0" y="-0.000366211" width="241" height="111" filterUnits="userSpaceOnUse" color-interpolation-filters="sRGB">
<feFlood flood-opacity="0" result="BackgroundImageFix"/>
<feBlend mode="normal" in="SourceGraphic" in2="BackgroundImageFix" result="shape"/>
<feGaussianBlur stdDeviation="5" result="effect1_foregroundBlur_901_5371"/>
</filter>
</defs>
</svg>
